<svg width="75" height="75" viewBox="0 0 75 75" fill="none" xmlns="http://www.w3.org/2000/svg">
<g id="quote">
<g clip-path="url(#clip0_332_82)">
<rect width="75" height="75" rx="37.5" fill="white"/>
<path id="Vector" d="M37.5 0C16.7893 0 0 16.7893 0 37.5C0 58.2107 16.7893 75 37.5 75C58.2107 75 75 58.2107 75 37.5C75 16.7893 58.2107 0 37.5 0ZM34.6298 17.6514L36.2411 25.0718C31.5198 26.1169 27.1783 27.4761 27.5299 32.7484H33.078V52.4964H16.3651V34.0393C16.371 19.3711 27.1401 18.1777 34.6298 17.6514ZM57.0191 17.6514L58.6349 25.0718C53.9136 26.1169 49.5721 27.4761 49.9237 32.7484H55.4718V52.4964H38.7589V34.0393C38.7648 19.3711 49.5294 18.1777 57.0191 17.6514Z" fill="#007dc6"/>
</g>
</g>
<defs>
<clipPath id="clip0_332_82">
<rect width="75" height="75" rx="37.5" fill="white"/>
</clipPath>
</defs>
</svg>
