<svg width="1920" height="221" viewBox="0 0 1920 221" fill="none" xmlns="http://www.w3.org/2000/svg">
<path d="M657.046 113.232C656.838 115.256 656.502 117.276 656.443 119.304C656.173 128.653 655.98 138.004 655.892 147.801C653.536 149.508 651.132 149.531 648.837 147.964C648.906 143.66 648.976 139.356 648.655 134.755C647.337 133.729 645.673 133.008 645.615 132.269C645.43 129.887 645.836 127.5 646.014 125.114C645.942 124.921 645.871 124.727 645.322 124.337C644.062 120.707 643.279 117.275 642.497 113.843C642.449 113.634 642.401 113.424 641.949 113.042C641.043 112.419 640.543 111.968 640.023 111.5C639.084 112.206 638.298 112.796 637.511 113.386C637.227 113.702 636.942 114.018 636.724 114.75C636.383 117.974 636.165 120.803 635.454 123.581C635.23 124.452 633.68 125.187 632.737 125.984C632.737 125.984 632.875 126.064 632.873 126.277C632.819 129.324 632.667 132.158 632.751 134.992C632.801 136.67 631.847 137.413 628.795 137.244C625.17 137.045 621.522 137.046 617.884 136.961C617.884 136.961 617.664 137.102 617.743 137.41C616.723 139.253 615.626 140.787 614.528 142.322C614.322 142.653 614.116 142.984 613.979 143.675C613.712 144.327 613.377 144.618 613.042 144.909C612.913 145.07 612.784 145.232 612.786 145.718C612.201 146.921 611.485 147.799 610.769 148.677C610.163 149.672 609.558 150.667 609.049 152.073C607.511 154.922 605.877 157.359 604.243 159.797C604.081 160.009 603.919 160.222 603.939 160.725C603.412 161.835 602.704 162.654 601.996 163.473C601.816 163.636 601.635 163.799 601.483 164.308C600.572 165.247 599.632 165.84 598.693 166.432C598.675 165.943 598.657 165.454 598.639 164.965C598.747 162.256 598.854 159.547 598.677 156.477C598.564 155.489 598.737 154.862 598.91 154.234C599.15 145.827 599.391 137.42 599.267 128.719C598.61 127.873 598.316 127.319 598.023 126.765C598.023 126.765 597.849 126.525 597.383 126.405C597.031 125.526 597.145 124.768 597.259 124.01C597.657 123.965 598.055 123.919 598.714 123.571C597.63 121.994 590.992 121.207 589.534 122.198C589.296 122.36 589.723 122.858 589.843 123.201C593.792 125.426 590.554 127.157 588.857 129.339C588.14 129.738 587.515 129.799 586.89 129.86C583.496 129.751 580.102 129.643 576.239 129.805C575.409 132.441 574.836 134.801 574.727 137.176C574.459 142.962 574.445 148.756 574.207 154.543C574.183 155.114 573.318 155.661 572.843 156.219C572.359 155.944 571.876 155.668 571.392 155.393C571.392 155.393 571.447 155.27 571.055 155.207C570.379 154.75 570.095 154.355 569.81 153.961C568.672 152.966 567.534 151.971 565.833 150.845C564.41 149.918 563.549 149.123 562.688 148.329C562.157 147.899 561.626 147.469 560.57 146.928C559.685 146.441 559.326 146.064 558.967 145.688C558.967 145.688 558.914 145.722 558.634 145.7C557.963 145.294 557.572 144.911 557.182 144.527C554.043 142.552 550.904 140.576 547.183 138.525C546.172 138.102 545.742 137.755 545.312 137.408C541.972 135.706 538.633 134.003 534.691 132.255C533.588 131.872 533.087 131.533 532.585 131.195C532.211 130.99 531.837 130.785 530.887 130.556C529.26 129.987 528.208 129.442 527.156 128.897C526.238 128.492 525.32 128.087 523.791 127.661C522.078 127.109 520.976 126.577 519.874 126.045C519.874 126.045 519.647 125.888 519.173 125.913C518.167 125.635 517.635 125.333 517.102 125.03C516.139 124.2 515.176 123.37 513.794 122.335C510.351 122.033 509.684 120.912 509.875 119.419C508.651 118.423 507.427 117.427 505.66 116.233C492.526 115.891 491.719 113.809 491.556 123.025C491.553 123.203 491.655 123.417 491.525 123.551C490.948 124.142 490.304 124.71 489.684 125.286C489.684 125.286 489.634 125.255 489.639 125.452C489.115 126.054 488.586 126.459 488.057 126.865C487.945 127.091 487.833 127.318 487.962 127.862C486.831 130.568 485.46 132.957 484.088 135.346C483.613 136.015 483.138 136.684 482.728 137.739C481.925 138.952 481.058 139.78 480.19 140.607C479.803 140.972 479.416 141.337 479.049 142.052C478.222 143.03 477.376 143.658 476.529 144.286C476.529 144.286 476.226 144.439 476.238 144.73C475.724 145.307 475.2 145.592 474.675 145.878C471.869 147.638 469.063 149.398 466.091 151.496C465.271 152.049 464.616 152.264 463.961 152.479C463.215 152.781 462.469 153.082 461.534 153.681C460.613 154.123 459.881 154.268 459.149 154.413C459.136 154.124 459.122 153.834 459.109 153.544C459.384 143.874 459.659 134.203 459.511 124.265C458.295 123.048 456.957 122.116 456.821 121.146C456.488 118.783 456.713 116.402 456.713 114.029C456.317 111.76 455.92 109.491 455.188 106.926C454.317 106.237 453.781 105.842 453.244 105.448C452.857 105.351 452.47 105.254 451.578 105.267C450.22 104.99 449.367 104.604 448.514 104.217C448.514 104.217 448.629 104.262 448.665 104.413C448.132 104.738 447.563 104.913 446.993 105.088C446.574 105.095 446.154 105.103 445.332 105.385C442.744 108.72 444.422 112.109 441.691 115.391C438.945 118.691 439.297 123.027 439.08 126.937C438.577 136.024 438.459 145.125 438.389 154.225C438.37 156.565 436.293 156.814 433.131 156.642C430.272 156.487 427.039 156.865 427.265 154.126C427.559 150.569 427.612 147.002 427.769 143.439C427.205 143.008 426.64 142.577 425.479 142.001C424.597 140.933 424.052 140.005 424.067 139.088C424.209 130.225 424.446 121.364 424.656 112.502C424.656 112.502 424.402 112.337 423.844 112.286C422.879 111.503 422.113 110.763 422.122 110.039C422.216 102.454 422.371 94.8687 422.714 87.2901C422.749 86.5023 424.109 85.7563 424.854 84.991C424.918 84.7037 424.982 84.4164 424.492 84.0169C419.665 84.0138 417.94 82.8992 418.036 80.3348C418.438 69.6412 418.585 58.9405 418.937 48.2454C418.965 47.3884 419.845 46.5547 420.329 45.7102C420.442 45.3318 420.555 44.9534 420.273 44.3149C419.852 42.4821 419.826 40.9095 419.8 39.3369C419.79 38.7646 419.78 38.1924 419.364 37.3326C418.929 35.8421 418.9 34.639 418.87 33.4358C419.016 33.0665 419.161 32.6971 419.306 31.9257C419.101 30.8082 418.895 30.0928 418.689 29.3774C418.459 27.8206 418.229 26.2639 417.685 24.4037C417.534 23.7786 417.697 23.4569 417.86 23.1353C417.929 22.7456 417.998 22.3559 417.715 21.64C416.776 19.6041 416.19 17.8945 415.603 16.1849C415.675 10.9716 415.748 5.75824 415.42 0.280554C414.599 0.010789 414.179 0.00539519 413.758 0C413.618 2.34485 413.477 4.68969 413.369 7.46036C413.293 9.2138 413.238 10.5446 413.065 11.8683C412.759 14.2045 412.382 16.5363 412.035 18.8699C411.907 19.0728 411.779 19.2757 411.767 19.7878C411.801 21.3712 411.799 22.6509 411.606 23.9177C411.482 24.7358 411.08 25.5351 410.802 26.3428C410.606 28.2775 410.411 30.2121 410.41 32.5186C410.473 33.5186 410.341 34.1466 410.208 34.7747C410.241 34.989 410.273 35.2033 410.676 35.6366C410.865 36.7973 410.682 37.7391 410.5 38.6809C410.378 38.8838 410.256 39.0867 410.25 39.5435C410.06 40.1282 409.753 40.459 409.446 40.7898C409.208 41.2759 408.97 41.7619 408.791 42.673C408.292 44.6187 407.734 46.1392 407.177 47.6597C406.835 48.201 406.156 48.7488 406.211 49.2825C406.46 51.6913 406.917 54.0962 407.102 56.875C406.229 57.4031 405.555 57.5588 404.88 57.7145C404.767 58.2832 404.654 58.8519 404.864 59.7738C405.231 62.1937 405.273 64.2603 405.317 66.3269C404.925 74.3766 404.533 82.4262 404.327 90.8713C405.037 92.7002 404.325 93.6188 401.604 93.7013C401.554 94.0515 401.503 94.4018 401.825 94.9675C402.657 95.8005 403.116 96.418 403.575 97.0355C403.38 104.63 403.185 112.224 403.16 120.243C402.807 120.98 402.284 121.292 401.761 121.604C401.599 121.62 401.436 121.636 400.929 121.849C399.875 122.112 399.166 122.178 398.457 122.245C398.457 122.245 398.377 122.296 398.534 122.487C399.346 123.139 400.001 123.6 400.656 124.061C400.583 128.038 400.597 132.017 400.362 135.987C400.317 136.747 399.29 137.47 398.539 138.586C398.213 140.34 398.735 142.116 394.598 141.128C393.913 141.106 393.228 141.085 391.952 141.245C391.129 142.287 390.749 143.14 390.694 144.006C390.552 146.229 390.72 148.468 390.399 150.676C390.302 151.345 389.014 151.936 388.272 152.563C387.683 151.946 386.854 151.361 386.572 150.704C386.283 150.032 386.526 149.288 386.543 148.576C386.765 139.316 387.096 130.057 387.122 120.794C387.128 118.895 385.996 116.977 385.388 115.068C385.393 114.686 385.398 114.304 384.901 113.698C381.196 113.365 377.992 113.257 374.788 113.149C374.36 113.474 373.933 113.798 373.345 114.435C371.694 115.566 370.721 115.614 370.758 114.158C371.464 112.141 369.992 111.34 365.947 111.616C365.193 111.217 365.083 110.815 364.974 110.414C364.982 109.509 364.989 108.604 364.719 107.456C363.934 107.237 363.427 107.261 362.92 107.284C361.858 108.387 364.275 110.441 359.758 110.868C358.809 111.13 358.386 111.269 357.963 111.408C357.777 112.959 357.59 114.51 357.449 116.46C357.181 117.146 356.867 117.433 356.554 117.72C356.466 117.917 356.378 118.114 356.375 118.635C356.024 119.47 355.589 119.981 355.153 120.492C355.059 120.7 354.964 120.909 355.011 121.39C354.582 122.518 354.01 123.372 353.439 124.227C353.114 124.874 352.788 125.52 352.527 126.525C352.214 127.234 351.836 127.585 351.458 127.936C350.92 128.466 350.473 129.039 349.829 129.52C344.149 133.768 341.259 138.524 342.499 144.066C342.589 144.468 342.32 144.891 342.211 145.329C339.897 144.845 337.806 144.407 334.974 143.957C333.85 141.475 333.468 139.006 333.085 136.537C329.76 135.16 326.435 133.784 322.543 132.365C321.327 132.569 320.679 132.816 320.031 133.063C319.876 133.427 319.722 133.79 319.696 134.429C319.509 135.035 319.194 135.365 318.879 135.694C318.635 136.348 318.39 137.002 318.211 138.021C317.979 138.692 317.681 138.999 317.383 139.306C317.303 139.499 317.222 139.693 317.227 140.291C317.152 145.055 316.957 149.414 316.837 153.774C316.618 161.73 316.635 161.758 303.078 161.317C301.546 161.267 300.039 160.699 298.52 160.371C298.753 150.365 298.997 140.359 299.202 130.352C299.221 129.383 298.993 128.408 298.339 127.228C297.506 126.614 297.215 126.207 296.923 125.8C296.952 123.86 296.982 121.92 296.746 119.681C296.223 119.155 295.965 118.928 295.706 118.701C293.067 118.618 290.429 118.535 287.313 118.6C286.239 118.913 285.642 119.079 285.044 119.245C284.767 121.775 284.49 124.305 283.971 127.268C283.51 132.05 283.354 136.404 283.02 140.75C282.953 141.625 282.208 142.471 281.775 143.331C281.627 143.371 281.479 143.412 281.056 143.652C280.127 143.869 279.472 143.885 278.817 143.902C278.311 143.091 277.461 142.289 277.359 141.467C276.96 138.236 276.796 135 275.981 131.505C275.247 129.248 275.075 127.25 274.903 125.253C274.903 125.253 274.725 125.065 274.292 124.957C273.59 124.442 273.321 124.034 273.052 123.626C272.932 123.108 272.812 122.59 272.311 121.811C271.515 120.884 271.1 120.217 270.575 119.374C269.686 120.4 268.99 121.204 268.294 122.007C268.217 122.209 268.14 122.411 268.122 122.939C267.666 123.574 267.151 123.882 266.637 124.191C266.131 124.494 265.625 124.797 264.872 125.402C263.398 125.854 262.171 126.004 260.944 126.155C260.654 135.428 260.363 144.7 260.098 154.446C259.809 155.095 259.495 155.43 259.179 155.425C253.073 155.339 246.967 155.231 240.863 155.053C240.498 155.042 240.156 154.402 239.804 154.055C240.121 140.127 240.438 126.199 240.31 111.955C236.683 111.517 233.49 111.266 230.321 111.306C226.93 111.349 225.694 110.557 225.784 108.608C226.04 103.107 226.08 97.5997 226.313 92.0979C226.338 91.4948 227.057 90.9128 227.454 90.3211C228.001 90.2401 228.548 90.1591 229.386 89.8505C230.178 89.1741 230.678 88.7252 231.179 88.2764C231.15 87.9877 231.121 87.6991 230.611 87.3318C229.615 86.9503 229.1 86.6474 228.585 86.3446C228.08 85.2396 226.536 83.6308 227.254 83.1183C230.117 81.0759 227.66 80.0146 225.588 78.7231C224.677 78.155 223.935 77.4946 222.774 76.5782C222.439 74.876 222.447 73.4717 222.454 72.0675C222.449 71.6875 222.444 71.3075 222.11 70.733C221.416 70.4951 221.05 70.4517 220.683 70.4083C220.475 72.0092 220.541 73.6487 219.971 75.1985C219.527 76.4066 218.291 77.5032 217.278 79.0039C216.404 79.4784 215.658 79.5985 214.913 79.7185C214.962 79.4322 215.011 79.146 215.06 78.8597C214.113 77.7444 213.166 76.629 211.877 75.2911C210.775 75.0706 210.014 75.0727 209.254 75.0747C207.183 76.7882 205.07 78.4845 203.09 80.2337C202.792 80.4966 203.119 81.0067 203.736 81.628C204 82.7516 203.685 83.6496 203.37 84.5475C203.18 84.5793 202.989 84.6111 202.493 84.8684C201.574 85.0816 200.96 85.0692 200.347 85.0569C199.826 85.0882 199.305 85.1195 198.619 85.4241C197.942 85.9696 197.429 86.2419 196.917 86.5143C196.845 87.2351 196.774 87.9559 197.213 88.9731C197.789 94.2444 197.943 99.2211 197.897 104.194C197.839 110.529 197.678 116.863 197.387 123.191C197.354 123.917 196.486 124.905 195.483 125.216C194.724 125.452 193.132 124.802 191.91 124.546C191.893 124.444 191.877 124.341 191.484 124.087C191.079 123.562 191.051 123.189 191.023 122.816C190.956 122.503 190.89 122.189 190.305 121.759C188.376 121.182 186.966 120.722 185.555 120.262C185.215 120.167 184.875 120.071 183.883 119.919C182.895 118.965 182.282 118.064 182.272 117.171C182.234 113.747 182.389 110.326 182.452 107.752C180.336 106.495 179.181 105.808 178.026 105.122C178.071 103.266 178.116 101.411 178.167 99.3463C174.958 99.2681 171.883 99.1931 168.561 99.1121C168.2 100.94 167.845 102.739 167.132 104.815C166.143 104.996 165.512 104.901 164.881 104.806C164.356 105.701 163.399 106.585 163.371 107.494C162.921 122.044 162.589 136.596 162.429 151.554C157.985 151.97 153.342 151.98 148.698 151.99C148.803 151.762 148.907 151.533 149.011 151.305C149.483 132.333 149.955 113.36 150.46 93.9325C151.277 93.3719 152.061 93.2664 152.845 93.161C153.151 93.1401 153.458 93.1192 154.156 92.8904C155.718 92.2196 156.887 91.7568 158.057 91.2941C157.565 91.1785 157.073 91.063 156.186 91.059C155.238 90.9512 154.685 90.7319 154.132 90.5125C153.759 90.4299 153.385 90.3472 152.57 90.3469C151.831 90.1762 151.534 89.9231 151.237 89.67C146.112 81.9907 150.135 74.1744 148.84 66.0921C148.702 65.3019 148.853 64.853 149.003 64.4042C148.785 58.611 148.566 52.8178 147.875 46.9582C147.172 51.2517 147.025 55.6155 146.645 59.9686C146.564 60.9028 145.643 61.7986 145.109 62.7122C143.228 63.782 141.347 64.8519 139.332 66.2593C138.311 67.013 137.425 67.429 136.538 67.8451C135.621 68.3984 134.705 68.9518 133.738 69.8472C134.312 70.4771 134.936 70.7651 135.821 70.9629C137.687 69.923 139.292 68.9733 141.013 67.8728C141.6 68.0644 142.07 68.4069 142.455 68.9789C142.275 74.9615 142.18 80.7146 142.198 86.632C141.73 86.956 141.148 87.1158 140.137 87.2406C132.64 87.0517 125.571 86.8977 118.318 86.8687C115.535 85.5176 117.319 84.7421 119.619 83.8784C121.687 81.9828 123.532 80.2224 125.189 78.284C124.374 77.9409 123.746 77.7759 123.119 77.6108C121.04 79.4142 118.795 81.1591 116.928 83.0369C114.924 85.0532 112.368 86.0499 108.154 85.6268C105.499 85.3602 102.752 85.4575 99.819 85.7976C100.479 86.0215 101.118 86.2731 101.803 86.4649C108.182 88.2505 109.244 90.0217 106.241 93.575C94.9913 106.883 87.1433 120.769 88.1303 136.019C88.4346 140.72 89.7238 145.415 90.6268 150.477C88.0806 150.415 85.397 150.62 83.0478 150.173C81.9447 149.964 80.8258 148.487 80.835 147.607C80.9484 136.702 81.4197 125.804 81.4147 114.898C81.4137 112.579 79.6441 110.249 79.0974 107.898C78.3806 104.815 77.9666 101.709 77.6235 98.608C77.4362 96.9151 77.5516 95.2073 77.7363 93.5171C77.9229 91.8103 76.784 91.1675 73.2751 91.6709C73.2311 93.4788 73.4354 95.432 73.0217 97.3295C72.8396 98.1649 71.4778 98.9218 70.517 99.653C68.5591 101.143 66.5098 102.591 64.6148 104.41C64.36 105.117 63.9887 105.47 63.6173 105.824C63.4498 106.038 63.2823 106.252 63.2784 106.731C62.9917 107.29 62.5413 107.585 62.091 107.879C61.769 110.753 61.0525 113.628 61.2412 116.498C61.4136 119.122 59.8398 119.963 55.553 119.557C53.3175 119.346 51.0186 119.409 48.0367 119.496C44.814 119.695 42.3032 119.746 40.3361 119.787C39.4715 121.244 38.8212 122.34 38.1711 123.435C38.0842 124.702 37.9973 125.969 38.1534 127.554C37.8338 128.004 37.2711 128.135 36.7084 128.265C33.8508 128.172 30.9753 127.955 28.1449 128.049C27.0834 128.085 26.127 128.846 24.8804 129.663C22.8839 130.186 21.1297 130.324 19.3755 130.462C19.1598 136.926 18.9845 143.392 18.6809 149.854C18.64 150.726 17.9539 151.578 16.949 152.566C15.8676 151.733 15.4036 150.773 14.9396 149.813C11.0486 149.49 7.15749 149.166 2.94066 148.442C2.61671 143.688 2.52948 139.333 2.65981 134.984C2.71997 132.975 3.20541 130.978 3.49799 128.976C2.82256 127.955 2.14711 126.935 0.83577 125.768C-2.9353 125.217 -6.07033 124.813 -9.20526 124.408C-9.20526 124.408 -9.15346 124.379 -9.46095 124.408C-10.3189 124.434 -10.8696 124.431 -11.4199 124.428C-12.8062 124.399 -14.1922 124.37 -15.9854 124.629C-16.5831 130.51 -16.7092 136.108 -17.0376 141.697C-17.0843 142.491 -18.1154 143.25 -18.6908 144.025C-21.5761 143.954 -24.4612 143.884 -28.2534 143.792C-27.9118 129.744 -27.5738 115.839 -27.6405 101.619C-28.5213 100.191 -28.9971 99.0758 -29.473 97.961C-31.2136 96.2736 -32.9545 94.5863 -35.135 92.7282C-35.9579 92.392 -36.3412 92.2265 -36.7244 92.0611C-43.3831 95.6881 -46.9809 99.883 -46.7077 105.594C-46.2376 115.419 -47.0428 125.243 -47.1595 135.071C-47.1786 136.675 -47.7566 137.697 -50.4736 138.338C-54.7766 139.354 -57.9388 142.086 -64.2776 140.969C-64.1911 137.413 -64.1375 133.785 -63.9976 130.16C-63.9418 128.714 -63.7266 127.37 -66.444 126.413C-67.2828 126.117 -67.2582 125.004 -67.7371 124.289C-68.1487 123.674 -68.562 122.659 -69.2367 122.568C-72.9512 122.065 -72.455 120.525 -72.3937 119.007C-72.2892 116.42 -72.2562 113.831 -72.2111 111.975C-73.9338 110.581 -74.8964 109.665 -76.0972 108.872C-77.0568 108.239 -78.25 107.351 -79.4373 107.276C-83.9596 106.987 -88.5214 106.982 -94.2482 106.843C-94.4854 116.597 -94.7151 126.046 -94.9478 135.614C-97.7297 135.546 -99.3131 135.508 -101.361 135.458C-101.315 133.578 -101.273 131.84 -101.225 129.903C-104.059 129.758 -106.451 129.636 -109.03 129.504C-109.493 127.614 -109.949 125.758 -110.316 124.258C-114.015 124.168 -116.856 124.098 -120.565 124.008C-120.81 125.797 -121.091 127.846 -121.406 130.149C-125.62 130.046 -129.685 129.947 -133.358 129.857C-135.302 135.65 -137.15 141.158 -138.953 146.531C-143.483 146.691 -144.573 145.626 -144.424 143.598C-144.143 139.774 -144.184 135.935 -144.085 131.873C-147.902 131.78 -151.463 131.693 -155.39 131.597C-155.587 132.578 -155.791 133.596 -156.031 134.79C-157.742 134.749 -159.323 134.71 -161.519 134.657C-161.44 131.397 -161.361 128.151 -161.278 124.769C-166.084 124.651 -170.292 124.549 -174.014 124.458C-179.916 131.162 -178.163 138.378 -178.587 145.412C-178.656 146.552 -178.648 147.695 -178.678 148.911C-183.611 149.235 -188.275 149.266 -192.637 149.923C-195.7 150.385 -198.338 151.712 -201.192 152.624C-202.054 152.899 -204.303 160.66 -205.553 160.936C-205.984 164.74 -216.966 269.852 -214.69 271.089C320.031 287.539 476.53 271.089 1004.81 287.539C1004.89 284.125 1001.57 187.25 1001.24 183.552C996.107 183.123 991.398 182.993 986.689 182.874C984.06 182.807 982.485 182.32 982.485 180.481C982.486 174.194 982.138 167.901 982.174 161.615C982.185 159.688 982.182 157.922 979.265 156.607C979.334 153.785 979.403 150.962 979.483 147.669C974.276 147.542 969.355 147.422 963.732 147.125C962.827 144.868 962.339 142.776 962.499 140.711C962.69 138.234 960.792 137.883 957.304 138.413C957.49 138.943 957.637 139.361 957.784 139.78C958.234 141.584 958.683 143.389 959.207 145.646C956.011 146.269 952.721 146.366 949.481 146.636C946.989 146.844 944.561 147.271 942.104 147.6C941.608 147.626 941.111 147.651 940.276 147.874C939.355 147.942 938.773 147.813 938.191 147.684C937.737 147.659 937.283 147.635 936.63 147.993C936.268 155.095 936.176 161.817 935.854 168.532C935.816 169.326 934.519 170.079 933.806 170.852C933.806 170.852 933.992 170.969 933.958 171.15C933.914 171.597 934.055 171.911 933.868 172.12C933.208 172.857 932.436 173.557 931.706 174.272C930.954 173.548 929.843 172.867 929.543 172.091C929.184 171.162 929.519 170.152 929.553 169.178C929.553 169.178 929.49 169.257 929.152 169.219C927.92 165.919 927.026 162.657 926.132 159.395C924.68 159.259 923.228 159.123 921.057 159.103C919.929 158.809 919.52 158.4 919.112 157.991C919.291 152.344 919.389 146.694 919.701 141.052C919.792 139.401 918.484 139.053 915.5 139.243C914.299 138.407 913.751 137.5 913.441 136.985C912.796 137.527 911.891 138.286 910.986 139.045C908.755 138.991 906.524 138.936 903.762 138.869C903.834 135.898 903.9 133.19 903.545 130.25C902.725 129.994 902.326 129.968 901.927 129.943C901.859 132.744 901.791 135.545 901.72 138.444C899.328 138.558 897.597 138.641 895.364 138.748C895.322 140.467 895.282 142.117 895.185 144.195C894.424 144.812 893.721 145.001 893.018 145.189C892.608 145.996 892.199 146.802 891.517 147.957C891.056 156.329 890.908 164.352 890.607 172.371C890.582 173.027 889.522 173.654 888.943 174.295C886.484 174.161 884.025 174.028 881.03 173.633C880.628 167.906 880.761 162.439 880.9 156.751C878.89 156.981 877.729 157.215 876.553 157.224C874.59 157.24 874.393 156.93 875.228 155.53C875.349 152.16 875.471 148.79 875.151 145.165C873.887 144.357 872.5 143.846 872.339 143.242C871.569 140.346 871.131 137.425 870.574 134.513C869.278 134.694 867.982 134.875 866.958 135.415C867.237 136.375 867.453 137.009 867.215 137.572C866.463 139.357 865.538 141.116 864.688 142.886C864.567 143.138 864.642 143.518 864.368 143.635C860.657 145.216 862.136 147.605 861.851 149.703C861.672 151.024 862.015 152.394 861.606 153.678C861.159 155.082 859.999 154.91 859.018 153.715C859.018 153.715 858.866 153.524 858.422 153.469C857.084 153.429 856.19 153.444 855.296 153.459C855.296 153.459 855.087 153.585 855.164 153.856C854.506 155.332 853.604 155.412 852.514 154.222C852.514 154.222 852.322 153.994 851.777 153.925C850.274 153.874 849.316 153.893 848.357 153.912C847.964 154.282 847.57 154.651 847.039 155.385C843.785 156.588 840.728 157.03 838.024 155.147C838.024 155.147 837.92 155.186 837.561 155.165C834.469 155.12 831.735 155.097 829.002 155.074C829.002 155.074 828.863 155.07 828.787 155.305C823.264 156.334 821.52 155.924 821.56 153.639C821.658 148.072 821.969 142.51 822.195 136.947C822.195 136.947 822.133 136.95 821.87 137.002C821.242 136.72 820.878 136.385 820.515 136.049C820.514 135.655 820.513 135.261 820.168 134.59C819.65 133.255 819.477 132.197 819.304 131.139C819.393 130.562 819.483 129.985 819.028 129.185C815.803 128.319 812.177 129.936 810.182 127.652C810.189 127.4 810.196 127.149 809.84 126.81C809.477 126.723 809.229 126.609 809.229 126.609C807.741 127.335 806.253 128.06 804.624 129.118C803.887 129.7 803.291 129.949 802.695 130.199C802.695 130.199 802.711 130.206 802.707 130.37C802.148 130.782 801.592 131.03 801.036 131.279C800.726 132.199 800.181 133.113 800.143 134.042C799.895 140.087 799.756 146.135 799.799 152.574C798.897 154.646 797.778 156.325 796.66 158.005C796.105 158.052 795.551 158.099 794.821 158.506C794.257 160.691 793.868 162.514 793.479 164.338C793.312 165.18 793.144 166.023 792.926 167.122C790.555 167.064 788.372 167.011 785.713 167.175C784.881 167.874 784.74 168.506 784.121 168.8C783.098 169.288 781.272 170.035 780.672 169.817C779.515 169.395 778.31 168.371 778.29 167.605C778.167 162.808 778.4 158.014 778.423 153.217C778.427 152.364 778.076 151.495 777.755 150.649C777.225 149.255 776.585 147.873 775.992 146.486C775.71 146.25 775.429 146.014 774.68 145.723C773.747 145.408 773.282 145.148 772.818 144.889C770.195 144.827 769.789 143.944 769.814 142.586C769.867 139.698 769.587 136.802 768.746 133.754C767.691 132.969 767.361 132.335 766.972 131.713C765.354 129.12 763.719 126.53 762.09 123.939C761.967 124.156 761.843 124.373 761.927 124.892C761.67 125.821 761.205 126.449 760.74 127.077C760.374 127.445 760.008 127.813 759.617 128.556C759.113 134.351 758.687 139.773 758.063 145.185C758.006 145.678 756.674 146.101 755.934 146.556C753.685 146.478 751.436 146.399 748.602 146.429C747.612 146.2 747.207 145.862 746.802 145.524C746.914 142.569 747.027 139.615 746.562 136.451C744.213 136.259 742.441 136.276 740.078 136.299C740.022 138.614 739.954 140.786 739.92 142.96C739.883 145.381 737.877 145.799 734.42 144.776C733.715 144.732 733.009 144.688 731.723 144.782C730.822 143.997 730.5 143.075 730.179 142.153C730.044 141.814 729.908 141.475 729.282 140.917C728.594 139.264 728.397 137.832 728.199 136.4C728.142 136.315 728.085 136.231 727.5 135.985C726.924 131.847 726.877 127.871 726.829 123.894C726.829 123.894 726.776 123.688 726.347 123.596C725.566 123.127 725.213 122.748 724.86 122.37C724.547 122.109 724.232 121.848 723.395 121.395C722.48 119.666 722.089 118.128 721.55 116.007C720.3 118 719.459 119.34 718.618 120.681C718.147 121.17 717.677 121.659 717.239 122.501C716.498 123.536 715.725 124.218 714.951 124.9C714.74 130.976 714.53 137.052 714.538 143.458C714.583 144.03 714.409 144.273 714.235 144.515C713.923 144.42 713.611 144.324 713.299 144.229C709.848 144.127 706.397 144.026 702.128 143.891C701.023 142.935 700.477 142.007 700.49 141.09C700.584 134.149 700.732 127.209 700.997 120.272C701.062 118.582 701.114 117.01 698.238 115.977C698.344 108.076 698.45 100.175 698.175 91.9329C696.454 88.6916 695.113 85.7919 693.773 82.8922C693.237 82.2866 692.7 81.681 691.638 80.9393C690.784 80.4098 690.456 80.0164 690.128 79.6229C687.661 78.3345 685.195 77.0461 682.062 75.7115C680.674 74.785 679.394 73.9089 679.333 73.0237C679.13 70.0834 679.467 67.1403 679.372 64.1971C679.343 63.3016 678.584 62.4025 678.159 61.505C677.849 61.5098 677.596 61.581 677.481 62.0888C677.533 65.4792 677.529 68.5003 677.455 71.5196C677.442 72.0348 677.422 72.8291 676.902 73.007C673.583 74.1426 674.48 76.034 674.382 77.7384C674.269 79.6908 674.369 81.6525 674.157 83.5986C674.089 84.2307 673.429 85.3298 672.872 85.3585C668.599 85.5777 669.835 87.4384 669.509 88.9063C669.109 90.7037 668.449 92.4772 667.902 94.261C667.456 94.2626 667.01 94.2642 666.208 94.5401C665.344 96.7651 664.835 98.7158 664.326 100.667C664.326 100.667 664.108 100.635 663.952 100.852C662.853 101.224 661.91 101.379 660.967 101.535C660.83 104.904 660.693 108.274 660.664 112.098C659.531 112.779 658.288 113.006 657.046 113.232Z" fill="url(#paint0_linear_427_4680)" fill-opacity="0.2"/>
<path d="M1865.24 120.693C1865.03 122.717 1864.69 124.737 1864.63 126.765C1864.36 136.114 1864.17 145.465 1864.08 155.262C1861.73 156.969 1859.32 156.992 1857.03 155.425C1857.1 151.121 1857.17 146.817 1856.84 142.216C1855.53 141.19 1853.86 140.469 1853.81 139.73C1853.62 137.348 1854.03 134.961 1854.2 132.575C1854.13 132.382 1854.06 132.188 1853.51 131.798C1852.25 128.168 1851.47 124.736 1850.69 121.304C1850.64 121.095 1850.59 120.885 1850.14 120.503C1849.23 119.88 1848.73 119.429 1848.21 118.961C1847.27 119.667 1846.49 120.257 1845.7 120.847C1845.42 121.163 1845.13 121.479 1844.91 122.211C1844.57 125.435 1844.36 128.264 1843.64 131.042C1843.42 131.913 1841.87 132.648 1840.93 133.445C1840.93 133.445 1841.06 133.525 1841.06 133.738C1841.01 136.785 1840.86 139.619 1840.94 142.453C1840.99 144.131 1840.04 144.874 1836.98 144.705C1833.36 144.506 1829.71 144.507 1826.07 144.422C1826.07 144.422 1825.85 144.563 1825.93 144.871C1824.91 146.714 1823.82 148.248 1822.72 149.783C1822.51 150.114 1822.31 150.445 1822.17 151.136C1821.9 151.788 1821.57 152.079 1821.23 152.37C1821.1 152.531 1820.97 152.693 1820.98 153.179C1820.39 154.382 1819.67 155.26 1818.96 156.138C1818.35 157.133 1817.75 158.128 1817.24 159.534C1815.7 162.383 1814.07 164.821 1812.43 167.258C1812.27 167.47 1812.11 167.683 1812.13 168.186C1811.6 169.296 1810.89 170.115 1810.19 170.934C1810.01 171.097 1809.83 171.26 1809.67 171.769C1808.76 172.708 1807.82 173.301 1806.88 173.893C1806.86 173.404 1806.85 172.915 1806.83 172.426C1806.94 169.717 1807.04 167.008 1806.87 163.938C1806.75 162.95 1806.93 162.323 1807.1 161.695C1807.34 153.288 1807.58 144.881 1807.46 136.18C1806.8 135.334 1806.51 134.78 1806.21 134.226C1806.21 134.226 1806.04 133.986 1805.57 133.866C1805.22 132.987 1805.34 132.229 1805.45 131.471C1805.85 131.426 1806.24 131.38 1806.9 131.032C1805.82 129.455 1799.18 128.668 1797.72 129.659C1797.49 129.82 1797.91 130.319 1798.03 130.662C1801.98 132.887 1798.74 134.618 1797.05 136.8C1796.33 137.199 1795.7 137.26 1795.08 137.32C1791.69 137.212 1788.29 137.104 1784.43 137.266C1783.6 139.902 1783.03 142.262 1782.92 144.637C1782.65 150.423 1782.64 156.217 1782.4 162.004C1782.37 162.575 1781.51 163.122 1781.03 163.68C1780.55 163.405 1780.07 163.129 1779.58 162.854C1779.58 162.854 1779.64 162.731 1779.24 162.668C1778.57 162.211 1778.28 161.816 1778 161.422C1776.86 160.427 1775.72 159.432 1774.02 158.306C1772.6 157.379 1771.74 156.584 1770.88 155.79C1770.35 155.36 1769.82 154.93 1768.76 154.389C1767.88 153.902 1767.52 153.525 1767.16 153.149C1767.16 153.149 1767.1 153.183 1766.82 153.161C1766.15 152.755 1765.76 152.372 1765.37 151.988C1762.23 150.013 1759.09 148.037 1755.37 145.986C1754.36 145.563 1753.93 145.216 1753.5 144.869C1750.16 143.167 1746.82 141.464 1742.88 139.716C1741.78 139.333 1741.28 138.994 1740.78 138.656C1740.4 138.451 1740.03 138.246 1739.08 138.017C1737.45 137.448 1736.4 136.903 1735.35 136.358C1734.43 135.953 1733.51 135.547 1731.98 135.122C1730.27 134.57 1729.17 134.038 1728.06 133.506C1728.06 133.506 1727.84 133.349 1727.36 133.374C1726.36 133.096 1725.82 132.794 1725.29 132.491C1724.33 131.661 1723.37 130.831 1721.98 129.796C1718.54 129.494 1717.87 128.373 1718.06 126.88C1716.84 125.884 1715.62 124.888 1713.85 123.694C1700.72 123.352 1699.91 121.27 1699.75 130.486C1699.74 130.664 1699.85 130.878 1699.71 131.012C1699.14 131.603 1698.49 132.171 1697.87 132.747C1697.87 132.747 1697.82 132.716 1697.83 132.913C1697.31 133.514 1696.78 133.92 1696.25 134.325C1696.14 134.552 1696.02 134.779 1696.15 135.323C1695.02 138.029 1693.65 140.418 1692.28 142.807C1691.8 143.476 1691.33 144.145 1690.92 145.2C1690.12 146.413 1689.25 147.241 1688.38 148.068C1687.99 148.433 1687.61 148.798 1687.24 149.513C1686.41 150.491 1685.57 151.119 1684.72 151.747C1684.72 151.747 1684.42 151.9 1684.43 152.191C1683.91 152.768 1683.39 153.053 1682.86 153.339C1680.06 155.099 1677.25 156.859 1674.28 158.957C1673.46 159.51 1672.81 159.725 1672.15 159.94C1671.4 160.242 1670.66 160.543 1669.72 161.142C1668.8 161.584 1668.07 161.729 1667.34 161.874C1667.33 161.585 1667.31 161.295 1667.3 161.005C1667.57 151.335 1667.85 141.664 1667.7 131.726C1666.48 130.509 1665.15 129.577 1665.01 128.607C1664.68 126.244 1664.9 123.863 1664.9 121.49C1664.51 119.221 1664.11 116.952 1663.38 114.387C1662.51 113.698 1661.97 113.303 1661.43 112.909C1661.05 112.812 1660.66 112.715 1659.77 112.728C1658.41 112.451 1657.56 112.065 1656.7 111.678C1656.7 111.678 1656.82 111.723 1656.86 111.874C1656.32 112.199 1655.75 112.374 1655.18 112.549C1654.76 112.556 1654.34 112.564 1653.52 112.846C1650.93 116.181 1652.61 119.57 1649.88 122.852C1647.13 126.152 1647.49 130.488 1647.27 134.398C1646.77 143.485 1646.65 152.586 1646.58 161.686C1646.56 164.026 1644.48 164.275 1641.32 164.103C1638.46 163.948 1635.23 164.326 1635.45 161.587C1635.75 158.03 1635.8 154.463 1635.96 150.9C1635.39 150.469 1634.83 150.038 1633.67 149.462C1632.79 148.394 1632.24 147.465 1632.26 146.549C1632.4 137.686 1632.64 128.825 1632.85 119.963C1632.85 119.963 1632.59 119.798 1632.03 119.747C1631.07 118.964 1630.3 118.224 1630.31 117.5C1630.41 109.915 1630.56 102.33 1630.9 94.7511C1630.94 93.9633 1632.3 93.2173 1633.04 92.4519C1633.11 92.1647 1633.17 91.8774 1632.68 91.4779C1627.85 91.4748 1626.13 90.3602 1626.23 87.7957C1626.63 77.1022 1626.77 66.4014 1627.13 55.7063C1627.16 54.8494 1628.03 54.0156 1628.52 53.1711C1628.63 52.7927 1628.75 52.4144 1628.46 51.7758C1628.04 49.943 1628.02 48.3704 1627.99 46.7978C1627.98 46.2255 1627.97 45.6533 1627.55 44.7936C1627.12 43.303 1627.09 42.0999 1627.06 40.8968C1627.21 40.5274 1627.35 40.158 1627.5 39.3866C1627.29 38.2691 1627.08 37.5537 1626.88 36.8383C1626.65 35.2816 1626.42 33.7248 1625.87 31.8646C1625.72 31.2395 1625.89 30.9178 1626.05 30.5962C1626.12 30.2065 1626.19 29.8168 1625.9 29.1009C1624.97 27.0651 1624.38 25.3554 1623.79 23.6458C1623.87 18.4325 1623.94 13.2192 1623.61 7.7415C1622.79 7.47174 1622.37 7.46634 1621.95 7.46094C1621.81 9.80579 1621.67 12.1506 1621.56 14.9213C1621.48 16.6747 1621.43 18.0056 1621.25 19.3292C1620.95 21.6654 1620.57 23.9972 1620.22 26.3309C1620.1 26.5337 1619.97 26.7366 1619.96 27.2487C1619.99 28.8321 1619.99 30.1118 1619.8 31.3786C1619.67 32.1968 1619.27 32.996 1618.99 33.8037C1618.8 35.7384 1618.6 37.673 1618.6 39.9795C1618.66 40.9795 1618.53 41.6076 1618.4 42.2357C1618.43 42.45 1618.46 42.6642 1618.87 43.0975C1619.05 44.2583 1618.87 45.2 1618.69 46.1418C1618.57 46.3447 1618.45 46.5476 1618.44 47.0044C1618.25 47.5891 1617.94 47.9199 1617.64 48.2508C1617.4 48.7368 1617.16 49.2228 1616.98 50.134C1616.48 52.0796 1615.92 53.6001 1615.37 55.1206C1615.03 55.6619 1614.35 56.2098 1614.4 56.7434C1614.65 59.1523 1615.11 61.5571 1615.29 64.336C1614.42 64.8641 1613.74 65.0198 1613.07 65.1754C1612.96 65.7441 1612.84 66.3129 1613.05 67.2348C1613.42 69.6547 1613.46 71.7213 1613.51 73.7879C1613.11 81.8375 1612.72 89.8872 1612.52 98.3323C1613.23 100.161 1612.51 101.08 1609.79 101.162C1609.74 101.513 1609.69 101.863 1610.02 102.429C1610.85 103.262 1611.31 103.879 1611.76 104.497C1611.57 112.091 1611.37 119.685 1611.35 127.704C1611 128.441 1610.47 128.753 1609.95 129.065C1609.79 129.081 1609.63 129.097 1609.12 129.31C1608.06 129.573 1607.36 129.639 1606.65 129.706C1606.65 129.706 1606.57 129.757 1606.72 129.948C1607.54 130.6 1608.19 131.061 1608.85 131.522C1608.77 135.498 1608.79 139.478 1608.55 143.449C1608.51 144.208 1607.48 144.931 1606.73 146.047C1606.4 147.801 1606.92 149.577 1602.79 148.589C1602.1 148.567 1601.42 148.546 1600.14 148.706C1599.32 149.748 1598.94 150.601 1598.88 151.467C1598.74 153.69 1598.91 155.929 1598.59 158.137C1598.49 158.806 1597.2 159.397 1596.46 160.024C1595.87 159.407 1595.04 158.822 1594.76 158.166C1594.47 157.493 1594.72 156.749 1594.73 156.037C1594.95 146.777 1595.29 137.518 1595.31 128.255C1595.32 126.356 1594.19 124.438 1593.58 122.529C1593.58 122.147 1593.59 121.765 1593.09 121.159C1589.39 120.826 1586.18 120.718 1582.98 120.61C1582.55 120.935 1582.12 121.259 1581.53 121.896C1579.88 123.027 1578.91 123.075 1578.95 121.619C1579.65 119.602 1578.18 118.801 1574.14 119.077C1573.38 118.678 1573.27 118.276 1573.16 117.875C1573.17 116.97 1573.18 116.065 1572.91 114.917C1572.12 114.698 1571.62 114.722 1571.11 114.745C1570.05 115.848 1572.47 117.902 1567.95 118.329C1567 118.591 1566.58 118.73 1566.15 118.869C1565.97 120.42 1565.78 121.971 1565.64 123.921C1565.37 124.607 1565.06 124.894 1564.74 125.181C1564.66 125.378 1564.57 125.575 1564.56 126.096C1564.21 126.931 1563.78 127.442 1563.34 127.953C1563.25 128.161 1563.15 128.37 1563.2 128.851C1562.77 129.979 1562.2 130.833 1561.63 131.688C1561.3 132.334 1560.98 132.981 1560.72 133.986C1560.4 134.695 1560.03 135.046 1559.65 135.397C1559.11 135.927 1558.66 136.5 1558.02 136.981C1552.34 141.229 1549.45 145.985 1550.69 151.527C1550.78 151.929 1550.51 152.352 1550.4 152.79C1548.09 152.306 1546 151.868 1543.16 151.418C1542.04 148.936 1541.66 146.467 1541.27 143.998C1537.95 142.621 1534.62 141.245 1530.73 139.826C1529.52 140.03 1528.87 140.277 1528.22 140.524C1528.07 140.888 1527.91 141.251 1527.89 141.89C1527.7 142.496 1527.38 142.826 1527.07 143.155C1526.82 143.809 1526.58 144.463 1526.4 145.482C1526.17 146.153 1525.87 146.46 1525.57 146.767C1525.49 146.96 1525.41 147.154 1525.42 147.752C1525.34 152.516 1525.15 156.875 1525.03 161.235C1524.81 169.191 1524.82 169.219 1511.27 168.778C1509.74 168.728 1508.23 168.16 1506.71 167.832C1506.94 157.826 1507.19 147.82 1507.39 137.813C1507.41 136.844 1507.18 135.869 1506.53 134.689C1505.7 134.075 1505.4 133.668 1505.11 133.261C1505.14 131.321 1505.17 129.381 1504.94 127.142C1504.41 126.616 1504.15 126.389 1503.9 126.162C1501.26 126.079 1498.62 125.996 1495.5 126.06C1494.43 126.374 1493.83 126.54 1493.23 126.706C1492.96 129.236 1492.68 131.766 1492.16 134.729C1491.7 139.511 1491.54 143.865 1491.21 148.211C1491.14 149.086 1490.4 149.932 1489.96 150.792C1489.82 150.832 1489.67 150.873 1489.25 151.113C1488.32 151.33 1487.66 151.346 1487.01 151.363C1486.5 150.552 1485.65 149.75 1485.55 148.928C1485.15 145.697 1484.99 142.461 1484.17 138.966C1483.44 136.709 1483.26 134.711 1483.09 132.714C1483.09 132.714 1482.91 132.526 1482.48 132.418C1481.78 131.903 1481.51 131.495 1481.24 131.087C1481.12 130.569 1481 130.051 1480.5 129.272C1479.71 128.345 1479.29 127.678 1478.77 126.835C1477.88 127.861 1477.18 128.665 1476.48 129.468C1476.41 129.67 1476.33 129.872 1476.31 130.4C1475.86 131.035 1475.34 131.343 1474.83 131.652C1474.32 131.955 1473.81 132.258 1473.06 132.863C1471.59 133.314 1470.36 133.465 1469.13 133.616C1468.84 142.889 1468.55 152.161 1468.29 161.907C1468 162.556 1467.68 162.891 1467.37 162.886C1461.26 162.8 1455.16 162.692 1449.05 162.514C1448.69 162.503 1448.35 161.863 1447.99 161.516C1448.31 147.588 1448.63 133.66 1448.5 119.416C1444.87 118.978 1441.68 118.727 1438.51 118.767C1435.12 118.81 1433.88 118.018 1433.97 116.069C1434.23 110.568 1434.27 105.061 1434.5 99.5589C1434.53 98.9558 1435.25 98.3738 1435.64 97.7821C1436.19 97.701 1436.74 97.62 1437.58 97.3115C1438.37 96.6351 1438.87 96.1862 1439.37 95.7373C1439.34 95.4487 1439.31 95.1601 1438.8 94.7928C1437.8 94.4112 1437.29 94.1084 1436.77 93.8056C1436.27 92.7006 1434.73 91.0918 1435.44 90.5792C1438.31 88.5369 1435.85 87.4756 1433.78 86.1841C1432.87 85.616 1432.12 84.9556 1430.96 84.0391C1430.63 82.337 1430.64 80.9327 1430.64 79.5285C1430.64 79.1485 1430.63 78.7685 1430.3 78.194C1429.61 77.956 1429.24 77.9127 1428.87 77.8693C1428.67 79.4702 1428.73 81.1096 1428.16 82.6594C1427.72 83.8676 1426.48 84.9642 1425.47 86.4649C1424.59 86.9394 1423.85 87.0594 1423.1 87.1795C1423.15 86.8932 1423.2 86.607 1423.25 86.3207C1422.3 85.2053 1421.36 84.09 1420.07 82.7521C1418.96 82.5316 1418.2 82.5337 1417.44 82.5357C1415.37 84.2492 1413.26 85.9455 1411.28 87.6947C1410.98 87.9575 1411.31 88.4676 1411.93 89.089C1412.19 90.2125 1411.87 91.1105 1411.56 92.0085C1411.37 92.0403 1411.18 92.072 1410.68 92.3294C1409.76 92.5426 1409.15 92.5302 1408.54 92.5178C1408.02 92.5492 1407.49 92.5805 1406.81 92.885C1406.13 93.4306 1405.62 93.7029 1405.11 93.9752C1405.04 94.696 1404.96 95.4169 1405.4 96.434C1405.98 101.705 1406.13 106.682 1406.09 111.655C1406.03 117.99 1405.87 124.324 1405.58 130.652C1405.54 131.378 1404.68 132.366 1403.67 132.677C1402.91 132.913 1401.32 132.263 1400.1 132.007C1400.08 131.905 1400.07 131.802 1399.67 131.548C1399.27 131.023 1399.24 130.65 1399.21 130.277C1399.15 129.964 1399.08 129.65 1398.49 129.22C1396.57 128.643 1395.16 128.183 1393.74 127.723C1393.4 127.628 1393.06 127.532 1392.07 127.38C1391.08 126.426 1390.47 125.525 1390.46 124.632C1390.42 121.208 1390.58 117.787 1390.64 115.213C1388.53 113.956 1387.37 113.269 1386.22 112.583C1386.26 110.727 1386.31 108.872 1386.36 106.807C1383.15 106.729 1380.07 106.654 1376.75 106.573C1376.39 108.401 1376.03 110.2 1375.32 112.276C1374.33 112.457 1373.7 112.362 1373.07 112.267C1372.55 113.162 1371.59 114.046 1371.56 114.955C1371.11 129.505 1370.78 144.057 1370.62 159.015C1366.17 159.431 1361.53 159.441 1356.89 159.451C1356.99 159.223 1357.1 158.994 1357.2 158.766C1357.67 139.794 1358.14 120.821 1358.65 101.393C1359.47 100.833 1360.25 100.727 1361.03 100.622C1361.34 100.601 1361.65 100.58 1362.35 100.351C1363.91 99.6806 1365.08 99.2178 1366.25 98.755C1365.75 98.6395 1365.26 98.524 1364.38 98.52C1363.43 98.4122 1362.87 98.1929 1362.32 97.9735C1361.95 97.8909 1361.57 97.8082 1360.76 97.8079C1360.02 97.6372 1359.72 97.3841 1359.43 97.131C1354.3 89.4517 1358.32 81.6354 1357.03 73.5531C1356.89 72.7628 1357.04 72.314 1357.19 71.8652C1356.97 66.072 1356.76 60.2788 1356.06 54.4191C1355.36 58.7127 1355.21 63.0764 1354.83 67.4295C1354.75 68.3638 1353.83 69.2596 1353.3 70.1731C1351.42 71.243 1349.54 72.3128 1347.52 73.7203C1346.5 74.4739 1345.61 74.89 1344.73 75.3061C1343.81 75.8594 1342.89 76.4127 1341.93 77.3081C1342.5 77.9381 1343.13 78.2261 1344.01 78.4238C1345.88 77.384 1347.48 76.4343 1349.2 75.3337C1349.79 75.5254 1350.26 75.8679 1350.64 76.4398C1350.46 82.4225 1350.37 88.1756 1350.39 94.0929C1349.92 94.417 1349.34 94.5767 1348.33 94.7016C1340.83 94.5127 1333.76 94.3587 1326.51 94.3297C1323.72 92.9786 1325.51 92.203 1327.81 91.3394C1329.88 89.4438 1331.72 87.6834 1333.38 85.7449C1332.56 85.4019 1331.94 85.2368 1331.31 85.0718C1329.23 86.8752 1326.98 88.6201 1325.12 90.4979C1323.11 92.5141 1320.56 93.5109 1316.34 93.0878C1313.69 92.8212 1310.94 92.9185 1308.01 93.2586C1308.67 93.4825 1309.31 93.7341 1309.99 93.9259C1316.37 95.7115 1317.43 97.4826 1314.43 101.036C1303.18 114.344 1295.33 128.23 1296.32 143.48C1296.62 148.181 1297.91 152.876 1298.82 157.938C1296.27 157.876 1293.59 158.081 1291.24 157.634C1290.13 157.425 1289.02 155.948 1289.02 155.068C1289.14 144.163 1289.61 133.265 1289.6 122.359C1289.6 120.04 1287.83 117.71 1287.29 115.359C1286.57 112.276 1286.16 109.17 1285.81 106.069C1285.63 104.376 1285.74 102.668 1285.93 100.978C1286.11 99.2713 1284.97 98.6285 1281.46 99.1319C1281.42 100.94 1281.63 102.893 1281.21 104.79C1281.03 105.626 1279.67 106.383 1278.71 107.114C1276.75 108.604 1274.7 110.052 1272.8 111.871C1272.55 112.578 1272.18 112.931 1271.81 113.285C1271.64 113.499 1271.47 113.713 1271.47 114.192C1271.18 114.751 1270.73 115.046 1270.28 115.34C1269.96 118.214 1269.24 121.089 1269.43 123.959C1269.6 126.583 1268.03 127.424 1263.74 127.018C1261.51 126.807 1259.21 126.87 1256.23 126.957C1253 127.156 1250.49 127.207 1248.53 127.248C1247.66 128.705 1247.01 129.801 1246.36 130.896C1246.27 132.163 1246.19 133.43 1246.34 135.015C1246.02 135.465 1245.46 135.596 1244.9 135.726C1242.04 135.633 1239.17 135.416 1236.33 135.51C1235.27 135.546 1234.32 136.307 1233.07 137.124C1231.07 137.647 1229.32 137.785 1227.57 137.923C1227.35 144.387 1227.17 150.853 1226.87 157.315C1226.83 158.187 1226.14 159.039 1225.14 160.027C1224.06 159.194 1223.59 158.234 1223.13 157.274C1219.24 156.951 1215.35 156.627 1211.13 155.903C1210.81 151.149 1210.72 146.794 1210.85 142.445C1210.91 140.436 1211.4 138.439 1211.69 136.437C1211.01 135.416 1210.34 134.396 1209.03 133.229C1205.25 132.678 1202.12 132.274 1198.98 131.869C1198.98 131.869 1199.04 131.84 1198.73 131.869C1197.87 131.895 1197.32 131.892 1196.77 131.889C1195.38 131.86 1194 131.831 1192.2 132.09C1191.61 137.971 1191.48 143.569 1191.15 149.158C1191.11 149.952 1190.07 150.711 1189.5 151.486C1186.61 151.415 1183.73 151.345 1179.94 151.253C1180.28 137.205 1180.62 123.3 1180.55 109.08C1179.67 107.652 1179.19 106.537 1178.72 105.422C1176.98 103.735 1175.24 102.047 1173.05 100.189C1172.23 99.853 1171.85 99.6875 1171.47 99.5221C1164.81 103.149 1161.21 107.344 1161.48 113.055C1161.95 122.88 1161.15 132.704 1161.03 142.532C1161.01 144.136 1160.43 145.158 1157.72 145.799C1153.41 146.815 1150.25 149.547 1143.91 148.43C1144 144.874 1144.05 141.246 1144.19 137.621C1144.25 136.175 1144.46 134.831 1141.75 133.874C1140.91 133.578 1140.93 132.465 1140.45 131.75C1140.04 131.135 1139.63 130.12 1138.95 130.029C1135.24 129.526 1135.73 127.986 1135.8 126.468C1135.9 123.881 1135.93 121.292 1135.98 119.436C1134.26 118.042 1133.29 117.126 1132.09 116.333C1131.13 115.7 1129.94 114.812 1128.75 114.737C1124.23 114.448 1119.67 114.443 1113.94 114.304C1113.7 124.058 1113.47 133.507 1113.24 143.075C1110.46 143.007 1108.88 142.969 1106.83 142.919C1106.88 141.039 1106.92 139.301 1106.96 137.364C1104.13 137.219 1101.74 137.097 1099.16 136.965C1098.7 135.075 1098.24 133.219 1097.87 131.719C1094.17 131.629 1091.33 131.559 1087.63 131.469C1087.38 133.258 1087.1 135.307 1086.78 137.61C1082.57 137.507 1078.51 137.408 1074.83 137.318C1072.89 143.112 1071.04 148.619 1069.24 153.992C1064.71 154.152 1063.62 153.087 1063.77 151.059C1064.05 147.235 1064.01 143.396 1064.1 139.334C1060.29 139.241 1056.73 139.154 1052.8 139.058C1052.6 140.039 1052.4 141.057 1052.16 142.251C1050.45 142.21 1048.87 142.171 1046.67 142.118C1046.75 138.858 1046.83 135.612 1046.91 132.23C1042.11 132.112 1037.9 132.01 1034.18 131.919C1028.27 138.623 1030.03 145.839 1029.6 152.873C1029.53 154.013 1029.54 155.156 1029.51 156.372C1024.58 156.696 1019.91 156.727 1015.55 157.384C1012.49 157.846 1009.85 159.173 1007 160.085C1006.14 160.36 1003.89 168.121 1002.64 168.397C1002.21 172.201 991.224 277.314 993.5 278.55C1528.22 295 1684.72 278.55 2213 295C2213.08 291.586 2209.76 194.711 2209.42 191.013C2204.3 190.584 2199.59 190.454 2194.88 190.335C2192.25 190.268 2190.67 189.781 2190.67 187.942C2190.68 181.655 2190.33 175.362 2190.36 169.076C2190.37 167.149 2190.37 165.383 2187.45 164.068C2187.52 161.246 2187.59 158.423 2187.67 155.13C2182.47 155.003 2177.54 154.883 2171.92 154.585C2171.02 152.328 2170.53 150.237 2170.69 148.172C2170.88 145.695 2168.98 145.344 2165.49 145.873C2165.68 146.404 2165.83 146.822 2165.97 147.241C2166.42 149.045 2166.87 150.85 2167.4 153.107C2164.2 153.73 2160.91 153.827 2157.67 154.097C2155.18 154.305 2152.75 154.732 2150.29 155.061C2149.8 155.087 2149.3 155.112 2148.46 155.335C2147.54 155.403 2146.96 155.274 2146.38 155.145C2145.93 155.12 2145.47 155.096 2144.82 155.454C2144.46 162.556 2144.36 169.278 2144.04 175.993C2144 176.787 2142.71 177.54 2142 178.313C2142 178.313 2142.18 178.43 2142.15 178.611C2142.1 179.058 2142.24 179.372 2142.06 179.581C2141.4 180.318 2140.62 181.018 2139.9 181.733C2139.14 181.009 2138.03 180.328 2137.73 179.551C2137.37 178.623 2137.71 177.613 2137.74 176.639C2137.74 176.639 2137.68 176.718 2137.34 176.68C2136.11 173.38 2135.21 170.118 2134.32 166.856C2132.87 166.72 2131.42 166.584 2129.25 166.564C2128.12 166.27 2127.71 165.861 2127.3 165.452C2127.48 159.805 2127.58 154.155 2127.89 148.513C2127.98 146.862 2126.67 146.514 2123.69 146.704C2122.49 145.868 2121.94 144.961 2121.63 144.446C2120.98 144.987 2120.08 145.747 2119.18 146.506C2116.94 146.452 2114.71 146.397 2111.95 146.33C2112.02 143.359 2112.09 140.651 2111.73 137.711C2110.91 137.455 2110.52 137.429 2110.12 137.404C2110.05 140.205 2109.98 143.006 2109.91 145.905C2107.52 146.019 2105.79 146.102 2103.55 146.209C2103.51 147.928 2103.47 149.578 2103.37 151.656C2102.61 152.273 2101.91 152.462 2101.21 152.65C2100.8 153.457 2100.39 154.263 2099.71 155.418C2099.25 163.79 2099.1 171.813 2098.8 179.832C2098.77 180.488 2097.71 181.115 2097.13 181.756C2094.67 181.622 2092.21 181.489 2089.22 181.094C2088.82 175.367 2088.95 169.9 2089.09 164.212C2087.08 164.442 2085.92 164.676 2084.74 164.685C2082.78 164.701 2082.58 164.391 2083.42 162.991C2083.54 159.621 2083.66 156.251 2083.34 152.626C2082.08 151.818 2080.69 151.307 2080.53 150.703C2079.76 147.807 2079.32 144.886 2078.76 141.974C2077.47 142.155 2076.17 142.336 2075.15 142.876C2075.43 143.836 2075.64 144.47 2075.41 145.033C2074.65 146.818 2073.73 148.577 2072.88 150.347C2072.76 150.599 2072.83 150.979 2072.56 151.096C2068.85 152.677 2070.33 155.066 2070.04 157.164C2069.86 158.485 2070.2 159.855 2069.8 161.139C2069.35 162.543 2068.19 162.371 2067.21 161.176C2067.21 161.176 2067.06 160.985 2066.61 160.93C2065.27 160.89 2064.38 160.905 2063.49 160.92C2063.49 160.92 2063.28 161.046 2063.35 161.317C2062.7 162.793 2061.79 162.873 2060.7 161.683C2060.7 161.683 2060.51 161.455 2059.97 161.386C2058.46 161.335 2057.51 161.354 2056.55 161.373C2056.15 161.743 2055.76 162.112 2055.23 162.846C2051.97 164.049 2048.92 164.491 2046.21 162.608C2046.21 162.608 2046.11 162.647 2045.75 162.626C2042.66 162.581 2039.93 162.558 2037.19 162.535C2037.19 162.535 2037.05 162.531 2036.98 162.766C2031.45 163.795 2029.71 163.385 2029.75 161.1C2029.85 155.533 2030.16 149.971 2030.38 144.407C2030.38 144.407 2030.32 144.411 2030.06 144.463C2029.43 144.181 2029.07 143.845 2028.7 143.51C2028.7 143.116 2028.7 142.722 2028.36 142.051C2027.84 140.716 2027.67 139.658 2027.49 138.6C2027.58 138.023 2027.67 137.446 2027.22 136.646C2023.99 135.78 2020.37 137.397 2018.37 135.113C2018.38 134.861 2018.39 134.61 2018.03 134.271C2017.67 134.184 2017.42 134.07 2017.42 134.07C2015.93 134.796 2014.44 135.521 2012.81 136.579C2012.08 137.161 2011.48 137.41 2010.89 137.66C2010.89 137.66 2010.9 137.667 2010.9 137.831C2010.34 138.243 2009.78 138.491 2009.23 138.74C2008.92 139.66 2008.37 140.574 2008.33 141.503C2008.08 147.548 2007.95 153.596 2007.99 160.035C2007.09 162.107 2005.97 163.786 2004.85 165.466C2004.3 165.513 2003.74 165.56 2003.01 165.967C2002.45 168.152 2002.06 169.975 2001.67 171.799C2001.5 172.641 2001.33 173.484 2001.12 174.583C1998.75 174.525 1996.56 174.472 1993.9 174.636C1993.07 175.335 1992.93 175.967 1992.31 176.261C1991.29 176.749 1989.46 177.496 1988.86 177.278C1987.7 176.856 1986.5 175.832 1986.48 175.066C1986.36 170.269 1986.59 165.475 1986.61 160.678C1986.62 159.825 1986.27 158.956 1985.94 158.11C1985.42 156.716 1984.78 155.334 1984.18 153.947C1983.9 153.711 1983.62 153.475 1982.87 153.184C1981.94 152.869 1981.47 152.609 1981.01 152.35C1978.39 152.288 1977.98 151.405 1978 150.047C1978.06 147.159 1977.78 144.263 1976.94 141.215C1975.88 140.43 1975.55 139.796 1975.16 139.174C1973.54 136.581 1971.91 133.991 1970.28 131.4C1970.16 131.617 1970.03 131.834 1970.12 132.353C1969.86 133.282 1969.4 133.91 1968.93 134.538C1968.56 134.906 1968.2 135.274 1967.81 136.017C1967.3 141.812 1966.88 147.234 1966.25 152.646C1966.2 153.139 1964.86 153.562 1964.12 154.017C1961.87 153.939 1959.63 153.86 1956.79 153.89C1955.8 153.661 1955.4 153.323 1954.99 152.985C1955.1 150.03 1955.22 147.076 1954.75 143.912C1952.4 143.72 1950.63 143.737 1948.27 143.76C1948.21 146.075 1948.14 148.247 1948.11 150.421C1948.07 152.842 1946.07 153.26 1942.61 152.237C1941.9 152.193 1941.2 152.149 1939.91 152.243C1939.01 151.458 1938.69 150.536 1938.37 149.614C1938.23 149.275 1938.1 148.936 1937.47 148.378C1936.78 146.725 1936.59 145.293 1936.39 143.861C1936.33 143.776 1936.27 143.692 1935.69 143.446C1935.11 139.308 1935.07 135.332 1935.02 131.355C1935.02 131.355 1934.97 131.149 1934.54 131.057C1933.76 130.588 1933.4 130.209 1933.05 129.831C1932.74 129.57 1932.42 129.309 1931.58 128.856C1930.67 127.127 1930.28 125.589 1929.74 123.468C1928.49 125.461 1927.65 126.801 1926.81 128.142C1926.34 128.631 1925.87 129.12 1925.43 129.962C1924.69 130.997 1923.91 131.679 1923.14 132.361C1922.93 138.437 1922.72 144.513 1922.73 150.919C1922.77 151.491 1922.6 151.734 1922.43 151.976C1922.11 151.881 1921.8 151.785 1921.49 151.69C1918.04 151.588 1914.59 151.487 1910.32 151.352C1909.21 150.396 1908.67 149.468 1908.68 148.551C1908.77 141.61 1908.92 134.669 1909.19 127.733C1909.25 126.043 1909.3 124.471 1906.43 123.438C1906.53 115.537 1906.64 107.636 1906.37 99.3939C1904.64 96.1526 1903.3 93.2529 1901.96 90.3532C1901.43 89.7476 1900.89 89.142 1899.83 88.4003C1898.97 87.8708 1898.65 87.4773 1898.32 87.0839C1895.85 85.7955 1893.38 84.5071 1890.25 83.1725C1888.86 82.246 1887.58 81.3699 1887.52 80.4847C1887.32 77.5443 1887.66 74.6012 1887.56 71.6581C1887.53 70.7626 1886.77 69.8635 1886.35 68.966C1886.04 68.9707 1885.79 69.042 1885.67 69.5498C1885.72 72.9402 1885.72 75.9613 1885.64 78.9806C1885.63 79.4958 1885.61 80.2901 1885.09 80.468C1881.77 81.6036 1882.67 83.495 1882.57 85.1994C1882.46 87.1518 1882.56 89.1135 1882.35 91.0596C1882.28 91.6917 1881.62 92.7908 1881.06 92.8195C1876.79 93.0387 1878.03 94.8994 1877.7 96.3673C1877.3 98.1646 1876.64 99.9381 1876.09 101.722C1875.65 101.724 1875.2 101.725 1874.4 102.001C1873.53 104.226 1873.02 106.177 1872.52 108.128C1872.52 108.128 1872.3 108.096 1872.14 108.313C1871.04 108.685 1870.1 108.84 1869.16 108.996C1869.02 112.365 1868.88 115.735 1868.85 119.559C1867.72 120.24 1866.48 120.467 1865.24 120.693Z" fill="url(#paint1_linear_427_4680)" fill-opacity="0.2"/>
<defs>
<linearGradient id="paint0_linear_427_4680" x1="1139.72" y1="420.099" x2="1117.73" y2="-188.578" gradientUnits="userSpaceOnUse">
<stop stop-color="white"/>
<stop offset="1" stop-color="#006199"/>
</linearGradient>
<linearGradient id="paint1_linear_427_4680" x1="1139.72" y1="420.099" x2="1117.73" y2="-188.578" gradientUnits="userSpaceOnUse">
<stop stop-color="white"/>
<stop offset="1" stop-color="#006199"/>
</linearGradient>
</defs>
</svg>
