<svg width="20" height="21" viewBox="0 0 20 21" fill="none" xmlns="http://www.w3.org/2000/svg">
<g id="vuesax/linear/money-3">
<path id="Vector" d="M14.166 17.5834H5.83268C3.33268 17.5834 1.66602 16.3334 1.66602 13.4167V7.58341C1.66602 4.66675 3.33268 3.41675 5.83268 3.41675H14.166C16.666 3.41675 18.3327 4.66675 18.3327 7.58341V13.4167C18.3327 16.3334 16.666 17.5834 14.166 17.5834Z" stroke="#475569" stroke-width="1.2" stroke-miterlimit="10" stroke-linecap="round" stroke-linejoin="round"/>
<path id="Vector_2" d="M10 13C11.3807 13 12.5 11.8807 12.5 10.5C12.5 9.11929 11.3807 8 10 8C8.61929 8 7.5 9.11929 7.5 10.5C7.5 11.8807 8.61929 13 10 13Z" stroke="#475569" stroke-width="1.2" stroke-miterlimit="10" stroke-linecap="round" stroke-linejoin="round"/>
<path id="Vector_3" d="M15.834 6.33325H13.334" stroke="#475569" stroke-width="1.2" stroke-miterlimit="10" stroke-linecap="round" stroke-linejoin="round"/>
<path id="Vector_4" d="M6.66602 14.6667H4.16602" stroke="#475569" stroke-width="1.2" stroke-miterlimit="10" stroke-linecap="round" stroke-linejoin="round"/>
</g>
</svg>
