<svg width="20" height="21" viewBox="0 0 20 21" fill="none" xmlns="http://www.w3.org/2000/svg">
<g id="vuesax/linear/people">
<g id="people">
<g id="Group">
<path id="Vector" d="M15.0004 6.46675C14.9504 6.45842 14.8921 6.45842 14.8421 6.46675C13.6921 6.42508 12.7754 5.48342 12.7754 4.31675C12.7754 3.12508 13.7337 2.16675 14.9254 2.16675C16.1171 2.16675 17.0754 3.13342 17.0754 4.31675C17.0671 5.48342 16.1504 6.42508 15.0004 6.46675Z" stroke="#475569" stroke-width="1.2" stroke-linecap="round" stroke-linejoin="round"/>
<path id="Vector_2" d="M14.1422 12.5333C15.2839 12.725 16.5422 12.525 17.4255 11.9333C18.6005 11.15 18.6005 9.86664 17.4255 9.08331C16.5339 8.49164 15.2589 8.29163 14.1172 8.49163" stroke="#475569" stroke-width="1.2" stroke-linecap="round" stroke-linejoin="round"/>
</g>
<g id="Group_2">
<path id="Vector_3" d="M4.97344 6.46675C5.02344 6.45842 5.08177 6.45842 5.13177 6.46675C6.28177 6.42508 7.19844 5.48342 7.19844 4.31675C7.19844 3.12508 6.24011 2.16675 5.04844 2.16675C3.85677 2.16675 2.89844 3.13342 2.89844 4.31675C2.90677 5.48342 3.82344 6.42508 4.97344 6.46675Z" stroke="#475569" stroke-width="1.2" stroke-linecap="round" stroke-linejoin="round"/>
<path id="Vector_4" d="M5.83255 12.5333C4.69088 12.725 3.43255 12.525 2.54922 11.9333C1.37422 11.15 1.37422 9.86664 2.54922 9.08331C3.44089 8.49164 4.71588 8.29163 5.85755 8.49163" stroke="#475569" stroke-width="1.2" stroke-linecap="round" stroke-linejoin="round"/>
</g>
<g id="Group_3">
<path id="Vector_5" d="M10.0004 12.6916C9.95039 12.6833 9.89206 12.6833 9.84206 12.6916C8.69206 12.6499 7.77539 11.7083 7.77539 10.5416C7.77539 9.34994 8.73372 8.3916 9.92539 8.3916C11.1171 8.3916 12.0754 9.35827 12.0754 10.5416C12.0671 11.7083 11.1504 12.6583 10.0004 12.6916Z" stroke="#475569" stroke-width="1.2" stroke-linecap="round" stroke-linejoin="round"/>
<path id="Vector_6" d="M7.57461 15.3166C6.39961 16.0999 6.39961 17.3832 7.57461 18.1666C8.90794 19.0582 11.0913 19.0582 12.4246 18.1666C13.5996 17.3832 13.5996 16.0999 12.4246 15.3166C11.0996 14.4332 8.90794 14.4332 7.57461 15.3166Z" stroke="#475569" stroke-width="1.2" stroke-linecap="round" stroke-linejoin="round"/>
</g>
</g>
</g>
</svg>
