<svg xmlns="http://www.w3.org/2000/svg" fill="#79a429" viewBox="0 0 340 107" width="300px" height="94px">
  <defs/>
  <path d="M114.3 77.004c0 4.176-2.304 7.56-7.488 7.56-4.824 0-8.748-3.168-8.748-10.368s3.6-10.512 8.712-10.512c5.868 0 7.092 4.572 7.308 6.012.036.18-.036.396-.504.468l-1.512.252c-.396.072-.432-.072-.468-.252-.144-1.044-.936-4.176-4.788-4.176-3.276 0-6.012 2.304-6.012 8.172 0 5.94 3.132 8.064 6.084 8.064 3.384 0 4.824-2.124 4.824-5.256v-.864h-4.644c-.288 0-.432-.144-.432-.432v-1.188c0-.288.18-.432.468-.432h6.804c.288 0 .432.144.432.432v2.52h-.036zm3.996-3.384c0-.792-.216-1.296-.864-1.404-.072-.036-.324-.072-.324-.396v-1.152c0-.324.36-.504 1.116-.504 1.188 0 2.34.612 2.34 2.232v.72c.432-1.512 1.728-3.024 4.392-3.024.72 0 1.26.144 1.584.252.252.072.324.216.216.468l-.72 1.62c-.108.252-.252.324-.468.252-.252-.072-.72-.216-1.296-.216-2.304 0-3.348 2.232-3.384 3.888v7.596c0 .288-.108.468-.396.468h-1.728c-.288 0-.432-.144-.432-.432V73.62h-.036zm9.792 3.708c0-4.536 2.448-7.236 6.264-7.236 3.852 0 6.3 2.7 6.3 7.236 0 4.5-2.448 7.236-6.3 7.236s-6.264-2.7-6.264-7.236zm9.972 0c0-3.384-1.512-5.076-3.708-5.076s-3.708 1.692-3.708 5.076 1.512 5.076 3.708 5.076c2.268 0 3.708-1.692 3.708-5.076zm18.756 6.696c0 .252-.252.468-1.188.468-1.584 0-2.34-.864-2.34-2.34v-.108c-.648 1.332-2.124 2.556-4.824 2.556-3.024 0-4.5-1.8-4.5-5.076V70.74c0-.288.144-.432.432-.432h1.692c.288 0 .432.18.432.468v8.46c0 2.448 1.152 3.24 2.772 3.24 2.628 0 3.672-2.736 3.672-3.852v-7.848c0-.288.108-.432.396-.432h1.764c.288 0 .432.18.432.468v10.332c0 .54.072 1.224.828 1.404.252.072.396.108.396.54v.936h.036zm2.484-13.392c0-.288.252-.468 1.188-.468 1.224 0 2.34.72 2.34 2.088v.396c.216-.396 1.296-2.556 4.5-2.556 2.916 0 5.688 2.088 5.688 7.164 0 5.292-2.772 7.344-5.832 7.344s-4.104-2.124-4.104-2.124v8.64c0 .288-.108.432-.396.432h-1.764c-.288 0-.432-.18-.432-.468V73.548c0-.54-.108-1.188-.828-1.332-.108-.036-.396-.072-.396-.54v-1.044h.036zm3.78 8.82c.036.396.792 2.952 3.6 2.952 2.16 0 3.78-1.656 3.78-5.148 0-3.6-1.872-5.004-3.816-5.004-2.88 0-3.564 3.096-3.564 3.096v4.104zm-48.636-30.564c.504.54.504.9.216 1.224-.864 1.116-3.096 3.384-7.2 3.384-5.868 0-9.828-3.636-9.828-10.404 0-6.732 3.492-10.476 9.252-10.476 6.696 0 7.956 4.968 8.136 6.876.036.432-.18.612-.612.684l-2.916.432c-.576.072-.756-.144-.864-.54-.216-1.08-.9-3.312-3.672-3.312-2.592 0-4.464 2.016-4.464 6.3 0 4.32 2.484 6.228 5.184 6.228 1.944 0 3.384-1.26 4.14-2.016.324-.396.684-.468 1.044-.072l1.584 1.692zm14.724-.432h-6.84l-1.332 4.104c-.108.324-.18.756-.72.756h-3.672c-.468 0-.612-.396-.468-.828l6.84-18.072c.468-1.188.9-1.656 1.98-1.656h1.836c1.116 0 1.584.432 1.98 1.656l6.624 18.072c.144.396 0 .828-.468.828h-3.672c-.54 0-.612-.396-.72-.792l-1.368-4.068zm-5.652-3.528h4.5l-2.268-6.696-2.232 6.696zm26.244-6.516c-.504.324-.756.252-.9.072-.432-.648-1.692-1.944-4.032-1.908-1.728-.036-2.772.756-2.772 1.908.036 3.924 10.476 1.26 10.476 9.072 0 2.916-2.16 5.94-7.812 5.94-5.292 0-7.596-2.736-8.28-3.888a.67.67 0 01.144-.9l1.8-1.692c.252-.252.684-.36.936 0 .72.864 2.484 2.664 5.364 2.664 1.8 0 2.844-.792 2.844-2.016 0-4.392-10.62-1.152-10.62-9.144 0-3.168 2.7-5.904 7.524-5.904 4.932 0 6.948 2.448 7.596 3.528.108.216.216.54-.252.864l-2.016 1.404zm12.132 5.4c0-1.044-.612-1.188-.792-1.188-.288 0-.36-.252-.36-.648v-2.16c0-.54.468-.756 1.8-.756 1.656 0 2.736.72 3.096 2.124v.18c.396-1.044 1.404-2.304 4.104-2.304.648 0 1.368.108 1.872.36.36.144.432.36.216.864l-1.296 2.844c-.18.396-.252.36-.54.252-.324-.108-.828-.288-1.62-.288-1.548 0-2.124 1.296-2.124 2.196v7.416c0 .432-.252.684-.648.684h-3.096c-.432 0-.684-.252-.684-.684v-8.892h.072zm15.192 3.132v.072c.072 2.16 2.16 2.88 3.168 2.88 1.512 0 2.484-.828 2.988-1.332.18-.18.396-.324.72-.072l1.548 1.656c.252.252.216.432.072.648-.648.9-2.448 2.736-5.976 2.736-4.14 0-6.984-2.736-6.984-7.2 0-4.32 2.16-7.272 6.984-7.272 4.212 0 6.012 2.592 6.012 6.732 0 .972-.144 1.188-.72 1.188h-7.812v-.036zm4.356-2.34c0-1.368-.72-2.16-2.052-2.16-1.08 0-1.872.648-2.16 2.16h4.212zm13.248-5.58c3.852 0 5.868 2.16 5.868 4.752 0 .612 0 1.8-.936 1.8h-2.16c-.72 0-.756-.18-.756-.864 0-.864-.36-1.8-1.98-1.8-1.728 0-2.592 1.044-2.592 3.312 0 2.556 1.656 3.384 3.24 3.384 1.332 0 2.232-.54 2.736-.972.396-.288.648-.468 1.044-.072l1.188 1.26c.504.504.504.9.252 1.188-.72.828-2.484 2.484-5.868 2.484-4.104 0-6.948-2.736-6.948-7.2-.036-4.32 2.124-7.272 6.912-7.272zm9.144 4.788c0-1.044-.612-1.188-.792-1.188-.288 0-.36-.252-.36-.648v-2.16c0-.54.468-.756 1.8-.756 1.656 0 2.736.72 3.096 2.124v.18c.396-1.044 1.404-2.304 4.104-2.304.648 0 1.368.108 1.872.36.36.144.432.36.216.864l-1.296 2.844c-.18.396-.252.36-.54.252-.324-.108-.828-.288-1.62-.288-1.548 0-2.124 1.296-2.124 2.196v7.416c0 .432-.252.684-.648.684h-3.06c-.432 0-.684-.252-.684-.684v-8.892h.036zm25.92 8.676c0 .396-.252 1.008-1.944 1.008-1.764 0-2.772-.72-3.132-2.268v-.036c-.504 1.044-1.728 2.304-4.5 2.304-3.384 0-4.5-2.16-4.5-5.112v-8.532c0-.432.216-.684.684-.684h3.096c.396 0 .648.252.648.72v7.38c0 1.548.684 2.268 1.656 2.268 2.16 0 2.412-2.268 2.412-2.592v-7.056c0-.432.18-.684.648-.684h3.096c.432 0 .684.252.684.72v8.784c0 .72.252 1.044.684 1.188.252.072.468.18.468.684v1.908zm4.788-15.696c-1.512 0-2.7-1.044-2.7-2.592 0-1.512 1.188-2.592 2.7-2.592s2.772 1.116 2.772 2.592c0 1.548-1.26 2.592-2.772 2.592zm3.384 15.696c0 .396-.252 1.008-1.944 1.008-2.376.036-3.636-1.26-3.636-3.996v-9.612c0-.468.18-.72.648-.72h3.096c.432 0 .684.252.684.72v8.82c0 1.008.504 1.188.828 1.188.252.036.324.18.324.612v1.98zm12.06-13.284c.432 0 .684.252.684.684v2.124a.64.64 0 01-.684.684h-3.96v4.068c0 1.944.684 2.808 2.124 2.808.72 0 1.26-.252 1.584-.396.216-.108.468-.216.648.18l.864 2.196c.216.504.036.72-.216.864-.612.396-1.8 1.08-3.384 1.08-4.392 0-6.048-2.376-6.048-6.552v-4.248h-1.44c-.396 0-.648-.252-.648-.684v-2.124c0-.396.252-.684.648-.684h1.44v-3.708c0-.468.18-.72.648-.72h3.096c.432 0 .684.252.684.72v3.708h3.96zm25.236 9.504c0 .864.396 1.188.792 1.188.288 0 .36.18.36.648v1.944c0 .396-.252 1.008-1.944 1.008-2.412 0-3.672-1.26-3.672-3.996v-4.32c0-1.368-.756-2.196-1.944-2.196-1.224 0-1.8.864-1.98 1.656v4.032c0 .864.396 1.188.792 1.188.288 0 .36.18.36.648v1.944c0 .396-.252 1.008-1.944 1.008-2.412 0-3.636-1.26-3.636-3.996v-4.32c0-1.368-.756-2.196-1.944-2.196-1.584 0-2.088 1.332-2.124 2.268v7.416c0 .432-.252.684-.648.684h-3.096c-.468 0-.684-.252-.684-.72v-8.82c0-.936-.54-1.152-.828-1.188-.252 0-.324-.216-.324-.648v-1.98c0-.396.252-.972 1.944-.972 1.656 0 2.7.684 3.06 1.98v.216c.396-1.044 1.476-2.196 4.032-2.196 2.124 0 3.528.936 4.248 2.304.432-1.044 1.368-2.304 4.104-2.304 3.6 0 5.04 2.556 5.04 5.616v4.104h.036zm7.236-1.764v.072c.072 2.16 2.16 2.88 3.168 2.88 1.512 0 2.484-.828 2.988-1.332.18-.18.396-.324.72-.072l1.548 1.656c.252.252.216.432.072.648-.648.9-2.448 2.736-5.976 2.736-4.14 0-6.984-2.736-6.984-7.2 0-4.32 2.16-7.272 6.984-7.272 4.212 0 6.012 2.592 6.012 6.732 0 .972-.144 1.188-.72 1.188h-7.812v-.036zm4.356-2.34c0-1.368-.72-2.16-2.052-2.16-1.08 0-1.872.648-2.16 2.16h4.212zm7.488-.792c0-.72-.252-1.008-.612-1.116-.252-.072-.54-.18-.54-.72v-1.944c0-.396.252-.972 1.944-.972 1.656 0 2.7.648 3.06 1.98v.216c.396-1.044 1.476-2.196 4.032-2.196 3.6 0 5.04 2.556 5.04 5.616v4.032c0 .756.252 1.044.576 1.152.252.108.54.18.54.72v1.944c0 .396-.252 1.008-1.944 1.008-2.412 0-3.636-1.26-3.636-3.996v-4.32c0-1.368-.756-2.196-1.944-2.196-1.584 0-2.088 1.332-2.124 2.268v7.416c0 .432-.252.684-.648.684h-3.096c-.468 0-.684-.252-.684-.72v-8.856h.036zm25.704-4.608c.432 0 .684.252.684.684v2.124a.64.64 0 01-.684.684h-3.96v4.068c0 1.944.684 2.808 2.124 2.808.72 0 1.26-.252 1.584-.396.216-.108.468-.216.648.18l.864 2.196c.216.504.036.72-.216.864-.612.396-1.8 1.08-3.384 1.08-4.392 0-6.048-2.376-6.048-6.552v-4.248h-1.44c-.396 0-.648-.252-.648-.684v-2.124c0-.396.252-.684.648-.684h1.44v-3.708c0-.468.18-.72.648-.72h3.096c.432 0 .684.252.684.72v3.708h3.96zM331.38 35.1c.216 0 .288.108.288.324v.468c0 .18-.108.288-.324.288H329.4v5.868c0 .18-.108.288-.288.288h-.792c-.216 0-.288-.108-.288-.324V36.18h-2.052c-.216 0-.288-.108-.288-.288v-.468c0-.252.108-.324.288-.324h5.4zm6.588 2.16l-1.764 3.816c-.072.144-.18.252-.54.252s-.504-.108-.54-.252l-1.728-3.816v4.788c0 .18-.108.288-.288.288h-.576c-.216 0-.288-.108-.288-.324v-6.624c0-.18.108-.288.324-.288h.756a.46.46 0 01.396.288l1.98 4.464 2.016-4.464a.505.505 0 01.396-.288h.72c.18 0 .288.072.288.288v6.66c0 .18-.108.288-.288.288h-.576c-.216 0-.288-.108-.288-.324V37.26z"/>
  <circle cx="52.596" cy="21.42" r="4.5"/>
  <circle cx="52.596" cy="10.548" r="3.132"/>
  <circle cx="52.596" cy="1.944" r="1.656"/>
  <circle cx="52.596" cy="85.248" r="4.5"/>
  <circle cx="52.596" cy="96.084" r="3.132"/>
  <circle cx="52.596" cy="104.69" r="1.656"/>
  <circle cx="8.924" cy="20.447" r="4.5" transform="rotate(-19.999 33.471 -71.014)"/>
  <circle cx="5.217" cy="10.258" r="3.132" transform="rotate(-19.999 29.764 -81.202)"/>
  <circle cx="2.264" cy="2.16" r="1.656" transform="rotate(-19.999 26.811 -89.302)"/>
  <circle cx="5.899" cy="5.909" r="4.5" transform="rotate(-19.999 254.192 -118.735)"/>
  <circle cx="9.606" cy="16.097" r="3.132" transform="rotate(-19.999 257.899 -108.546)"/>
  <circle cx="12.558" cy="24.196" r="1.656" transform="rotate(-19.999 260.85 -100.447)"/>
  <circle cx="15.153" cy="17.352" r="4.5" transform="rotate(-40.002 39.439 -.13)"/>
  <circle cx="8.167" cy="9.047" r="3.132" transform="rotate(-40.002 32.452 -8.435)"/>
  <circle cx="2.66" cy="2.437" r="1.656" transform="rotate(-40.002 26.945 -15.046)"/>
  <circle cx="6.505" cy="6.471" r="4.5" transform="rotate(-40.002 137.72 -49.377)"/>
  <circle cx="13.463" cy="14.799" r="3.132" transform="rotate(-40.002 144.679 -41.047)"/>
  <circle cx="18.998" cy="21.386" r="1.656" transform="rotate(-40.002 150.214 -34.46)"/>
  <circle cx="19.19" cy="12.175" r="4.5" transform="rotate(-59.999 43.894 19.786)"/>
  <circle cx="9.785" cy="6.749" r="3.132" transform="rotate(-59.999 34.49 14.362)"/>
  <circle cx="2.349" cy="2.445" r="1.656" transform="rotate(-59.999 27.053 10.057)"/>
  <circle cx="21.153" cy="5.653" r="4.5" transform="rotate(-80.003 46.25 26.712)"/>
  <circle cx="10.483" cy="3.783" r="3.132" transform="rotate(-80.003 35.58 24.843)"/>
  <circle cx="1.987" cy="2.26" r="1.656" transform="rotate(-80.003 27.084 23.32)"/>
  <circle cx="21.162" cy="5.22" r="4.5" transform="rotate(-9.997 327.803 32.04)"/>
  <circle cx="10.468" cy="7.094" r="3.132" transform="rotate(-9.997 317.109 33.914)"/>
  <circle cx="2.01" cy="8.601" r="1.656" transform="rotate(-9.997 308.653 35.42)"/>
  <circle cx="19.18" cy="6.267" r="4.5" transform="rotate(-30.001 139.614 27.019)"/>
  <circle cx="9.792" cy="11.703" r="3.132" transform="rotate(-30.001 130.226 32.455)"/>
  <circle cx="2.344" cy="16.017" r="1.656" transform="rotate(-30.001 122.778 36.769)"/>
  <circle cx="15.144" cy="6.49" r="4.5" transform="rotate(-49.998 100.038 23.987)"/>
  <circle cx="8.17" cy="14.813" r="3.132" transform="rotate(-49.998 93.063 32.31)"/>
  <circle cx="2.642" cy="21.382" r="1.656" transform="rotate(-49.998 87.536 38.879)"/>
  <circle cx="6.507" cy="17.351" r="4.5" transform="rotate(-49.998 52.16 -48.304)"/>
  <circle cx="13.457" cy="9.056" r="3.132" transform="rotate(-49.998 59.11 -56.6)"/>
  <circle cx="19.009" cy="2.459" r="1.656" transform="rotate(-49.998 64.662 -63.195)"/>
  <circle cx="8.913" cy="5.898" r="4.5" transform="rotate(-70.001 80.56 21.206)"/>
  <circle cx="5.202" cy="16.087" r="3.132" transform="rotate(-70.001 76.85 31.394)"/>
  <circle cx="2.257" cy="24.189" r="1.656" transform="rotate(-70.001 73.905 39.496)"/>
  <circle cx="5.9" cy="20.455" r="4.5" transform="rotate(-70.001 36.757 -19.235)"/>
  <circle cx="9.611" cy="10.267" r="3.132" transform="rotate(-70.001 40.467 -29.423)"/>
  <circle cx="12.556" cy="2.164" r="1.656" transform="rotate(-70.001 43.412 -37.525)"/>
  <path d="M52.596 76.176c-5.868 0-11.7-2.232-16.164-6.696-8.928-8.928-8.928-23.436 0-32.364s23.436-8.928 32.364 0a5.454 5.454 0 010 7.704 5.454 5.454 0 01-7.704 0c-4.68-4.68-12.276-4.68-16.956 0s-4.68 12.276 0 16.956 12.276 4.68 16.956 0a5.454 5.454 0 017.704 0 5.454 5.454 0 010 7.704 22.9 22.9 0 01-16.2 6.696z"/>
</svg>
