<svg width="551" height="254" viewBox="0 0 551 254" fill="none" xmlns="http://www.w3.org/2000/svg">
<path d="M1 252.284C116.096 227.978 224.142 235.255 224.142 235.255V232.308H230.036L230.293 227.978H237.725L240.544 171.681L246.695 170.153L248.232 126.593H252.589V86.3454H258.484V48.1353H263.353V30.8134H264.891V19.0956H265.916V12.2178H266.428V7.37782H267.197V0.5H267.966V12.7272H268.479V17.3125H269.504V25.7187H270.529V34.1249H271.81V46.3521H273.092V60.1078H276.167V97.5537H281.805L282.83 138.566H286.931L288.981 182.89H293.338L296.413 224.666L302.308 224.411V230.015H308.458L309.227 235.11C309.227 235.11 416.366 226.943 550 253.5" stroke="url(#paint0_linear_427_4330)"/>
<defs>
<linearGradient id="paint0_linear_427_4330" x1="551.833" y1="139.468" x2="3.85181" y2="139.468" gradientUnits="userSpaceOnUse">
<stop stop-color="white"/>
<stop offset="0.217363" stop-color="#0091e6"/>
<stop offset="0.835887" stop-color="#0091e6"/>
<stop offset="1" stop-color="white"/>
</linearGradient>
</defs>
</svg>
