<svg width="135" height="93" viewBox="0 0 135 93" fill="none" xmlns="http://www.w3.org/2000/svg">
<path id="Vector 10" d="M85.7668 65.2067L84.3246 64.7941L85.7668 65.2067ZM135 93L129.846 76.4642L118.102 89.1957L135 93ZM5.85521 5.19066C6.67425 5.06632 7.23743 4.30157 7.11309 3.48252C6.98876 2.66348 6.224 2.1003 5.40496 2.22464L5.85521 5.19066ZM14.8599 1.09188C14.0347 1.16496 13.425 1.89316 13.4981 2.71836C13.5712 3.54356 14.2994 4.15326 15.1246 4.08018L14.8599 1.09188ZM24.4406 3.5462C25.2688 3.52503 25.923 2.83651 25.9018 2.00836C25.8806 1.1802 25.1921 0.526011 24.364 0.547183L24.4406 3.5462ZM33.89 0.625799C33.0624 0.589725 32.3622 1.23142 32.3262 2.05906C32.2901 2.8867 32.9318 3.58688 33.7594 3.62295L33.89 0.625799ZM43.0294 4.39287C43.8514 4.49595 44.6013 3.91316 44.7044 3.09117C44.8075 2.26918 44.2247 1.51926 43.4027 1.41618L43.0294 4.39287ZM52.8271 3.06334C52.0196 2.87834 51.215 3.38299 51.03 4.1905C50.845 4.99801 51.3496 5.80259 52.1571 5.98758L52.8271 3.06334ZM61.0086 8.60216C61.7853 8.89036 62.6485 8.49437 62.9368 7.7177C63.225 6.94102 62.829 6.07776 62.0523 5.78956L61.0086 8.60216ZM70.8087 9.88723C70.0932 9.46976 69.1747 9.7114 68.7572 10.4269C68.3397 11.1425 68.5814 12.061 69.2969 12.4785L70.8087 9.88723ZM76.5847 17.8668C77.1882 18.4343 78.1375 18.405 78.705 17.8015C79.2725 17.198 79.2433 16.2487 78.6397 15.6812L76.5847 17.8668ZM84.8277 23.2784C84.3969 22.5707 83.4741 22.3463 82.7664 22.777C82.0588 23.2078 81.8344 24.1306 82.2651 24.8383L84.8277 23.2784ZM85.8514 33.0691C86.0804 33.8653 86.9115 34.325 87.7076 34.096C88.5038 33.8669 88.9635 33.0359 88.7345 32.2397L85.8514 33.0691ZM90.3321 41.8335C90.2833 41.0065 89.5732 40.3758 88.7462 40.4247C87.9193 40.4735 87.2885 41.1836 87.3374 42.0105L90.3321 41.8335ZM87.0782 51.1597C86.9897 51.9834 87.5858 52.7229 88.4095 52.8113C89.2331 52.8998 89.9726 52.3037 90.061 51.48L87.0782 51.1597ZM88.4241 60.9491C88.6125 60.1424 88.1111 59.3357 87.3044 59.1474C86.4977 58.9591 85.691 59.4604 85.5027 60.2671L88.4241 60.9491ZM82.7536 69.7567C82.4792 70.5384 82.8905 71.3945 83.6721 71.6689C84.4538 71.9433 85.3099 71.5321 85.5843 70.7504L82.7536 69.7567ZM81.2095 80.4127C81.6353 79.702 81.4044 78.7808 80.6938 78.355C79.9831 77.9292 79.0619 78.1601 78.6361 78.8708L81.2095 80.4127ZM72.2215 85.4835C71.4692 85.8303 71.1404 86.7213 71.4872 87.4736C71.8339 88.226 72.725 88.5548 73.4773 88.208L72.2215 85.4835ZM62.2771 86.4944C62.9327 87.0008 63.8747 86.88 64.3812 86.2244C64.8876 85.5688 64.7668 84.6268 64.1112 84.1203L62.2771 86.4944ZM58.2811 76.5329C57.9129 75.7908 57.0128 75.4877 56.2707 75.8559C55.5286 76.2241 55.2255 77.1242 55.5937 77.8663L58.2811 76.5329ZM52.3523 67.5983C52.4748 68.4176 53.2383 68.9825 54.0576 68.8599C54.877 68.7374 55.4418 67.9739 55.3193 67.1546L52.3523 67.5983ZM55.8747 57.6334C56.1418 56.8493 55.7227 55.997 54.9385 55.7298C54.1543 55.4627 53.3021 55.8818 53.0349 56.666L55.8747 57.6334ZM60.8461 48.5744C60.0633 48.8455 59.6485 49.6999 59.9196 50.4827C60.1908 51.2655 61.0451 51.6803 61.8279 51.4092L60.8461 48.5744ZM71.1707 51.2718C71.9817 51.4408 72.7761 50.9202 72.945 50.1092C73.1139 49.2982 72.5934 48.5038 71.7824 48.3349L71.1707 51.2718ZM81.9097 51.76C81.1534 51.422 80.2662 51.7612 79.9282 52.5175C79.5902 53.2738 79.9294 54.161 80.6857 54.499L81.9097 51.76ZM89.5834 59.1344C90.298 59.5536 91.2171 59.3141 91.6362 58.5996C92.0554 57.885 91.8159 56.966 91.1014 56.5468L89.5834 59.1344ZM99.8708 62.1417C99.1874 61.6735 98.2538 61.8479 97.7855 62.5313C97.3173 63.2148 97.4917 64.1483 98.1751 64.6166L99.8708 62.1417ZM106.469 70.6205C107.128 71.1218 108.069 70.9935 108.571 70.334C109.072 69.6744 108.944 68.7334 108.284 68.2321L106.469 70.6205ZM116.453 74.6937C115.812 74.1683 114.867 74.2616 114.341 74.9021C113.816 75.5426 113.909 76.4878 114.55 77.0132L116.453 74.6937ZM122.52 83.7578C123.145 84.3018 124.093 84.2364 124.637 83.6116C125.181 82.9869 125.115 82.0394 124.49 81.4954L122.52 83.7578ZM132.062 88.249C131.45 87.6907 130.501 87.7341 129.942 88.3461C129.384 88.9581 129.428 89.9069 130.04 90.4652L132.062 88.249ZM1 4.48891L1.27469 5.96355C2.75017 5.6887 4.27979 5.42981 5.85521 5.19066L5.63008 3.70765L5.40496 2.22464C3.7969 2.46875 2.23422 2.7332 0.725307 3.01428L1 4.48891ZM14.9923 2.58603L15.1246 4.08018C18.1537 3.81191 21.2743 3.62715 24.4406 3.5462L24.4023 2.04669L24.364 0.547183C21.1318 0.629815 17.9484 0.818344 14.8599 1.09188L14.9923 2.58603ZM33.8247 2.12438L33.7594 3.62295C36.8647 3.7583 39.9683 4.009 43.0294 4.39287L43.2161 2.90453L43.4027 1.41618C40.2538 1.02131 37.0688 0.764348 33.89 0.625799L33.8247 2.12438ZM52.4921 4.52546L52.1571 5.98758C55.2193 6.6891 58.1848 7.55432 61.0086 8.60216L61.5304 7.19586L62.0523 5.78956C59.0923 4.69118 56.0005 3.79034 52.8271 3.06334L52.4921 4.52546ZM70.0528 11.1828L69.2969 12.4785C71.966 14.0357 74.4125 15.8243 76.5847 17.8668L77.6122 16.774L78.6397 15.6812C76.285 13.4671 73.652 11.5461 70.8087 9.88723L70.0528 11.1828ZM83.5464 24.0583L82.2651 24.8383C83.7675 27.3063 84.9802 30.0409 85.8514 33.0691L87.2929 32.6544L88.7345 32.2397C87.7905 28.9585 86.4709 25.9778 84.8277 23.2784L83.5464 24.0583ZM88.8347 41.922L87.3374 42.0105C87.5052 44.8509 87.4286 47.8963 87.0782 51.1597L88.5696 51.3199L90.061 51.48C90.4276 48.0659 90.5107 44.8537 90.3321 41.8335L88.8347 41.922ZM86.9634 60.6081L85.5027 60.2671C85.159 61.739 84.767 63.2478 84.3246 64.7941L85.7668 65.2067L87.2089 65.6192C87.6643 64.0275 88.0688 62.471 88.4241 60.9491L86.9634 60.6081ZM85.7668 65.2067L84.3246 64.7941C83.8151 66.5754 83.2905 68.2274 82.7536 69.7567L84.169 70.2536L85.5843 70.7504C86.1424 69.1606 86.6846 67.452 87.2089 65.6192L85.7668 65.2067ZM79.9228 79.6417L78.6361 78.8708C76.4414 82.5338 74.238 84.5541 72.2215 85.4835L72.8494 86.8458L73.4773 88.208C76.2321 86.9383 78.8332 84.3789 81.2095 80.4127L79.9228 79.6417ZM63.1942 85.3073L64.1112 84.1203C61.8973 82.41 59.8671 79.7294 58.2811 76.5329L56.9374 77.1996L55.5937 77.8663C57.3162 81.3378 59.6029 84.4284 62.2771 86.4944L63.1942 85.3073ZM53.8358 67.3764L55.3193 67.1546C54.7997 63.6809 54.9481 60.3532 55.8747 57.6334L54.4548 57.1497L53.0349 56.666C51.9105 59.9666 51.7849 63.8047 52.3523 67.5983L53.8358 67.3764ZM61.337 49.9918L61.8279 51.4092C64.1142 50.6174 67.1685 50.4383 71.1707 51.2718L71.4765 49.8034L71.7824 48.3349C67.4172 47.4258 63.7852 47.5564 60.8461 48.5744L61.337 49.9918ZM81.2977 53.1295L80.6857 54.499C83.3961 55.7102 86.3569 57.2417 89.5834 59.1344L90.3424 57.8406L91.1014 56.5468C87.7946 54.6071 84.7355 53.0228 81.9097 51.76L81.2977 53.1295ZM99.023 63.3792L98.1751 64.6166C100.798 66.4139 103.561 68.4105 106.469 70.6205L107.376 69.4263L108.284 68.2321C105.341 65.995 102.538 63.9693 99.8708 62.1417L99.023 63.3792ZM115.501 75.8535L114.55 77.0132C117.109 79.1121 119.764 81.3579 122.52 83.7578L123.505 82.6266L124.49 81.4954C121.714 79.0774 119.035 76.8125 116.453 74.6937L115.501 75.8535Z" fill="#006199"/>
</svg>
