<svg width="31" height="30" viewBox="0 0 31 30" fill="none" xmlns="http://www.w3.org/2000/svg">
<g id="Group">
<path id="Vector" d="M28.7307 4.00549L27.2373 3.88424L29.308 1.73372C29.629 1.40036 29.6189 0.869966 29.2856 0.548994C28.9523 0.228021 28.4218 0.238059 28.1009 0.571413L26.0302 2.722L25.8525 1.23422C25.8141 0.912801 25.594 0.642203 25.2871 0.539234C24.9803 0.43632 24.6415 0.519215 24.417 0.752414L20.4373 4.88565C18.4543 3.79065 16.2205 3.23686 13.9373 3.28007C10.4769 3.34555 7.24918 4.75463 4.84863 7.24779C2.44808 9.74083 1.16212 13.0196 1.2276 16.4799C1.29308 19.9403 2.70216 23.168 5.19526 25.5685C7.68847 27.9691 10.9672 29.255 14.4276 29.1896C17.8879 29.1241 21.1157 27.715 23.5162 25.2218C25.9167 22.7287 27.2026 19.45 27.1371 15.9896C27.094 13.7073 26.4558 11.495 25.2867 9.55503L29.2665 5.4218C29.491 5.1886 29.5612 4.84697 29.4466 4.54415C29.3321 4.24139 29.0534 4.03173 28.7307 4.00549ZM16.4165 16.1925C16.4398 17.4244 15.4566 18.4455 14.2247 18.4689C12.9928 18.4922 11.9717 17.5089 11.9484 16.2771C11.925 15.0452 12.9082 14.024 14.1401 14.0007C14.4494 13.9949 14.7453 14.0525 15.0155 14.1615L13.5789 15.6536C13.2579 15.987 13.2679 16.5174 13.6013 16.8383C13.768 16.9988 13.9839 17.0765 14.1983 17.0725C14.4126 17.0684 14.6255 16.9826 14.786 16.8159L16.2227 15.3238C16.3418 15.5898 16.4106 15.8833 16.4165 16.1925ZM16.2264 12.9039C15.6106 12.5247 14.8837 12.3106 14.1084 12.3252C11.9527 12.366 10.2321 14.1531 10.2729 16.3088C10.3137 18.4645 12.1006 20.1851 14.2564 20.1443C16.4122 20.1035 18.1328 18.3165 18.092 16.1608C18.0773 15.3856 17.8359 14.6672 17.4336 14.0662L19.4344 11.9882C20.3488 13.1166 20.9086 14.5457 20.9381 16.107C21.0086 19.8321 18.0353 22.9201 14.3102 22.9906C10.585 23.0611 7.49704 20.0878 7.42655 16.3627C7.35606 12.6376 10.3293 9.54957 14.0545 9.47907C15.6158 9.44953 17.065 9.95487 18.2272 10.8259L16.2264 12.9039ZM14.3959 27.5141C8.17642 27.6318 3.02076 22.6677 2.90306 16.4482C2.78537 10.2288 7.74954 5.07317 13.969 4.95548C16.0591 4.91593 18.1012 5.4505 19.8912 6.50288L20.1669 8.81148L19.3962 9.61192C17.919 8.44684 16.0463 7.76526 14.0229 7.80355C9.3739 7.89152 5.66322 11.7454 5.75119 16.3943C5.83916 21.0433 9.69299 24.754 14.342 24.666C18.991 24.578 22.7017 20.7242 22.6137 16.0752C22.5754 14.0518 21.8235 12.2063 20.6034 10.7742L21.3741 9.97378L23.6919 10.1619C24.811 11.9106 25.4223 13.9321 25.4618 16.0213C25.5794 22.2408 20.6153 27.3964 14.3959 27.5141ZM23.9729 8.50352L21.7966 8.32682L21.5377 6.15869L24.3981 3.18793L24.5758 4.67571C24.6231 5.07154 24.9427 5.37925 25.34 5.41146L26.8334 5.5327L23.9729 8.50352Z" fill="#006199"/>
</g>
</svg>
