<svg width="61" height="71" viewBox="0 0 61 71" fill="none" xmlns="http://www.w3.org/2000/svg">
<g id="Group">
<g id="&#195;&#162;&#226;&#130;&#172;&#203;&#156;&#195;&#131;&#194;&#171;&#195;&#131;&#194;&#174;&#195;&#131;&#194;&#169;_1">
<g id="red">
<g id="Vector">
<path d="M4.91987 45.6282C2.69426 53.0975 9.21021 61.1166 19.482 63.5774C29.7539 66.0381 39.8718 61.9688 42.0877 54.5323C44.3035 47.0958 37.8071 39.0112 27.5352 36.5504C17.2634 34.0896 7.14549 38.1589 4.91987 45.6282Z" fill="url(#paint0_radial_427_3396)" style="mix-blend-mode:multiply"/>
</g>
<path id="Vector_2" style="mix-blend-mode:multiply" d="M16.1765 50.4973C15.8549 51.0894 16.4735 51.9415 17.5345 52.4064C18.5954 52.8713 19.6771 52.7778 19.9889 52.2186C20.3105 51.6264 19.6919 50.7743 18.631 50.3094C17.5701 49.8446 16.4883 49.938 16.1667 50.5302L16.1765 50.4973Z" fill="url(#paint1_radial_427_3396)"/>
<path id="Vector_3" d="M16.2035 50.5018L16.7144 49.8573L29.9567 35.1491L32.7957 37.5439L19.5534 52.2521C19.1765 52.6847 18.2709 52.7454 17.3917 52.3588C16.4227 51.9157 15.9204 51.0966 16.2035 50.5018Z" fill="url(#paint2_linear_427_3396)"/>
<path id="Vector_4" d="M17.2472 29.3489C21.8141 24.5582 31.4351 24.2386 37.6271 29.6134C43.8192 34.9882 44.2204 44.0542 39.6535 48.8449C35.0866 53.6356 26.388 53.1605 20.196 47.7857C14.004 42.4109 12.6803 34.1396 17.2472 29.3489Z" fill="url(#paint3_linear_427_3396)"/>
<path id="Vector_5" d="M17.5948 29.0188C22.1617 24.2281 31.7828 23.9085 37.9748 29.2833C44.1668 34.6581 44.5681 43.7241 40.0012 48.5148C35.4343 53.3056 26.7357 52.8304 20.5436 47.4556C14.3516 42.0808 13.0279 33.8096 17.5948 29.0188Z" fill="url(#paint4_radial_427_3396)"/>
<path id="Vector_6" d="M39.7564 39.3379C41.9066 36.9769 40.8008 32.678 37.2683 29.7267C33.7357 26.7753 29.0949 26.3295 26.935 28.7232C24.7848 31.0843 25.8906 35.3832 29.4231 38.3345C32.9654 41.2531 37.5627 41.7236 39.7564 39.3379Z" fill="url(#paint5_linear_427_3396)"/>
<path id="Vector_7" d="M27.0907 28.6761C27.5337 28.153 36.6906 21.1555 36.6906 21.1555L45.4476 28.1571C45.4476 28.1571 40.104 38.6245 39.661 39.1476C37.6048 41.5912 32.9739 41.1076 29.4935 38.2074C26.0132 35.3073 25.001 31.1117 27.081 28.7087L27.0907 28.6761Z" fill="url(#paint6_linear_427_3396)"/>
<g id="Clip path group">
<mask id="mask0_427_3396" style="mask-type:luminance" maskUnits="userSpaceOnUse" x="35" y="9" width="22" height="22">
<g id="clippath">
<path id="Vector_8" d="M37.6209 12.3083C33.7469 16.2672 34.2219 22.8438 38.7115 26.9355C43.1903 31.0596 49.9769 31.1544 53.8944 27.1711C57.7683 23.2122 57.2933 16.6356 52.8037 12.5439C48.3141 8.45224 41.5384 8.32507 37.6209 12.3083Z" fill="white"/>
</g>
</mask>
<g mask="url(#mask0_427_3396)">
<g id="Group_2">
<path id="Vector_9" d="M37.2639 5.72437L61.5957 11.7239L54.1867 33.7716L29.8549 27.772L37.2639 5.72437Z" fill="#970218"/>
<path id="Vector_10" d="M37.8531 27.4704C43.2968 32.6734 51.2597 33.4382 55.6005 29.167C59.9413 24.8959 59.0567 17.1966 53.613 11.9936C48.1692 6.79054 40.2063 6.0258 35.8656 10.2969C31.5248 14.5681 32.4094 22.2674 37.8531 27.4704Z" fill="#970218"/>
<path id="Vector_11" d="M37.8971 27.4468C43.3406 32.6497 51.2704 33.4064 55.611 29.1353C59.9517 24.8642 59.0563 17.1974 53.6456 12.0025C48.2021 6.79951 40.2723 6.04284 35.9317 10.3139C31.591 14.5851 32.4537 22.2438 37.8971 27.4468Z" fill="#980319"/>
<path id="Vector_12" d="M37.9056 27.4139C43.3174 32.6091 51.2484 33.3658 55.5787 29.127C59.9089 24.8882 59.0458 17.2292 53.5904 12.0585C48.1786 6.86335 40.2476 6.10663 35.9173 10.3454C31.5871 14.5842 32.4502 22.2432 37.9056 27.4139Z" fill="#990318"/>
<path id="Vector_13" d="M37.9169 27.3817C43.3393 32.5443 51.1936 33.3174 55.5236 29.0786C59.8537 24.8399 58.9799 17.2134 53.5575 12.0508C48.1352 6.88817 40.2809 6.11512 35.9508 10.3539C31.6207 14.5926 32.4946 22.2191 37.9169 27.3817Z" fill="#9A0419"/>
<path id="Vector_14" d="M37.9517 27.3897C43.3412 32.5442 51.2064 33.2848 55.5255 29.0785C59.8446 24.8722 58.9708 17.2458 53.5813 12.0912C48.1917 6.93669 40.3266 6.19608 36.0074 10.4024C31.6883 14.6087 32.5621 22.2351 37.9844 27.3977L37.9517 27.3897Z" fill="#9B031A"/>
<path id="Vector_15" d="M37.9574 27.3566C43.3468 32.5111 51.179 33.2437 55.4653 29.0293C59.7516 24.815 58.8997 17.2291 53.4995 12.107C48.1101 6.95253 40.2779 6.21999 35.9916 10.4343C31.7053 14.6486 32.5572 22.2345 37.9574 27.3566Z" fill="#9C0419"/>
<path id="Vector_16" d="M38.0042 27.3328C43.3723 32.4469 51.1942 33.2119 55.4698 29.03C59.7564 24.8156 58.8934 17.262 53.5253 12.1479C48.1573 7.03374 40.3354 6.26873 36.0597 10.4507C31.7732 14.6651 32.6362 22.2187 38.0042 27.3328Z" fill="#9D041A"/>
<path id="Vector_17" d="M38.0133 27.2999C43.3483 32.4059 51.1697 33.1709 55.4125 28.981C59.688 24.7991 58.8251 17.2456 53.4574 12.1315C48.1224 7.02551 40.301 6.26052 36.0582 10.4505C31.7827 14.6324 32.6456 22.1859 38.0133 27.2999Z" fill="#9E0519"/>
<path id="Vector_18" d="M38.0513 27.309C43.3864 32.415 51.1426 33.1639 55.4182 28.982C59.6938 24.8001 58.8199 17.2789 53.4739 12.2054C48.1387 7.09933 40.3825 6.35044 36.107 10.5324C31.8314 14.7143 32.7052 22.2354 38.0513 27.309Z" fill="#9F051A"/>
<path id="Vector_19" d="M38.058 27.2758C43.371 32.3413 51.1267 33.0902 55.3584 28.9327C59.5902 24.7752 58.7492 17.2623 53.4363 12.1968C48.1234 7.13133 40.3677 6.38245 36.1359 10.5399C31.9042 14.6974 32.7451 22.2104 38.058 27.2758Z" fill="#A0061A"/>
<path id="Vector_20" d="M38.0683 27.2436C43.3812 32.3091 51.1043 33.05 55.3361 28.8925C59.5679 24.735 58.716 17.2545 53.403 12.189C48.09 7.1235 40.367 6.38267 36.1352 10.5402C31.9034 14.6976 32.7553 22.1782 38.0683 27.2436Z" fill="#A1061A"/>
<path id="Vector_21" d="M38.1132 27.2193C43.3941 32.2768 51.1178 33.0177 55.339 28.8926C59.5601 24.7674 58.708 17.2868 53.4163 12.2617C48.1354 7.20413 40.4117 6.46327 36.1905 10.5884C31.9694 14.7135 32.8215 22.1942 38.1132 27.2193Z" fill="#A2071A"/>
<path id="Vector_22" d="M38.1145 27.2188C43.395 32.2763 51.0529 33.0011 55.2738 28.876C59.4948 24.7509 58.632 17.3028 53.3406 12.2777C48.0601 7.22028 40.3695 6.48748 36.1812 10.6206C31.9602 14.7457 32.8231 22.1938 38.1145 27.2188Z" fill="#A3071B"/>
<path id="Vector_23" d="M38.1553 27.1946C43.4137 32.2115 51.0604 32.9687 55.2812 28.8436C59.4694 24.7105 58.6284 17.3029 53.37 12.286C48.1116 7.2691 40.4649 6.51193 36.2441 10.637C32.0559 14.7701 32.8969 22.1776 38.1553 27.1946Z" fill="#A4071B"/>
<path id="Vector_24" d="M38.1709 27.1626C43.3966 32.1714 51.0542 32.8962 55.2315 28.7955C59.4087 24.6949 58.5569 17.3197 53.3312 12.3108C48.1055 7.30197 40.4479 6.57724 36.2706 10.6779C32.0934 14.7785 32.9343 22.1861 38.1709 27.1626Z" fill="#A5081B"/>
<path id="Vector_25" d="M38.1792 27.1301C43.405 32.139 51.0299 32.8557 55.2072 28.755C59.3845 24.6544 58.5217 17.3117 53.2959 12.3028C48.0702 7.2939 40.4452 6.57722 36.2679 10.6779C32.0907 14.7785 32.9535 22.1213 38.1792 27.1301Z" fill="#A6081C"/>
<path id="Vector_26" d="M38.2112 27.1374C43.4152 32.1058 51.0294 32.8549 55.1631 28.7786C59.3295 24.7104 58.4666 17.3677 53.2735 12.3668C48.0695 7.39839 40.4553 6.64927 36.3216 10.7255C32.1552 14.7938 33.018 22.1365 38.2112 27.1374Z" fill="#A7091B"/>
<path id="Vector_27" d="M38.2216 27.1051C43.426 32.0736 50.9752 32.8066 55.1418 28.7384C59.3084 24.6701 58.4345 17.3597 53.23 12.3912C48.0256 7.42272 40.4764 6.68968 36.3098 10.758C32.176 14.8343 33.0171 22.1366 38.2216 27.1051Z" fill="#A8091C"/>
<path id="Vector_28" d="M38.2665 27.0809C43.4378 32.0413 50.9865 32.7743 55.1202 28.698C59.243 24.6542 58.402 17.3519 53.2307 12.3916C48.0594 7.43121 40.4997 6.73062 36.3442 10.7664C32.2214 14.8102 33.0624 22.1125 38.2338 27.0729L38.2665 27.0809Z" fill="#A90A1C"/>
<path id="Vector_29" d="M38.2759 27.0484C43.4579 31.9763 50.9737 32.7012 55.0964 28.6574C59.2191 24.6136 58.3673 17.3438 53.2289 12.3916C48.0468 7.46367 40.5311 6.7387 36.4084 10.7825C32.2857 14.8263 33.1375 22.0961 38.2759 27.0484Z" fill="#AA0A1C"/>
<path id="Vector_30" d="M38.317 27.024C43.4669 31.9439 50.9833 32.6689 55.1063 28.6251C59.2293 24.5812 58.3663 17.3437 53.2164 12.4238C48.0666 7.50383 40.5501 6.77883 36.4271 10.8227C32.3042 14.8666 33.1672 22.1041 38.317 27.024Z" fill="#AB0A1C"/>
<path id="Vector_31" d="M38.3241 27.0243C43.4409 31.9362 50.9569 32.6612 55.0361 28.6417C59.148 24.6303 58.2852 17.3929 53.1684 12.4811C48.0516 7.56927 40.5355 6.84429 36.4563 10.8637C32.3444 14.8751 33.2072 22.1125 38.3241 27.0243Z" fill="#AC0A1C"/>
<path id="Vector_32" d="M38.3336 26.992C43.4611 31.8713 50.9005 32.6126 55.0123 28.6012C59.0913 24.5818 58.2504 17.385 53.1666 12.4813C48.0391 7.60194 40.5997 6.86064 36.488 10.872C32.4089 14.8914 33.2498 22.0882 38.3336 26.992Z" fill="#AD0B1C"/>
<path id="Vector_33" d="M38.3742 26.9672C43.4689 31.8385 50.9191 32.5473 54.9872 28.5604C59.0553 24.5734 58.2145 17.3766 53.1307 12.4729C48.0361 7.60163 40.5858 6.89276 36.5177 10.8797C32.4496 14.8667 33.2905 22.0635 38.3742 26.9672Z" fill="#AE0B1D"/>
<path id="Vector_34" d="M38.3829 26.9341C43.4777 31.8054 50.8954 32.5062 54.9636 28.5193C59.0318 24.5323 58.18 17.3679 53.1179 12.5046C48.0231 7.63334 40.6054 6.93252 36.5372 10.9195C32.469 14.9065 33.3209 22.0709 38.3829 26.9341Z" fill="#AF0C1C"/>
<path id="Vector_35" d="M38.4238 26.9435C43.486 31.8068 50.9038 32.5076 54.9285 28.545C58.9858 24.5904 58.1666 17.434 53.0717 12.5627C48.0095 7.69944 40.5916 6.99862 36.567 10.9612C32.5097 14.9158 33.3616 22.0802 38.4238 26.9435Z" fill="#B00C1D"/>
<path id="Vector_36" d="M38.4293 26.9102C43.5022 31.7409 50.8434 32.4581 54.9007 28.5036C58.9252 24.541 58.1279 17.4251 53.0659 12.5619C47.993 7.73113 40.6191 7.00592 36.5945 10.9685C32.57 14.9311 33.3673 22.0469 38.4293 26.9102Z" fill="#B10C1E"/>
<path id="Vector_37" d="M38.4399 26.8779C43.4803 31.7007 50.8217 32.4179 54.879 28.4633C58.9036 24.5007 58.0954 17.4173 53.055 12.5945C48.0147 7.77174 40.6733 7.05457 36.6159 11.0091C32.5913 14.9717 33.3996 22.0552 38.4399 26.8779Z" fill="#B20D1D"/>
<path id="Vector_38" d="M38.4844 26.8538C43.492 31.6685 50.8442 32.3532 54.8579 28.4231C58.8716 24.4929 58.0633 17.4095 53.0231 12.5867C47.9828 7.76399 40.6633 7.08732 36.6496 11.0175C32.636 14.9476 33.4442 22.031 38.4844 26.8538Z" fill="#B30D1E"/>
<path id="Vector_39" d="M38.4872 26.8538C43.5057 31.6361 50.8144 32.3452 54.8281 28.4151C58.8418 24.4849 58.0227 17.4339 53.015 12.6192C47.9965 7.83691 40.6878 7.1278 36.6741 11.058C32.6604 14.9881 33.4795 22.0391 38.4872 26.8538Z" fill="#B40E1E"/>
<path id="Vector_40" d="M38.5302 26.83C43.5166 31.6044 50.826 32.3135 54.7963 28.4077C58.7994 24.5099 57.98 17.4588 52.9609 12.6764C47.9745 7.90204 40.6651 7.1929 36.6948 11.0987C32.6917 14.9965 33.5111 22.0477 38.5302 26.83Z" fill="#B50E1D"/>
<path id="Vector_41" d="M38.5402 26.7969C43.5259 31.5711 50.769 32.2641 54.7718 28.3664C58.7418 24.4606 57.9445 17.4502 52.9588 12.676C47.9731 7.90176 40.73 7.20876 36.7273 11.1065C32.7573 15.0122 33.5545 22.0227 38.5402 26.7969Z" fill="#B60F1E"/>
<path id="Vector_42" d="M38.5828 26.7726C43.5463 31.5062 50.7781 32.2317 54.748 28.326C58.7179 24.4202 57.9098 17.4423 52.9572 12.6762C47.9937 7.94257 40.7618 7.21714 36.792 11.1228C32.8221 15.0286 33.6302 22.0065 38.5828 26.7726Z" fill="#B70F1E"/>
<path id="Vector_43" d="M38.593 26.7401C43.5573 31.4739 50.7683 32.1589 54.7277 28.2855C58.6871 24.4121 57.8787 17.434 52.9143 12.7002C47.9499 7.96635 40.7389 7.28136 36.7796 11.1547C32.8202 15.0281 33.6286 22.0063 38.593 26.7401Z" fill="#B8101E"/>
<path id="Vector_44" d="M38.5911 26.7389C43.522 31.4645 50.7321 32.1495 54.6583 28.2681C58.6173 24.3949 57.7984 17.4493 52.8675 12.7237C47.9366 7.99812 40.7265 7.31318 36.8002 11.1945C32.8412 15.0678 33.6602 22.0133 38.5911 26.7389Z" fill="#B9101F"/>
<path id="Vector_45" d="M38.6361 26.7154C43.5785 31.4087 50.7457 32.118 54.6613 28.2691C58.577 24.4201 57.7905 17.4825 52.859 12.7568C47.9166 8.06351 40.7495 7.35415 36.8338 11.2031C32.9182 15.0521 33.7047 21.9897 38.6361 26.7154Z" fill="#BA101E"/>
<path id="Vector_46" d="M38.6468 26.6827C43.5566 31.368 50.6912 32.0693 54.6396 28.2283C58.5554 24.3794 57.7579 17.4742 52.8481 12.7889C47.9383 8.10364 40.8037 7.40232 36.8552 11.2432C32.9395 15.0922 33.737 21.9974 38.6468 26.6827Z" fill="#BB111F"/>
<path id="Vector_47" d="M38.6901 26.6588C43.5667 31.3359 50.7117 32.0047 54.6163 28.1882C58.5208 24.3718 57.7236 17.4667 52.847 12.7896C47.9704 8.11245 40.8254 7.4436 36.9209 11.2601C33.0163 15.0766 33.8135 21.9816 38.6901 26.6588Z" fill="#BC111F"/>
<path id="Vector_48" d="M38.6906 26.6586C43.5672 31.3357 50.6795 31.9965 54.5842 28.18C58.4888 24.3635 57.6806 17.4909 52.8039 12.8137C47.9272 8.13661 40.815 7.4758 36.9103 11.2923C33.0057 15.1088 33.8139 21.9814 38.6906 26.6586Z" fill="#BD121E"/>
<path id="Vector_49" d="M38.7006 26.6261C43.5553 31.2627 50.6564 31.9559 54.5282 28.1314C58.4 24.3069 57.6137 17.4748 52.7591 12.8382C47.9044 8.20158 40.8033 7.50834 36.9315 11.3328C33.0597 15.1574 33.8459 21.9895 38.7006 26.6261Z" fill="#BE121F"/>
<path id="Vector_50" d="M38.7432 26.6014C43.5983 31.2381 50.6674 31.9233 54.5285 28.1312C58.3896 24.339 57.6031 17.5068 52.748 12.8701C47.8928 8.23341 40.8238 7.5482 36.9627 11.3403C33.1015 15.1325 33.888 21.9647 38.7432 26.6014Z" fill="#BF121F"/>
<path id="Vector_51" d="M38.7511 26.5686C43.5727 31.1971 50.6081 31.8742 54.4689 28.0821C58.3297 24.2901 57.5326 17.4905 52.7109 12.862C47.8893 8.2335 40.8539 7.55638 36.9931 11.3484C33.1323 15.1405 33.9294 21.9401 38.7511 26.5686Z" fill="#C0121F"/>
<path id="Vector_52" d="M38.7948 26.5782C43.6282 31.1745 50.6319 31.8436 54.4822 28.0839C58.3325 24.3242 57.535 17.5243 52.7343 12.9362C47.9009 8.33996 40.8972 7.67084 37.0469 11.4305C33.1966 15.1902 33.9941 21.9901 38.7948 26.5782Z" fill="#C11320"/>
<path id="Vector_53" d="M38.7999 26.5449C43.6002 31.133 50.6035 31.8021 54.4209 28.0344C58.271 24.2747 57.4628 17.5074 52.6625 12.9193C47.8621 8.33124 40.8588 7.66214 37.0414 11.4299C33.1913 15.1895 33.9995 21.9568 38.7999 26.5449Z" fill="#C21320"/>
<path id="Vector_54" d="M38.8442 26.5208C43.6116 31.1008 50.6146 31.7699 54.421 28.0347C58.2273 24.2994 57.452 17.5402 52.6846 12.9602C47.9172 8.38025 40.9142 7.71116 37.1079 11.4464C33.3015 15.1816 34.0769 21.9408 38.8442 26.5208Z" fill="#C3141F"/>
<path id="Vector_55" d="M38.8556 26.4884C43.6349 31.0362 50.5627 31.7217 54.4022 27.9944C58.2091 24.259 57.4224 17.532 52.6431 12.9843C47.8638 8.43651 40.936 7.75103 37.0965 11.4783C33.2896 15.2137 34.0763 21.9407 38.8556 26.4884Z" fill="#C41420"/>
<path id="Vector_56" d="M38.8537 26.4878C43.5995 31.0273 50.5264 31.7128 54.3329 27.9775C58.1393 24.2422 57.3421 17.5479 52.5963 13.0083C47.8505 8.46878 40.9236 7.78334 37.1171 11.5186C33.3107 15.2539 34.1079 21.9482 38.8537 26.4878Z" fill="#C5151F"/>
<path id="Vector_57" d="M38.8963 26.4638C43.642 31.0033 50.547 31.6482 54.3425 27.9454C58.1381 24.2426 57.3408 17.5483 52.6278 13.0168C47.8821 8.47726 40.9771 7.83232 37.1816 11.5351C33.386 15.2379 34.1833 21.9323 38.8963 26.4638Z" fill="#C61520"/>
<path id="Vector_58" d="M38.9093 26.4313C43.6224 30.9629 50.5276 31.6078 54.2904 27.8969C58.0533 24.186 57.3106 17.5402 52.5538 13.0331C47.8298 8.53404 40.9356 7.85664 37.1727 11.5675C33.4098 15.2784 34.1526 21.9242 38.9093 26.4313Z" fill="#C71521"/>
<path id="Vector_59" d="M38.9559 26.4078C43.6803 30.9069 50.5421 31.5763 54.2942 27.8978C58.0464 24.2193 57.3035 17.5734 52.5792 13.0743C47.8548 8.57518 40.993 7.90583 37.2409 11.5843C33.4887 15.2628 34.2316 21.9087 38.9559 26.4078Z" fill="#C81620"/>
<path id="Vector_60" d="M38.9619 26.3744C43.6527 30.8653 50.4809 31.5266 54.2327 27.8482C57.9844 24.1699 57.231 17.5566 52.5401 13.0657C47.8493 8.57474 41.0211 7.91347 37.2693 11.5918C33.5176 15.2702 34.271 21.8835 38.9619 26.3744Z" fill="#C91621"/>
<path id="Vector_61" d="M38.9642 26.3746C43.6232 30.8577 50.4633 31.4865 54.2046 27.8405C57.9458 24.1945 57.192 17.581 52.4894 13.1223C47.8305 8.63929 40.9903 8.01043 37.2491 11.6565C33.5078 15.3025 34.2616 21.916 38.9642 26.3746Z" fill="#CA1721"/>
<path id="Vector_62" d="M39.006 26.3503C43.6758 30.8009 50.4722 31.4541 54.1807 27.8001C57.9219 24.154 57.1572 17.573 52.4875 13.1224C47.8177 8.67186 41.0213 8.0186 37.2801 11.6646C33.5716 15.3187 34.3035 21.8917 38.9733 26.3423L39.006 26.3503Z" fill="#CC1720"/>
<path id="Vector_63" d="M39.0161 26.3174C43.6526 30.7599 50.4484 31.4131 54.1566 27.7591C57.8648 24.1051 57.1222 17.5647 52.4529 13.1142C47.8164 8.67178 41.0206 8.01855 37.3124 11.6726C33.6042 15.3266 34.3468 21.867 39.0161 26.3174Z" fill="#CD1821"/>
<path id="Vector_64" d="M39.0575 26.2928C43.6941 30.7353 50.4572 31.3805 54.1546 27.7589C57.852 24.1373 57.1093 17.5969 52.4727 13.1544C47.8361 8.71199 41.0729 8.06681 37.3755 11.6884C33.6782 15.31 34.4208 21.8504 39.0575 26.2928Z" fill="#CE1821"/>
<path id="Vector_65" d="M39.0606 26.2932C43.6756 30.6952 50.3953 31.3647 54.0927 27.7431C57.7902 24.1215 57.0365 17.6135 52.4216 13.2116C47.8066 8.80957 41.0869 8.13999 37.3895 11.7616C33.692 15.3832 34.4457 21.8912 39.0606 26.2932Z" fill="#CF1820"/>
<path id="Vector_66" d="M39.0731 26.2612C43.6884 30.6632 50.3867 31.2923 54.0734 27.7031C57.7601 24.1139 57.0063 17.6058 52.391 13.2038C47.7757 8.80172 41.0774 8.17262 37.3907 11.7618C33.704 15.351 34.4578 21.8591 39.0731 26.2612Z" fill="#D01822"/>
<path id="Vector_67" d="M39.1171 26.2369C43.6986 30.6306 50.3956 31.2597 54.049 27.6626C57.7025 24.0655 56.971 17.5981 52.3895 13.2044C47.8081 8.81056 41.1111 8.18152 37.4576 11.7786C33.8042 15.3757 34.5357 21.8431 39.1171 26.2369Z" fill="#D11922"/>
<path id="Vector_68" d="M39.1285 26.2042C43.7218 30.5658 50.3764 31.2192 54.0303 27.622C57.6733 24.0572 56.9414 17.5896 52.3481 13.2281C47.7874 8.87463 41.1002 8.21308 37.4462 11.8103C33.8032 15.3751 34.5351 21.8427 39.1285 26.2042Z" fill="#D21921"/>
<path id="Vector_69" d="M39.1609 26.2119C43.7212 30.5653 50.3754 31.2188 53.9855 27.646C57.6284 24.0812 56.8857 17.6462 52.3254 13.2928C47.7651 8.93935 41.1109 8.28588 37.5008 11.8587C33.8579 15.4234 34.6006 21.8585 39.1609 26.2119Z" fill="#D31A22"/>
<path id="Vector_70" d="M39.1699 26.1794C43.6972 30.5247 50.3182 31.1702 53.9609 27.6054C57.6036 24.0407 56.8502 17.6382 52.3229 13.2929C47.7957 8.9476 41.1747 8.3022 37.532 11.8669C33.8893 15.4316 34.6427 21.8341 39.1699 26.1794Z" fill="#D41A21"/>
<path id="Vector_71" d="M39.2137 26.1551C43.7525 30.4681 50.3417 31.1055 53.9738 27.5731C57.5732 24.0327 56.8522 17.6381 52.3134 13.3251C47.7854 8.97965 41.1854 8.37471 37.5532 11.9071C33.9538 15.4475 34.6749 21.8421 39.2137 26.1551Z" fill="#D51B21"/>
<path id="Vector_72" d="M39.2237 26.1229C43.7293 30.4277 50.3178 31.0651 53.9169 27.5248C57.5161 23.9844 56.7844 17.6224 52.2788 13.3175C47.7732 9.01268 41.1847 8.37532 37.5856 11.9157C33.9864 15.456 34.7181 21.8181 39.2237 26.1229Z" fill="#D61B22"/>
<path id="Vector_73" d="M39.2331 26.09C43.7391 30.395 50.2955 31.0243 53.884 27.5163C57.4725 24.0084 56.7406 17.6462 52.2345 13.3413C47.7284 9.03632 41.172 8.40698 37.5836 11.9149C33.9951 15.4229 34.727 21.7851 39.2003 26.082L39.2331 26.09Z" fill="#D71B22"/>
<path id="Vector_74" d="M39.2699 26.0981C43.743 30.395 50.2663 31.0163 53.8547 27.5083C57.443 24.0004 56.7003 17.6707 52.2163 13.4063C47.7433 9.1095 41.2199 8.48823 37.6316 11.9962C34.0432 15.5041 34.7859 21.8338 39.2699 26.0981Z" fill="#D81C22"/>
<path id="Vector_75" d="M39.28 26.066C43.7642 30.3305 50.2551 30.9437 53.8326 27.4682C57.4211 23.9602 56.6674 17.6629 52.2159 13.4066C47.7317 9.14213 41.2518 8.49646 37.6633 12.0044C34.0748 15.5124 34.8285 21.8097 39.28 26.066Z" fill="#D91C23"/>
<path id="Vector_76" d="M39.322 26.0419C43.7729 30.2981 50.2631 30.9113 53.8077 27.4278C57.3523 23.9444 56.6316 17.6553 52.1806 13.399C47.7297 9.1427 41.2395 8.5295 37.6949 12.013C34.1504 15.4965 34.8711 21.7856 39.322 26.0419Z" fill="#DA1D22"/>
<path id="Vector_77" d="M39.3346 26.0094C43.753 30.2576 50.2434 30.8709 53.788 27.3873C57.3326 23.9038 56.6009 17.6471 52.1717 13.4313C47.7533 9.18308 41.263 8.56986 37.7183 12.0534C34.1737 15.5369 34.9054 21.7936 39.3346 26.0094Z" fill="#DB1D22"/>
<path id="Vector_78" d="M39.3314 26.0085C43.7608 30.2244 50.2077 30.862 53.7087 27.4029C57.2425 23.9518 56.5108 17.6951 52.1141 13.4873C47.6848 9.27145 41.2379 8.63384 37.7369 12.093C34.2031 15.5441 34.9348 21.8008 39.3314 26.0085Z" fill="#DC1E23"/>
<path id="Vector_79" d="M39.3749 25.9848C43.7716 30.1925 50.1858 30.8221 53.7196 27.371C57.2534 23.9199 56.5107 17.6956 52.114 13.4878C47.7174 9.28005 41.3031 8.65049 37.7693 12.1016C34.2355 15.5527 34.9782 21.777 39.3749 25.9848Z" fill="#DD1E22"/>
<path id="Vector_80" d="M39.3907 25.9524C43.7875 30.1602 50.18 30.7493 53.7029 27.3306C57.1932 23.9039 56.4832 17.6877 52.1082 13.5204C47.7115 9.31254 41.319 8.72347 37.796 12.1421C34.3058 15.5688 35.0158 21.7851 39.3907 25.9524Z" fill="#DE1E23"/>
<path id="Vector_81" d="M39.4337 25.9283C43.8089 30.0957 50.1907 30.7172 53.681 27.2905C57.1713 23.8638 56.4831 17.6879 52.0752 13.5125C47.7001 9.3452 41.3182 8.72367 37.8279 12.1504C34.3376 15.5771 35.0259 21.7529 39.4337 25.9283Z" fill="#DF1F22"/>
<path id="Vector_82" d="M39.433 25.9281C43.8078 30.0954 50.1565 30.7089 53.6466 27.2822C57.1368 23.8555 56.4378 17.7122 52.063 13.5449C47.6882 9.37762 41.3395 8.76417 37.8493 12.1909C34.3592 15.6175 35.0582 21.7608 39.433 25.9281Z" fill="#E01F23"/>
<path id="Vector_83" d="M39.4748 25.9036C43.8171 30.0628 50.166 30.6763 53.6126 27.274C57.0919 23.8797 56.3928 17.7364 52.0397 13.6096C47.6974 9.45029 41.3486 8.83683 37.902 12.2391C34.4226 15.6334 35.1217 21.7767 39.4748 25.9036Z" fill="#E11F23"/>
<path id="Vector_84" d="M39.4861 25.8709C43.7953 30.0221 50.1111 30.6275 53.5903 27.2333C57.0368 23.831 56.3597 17.7282 52.0068 13.6014C47.6976 9.45028 41.3817 8.84488 37.9025 12.2391C34.4561 15.6414 35.1332 21.7442 39.4861 25.8709Z" fill="#E22022"/>
<path id="Vector_85" d="M39.4957 25.838C43.8158 29.9567 50.0989 30.554 53.5344 27.1842C56.9699 23.8144 56.2819 17.7441 51.9727 13.5929C47.6527 9.47422 41.3696 8.87687 37.9341 12.2467C34.4985 15.6165 35.1756 21.7193 39.4957 25.838Z" fill="#E32023"/>
<path id="Vector_86" d="M39.5369 25.8134C43.8248 29.9242 50.1085 30.5215 53.5443 27.1516C56.9801 23.7817 56.2919 17.7113 51.9603 13.6249C47.6724 9.51413 41.3887 8.91675 37.9529 12.2867C34.5171 15.6566 35.2162 21.6946 39.5369 25.8134Z" fill="#E42123"/>
<path id="Vector_87" d="M39.5369 25.8135C43.8241 29.9241 50.0741 30.5134 53.4769 27.1355C56.9014 23.7981 56.2026 17.7603 51.9154 13.6497C47.6283 9.53908 41.3782 8.94979 37.9755 12.3277C34.5509 15.665 35.2498 21.7028 39.5369 25.8135Z" fill="#E52122"/>
<path id="Vector_88" d="M39.5876 25.7899C43.8535 29.8601 50.0605 30.4738 53.4853 27.1364C56.9101 23.7989 56.2002 17.7934 51.9452 13.6908C47.6794 9.62054 41.4723 9.00683 38.0475 12.3443C34.6227 15.6817 35.3327 21.6872 39.5876 25.7899Z" fill="#E62124"/>
<path id="Vector_89" d="M39.6004 25.7582C43.8665 29.8285 50.0411 30.4341 53.466 27.0967C56.8582 23.7512 56.1699 17.7861 51.9039 13.7158C47.6378 9.64557 41.4632 9.03991 38.0383 12.3774C34.6462 15.7229 35.3344 21.6879 39.6004 25.7582Z" fill="#E72224"/>
<path id="Vector_90" d="M39.6067 25.725C43.8395 29.7871 50.0245 30.3603 53.4055 27.0473C56.7865 23.7343 56.0985 17.7694 51.8656 13.7072C47.6328 9.6451 41.4479 9.07191 38.0668 12.3849C34.6858 15.6979 35.3738 21.6629 39.6067 25.725Z" fill="#E82223"/>
<path id="Vector_91" d="M39.6418 25.7334C43.8534 29.7551 50.028 30.3608 53.4092 27.0477C56.7905 23.7346 56.0914 17.802 51.858 13.7398C47.6465 9.71806 41.4719 9.1124 38.0906 12.4255C34.7093 15.7385 35.4085 21.6712 39.6418 25.7334Z" fill="#E92324"/>
<path id="Vector_92" d="M39.6524 25.7008C43.8641 29.7225 50.0062 30.3201 53.3439 27.0314C56.7144 23.7508 56.0152 17.8181 51.8035 13.7964C47.5918 9.77462 41.4497 9.177 38.112 12.4657C34.7415 15.7463 35.4407 21.679 39.6524 25.7008Z" fill="#EA2324"/>
<path id="Vector_93" d="M39.6976 25.6766C43.8759 29.6902 49.9844 30.2797 53.3545 26.9992C56.6919 23.7105 56.0148 17.8186 51.8366 13.805C47.6583 9.79141 41.5497 9.20187 38.1796 12.4824C34.8422 15.771 35.5193 21.663 39.6976 25.6766Z" fill="#EB2424"/>
<path id="Vector_94" d="M39.7006 25.6435C43.8902 29.6247 49.9664 30.2062 53.2931 26.95C56.6197 23.6938 55.9425 17.8017 51.7639 13.788C47.5743 9.80685 41.4981 9.22534 38.1714 12.4816C34.8448 15.7378 35.522 21.6299 39.7006 25.6435Z" fill="#EC2424"/>
<path id="Vector_95" d="M39.7406 25.6518C43.8976 29.625 49.974 30.2065 53.3007 26.9503C56.6274 23.694 55.9392 17.8343 51.7823 13.8612C47.6253 9.88799 41.5489 9.30648 38.2221 12.5627C34.8954 15.8189 35.5836 21.6786 39.7406 25.6518Z" fill="#ED2424"/>
<path id="Vector_96" d="M39.7516 25.6194C43.9082 29.5925 49.9515 30.166 53.2453 26.9018C56.5719 23.6456 55.8729 17.8184 51.7163 13.8453C47.5597 9.8722 41.5164 9.29875 38.2225 12.563C34.896 15.8192 35.5949 21.6463 39.7188 25.6114L39.7516 25.6194Z" fill="#EE2525"/>
<path id="Vector_97" d="M39.7588 25.5866C43.8825 29.5516 49.9254 30.125 53.2082 26.8932C56.4911 23.6615 55.8249 17.8424 51.7013 13.8774C47.5776 9.91241 41.5347 9.33898 38.2519 12.5707C34.9691 15.8025 35.6352 21.6215 39.7588 25.5866Z" fill="#EF2525"/>
<path id="Vector_98" d="M39.8026 25.5627C43.9045 29.4872 49.9039 30.085 53.2195 26.8613C56.5023 23.6295 55.8253 17.8429 51.7343 13.886C47.6324 9.96143 41.6329 9.3636 38.3173 12.5873C35.0345 15.8191 35.7116 21.6057 39.8026 25.5627Z" fill="#F02626"/>
<path id="Vector_99" d="M39.8038 25.5622C43.9061 29.4868 49.8842 30.0442 53.1564 26.8448C56.4285 23.6454 55.7513 17.8587 51.6489 13.9341C47.5466 10.0095 41.5685 9.45212 38.2963 12.6515C35.0242 15.8509 35.7014 21.6376 39.8038 25.5622Z" fill="#F12726"/>
<path id="Vector_100" d="M39.846 25.5381C43.9153 29.4546 49.893 30.0119 53.165 26.8125C56.437 23.6132 55.749 17.859 51.6797 13.9425C47.6104 10.026 41.6327 9.46869 38.3607 12.668C35.0887 15.8674 35.7767 21.6216 39.846 25.5381Z" fill="#F22727"/>
<path id="Vector_101" d="M39.8579 25.5054C43.9375 29.3893 49.871 29.971 53.11 26.7637C56.3818 23.5644 55.6831 17.8428 51.647 13.9345C47.5674 10.0505 41.6339 9.4688 38.3949 12.6761C35.1559 15.8835 35.8218 21.597 39.8579 25.5054Z" fill="#F32827"/>
<path id="Vector_102" d="M39.8654 25.4726C43.9131 29.3487 49.8476 29.9304 53.0761 26.7554C56.3046 23.5804 55.6383 17.8667 51.5905 13.9906C47.5428 10.1145 41.6083 9.53279 38.3798 12.7078C35.1513 15.8828 35.8176 21.5965 39.8654 25.4726Z" fill="#F42827"/>
<path id="Vector_103" d="M39.9141 25.4488C43.9612 29.3247 49.8293 29.8903 53.0575 26.7154C56.2857 23.5405 55.6088 17.8593 51.5944 13.9915C47.5474 10.1155 41.6792 9.54994 38.4511 12.7248C35.2229 15.8997 35.8671 21.5728 39.9141 25.4488Z" fill="#F52827"/>
<path id="Vector_104" d="M39.9101 25.4482C43.9361 29.2838 49.8052 29.8494 53.0228 26.7069C56.2405 23.5643 55.5959 17.891 51.5481 14.0149C47.5221 10.1794 41.653 9.61372 38.4354 12.7563C35.2178 15.8988 35.895 21.5802 39.9101 25.4482Z" fill="#F62928"/>
<path id="Vector_105" d="M39.9538 25.4243C43.98 29.2599 49.8166 29.8175 53.0343 26.6749C56.2521 23.5324 55.5966 17.8915 51.5704 14.0558C47.5441 10.2202 41.7075 9.66262 38.4898 12.8052C35.2721 15.9478 35.9276 21.5887 39.9538 25.4243Z" fill="#F72A28"/>
<path id="Vector_106" d="M39.9677 25.392C43.9605 29.2194 49.7963 29.777 52.9701 26.6589C56.1439 23.5408 55.5214 17.9081 51.5286 14.0806C47.5358 10.2532 41.7 9.69564 38.5262 12.8137C35.3524 15.9318 35.9749 21.5645 39.9677 25.392Z" fill="#F82A29"/>
<path id="Vector_107" d="M40.0106 25.368C43.9821 29.155 49.7749 29.737 52.9816 26.6269C56.1556 23.5087 55.522 17.9083 51.5287 14.0808C47.5573 10.2938 41.7645 9.71178 38.5577 12.8219C35.3837 15.9401 36.0173 21.5404 40.0106 25.368Z" fill="#F92B29"/>
<path id="Vector_108" d="M40.0091 25.3671C43.9805 29.1541 49.7404 29.728 52.9143 26.6099C56.0883 23.4917 55.4438 17.9238 51.4725 14.1368C47.5011 10.3498 41.7303 9.80832 38.5673 12.894C35.3933 16.0122 36.0378 21.5801 40.0091 25.3671Z" fill="#FA2C2A"/>
<path id="Vector_109" d="M40.0189 25.3352C43.9578 29.1142 49.7288 29.6557 52.892 26.57C56.0551 23.4843 55.4106 17.9163 51.439 14.1292C47.5002 10.3502 41.7291 9.80874 38.566 12.8945C35.4028 15.9802 36.0474 21.5482 40.0189 25.3352Z" fill="#FB2D2A"/>
<path id="Vector_110" d="M40.0649 25.3106C44.0026 29.0894 49.7396 29.6228 52.8695 26.5292C55.9994 23.4356 55.3772 17.9084 51.4394 14.1296C47.5017 10.3508 41.7647 9.8174 38.6348 12.911C35.5049 16.0047 36.1272 21.5319 40.0649 25.3106Z" fill="#FC2C2A"/>
<path id="Vector_111" d="M40.0743 25.278C43.9912 29.0165 49.7185 29.5824 52.8379 26.5211C55.9574 23.4597 55.3347 17.9323 51.4178 14.1938C47.5009 10.4553 41.7736 9.88944 38.6541 12.9508C35.5347 16.0121 36.1574 21.5395 40.0743 25.278Z" fill="#FD2D2B"/>
<path id="Vector_112" d="M40.1107 25.2862C44.0272 29.0246 49.6886 29.5744 52.808 26.5131C55.9273 23.4518 55.2938 17.9569 51.3773 14.2185C47.4607 10.4801 41.7993 9.9303 38.68 12.9916C35.5606 16.0529 36.1941 21.5478 40.1107 25.2862Z" fill="#FE2E2B"/>
<path id="Vector_113" d="M40.118 25.2539C44.0018 28.9842 49.6741 29.5016 52.7825 26.4727C55.8908 23.4439 55.2574 17.949 51.3736 14.2187C47.4899 10.4883 41.8176 9.97098 38.7092 12.9998C35.6008 16.0286 36.2343 21.5235 40.118 25.2539Z" fill="#FF2F2C"/>
</g>
</g>
</g>
<path id="Vector_114" d="M37.5251 11.8369C34.1345 15.5803 35.3321 21.8611 40.1944 25.9013C45.0568 29.9416 51.739 30.1774 55.1295 26.434C58.5201 22.6907 57.3225 16.4099 52.4602 12.3696C47.5978 8.3293 40.9156 8.09358 37.5251 11.8369Z" fill="url(#paint7_linear_427_3396)"/>
<g id="Clip path group_2">
<mask id="mask1_427_3396" style="mask-type:luminance" maskUnits="userSpaceOnUse" x="36" y="9" width="21" height="20">
<g id="clippath-1">
<path id="Vector_115" d="M38.4103 11.4322C34.9621 14.9411 35.837 21.0935 40.3353 25.2204C44.8444 29.3149 51.2627 29.8385 54.711 26.3296C58.1592 22.8207 57.2842 16.6683 52.786 12.5414C48.2768 8.44688 41.8585 7.92335 38.4103 11.4322Z" fill="white"/>
</g>
</mask>
<g mask="url(#mask1_427_3396)">
<g id="Group_3">
<path id="Vector_116" d="M38.0034 5.92148L61.8359 11.7848L55.0864 31.8669L31.2539 26.0035L38.0034 5.92148Z" fill="#FF2F2C"/>
<path id="Vector_117" d="M38.6958 24.6044C44.0025 31.776 50.6097 36.9823 56.9075 39.6173L56.4086 34.1175L64.3845 10.383L36.7564 3.60319L36.429 4.57725L29.6288 2.90851C30.2714 9.67365 33.3454 17.4572 38.663 24.5964L38.6958 24.6044Z" fill="#FF2F2C"/>
<path id="Vector_118" d="M39.1027 24.3222C44.2871 31.3232 50.6844 36.4078 56.8601 38.9779L56.4281 34.1274L64.4037 10.3943L36.7822 3.61489L36.4221 4.68629L30.2804 3.17886C30.9112 9.76514 33.9073 17.3537 39.1027 24.3222Z" fill="#FE2F2C"/>
<path id="Vector_119" d="M39.475 24.0321C44.5485 30.8302 50.7692 35.8012 56.7904 38.2984L56.4141 34.1295L64.3894 10.3975L36.7733 3.61845L36.3805 4.78719L30.8967 3.44105C31.516 9.84856 34.4343 17.2422 39.4641 24.0646L39.475 24.0321Z" fill="#FD2E2B"/>
<path id="Vector_120" d="M39.8443 23.7409C44.7628 30.3603 50.8502 35.1933 56.6727 37.642L56.3631 34.1221L64.338 10.3917L36.7292 3.61309L36.3037 4.87915L31.4779 3.6943C32.0746 9.95543 34.9259 17.1215 39.8334 23.7734L39.8443 23.7409Z" fill="#FC2E2C"/>
<path id="Vector_121" d="M40.2558 23.4594C45.0524 29.9083 50.9412 34.5873 56.6421 36.9711L56.3989 34.1002L64.3626 10.4035L36.7598 3.62528L36.3016 4.98865L32.1333 3.96506C32.7184 10.0474 35.4811 17.0511 40.2448 23.4919L40.2558 23.4594Z" fill="#FB2E2B"/>
<path id="Vector_122" d="M40.2371 23.1312C44.7686 29.3777 50.3908 33.9315 55.7955 36.2218L55.6206 34.0391L63.5551 10.3756L36.4828 3.64631L37.2809 -9.44658C29.8188 -3.93686 31.1419 10.6302 40.2371 23.1312Z" fill="#FA2E2B"/>
<path id="Vector_123" d="M40.6287 22.8425C45.0433 28.9197 50.5056 33.3284 55.7608 35.5464L55.6481 34.0104L63.572 10.3791L36.4965 3.64939L37.7324 -8.77368C30.4957 -3.41818 31.7777 10.753 40.5856 22.8669L40.6287 22.8425Z" fill="#F92D2A"/>
<path id="Vector_124" d="M41.0483 22.562C45.3133 28.4617 50.6153 32.7253 55.7528 34.879L55.7022 33.9896L63.6154 10.3907L36.5388 3.66085L38.2558 -8.11664C31.2128 -2.92337 32.4643 10.8194 41.0374 22.5944L41.0483 22.562Z" fill="#F72E2B"/>
<path id="Vector_125" d="M41.6728 22.4027C50.1734 33.8725 62.6592 39.0836 69.5745 34.0367L57.3088 31.023L64.2134 10.4787L36.632 3.70188L38.8212 -7.46031C31.906 -2.41342 33.205 10.941 41.6728 22.4027Z" fill="#F62D2A"/>
<path id="Vector_126" d="M42.0475 22.1098C50.2859 33.199 62.3676 38.2404 69.0755 33.3885L57.4326 30.5278L64.1735 10.4702L36.5912 3.69334L39.2727 -6.82094C32.5867 -1.92846 33.8091 11.0207 42.0475 22.1098Z" fill="#F52D2B"/>
<path id="Vector_127" d="M42.4654 21.8274C50.4317 32.5686 62.1433 37.4486 68.6225 32.7509L57.634 30.0513L61.5936 18.2696L72.6805 20.9933C72.1848 15.9173 69.9067 10.1223 65.9236 4.75173L64.0147 10.4316L36.6254 3.70283L39.7665 -6.17182C33.2765 -1.44169 34.4991 11.0862 42.4654 21.8274Z" fill="#F42C2A"/>
<path id="Vector_128" d="M42.8428 21.5351C50.5357 31.9281 61.8429 36.6384 68.1364 32.0708L57.8037 29.5324L61.6324 18.1401L72.0635 20.7027C71.5789 15.805 69.3883 10.1721 65.5254 4.97156L63.7365 10.2945L37.1012 3.75098L40.2209 -5.53165C33.9602 -0.955956 35.117 11.1341 42.81 21.5271L42.8428 21.5351Z" fill="#F32D2A"/>
<path id="Vector_129" d="M43.2228 21.2425C50.653 31.2547 61.5774 35.8359 67.6413 31.4227L57.932 29.0374L61.6189 18.067L71.4267 20.4765C70.9531 15.7573 68.8392 10.3189 65.1296 5.29657L63.4498 10.2949L37.7332 3.97706L40.7111 -4.88361C34.6471 -0.470431 35.7927 11.2303 43.2228 21.2425Z" fill="#F22C29"/>
<path id="Vector_130" d="M43.6389 20.9591C50.7958 30.6231 61.3596 35.0102 67.1834 30.7839L58.1298 28.5598L61.6858 17.9788L70.8378 20.2271C70.419 15.6619 68.338 10.4423 64.7486 5.59011L63.1887 10.2314L38.3898 4.1392L41.2041 -4.23468C35.3695 0.0240774 36.4492 11.2871 43.6061 20.9511L43.6389 20.9591Z" fill="#F22C29"/>
<path id="Vector_131" d="M43.796 20.8642C50.8706 30.4027 61.2679 34.711 67.0119 30.5317C72.7559 26.3524 71.6913 15.2304 64.6167 5.69187L63.1109 10.1729L38.662 4.17464L41.4008 -3.97559C35.6568 0.20372 36.7215 11.3257 43.796 20.8642Z" fill="#F12B29"/>
<path id="Vector_132" d="M43.9758 20.7343C50.93 30.1027 61.1632 34.3707 66.8527 30.2482C72.5092 26.1177 71.4557 15.1742 64.5015 5.80575L63.0393 10.1569L38.9513 4.2473L41.6246 -3.70816C35.9681 0.422368 37.0216 11.3659 43.9758 20.7343Z" fill="#F02A28"/>
<path id="Vector_133" d="M44.1253 20.6291C50.9807 29.8678 61.0605 34.063 66.6186 30.0138C72.1768 25.9645 71.1343 15.1995 64.2789 5.96075L62.8713 10.1495L39.1777 4.3367L41.7856 -3.42394C36.2274 0.6253 37.2699 11.3904 44.1253 20.6291Z" fill="#EF2A28"/>
<path id="Vector_134" d="M44.2708 20.4901C51.0388 29.5667 60.9219 33.7136 66.4255 29.7212C71.8962 25.7207 70.8977 15.1421 64.1406 6.03296L62.7766 10.0919L39.4435 4.36769L41.975 -3.16572C36.5043 0.834742 37.5028 11.4134 44.2599 20.5225L44.2708 20.4901Z" fill="#EE2927"/>
<path id="Vector_135" d="M44.4445 20.3927C51.0807 29.3316 60.8538 33.3812 66.226 29.4621C71.631 25.551 70.6218 15.1104 63.9856 6.17149L62.6762 10.0681L39.7381 4.44063L42.2041 -2.8979C36.7991 1.01318 37.8083 11.4538 44.4445 20.3927Z" fill="#ED2927"/>
<path id="Vector_136" d="M44.5873 20.2872C51.1247 29.0965 60.7116 33.0652 66.0291 29.203C71.3465 25.3407 70.3485 15.0786 63.8001 6.30184L62.5344 10.0685L39.9578 4.52977L42.3693 -2.6464C37.0518 1.21586 38.0498 11.478 44.5982 20.2547L44.5873 20.2872Z" fill="#EC2927"/>
<path id="Vector_137" d="M44.7741 20.1576C51.1906 28.7966 60.6457 32.7331 65.8317 28.9441C71.0506 25.1631 70.0748 15.0471 63.6583 6.40813L62.4362 10.0449L40.2546 4.60293L42.6006 -2.37835C37.3817 1.40259 38.3576 11.5186 44.7741 20.1576Z" fill="#EB2826"/>
<path id="Vector_138" d="M44.9116 20.0513C51.229 28.5605 60.4974 32.4161 65.6286 28.6841C70.7597 24.952 69.7952 15.0146 63.4998 6.5459L62.3322 10.0203L40.5132 4.66706L42.7937 -2.11932C37.6626 1.61275 38.638 11.5177 44.9225 20.0188L44.9116 20.0513Z" fill="#EA2726"/>
<path id="Vector_139" d="M45.064 19.9136C51.262 28.2529 60.3675 32.0684 65.4446 28.393C70.4888 24.7096 69.5568 14.9908 63.3369 6.61094L62.213 9.95556L40.7522 4.69084L42.9454 -1.83603C37.9013 1.84737 38.8332 11.5662 45.0531 19.946L45.064 19.9136Z" fill="#E92726"/>
<path id="Vector_140" d="M45.2359 19.8154C51.3339 28.0248 60.2845 31.7673 65.2406 28.1329C70.1857 24.5309 69.2764 14.9585 63.1784 6.74918L62.1091 9.9313L41.0461 4.76353L43.1847 -1.60071C38.2396 2.00125 39.1489 11.5736 45.2469 19.783L45.2359 19.8154Z" fill="#E82625"/>
<path id="Vector_141" d="M45.3901 19.6775C51.3572 27.7493 60.1662 31.3866 65.046 27.8739C69.9039 24.3207 69.0055 14.9266 63.0275 6.88724L62.0018 9.93955L41.2984 4.86035L43.3716 -1.30921C38.5136 2.24402 39.4121 11.6381 45.3901 19.6775Z" fill="#E72525"/>
<path id="Vector_142" d="M45.5621 19.5798C51.4413 27.4894 60.0858 31.0864 64.8452 27.6145C69.6046 24.1426 68.7283 14.8945 62.8491 6.98487L61.878 9.87481L41.5692 4.89237L43.566 -1.04987C38.7737 2.41399 39.6829 11.6701 45.5621 19.5798Z" fill="#E62524"/>
<path id="Vector_143" d="M45.7084 19.4751C51.4892 27.2551 59.9478 30.7713 64.6526 27.3562C69.3574 23.9412 68.4593 14.8634 62.7005 7.1239L61.773 9.88399L41.825 4.99019L43.7563 -0.757274C39.0515 2.6578 39.9496 11.7355 45.7084 19.4751Z" fill="#E52524"/>
<path id="Vector_144" d="M45.8571 19.3364C51.5166 26.9461 59.8431 30.43 64.4273 27.0557C69.0334 23.722 68.1796 14.831 62.5309 7.18877L61.6471 9.81892L42.0948 5.02195L43.9607 -0.530582C39.3546 2.80314 40.2084 11.6942 45.8571 19.3364Z" fill="#E42424"/>
<path id="Vector_145" d="M46.0311 19.2386C51.5923 26.7188 59.733 30.1219 64.2518 26.8369C68.7705 23.552 67.9277 14.8393 62.3665 7.35916L61.5372 9.82698L42.3454 5.11865L44.1458 -0.23913C39.627 3.04582 40.4699 11.7585 46.0311 19.2386Z" fill="#E32323"/>
<path id="Vector_146" d="M46.1818 19.1004C51.6224 26.4103 59.6097 29.7407 64.0301 26.537C68.4504 23.3333 67.6296 14.7666 62.189 7.45667L61.4034 9.79462L42.6057 5.18302L44.3407 0.0200526C39.9203 3.22372 40.7411 11.7904 46.1818 19.1004Z" fill="#E22323"/>
<path id="Vector_147" d="M46.3558 19.003C51.6977 26.1833 59.5316 29.4408 63.8644 26.286C68.1972 23.1311 67.3876 14.7429 62.0457 7.5626L61.3146 9.73819L42.8785 5.21527L44.537 0.279606C40.2043 3.43446 41.0139 11.8227 46.3229 18.9949L46.3558 19.003Z" fill="#E12222"/>
<path id="Vector_148" d="M46.5044 18.8642C51.7148 25.9068 59.3955 29.0916 63.6408 25.9855C67.8861 22.8795 67.0766 14.7022 61.8662 7.65962L61.1788 9.70533L43.1039 5.27108L44.697 0.530232C40.4517 3.63627 41.2611 11.8136 46.4715 18.8562L46.5044 18.8642Z" fill="#E02223"/>
<path id="Vector_149" d="M46.6479 18.7587C51.7698 25.639 59.2854 28.7833 63.4319 25.7587C67.5785 22.734 66.8243 14.711 61.7132 7.79821L61.0803 9.68152L43.4015 5.34412L44.9291 0.798211C40.7826 3.82289 41.5368 11.8459 46.6479 18.7587Z" fill="#DF2122"/>
<path id="Vector_150" d="M46.8235 18.6615C51.8144 25.4042 59.1772 28.4758 63.2692 25.508C67.3284 22.5321 66.5852 14.6874 61.5615 7.93663L60.9722 9.69008L43.6536 5.44129L45.1158 1.09013C41.0566 4.06604 41.7998 11.9107 46.8235 18.6615Z" fill="#DE2122"/>
<path id="Vector_151" d="M46.9691 18.5224C51.8726 25.1031 59.0824 28.102 63.0433 25.2073C67.0371 22.3207 66.2829 14.6139 61.3795 8.03319L60.8339 9.65678L43.9085 5.50468L45.3052 1.34827C41.3114 4.23488 42.0656 11.9417 46.9691 18.5224Z" fill="#DD2122"/>
<path id="Vector_152" d="M47.1461 18.4257C51.9499 24.8765 58.9725 27.7944 62.8783 24.9567C66.7841 22.1191 66.0414 14.591 61.2704 8.14825L60.7794 9.60943L44.218 5.54615L45.5491 1.58472C41.6433 4.4224 42.386 11.9505 47.157 18.3932L47.1461 18.4257Z" fill="#DC2022"/>
<path id="Vector_153" d="M47.2968 18.287C51.9701 24.6003 58.8404 27.4456 62.6482 24.6891C66.456 21.9326 65.735 14.5502 61.0508 8.26934L60.6035 9.6007L44.4337 5.63401L45.6886 1.89972C41.8807 4.65623 42.6017 12.0386 47.2859 18.3195L47.2968 18.287Z" fill="#DB2021"/>
<path id="Vector_154" d="M47.4391 18.1817C52.0239 24.3327 58.7291 27.1376 62.4491 24.43C66.1691 21.7224 65.4815 14.5592 60.9076 8.37571L60.5148 9.54467L44.7082 5.66676L45.8976 2.12741C42.1776 4.83502 42.8652 11.9982 47.4391 18.1817Z" fill="#DA1F22"/>
<path id="Vector_155" d="M47.624 18.0518C52.077 24.065 58.6285 26.7971 62.2608 24.1383C65.8821 21.512 65.2167 14.495 60.7638 8.48175L60.4146 9.52082L45.0032 5.7397L46.1271 2.39521C42.5057 5.02151 43.1711 12.0386 47.624 18.0518Z" fill="#D91F22"/>
<path id="Vector_156" d="M47.7625 17.9456C52.1282 23.7968 58.5159 26.4886 62.05 23.9111C65.5841 21.3336 64.9296 14.4948 60.564 8.64361L60.2694 9.52034L45.218 5.82782L46.2765 2.67809C42.7424 5.25563 43.3968 12.0944 47.7625 17.9456Z" fill="#D81E23"/>
<path id="Vector_157" d="M47.9452 17.8153C52.1787 23.5287 58.4233 26.1152 61.8586 23.619C65.3049 21.0904 64.6619 14.4303 60.4283 8.71693L60.1774 9.46375L45.5219 5.86807L46.5149 2.91325C43.0686 5.4419 43.7116 12.102 47.9452 17.8153Z" fill="#D71E22"/>
<path id="Vector_158" d="M48.0886 17.7103C52.223 23.2938 58.3137 25.8075 61.6613 23.3602C65.009 20.9129 64.3882 14.399 60.2757 8.85592L60.0793 9.44038L45.7864 5.93345L46.7139 3.1735C43.3662 5.62082 43.987 12.1348 48.0995 17.6778L48.0886 17.7103Z" fill="#D61E22"/>
<path id="Vector_159" d="M48.2261 17.6037C52.2414 23.0175 58.1697 25.4911 61.4634 23.1004C64.757 20.7098 64.1358 14.4063 60.0877 8.98447L59.9349 9.43908L45.9993 6.02059L46.8504 3.48774C43.5567 5.87836 44.1779 12.1819 48.2261 17.6037Z" fill="#D51E22"/>
<path id="Vector_160" d="M48.4133 17.4742C52.3295 22.7583 58.0711 25.1509 61.2661 22.8417C64.4611 20.5324 63.8621 14.375 59.946 9.091L59.8368 9.41571L46.2966 6.09403L47.0823 3.75606C43.8873 6.06535 44.4862 12.2227 48.4024 17.5067L48.4133 17.4742Z" fill="#D41D21"/>
<path id="Vector_161" d="M48.5537 17.3681C52.3823 22.49 57.9597 24.8424 61.0672 22.5819C64.1747 20.3214 63.5869 14.3425 59.7583 9.22061L59.7038 9.38297L46.5247 6.14995L47.2449 4.0068C44.1374 6.26728 44.7252 12.2462 48.5209 17.3601L48.5537 17.3681Z" fill="#D31D21"/>
<path id="Vector_162" d="M48.7368 17.2383C52.4326 22.2223 57.8663 24.4693 60.8748 22.2902C63.8834 20.1111 63.3181 14.2786 59.6222 9.29465L46.8404 6.15855L47.4951 4.21033C44.4865 6.3894 45.0518 12.222 48.7477 17.2059L48.7368 17.2383Z" fill="#D21C22"/>
<path id="Vector_163" d="M48.8496 17.1289C52.4352 21.9451 57.6776 24.149 60.5879 22.021C63.4981 19.8929 62.9535 14.2451 59.4006 9.4369C55.8258 4.58824 50.5725 2.41673 47.6622 4.5448C44.752 6.67287 45.2967 12.3207 48.8496 17.1289Z" fill="#D01C21"/>
<path id="Vector_164" d="M49 16.9906C52.4552 21.6693 57.5456 23.8006 60.3579 21.7538C63.1703 19.7069 62.6691 14.2453 59.1811 9.55846C55.7259 4.87969 50.6355 2.74839 47.8232 4.79528C45.0108 6.84218 45.5121 12.3038 49 16.9906Z" fill="#CF1B22"/>
<path id="Vector_165" d="M49.1786 16.8937C52.5351 21.4428 57.4722 23.5013 60.1971 21.5033C62.922 19.5052 62.4319 14.222 59.0753 9.67288C55.7187 5.12376 50.7816 3.06522 48.0567 5.06331C45.3319 7.06139 45.822 12.3446 49.1786 16.8937Z" fill="#CE1B22"/>
<path id="Vector_166" d="M49.3188 16.7878C52.5553 21.1668 57.3286 23.1851 59.9661 21.2358C62.5928 19.3189 62.1246 14.1817 58.8881 9.8026C55.6516 5.42353 50.8783 3.40528 48.2408 5.35457C45.6141 7.27144 46.0824 12.4087 49.3188 16.7878Z" fill="#CD1A21"/>
<path id="Vector_167" d="M49.502 16.6574C52.6406 20.907 57.2399 22.8121 59.8121 20.9521C62.3517 19.084 61.8943 14.1249 58.7557 9.8753C55.6171 5.62569 51.0178 3.72058 48.4456 5.58064C45.906 7.44875 46.3634 12.4078 49.502 16.6574Z" fill="#CC1A21"/>
<path id="Vector_168" d="M49.6479 16.5525C52.6675 20.6324 57.1368 22.5054 59.6114 20.7264C62.0969 18.9151 61.6173 14.1261 58.5978 10.0463C55.5783 5.96645 51.1089 4.09344 48.6343 5.87236C46.1489 7.68372 46.6284 12.4727 49.6479 16.5525Z" fill="#CB1A21"/>
<path id="Vector_169" d="M49.7986 16.4141C52.7196 20.3643 57.0032 22.1565 59.3904 20.4264C61.7776 18.6963 61.3417 14.0937 58.4207 10.1435C55.4997 6.19327 51.216 4.40106 48.8289 6.13118C46.4417 7.8613 46.8775 12.4639 49.7986 16.4141Z" fill="#CA1920"/>
<path id="Vector_170" d="M49.9725 16.3164C52.7953 20.1371 56.9261 21.8566 59.226 20.1753C61.5259 18.4939 61.101 14.0696 58.2782 10.249C55.4555 6.42834 51.3246 4.70884 49.0247 6.39018C46.7249 8.07152 47.1497 12.4958 49.9725 16.3164Z" fill="#C91921"/>
<path id="Vector_171" d="M50.1205 16.1781C52.8232 19.8287 56.7903 21.5079 59.0028 19.8753C61.2045 18.2752 60.8015 13.9968 58.0989 10.3462C55.3962 6.69563 51.4292 5.01641 49.2166 6.64897C47.0149 8.24909 47.4179 12.5275 50.1205 16.1781Z" fill="#C81821"/>
<path id="Vector_172" d="M50.3029 16.0813C52.9071 19.6023 56.7212 21.2088 58.8355 19.6575C60.9499 18.1061 60.5579 14.0061 57.9864 10.4931C55.3821 6.97212 51.568 5.36564 49.4537 6.91696C47.3393 8.46829 47.7313 12.5683 50.3029 16.0813Z" fill="#C71821"/>
<path id="Vector_173" d="M50.4419 15.9755C52.9268 19.3267 56.5891 20.8605 58.6056 19.3904C60.6221 17.9202 60.2517 13.9659 57.7667 10.6147C55.2818 7.26355 51.6195 5.72968 49.603 7.19985C47.5865 8.67002 47.9569 12.6243 50.4419 15.9755Z" fill="#C61821"/>
<path id="Vector_174" d="M50.6288 15.8462C53.0157 19.0679 56.4927 20.521 58.4547 19.1076C60.384 17.6862 60.0463 13.9507 57.6594 10.729C55.2725 7.50736 51.7629 6.04618 49.8335 7.46758C47.9042 8.88899 48.2419 12.6246 50.6288 15.8462Z" fill="#C51720"/>
<path id="Vector_175" d="M50.769 15.7395C53.0244 18.8234 56.3806 20.2118 58.2114 18.8717C60.0423 17.5315 59.7267 13.942 57.4713 10.8581C55.2159 7.77415 51.8597 6.38575 50.0288 7.72589C48.198 9.06604 48.5136 12.6556 50.769 15.7395Z" fill="#C41721"/>
<path id="Vector_176" d="M50.9202 15.6017C53.0893 18.5239 56.2504 19.8641 58.0272 18.5807C59.8041 17.2973 59.4662 13.8778 57.2971 10.9556C55.128 8.0334 51.9669 6.69318 50.19 7.97658C48.4132 9.25998 48.751 12.6795 50.9202 15.6017Z" fill="#C31720"/>
<path id="Vector_177" d="M51.0948 15.5047C53.1326 18.2892 56.1731 19.5647 57.8625 18.3301C59.5518 17.0955 59.2251 13.8544 57.1874 11.0699C55.1496 8.28538 52.109 7.00988 50.4197 8.24446C48.7304 9.47905 49.0571 12.7202 51.0948 15.5047Z" fill="#C21620"/>
<path id="Vector_178" d="M51.2456 15.3663C53.1967 17.989 56.0527 19.1838 57.6442 18.0304C59.2358 16.877 58.9306 13.7815 56.9795 11.1588C55.0283 8.53613 52.1723 7.3413 50.5808 8.49473C48.9893 9.64816 49.2944 12.7436 51.2456 15.3663Z" fill="#C11620"/>
<path id="Vector_179" d="M51.4226 15.2689C53.276 17.7622 55.9797 18.8844 57.4733 17.8121C58.9777 16.7074 58.7051 13.8307 56.8518 11.3375C54.9984 8.84419 52.2947 7.72202 50.8011 8.79426C49.2967 9.89894 49.5692 12.7757 51.4226 15.2689Z" fill="#C01520"/>
<path id="Vector_180" d="M51.5668 15.1629C53.2884 17.5184 55.8383 18.5678 57.2442 17.5443C58.6501 16.5209 58.3997 13.7903 56.6781 11.4348C54.9565 9.07937 52.4066 8.03001 51.0007 9.05341C49.5948 10.0768 49.8452 12.8075 51.5668 15.1629Z" fill="#BF151F"/>
<path id="Vector_181" d="M51.7133 15.0247C53.3483 17.2184 55.7355 18.2275 57.0544 17.2529C58.3734 16.2782 58.1337 13.7257 56.4987 11.532C54.8637 9.33834 52.4766 8.32917 51.1576 9.30385C49.8386 10.2785 50.0783 12.831 51.7133 15.0247Z" fill="#BE1420"/>
<path id="Vector_182" d="M51.8923 14.9274C53.396 16.9834 55.63 17.9198 56.8615 16.9939C58.0821 16.1005 57.8644 13.6939 56.3498 11.6704C54.8461 9.6144 52.6122 8.67798 51.3806 9.60385C50.16 10.4973 50.3777 12.9038 51.8814 14.9598L51.8923 14.9274Z" fill="#BD1420"/>
<path id="Vector_183" d="M52.0393 14.7892C53.4562 16.6833 55.5053 17.539 56.6607 16.7348C57.7943 15.8901 57.5873 13.6618 56.2032 11.7757C54.7863 9.88158 52.7372 9.02585 51.5817 9.83006C50.4481 10.6748 50.6551 12.9031 52.0393 14.7892Z" fill="#BC1420"/>
<path id="Vector_184" d="M52.2192 14.6921C53.5057 16.4487 55.4354 17.2399 56.471 16.4764C57.5394 15.7209 57.3432 13.6707 56.024 11.906C54.7376 10.1494 52.8079 9.35823 51.7722 10.1218C50.7038 10.8772 50.9001 12.9274 52.2192 14.6921Z" fill="#BB131F"/>
<path id="Vector_185" d="M52.3705 14.5542C53.5583 16.1812 55.302 16.8915 56.2829 16.1849C57.2638 15.4782 57.0786 13.6065 55.8909 11.9795C54.7031 10.3525 52.9594 9.64214 51.9785 10.3488C50.9975 11.0555 51.1827 12.9272 52.3705 14.5542Z" fill="#BA131F"/>
<path id="Vector_186" d="M52.5107 14.4482C53.5784 15.9051 55.191 16.5832 56.0519 15.9173C56.9346 15.2919 56.7714 13.566 55.7037 12.1091C54.636 10.6521 53.0234 9.97402 52.1625 10.6399C51.2798 11.2654 51.443 12.9912 52.5107 14.4482Z" fill="#B91220"/>
<path id="Vector_187" d="M52.6978 14.3189C53.668 15.6465 55.096 16.2439 55.8918 15.6672C56.6876 15.0905 56.535 13.5427 55.5539 12.2476C54.5837 10.92 53.1557 10.3226 52.36 10.8993C51.5642 11.476 51.7168 13.0238 52.6978 14.3189Z" fill="#B8121F"/>
<path id="Vector_188" d="M52.8396 14.2132C53.7222 15.3788 54.9864 15.9359 55.6948 15.408C56.4032 14.88 56.2617 13.5107 55.4117 12.3532C54.529 11.1876 53.2649 10.6305 52.5564 11.1584C51.848 11.6863 51.9896 13.0557 52.8396 14.2132Z" fill="#B7111E"/>
<path id="Vector_189" d="M53.0124 14.1152C53.7647 15.1433 54.8877 15.5954 55.4983 15.1486C56.1088 14.7019 56.0107 13.5187 55.2256 12.4826C54.4733 11.4545 53.3503 11.0024 52.7398 11.4492C52.1293 11.8959 52.2274 13.0791 53.0124 14.1152Z" fill="#B6111F"/>
<path id="Vector_190" d="M53.1659 13.9773C53.8307 14.8434 54.7572 15.2471 55.3131 14.8572C55.8363 14.4592 55.7491 13.4544 55.0952 12.5559C54.4304 11.6898 53.5039 11.2861 52.948 11.676C52.4248 12.074 52.512 13.0788 53.1659 13.9773Z" fill="#B5101F"/>
<path id="Vector_191" d="M53.3047 13.871C53.8386 14.5995 54.6449 14.9385 55.0699 14.6218C55.4949 14.305 55.4623 13.4542 54.8958 12.7176C54.3619 11.9892 53.5556 11.6501 53.1306 11.9669C52.7056 12.2836 52.7709 13.1425 53.3047 13.871Z" fill="#B4111F"/>
<path id="Vector_192" d="M53.4894 13.7415C53.9257 14.3406 54.5474 14.5989 54.9181 14.339C55.2562 14.0709 55.2343 13.3982 54.7544 12.8235C54.3181 12.2244 53.6964 11.9661 53.3256 12.226C52.9548 12.486 53.0094 13.1668 53.4894 13.7415Z" fill="#B3101E"/>
<path id="Vector_193" d="M53.6331 13.6357C53.949 14.0647 54.4392 14.2908 54.6898 14.0716C54.9622 13.8928 54.9296 13.3581 54.581 12.921C54.2652 12.4921 53.7749 12.266 53.5243 12.4852C53.2519 12.6639 53.2845 13.1987 53.6331 13.6357Z" fill="#B2101E"/>
<path id="Vector_194" d="M53.8177 13.5067C54.036 13.8065 54.3525 13.9196 54.538 13.7895C54.7236 13.6594 54.6908 13.335 54.4725 13.0352C54.2542 12.7354 53.9377 12.6224 53.7522 12.7525C53.5667 12.8825 53.5994 13.207 53.8177 13.5067Z" fill="#B10F1F"/>
<path id="Vector_195" d="M53.9612 13.4004C53.9612 13.4004 54.2455 13.6109 54.3001 13.5541C54.3876 13.5052 54.3765 13.3267 54.2562 13.1565C54.1577 13.0268 53.9719 12.946 53.9172 13.0029C53.8298 13.0517 53.8408 13.2302 53.9612 13.4004Z" fill="#B00F1E"/>
</g>
</g>
</g>
</g>
</g>
</g>
<defs>
<radialGradient id="paint0_radial_427_3396" cx="0" cy="0" r="1" gradientUnits="userSpaceOnUse" gradientTransform="translate(18.6831 51.3786) rotate(16.2737) scale(11.4097 4.11252)">
<stop stop-color="#72A391"/>
<stop offset="1" stop-color="white" stop-opacity="0"/>
</radialGradient>
<radialGradient id="paint1_radial_427_3396" cx="0" cy="0" r="1" gradientUnits="userSpaceOnUse" gradientTransform="translate(35.8534 11.0224) rotate(-155.76) scale(2.45742 1.60185)">
<stop stop-color="#4E7368"/>
<stop offset="0.74" stop-color="#97D6CB"/>
<stop offset="0.98" stop-color="white"/>
</radialGradient>
<linearGradient id="paint2_linear_427_3396" x1="26.1309" y1="45.8821" x2="22.6318" y2="42.7275" gradientUnits="userSpaceOnUse">
<stop stop-color="#4E7368"/>
<stop offset="0.61" stop-color="#97D6CB"/>
<stop offset="0.95" stop-color="#79B0AA"/>
</linearGradient>
<linearGradient id="paint3_linear_427_3396" x1="48.2445" y1="50.0526" x2="26.6395" y2="29.5455" gradientUnits="userSpaceOnUse">
<stop stop-color="#B2111D"/>
<stop offset="0.29" stop-color="#F22C29"/>
<stop offset="0.76" stop-color="#970218"/>
<stop offset="1" stop-color="#D95863"/>
</linearGradient>
<radialGradient id="paint4_radial_427_3396" cx="0" cy="0" r="1" gradientUnits="userSpaceOnUse" gradientTransform="translate(32.1073 37.6008) rotate(-138.988) scale(16.1515 14.9019)">
<stop offset="0.3" stop-color="#F22C29"/>
<stop offset="0.45" stop-color="#F22C29"/>
<stop offset="0.77" stop-color="#D51C22"/>
<stop offset="1" stop-color="#970218"/>
</radialGradient>
<linearGradient id="paint5_linear_427_3396" x1="58.0494" y1="39.641" x2="42.823" y2="34.8294" gradientUnits="userSpaceOnUse">
<stop stop-color="#CC2523"/>
<stop offset="0.28" stop-color="#970218"/>
<stop offset="0.56" stop-color="#FF2F2C"/>
<stop offset="0.71" stop-color="#970218"/>
<stop offset="0.82" stop-color="#CC2523"/>
</linearGradient>
<linearGradient id="paint6_linear_427_3396" x1="41.1551" y1="35.9392" x2="29.1277" y2="25.7224" gradientUnits="userSpaceOnUse">
<stop stop-color="#B50F1E"/>
<stop offset="0.25" stop-color="#F22C29"/>
<stop offset="0.51" stop-color="#FB433C"/>
<stop offset="0.76" stop-color="#FF2F2C"/>
<stop offset="1" stop-color="#AD0B1C"/>
</linearGradient>
<linearGradient id="paint7_linear_427_3396" x1="55.1919" y1="27.9211" x2="37.9092" y2="9.39639" gradientUnits="userSpaceOnUse">
<stop stop-color="#FF2F2C"/>
<stop offset="0.29" stop-color="#970218"/>
<stop offset="0.56" stop-color="#FF2F2C"/>
<stop offset="0.69" stop-color="#B30016"/>
<stop offset="0.82" stop-color="#FF9594"/>
<stop offset="0.89" stop-color="#970218"/>
</linearGradient>
</defs>
</svg>
