<svg width="47" height="63" viewBox="0 0 47 63" fill="none" xmlns="http://www.w3.org/2000/svg">
<g id="Group">
<g id="&#195;&#162;&#226;&#130;&#172;&#203;&#156;&#195;&#131;&#194;&#171;&#195;&#131;&#194;&#174;&#195;&#131;&#194;&#169;_1">
<g id="red">
<g id="Vector">
<path d="M45.9389 47.1571C46.3095 54.9777 38.0615 61.2286 27.4993 61.1537C16.9371 61.0788 8.08925 54.6725 7.72022 46.8861C7.3512 39.0997 15.5959 32.7803 26.1581 32.8552C36.7204 32.93 45.5682 39.3364 45.9389 47.1571Z" fill="url(#paint0_radial_427_3186)" style="mix-blend-mode:multiply"/>
</g>
<path id="Vector_2" style="mix-blend-mode:multiply" d="M33.8414 49.1933C34.0118 49.8483 33.207 50.5303 32.0655 50.7281C30.9241 50.9258 29.8963 50.574 29.7276 49.9535C29.5573 49.2986 30.3621 48.6166 31.5035 48.4188C32.645 48.221 33.6728 48.5728 33.8431 49.2278L33.8414 49.1933Z" fill="url(#paint1_radial_427_3186)"/>
<path id="Vector_3" d="M33.8132 49.1909L33.4717 48.4392L24.1402 30.9045L20.81 32.5561L30.1414 50.0908C30.4037 50.6035 31.2683 50.8809 32.2146 50.7157C33.2615 50.517 33.9455 49.8391 33.8132 49.1909Z" fill="url(#paint2_linear_427_3186)"/>
<path id="Vector_4" d="M37.8694 28.3098C34.5837 22.5374 25.3197 19.9077 18.0199 23.6577C10.7202 27.4076 8.15786 36.1527 11.4435 41.9252C14.7292 47.6976 23.2882 49.3299 30.5879 45.58C37.8876 41.83 41.1551 34.0823 37.8694 28.3098Z" fill="url(#paint3_linear_427_3186)"/>
<path id="Vector_5" d="M37.6116 27.9043C34.3259 22.1318 25.0619 19.5022 17.7621 23.2521C10.4624 27.0021 7.90005 35.7472 11.1857 41.5196C14.4714 47.2921 23.0304 48.9244 30.3301 45.1744C37.6298 41.4245 40.8972 33.6768 37.6116 27.9043Z" fill="url(#paint4_radial_427_3186)"/>
<path id="Vector_6" d="M13.6205 32.6283C12.0988 29.8077 14.2026 25.8815 18.3395 23.8543C22.4765 21.8271 27.0889 22.5104 28.6122 25.3653C30.1338 28.1859 28.03 32.1121 23.8931 34.1393C19.7545 36.1322 15.1784 35.4835 13.6205 32.6283Z" fill="url(#paint5_linear_427_3186)"/>
<path id="Vector_7" d="M28.4745 25.2819C28.1698 24.6651 20.9568 15.6345 20.9568 15.6345L10.777 20.3531C10.777 20.3531 13.4562 31.8489 13.761 32.4658C15.1716 35.3444 19.7835 35.9885 23.8574 33.9986C27.9314 32.0087 29.9196 28.1608 28.4761 25.3161L28.4745 25.2819Z" fill="url(#paint6_linear_427_3186)"/>
<g id="Clip path group">
<mask id="mask0_427_3186" style="mask-type:luminance" maskUnits="userSpaceOnUse" x="1" y="1" width="23" height="22">
<g id="clippath">
<path id="Vector_8" d="M22.1744 6.78211C24.9867 11.5764 22.9493 17.8758 17.6099 20.7846C12.2733 23.7276 5.66178 22.185 2.81309 17.3564C0.000803683 12.5621 2.03816 6.26271 7.37757 3.35392C12.717 0.445137 19.3257 1.95357 22.1744 6.78211Z" fill="white"/>
</g>
</mask>
<g mask="url(#mask0_427_3186)">
<g id="Group_2">
<path id="Vector_9" d="M24.1075 0.448281L-0.953125 0.437164L0.955938 23.7244L26.0165 23.7355L24.1075 0.448281Z" fill="#970218"/>
<path id="Vector_10" d="M18.3249 21.5148C11.7929 25.2776 3.87876 24.1049 0.688114 18.8936C-2.50253 13.6823 0.201495 6.38665 6.73357 2.6239C13.2656 -1.13885 21.1797 0.0338113 24.3704 5.24509C27.561 10.4564 24.857 17.7521 18.3249 21.5148Z" fill="#970218"/>
<path id="Vector_11" d="M18.2861 21.4807C11.7544 25.2434 3.87428 24.0709 0.683759 18.8597C-2.50676 13.6484 0.199939 6.38706 6.69802 2.62426C13.2298 -1.13851 21.1099 0.0340562 24.3004 5.24527C27.4909 10.4565 24.8179 17.7179 18.2861 21.4807Z" fill="#980319"/>
<path id="Vector_12" d="M18.2848 21.4466C11.7856 25.2093 3.90433 24.0365 0.716164 18.8593C-2.472 13.6821 0.201497 6.42058 6.73716 2.69214C13.2363 -1.0706 21.1176 0.102213 24.3058 5.27941C27.4939 10.4566 24.8204 17.7182 18.2848 21.4466Z" fill="#990318"/>
<path id="Vector_13" d="M18.2832 21.4124C11.7816 25.1409 3.97087 24.0025 0.782853 18.8254C-2.40517 13.6483 0.270984 6.42106 6.7726 2.69257C13.2742 -1.03592 21.0849 0.102476 24.2729 5.27959C27.461 10.4567 24.7848 17.684 18.2832 21.4124Z" fill="#9A0419"/>
<path id="Vector_14" d="M18.2481 21.4122C11.7803 25.1407 3.96684 23.9681 0.781656 18.8253C-2.40353 13.6824 0.272594 6.45518 6.74045 2.72665C13.2083 -1.00188 21.0217 0.17077 24.2069 5.3136C27.3921 10.4564 24.716 17.6837 18.2144 21.4122L18.2481 21.4122Z" fill="#9B031A"/>
<path id="Vector_15" d="M18.2484 21.378C11.7807 25.1065 4.00124 23.9339 0.849849 18.7912C-2.30154 13.6484 0.343589 6.45547 6.81404 2.7612C13.2817 -0.967339 21.0612 0.205229 24.2126 5.34798C27.364 10.4907 24.7188 17.6837 18.2484 21.378Z" fill="#9C0419"/>
<path id="Vector_16" d="M18.2099 21.3438C11.7727 25.0381 3.99538 23.8997 0.84657 18.791C-2.30505 13.6482 0.343143 6.48939 6.78043 2.79511C13.2177 -0.899163 20.995 0.239261 24.1438 5.34787C27.2954 10.4907 24.6472 17.6495 18.2099 21.3438Z" fill="#9D041A"/>
<path id="Vector_17" d="M18.2091 21.3095C11.8058 25.0038 4.02896 23.8655 0.914003 18.757C-2.23465 13.6485 0.413371 6.48973 6.8503 2.79544C13.2535 -0.898889 21.0304 0.239454 24.1454 5.34794C27.294 10.4565 24.646 17.6152 18.2091 21.3095Z" fill="#9E0519"/>
<path id="Vector_18" d="M18.1687 21.309C11.7653 25.0034 4.05565 23.865 0.906929 18.7565C-2.24179 13.6479 0.409114 6.52343 6.8153 2.86338C13.2187 -0.830936 20.9283 0.307377 24.077 5.41594C27.2258 10.5245 24.5749 17.649 18.1687 21.309Z" fill="#9F051A"/>
<path id="Vector_19" d="M18.1696 21.2748C11.7976 24.9349 4.08839 23.7967 0.976351 18.7226C-2.13568 13.6484 0.48133 6.52394 6.85341 2.86383C13.2255 -0.796279 20.9347 0.341938 24.0467 5.4161C27.1587 10.4903 24.5417 17.6147 18.1696 21.2748Z" fill="#A0061A"/>
<path id="Vector_20" d="M18.1665 21.2408C11.7944 24.9009 4.11882 23.7627 1.00676 18.6886C-2.10531 13.6144 0.514548 6.52417 6.8867 2.86406C13.2588 -0.796041 20.9344 0.342159 24.0465 5.41634C27.1585 10.4905 24.5387 17.5807 18.1665 21.2408Z" fill="#A1061A"/>
<path id="Vector_21" d="M18.1286 21.2066C11.7896 24.8667 4.11336 23.7284 1.00385 18.6883C-2.10566 13.6483 0.514477 6.55797 6.85633 2.93213C13.1954 -0.727977 20.8716 0.410362 23.9811 5.45041C27.0906 10.4905 24.4705 17.5808 18.1286 21.2066Z" fill="#A2071A"/>
<path id="Vector_22" d="M18.1317 21.2063C11.793 24.8664 4.18454 23.7282 1.07519 18.6882C-2.03417 13.6483 0.588611 6.59229 6.93011 2.96644C13.2688 -0.693687 20.9109 0.444536 23.9866 5.48447C27.0959 10.5244 24.4731 17.5804 18.1317 21.2063Z" fill="#A3071B"/>
<path id="Vector_23" d="M18.0933 21.1722C11.7858 24.7981 4.18047 23.6943 1.07122 18.6544C-2.00432 13.6145 0.587446 6.59278 6.89497 2.96687C13.2025 -0.659032 20.8078 0.444829 23.9171 5.48474C26.9926 10.5246 24.4008 17.5463 18.0933 21.1722Z" fill="#A4071B"/>
<path id="Vector_24" d="M18.0883 21.1378C11.8145 24.7637 4.20637 23.6256 1.13363 18.62C-1.9391 13.6144 0.655476 6.62692 6.92932 3.00099C13.2032 -0.624949 20.8113 0.513181 23.884 5.51879C26.9568 10.5244 24.365 17.5461 18.0883 21.1378Z" fill="#A5081B"/>
<path id="Vector_25" d="M18.0872 21.1038C11.8133 24.7297 4.23876 23.5916 1.16599 18.586C-1.90677 13.5804 0.690649 6.6272 6.96456 3.00127C13.2385 -0.624665 20.813 0.513448 23.8857 5.51907C26.9585 10.5247 24.3611 17.4779 18.0872 21.1038Z" fill="#A6081C"/>
<path id="Vector_26" d="M18.0549 21.1034C11.8118 24.6951 4.23994 23.5912 1.20364 18.6199C-1.86635 13.6485 0.731114 6.69531 6.97142 3.06935C13.2145 -0.522346 20.7864 0.581524 23.8226 5.55287C26.8926 10.5243 24.2952 17.4774 18.0549 21.1034Z" fill="#A7091B"/>
<path id="Vector_27" d="M18.0518 21.0692C11.8083 24.6609 4.30342 23.557 1.23326 18.5855C-1.83691 13.614 0.763555 6.69503 7.00707 3.10336C13.2506 -0.488308 20.7554 0.615586 23.8256 5.58706C26.8621 10.5585 24.2953 17.4775 18.0518 21.0692Z" fill="#A8091C"/>
<path id="Vector_28" d="M18.017 21.0349C11.8075 24.6267 4.3031 23.5229 1.2668 18.5515C-1.76669 13.6144 0.799891 6.69547 7.00932 3.10374C13.2187 -0.48798 20.726 0.650094 23.7932 5.58721C26.8267 10.5243 24.2601 17.4433 18.0507 21.035L18.017 21.0349Z" fill="#A90A1C"/>
<path id="Vector_29" d="M18.0143 21.0009C11.8023 24.5583 4.33176 23.4546 1.29835 18.5176C-1.73505 13.5805 0.834249 6.69585 7.00978 3.10408C13.2218 -0.453389 20.6923 0.650339 23.7257 5.58738C26.7591 10.5244 24.1898 17.4091 18.0143 21.0009Z" fill="#AA0A1C"/>
<path id="Vector_30" d="M17.9766 20.967C11.7977 24.5245 4.32649 23.4206 1.29284 18.4834C-1.74081 13.5463 0.831576 6.69578 7.01049 3.13831C13.1894 -0.419157 20.6606 0.684705 23.6942 5.62188C26.7279 10.559 24.1555 17.4095 17.9766 20.967Z" fill="#AB0A1C"/>
<path id="Vector_31" d="M17.9736 20.9661C11.8287 24.5236 4.35792 23.4198 1.36092 18.517C-1.66977 13.6142 0.902452 6.76376 7.04733 3.20624C13.1922 -0.35128 20.663 0.752503 23.66 5.6553C26.6907 10.5581 24.1185 17.4086 17.9736 20.9661Z" fill="#AC0A1C"/>
<path id="Vector_32" d="M17.9723 20.932C11.8249 24.4553 4.42466 23.3859 1.39407 18.4831C-1.60281 13.5804 0.938398 6.76424 7.04931 3.20668C13.1967 -0.316591 20.597 0.752797 23.6276 5.65556C26.6245 10.5583 24.0832 17.3745 17.9723 20.932Z" fill="#AD0B1C"/>
<path id="Vector_33" d="M17.9382 20.898C11.8246 24.4213 4.4216 23.3176 1.42756 18.4492C-1.56648 13.5808 0.974691 6.7646 7.08553 3.20703C13.1992 -0.316275 20.6022 0.787364 23.5962 5.65581C26.5902 10.5243 24.0491 17.3404 17.9382 20.898Z" fill="#AE0B1D"/>
<path id="Vector_34" d="M17.935 20.8637C11.8212 24.387 4.4517 23.2834 1.45759 18.4149C-1.53652 13.5464 1.00754 6.76452 7.08764 3.24119C13.2014 -0.282105 20.5709 0.821538 23.565 5.69002C26.5591 10.5585 24.0151 17.3404 17.935 20.8637Z" fill="#AF0C1C"/>
<path id="Vector_35" d="M17.8982 20.8633C11.8179 24.3866 4.44833 23.2829 1.49068 18.4487C-1.50068 13.6144 1.00974 6.83248 7.12368 3.30919C13.2039 -0.214129 20.5735 0.889546 23.5312 5.72376C26.5225 10.558 23.9784 17.3399 17.8982 20.8633Z" fill="#B00C1D"/>
<path id="Vector_36" d="M17.8971 20.8292C11.8143 24.3183 4.51509 23.249 1.52382 18.4148C-1.43374 13.5806 1.04569 6.83294 7.12572 3.30961C13.2086 -0.179453 20.5414 0.889872 23.499 5.72404C26.4566 10.5582 23.9771 17.3059 17.8971 20.8292Z" fill="#B10C1E"/>
<path id="Vector_37" d="M17.8958 20.795C11.8465 24.2841 4.54715 23.2147 1.55581 18.3805C-1.40182 13.5463 1.0805 6.83283 7.12979 3.34374C13.1791 -0.145349 20.4784 0.923981 23.4698 5.75822C26.4274 10.5924 23.9451 17.3059 17.8958 20.795Z" fill="#B20D1D"/>
<path id="Vector_38" d="M17.8597 20.761C11.8442 24.2501 4.54214 23.1465 1.58735 18.3466C-1.36744 13.5467 1.11484 6.83322 7.16406 3.34413C13.2133 -0.144961 20.4817 0.958586 23.4364 5.7585C26.3912 10.5584 23.909 17.2719 17.8597 20.761Z" fill="#B30D1E"/>
<path id="Vector_39" d="M17.8559 20.7607C11.8375 24.2156 4.57184 23.1463 1.61701 18.3463C-1.33782 13.5464 1.14731 6.86721 7.16292 3.37809C13.1813 -0.076768 20.447 0.992532 23.4018 5.79247C26.3567 10.5924 23.8715 17.2716 17.8559 20.7607Z" fill="#B40E1E"/>
<path id="Vector_40" d="M17.819 20.7266C11.8337 24.1814 4.56734 23.112 1.64879 18.3462C-1.30348 13.5804 1.18193 6.90117 7.20093 3.44635C13.1862 -0.00850401 20.4526 1.06093 23.3711 5.8267C26.3234 10.5925 23.838 17.2718 17.819 20.7266Z" fill="#B50E1D"/>
<path id="Vector_41" d="M17.8177 20.6921C11.8331 24.147 4.63503 23.0777 1.68306 18.3121C-1.23521 13.5465 1.21898 6.90156 7.20358 3.44667C13.1882 -0.00822099 20.3863 1.06099 23.3383 5.82663C26.2565 10.5922 23.8023 17.2372 17.8177 20.6921Z" fill="#B60F1E"/>
<path id="Vector_42" d="M17.783 20.6579C11.8296 24.0786 4.63466 23.0437 1.71654 18.2782C-1.20158 13.5126 1.25526 6.90203 7.20582 3.44709C13.1592 0.0264106 20.3541 1.06127 23.2722 5.8268C26.1904 10.5923 23.7335 17.2029 17.783 20.6579Z" fill="#B70F1E"/>
<path id="Vector_43" d="M17.7804 20.624C11.8261 24.0446 4.66112 22.9753 1.74545 18.2438C-1.17023 13.5124 1.28701 6.90162 7.24124 3.48099C13.1955 0.0603634 20.3605 1.12966 23.2762 5.86112C26.1918 10.5926 23.7346 17.2033 17.7804 20.624Z" fill="#B8101E"/>
<path id="Vector_44" d="M17.7827 20.6234C11.8629 24.0441 4.69882 22.975 1.81717 18.2438C-1.09817 13.5125 1.36151 6.93613 7.28127 3.51543C13.201 0.0947226 20.3651 1.16384 23.2468 5.89509C26.1621 10.6264 23.7025 17.2027 17.7827 20.6234Z" fill="#B9101F"/>
<path id="Vector_45" d="M17.7436 20.5894C11.8205 23.9758 4.69216 22.9408 1.81308 18.2437C-1.066 13.5466 1.36026 6.97012 7.2806 3.54944C13.2038 0.163037 20.332 1.19799 23.2111 5.89511C26.0902 10.5922 23.6639 17.1687 17.7436 20.5894Z" fill="#BA101E"/>
<path id="Vector_46" d="M17.7403 20.5551C11.8507 23.9415 4.75596 22.9066 1.84311 18.2094C-1.03603 13.5122 1.39311 6.96997 7.28271 3.58354C13.1723 0.197111 20.2671 1.23206 23.1799 5.92926C26.0591 10.6264 23.6299 17.1686 17.7403 20.5551Z" fill="#BB111F"/>
<path id="Vector_47" d="M17.7036 20.5209C11.8482 23.9074 4.75116 22.8383 1.87503 18.1755C-1.0011 13.5127 1.42782 6.97058 7.28323 3.58409C13.1386 0.197596 20.2357 1.2667 23.1118 5.92948C25.9879 10.5923 23.559 17.1344 17.7036 20.5209Z" fill="#BC111F"/>
<path id="Vector_48" d="M17.7044 20.5207C11.8489 23.9072 4.78551 22.8381 1.90935 18.1753C-0.966817 13.5125 1.46494 7.00462 7.32043 3.61813C13.1759 0.231648 20.2393 1.30074 23.1155 5.96353C25.9916 10.6263 23.5599 17.1342 17.7044 20.5207Z" fill="#BD121E"/>
<path id="Vector_49" d="M17.702 20.4864C11.8776 23.8387 4.81723 22.8039 1.97485 18.1412C-0.867527 13.4784 1.53325 7.00481 7.35765 3.65254C13.1821 0.300283 20.2424 1.33506 23.0848 5.99778C25.9272 10.6605 23.5264 17.1341 17.702 20.4864Z" fill="#BE121F"/>
<path id="Vector_50" d="M17.6643 20.4523C11.8393 23.8045 4.8121 22.7697 1.97232 18.1411C-0.867467 13.5125 1.53355 7.03881 7.35846 3.68658C13.1834 0.334345 20.2106 1.36921 23.0504 5.99777C25.8902 10.6263 23.4892 17.1001 17.6643 20.4523Z" fill="#BF121F"/>
<path id="Vector_51" d="M17.6646 20.418C11.8742 23.7703 4.88154 22.7356 2.04209 18.1072C-0.797369 13.4789 1.6061 7.03951 7.39653 3.6872C13.187 0.334891 20.1796 1.36954 23.0191 5.99793C25.8585 10.6263 23.4551 17.0657 17.6646 20.418Z" fill="#C0121F"/>
<path id="Vector_52" d="M17.6242 20.4176C11.8301 23.7356 4.87015 22.7008 2.03313 18.1065C-0.803883 13.5121 1.59999 7.07268 7.36041 3.75465C13.1545 0.436662 20.1145 1.47148 22.9515 6.0658C25.7885 10.6601 23.3846 17.0996 17.6242 20.4176Z" fill="#C11320"/>
<path id="Vector_53" d="M17.6253 20.3834C11.8652 23.7015 4.90568 22.6667 2.10252 18.0725C-0.734346 13.4783 1.67217 7.07315 7.43224 3.75511C13.1923 0.437058 20.1519 1.4718 22.955 6.06601C25.7919 10.6602 23.3854 17.0654 17.6253 20.3834Z" fill="#C21320"/>
<path id="Vector_54" d="M17.5855 20.3491C11.8594 23.6672 4.90019 22.6325 2.09995 18.0726C-0.70029 13.5127 1.67241 7.10761 7.3985 3.78951C13.1246 0.471421 20.0838 1.5061 22.8841 6.06598C25.6843 10.6259 23.3116 17.031 17.5855 20.3491Z" fill="#C3141F"/>
<path id="Vector_55" d="M17.5868 20.3153C11.8569 23.599 4.96674 22.5985 2.13237 18.0383C-0.668294 13.4782 1.70768 7.10717 7.43759 3.8234C13.1675 0.539632 20.0577 1.54021 22.8921 6.10036C25.6927 10.6605 23.3168 17.0315 17.5868 20.3153Z" fill="#C41420"/>
<path id="Vector_56" d="M17.5853 20.3148C11.8898 23.5986 5.00053 22.5982 2.20019 18.0383C-0.60015 13.4783 1.77827 7.1417 7.47371 3.85785C13.1692 0.574005 20.0585 1.57441 22.8588 6.13434C25.6591 10.6943 23.2807 17.0309 17.5853 20.3148Z" fill="#C5151F"/>
<path id="Vector_57" d="M17.5502 20.2808C11.8548 23.5647 4.99649 22.5301 2.19899 18.0044C-0.598517 13.4788 1.77988 7.14214 7.44156 3.85826C13.1369 0.574406 19.9953 1.60903 22.7928 6.13468C25.5903 10.6603 23.2119 16.997 17.5502 20.2808Z" fill="#C61520"/>
<path id="Vector_58" d="M17.5448 20.2463C11.883 23.5302 5.02456 22.4955 2.26071 17.9699C-0.503141 13.4442 1.81072 7.14179 7.50902 3.89221C13.1736 0.642602 20.0293 1.64298 22.7932 6.16863C25.557 10.6943 23.2431 16.9967 17.5448 20.2463Z" fill="#C71521"/>
<path id="Vector_59" d="M17.5051 20.2123C11.8401 23.4619 5.01783 22.4615 2.25665 17.97C-0.504519 13.4786 1.80948 7.1761 7.4744 3.92651C13.1393 0.676918 19.9616 1.67734 22.7228 6.16879C25.484 10.6602 23.17 16.9627 17.5051 20.2123Z" fill="#C81620"/>
<path id="Vector_60" d="M17.5074 20.1779C11.877 23.4276 5.08923 22.4274 2.32838 17.9361C-0.432464 13.4448 1.88399 7.17674 7.51443 3.92707C13.1449 0.677403 19.9326 1.67761 22.6935 6.16888C25.4543 10.6602 23.1378 16.9283 17.5074 20.1779Z" fill="#C91621"/>
<path id="Vector_61" d="M17.5068 20.1778C11.9092 23.4274 5.11764 22.3927 2.35924 17.9355C-0.39916 13.4783 1.91769 7.21009 7.5518 3.99474C13.1494 0.745086 19.9409 1.77976 22.6993 6.23696C25.4577 10.6942 23.1409 16.9624 17.5068 20.1778Z" fill="#CA1721"/>
<path id="Vector_62" d="M17.4707 20.1437C11.8704 23.3591 5.11548 22.3587 2.39082 17.9016C-0.36754 13.4444 1.95208 7.21043 7.5524 3.99504C13.1527 0.779652 19.9076 1.78001 22.666 6.23719C25.3907 10.6943 23.1047 16.9283 17.5044 20.1437L17.4707 20.1437Z" fill="#CC1720"/>
<path id="Vector_63" d="M17.4695 20.1094C11.9034 23.3249 5.14909 22.3247 2.42465 17.8676C-0.299779 13.4106 1.9887 7.21097 7.58849 3.99555C13.1546 0.780099 19.9089 1.78033 22.6333 6.23735C25.3577 10.6944 23.0693 16.894 17.4695 20.1094Z" fill="#CD1821"/>
<path id="Vector_64" d="M17.433 20.0753C11.8668 23.2907 5.14612 22.2905 2.42446 17.8677C-0.297203 13.4449 1.99132 7.24529 7.5575 4.02985C13.1237 0.814399 19.8444 1.81462 22.566 6.2374C25.2877 10.6602 22.9992 16.8598 17.433 20.0753Z" fill="#CE1821"/>
<path id="Vector_65" d="M17.4339 20.0748C11.8984 23.2561 5.21407 22.2901 2.49234 17.8673C-0.229389 13.4445 2.06202 7.27905 7.59747 4.09785C13.1329 0.916641 19.8173 1.8826 22.539 6.30541C25.2608 10.7282 22.9693 16.8936 17.4339 20.0748Z" fill="#CF1820"/>
<path id="Vector_66" d="M17.4308 20.0409C11.895 23.2221 5.24108 22.2218 2.522 17.8332C-0.197068 13.4446 2.09451 7.27912 7.63031 4.09794C13.1661 0.916753 19.82 1.91703 22.5391 6.30566C25.2582 10.6943 22.9666 16.8598 17.4308 20.0409Z" fill="#D01822"/>
<path id="Vector_67" d="M17.3907 20.0064C11.8898 23.1877 5.23718 22.1877 2.55229 17.7994C-0.132604 13.411 2.12756 7.27997 7.62853 4.09869C13.1295 0.91741 19.7821 1.91742 22.467 6.30576C25.1519 10.6941 22.8917 16.8252 17.3907 20.0064Z" fill="#D11922"/>
<path id="Vector_68" d="M17.3901 19.9724C11.8853 23.1194 5.26807 22.1534 2.58275 17.7649C-0.0997511 13.4106 2.16088 7.27934 7.66567 4.13238C13.1368 0.985394 19.7877 1.95137 22.473 6.33994C25.1555 10.6942 22.8949 16.8255 17.3901 19.9724Z" fill="#D21921"/>
<path id="Vector_69" d="M17.3539 19.9719C11.8832 23.1189 5.2663 22.1531 2.61763 17.7989C-0.0647316 13.4446 2.19855 7.34774 7.6693 4.20073C13.1401 1.05372 19.7569 2.01959 22.4056 6.37378C25.0879 10.728 22.8247 16.8249 17.3539 19.9719Z" fill="#D31A22"/>
<path id="Vector_70" d="M17.3521 19.9377C11.9154 23.0847 5.3326 22.119 2.65038 17.7648C-0.0318375 13.4107 2.23409 7.3481 7.6708 4.20104C13.1075 1.05398 19.6903 2.01974 22.3725 6.37388C25.0547 10.728 22.7888 16.7906 17.3521 19.9377Z" fill="#D41A21"/>
<path id="Vector_71" d="M17.3175 19.9039C11.8773 23.0167 5.32737 22.0508 2.64765 17.7307C0.00164489 13.4107 2.23421 7.34801 7.67444 4.23526C13.1119 1.08824 19.6646 2.08839 22.3443 6.40844C24.9903 10.7284 22.7577 16.7912 17.3175 19.9039Z" fill="#D51B21"/>
<path id="Vector_72" d="M17.3153 19.8696C11.9093 22.9825 5.36007 22.0167 2.7143 17.6968C0.0685216 13.3769 2.30364 7.34857 7.70961 4.23575C13.1156 1.12293 19.6648 2.08869 22.3106 6.40858C24.9564 10.7285 22.7213 16.7568 17.3153 19.8696Z" fill="#D61B22"/>
<path id="Vector_73" d="M17.3127 19.8354C11.9062 22.9482 5.3901 21.9823 2.74692 17.6966C0.103735 13.4109 2.33909 7.38243 7.74558 4.26965C13.1521 1.15686 19.6682 2.12271 22.3114 6.40844C24.9546 10.6942 22.7192 16.7226 17.3464 19.8354L17.3127 19.8354Z" fill="#D71B22"/>
<path id="Vector_74" d="M17.2765 19.8348C11.904 22.9477 5.42189 21.9819 2.77882 17.6962C0.135755 13.4106 2.37379 7.41643 7.74912 4.33787C13.1216 1.22503 19.6037 2.19078 22.2468 6.47645C24.8899 10.7621 22.6518 16.7563 17.2765 19.8348Z" fill="#D81C22"/>
<path id="Vector_75" d="M17.2731 19.8009C11.8975 22.8794 5.44886 21.9137 2.80851 17.6622C0.165347 13.3765 2.4063 7.41657 7.74815 4.33798C13.1237 1.25943 19.5696 2.19093 22.2127 6.47665C24.8559 10.7624 22.6149 16.7223 17.2731 19.8009Z" fill="#D91C23"/>
<path id="Vector_76" d="M17.2373 19.7666C11.896 22.8452 5.44796 21.8796 2.84155 17.6283C0.235138 13.377 2.44213 7.41712 7.78341 4.3385C13.1247 1.25988 19.5727 2.22552 22.1791 6.47681C24.7855 10.7281 22.5785 16.688 17.2373 19.7666Z" fill="#DA1D22"/>
<path id="Vector_77" d="M17.234 19.7323C11.9263 22.8109 5.47805 21.8453 2.87158 17.5939C0.265104 13.3426 2.47497 7.41699 7.78552 4.37262C13.0933 1.29397 19.5415 2.25964 22.1479 6.51097C24.7544 10.7623 22.5445 16.6879 17.234 19.7323Z" fill="#DB1D22"/>
<path id="Vector_78" d="M17.2349 19.7319C11.9242 22.7763 5.51244 21.8449 2.94243 17.6279C0.338725 13.4108 2.54864 7.48517 7.82559 4.44076C13.1362 1.39639 19.548 2.32779 22.118 6.54484C24.7217 10.7619 22.5118 16.6875 17.2349 19.7319Z" fill="#DC1E23"/>
<path id="Vector_79" d="M17.1966 19.6978C11.9196 22.7422 5.54142 21.8109 2.93768 17.5938C0.333945 13.3767 2.54671 7.48529 7.82372 4.44089C13.1007 1.39649 19.4789 2.32787 22.0827 6.54497C24.6864 10.7621 22.4736 16.6534 17.1966 19.6978Z" fill="#DD1E22"/>
<path id="Vector_80" d="M17.194 19.6635C11.9169 22.7079 5.56947 21.7423 2.96851 17.5594C0.401249 13.3766 2.58035 7.48519 7.82656 4.47503C13.1037 1.43063 19.4511 2.39626 22.052 6.57912C24.6193 10.7619 22.4402 16.6533 17.194 19.6635Z" fill="#DE1E23"/>
<path id="Vector_81" d="M17.1607 19.6297C11.9143 22.6399 5.5695 21.7085 3.00215 17.5256C0.434814 13.3427 2.58311 7.48553 7.86321 4.47542C13.1096 1.46527 19.4544 2.39667 22.0218 6.57954C24.5891 10.7624 22.4408 16.6196 17.1607 19.6297Z" fill="#DF1F22"/>
<path id="Vector_82" d="M17.1589 19.6293C11.9128 22.6395 5.6021 21.7082 3.03491 17.5254C0.46771 13.3426 2.61866 7.51971 7.86471 4.50954C13.1108 1.49937 19.4215 2.43067 21.9887 6.61345C24.5559 10.7962 22.4049 16.6191 17.1589 19.6293Z" fill="#E01F23"/>
<path id="Vector_83" d="M17.1212 19.5948C11.9087 22.605 5.59783 21.6737 3.06707 17.5252C0.50262 13.3766 2.65364 7.55369 7.86897 4.57777C13.0815 1.56757 19.3924 2.49891 21.9231 6.64743C24.4876 10.796 22.3366 16.6189 17.1212 19.5948Z" fill="#E11F23"/>
<path id="Vector_84" d="M17.1187 19.5606C11.9402 22.5709 5.66334 21.6397 3.099 17.4912C0.568368 13.3427 2.68837 7.55407 7.90341 4.57813C13.0819 1.56789 19.3588 2.49912 21.9231 6.64761C24.4538 10.7961 22.3338 16.5847 17.1187 19.5606Z" fill="#E22022"/>
<path id="Vector_85" d="M17.1191 19.5266C11.9378 22.5026 5.6947 21.5714 3.1669 17.4572C0.639098 13.343 2.76188 7.58868 7.94036 4.57843C13.1216 1.60245 19.3647 2.53364 21.8925 6.64782C24.4203 10.762 22.3004 16.5506 17.1191 19.5266Z" fill="#E32023"/>
<path id="Vector_86" d="M17.0853 19.4927C11.9371 22.4687 5.69334 21.5374 3.16529 17.4231C0.637253 13.3088 2.76031 7.55431 7.94498 4.61264C13.0931 1.63665 19.3369 2.56798 21.8649 6.68229C24.393 10.7966 22.2671 16.5168 17.0853 19.4927Z" fill="#E42123"/>
<path id="Vector_87" d="M17.0817 19.492C11.9343 22.468 5.72518 21.5369 3.23116 17.4228C0.70626 13.343 2.83176 7.62291 7.97915 4.64689C13.1265 1.67086 19.3357 2.60197 21.8297 6.71607C24.3546 10.7959 22.2291 16.516 17.0817 19.492Z" fill="#E52122"/>
<path id="Vector_88" d="M17.0433 19.4578C11.9263 22.3996 5.75301 21.5027 3.22789 17.4227C0.702759 13.3427 2.83132 7.65682 7.94553 4.68079C13.0625 1.73903 19.2358 2.63596 21.7609 6.71595C24.2861 10.7959 22.1575 16.4818 17.0433 19.4578Z" fill="#E62124"/>
<path id="Vector_89" d="M17.0355 19.4237C11.9182 22.3655 5.77842 21.4685 3.2532 17.3885C0.761681 13.3085 2.85945 7.65684 7.97669 4.71509C13.0939 1.77335 19.2337 2.6703 21.7589 6.75033C24.2505 10.8303 22.1527 16.482 17.0355 19.4237Z" fill="#E72224"/>
<path id="Vector_90" d="M17.0378 19.3893C11.9547 22.3311 5.81268 21.4 3.32418 17.3544C0.835679 13.3088 2.93322 7.6572 8.01627 4.71539C13.0993 1.77359 19.2414 2.70469 21.7299 6.75031C24.2184 10.7959 22.1208 16.4475 17.0378 19.3893Z" fill="#E82223"/>
<path id="Vector_91" d="M17.0034 19.3894C11.9507 22.2969 5.81091 21.4 3.3222 17.3542C0.833489 13.3085 2.93407 7.69108 8.01763 4.7493C13.0703 1.84175 19.2101 2.73871 21.6988 6.78445C24.1875 10.8302 22.087 16.4476 17.0034 19.3894Z" fill="#E92324"/>
<path id="Vector_92" d="M17.0009 19.355C11.9481 22.2626 5.84179 21.3656 3.38952 17.3541C0.903551 13.3426 3.00422 7.72521 8.05704 4.81767C13.1099 1.91014 19.2162 2.8071 21.6684 6.81857C24.1544 10.8301 22.0538 16.4475 17.0009 19.355Z" fill="#EA2324"/>
<path id="Vector_93" d="M16.9646 19.3206C11.9461 22.2282 5.87432 21.3315 3.38864 17.3201C0.936669 13.3088 3.00612 7.72572 8.02454 4.81812C13.043 1.91051 19.1148 2.80728 21.6005 6.81862C24.0524 10.8299 21.983 16.413 16.9646 19.3206Z" fill="#EB2424"/>
<path id="Vector_94" d="M16.9656 19.2868C11.944 22.1601 5.90547 21.2633 3.45615 17.2862C1.00684 13.309 3.07645 7.72589 8.09524 4.81831C13.1168 1.94499 19.1554 2.8418 21.6047 6.81893C24.054 10.7961 21.9844 16.3792 16.9656 19.2868Z" fill="#EC2424"/>
<path id="Vector_95" d="M16.9291 19.2865C11.9411 22.1598 5.90237 21.263 3.45298 17.2858C1.0036 13.3086 3.0761 7.75973 8.06415 4.88639C13.0522 2.01304 19.0909 2.9099 21.5403 6.88706C23.9897 10.8642 21.9172 16.4131 16.9291 19.2865Z" fill="#ED2424"/>
<path id="Vector_96" d="M16.9263 19.2521C11.9386 22.1255 5.934 21.2288 3.51846 17.2517C1.06923 13.2746 3.14437 7.76003 8.13208 4.88667C13.1198 2.01331 19.1244 2.91005 21.5399 6.8871C23.9891 10.8642 21.914 16.3788 16.96 19.2522L16.9263 19.2521Z" fill="#EE2525"/>
<path id="Vector_97" d="M16.9217 19.2177C11.9679 22.0911 5.96366 21.1945 3.55105 17.2517C1.13844 13.309 3.17976 7.79443 8.13349 4.92102C13.0872 2.04761 19.0915 2.94428 21.5041 6.88701C23.9167 10.8297 21.8754 16.3443 16.9217 19.2177Z" fill="#EF2525"/>
<path id="Vector_98" d="M16.8866 19.1837C11.9637 22.0229 5.99581 21.1605 3.54946 17.2177C1.13681 13.275 3.18098 7.79465 8.1011 4.92122C13.024 2.08205 18.9919 2.94444 21.4383 6.88722C23.8509 10.83 21.8067 16.3103 16.8866 19.1837Z" fill="#F02626"/>
<path id="Vector_99" d="M16.8862 19.1835C11.9629 22.0226 6.02541 21.1259 3.61539 17.2173C1.20537 13.3087 3.24974 7.82833 8.1731 4.98919C13.0965 2.15004 19.0339 3.04677 21.444 6.95535C23.854 10.8639 21.8096 16.3443 16.8862 19.1835Z" fill="#F12726"/>
<path id="Vector_100" d="M16.8473 19.1492C11.958 21.9884 6.0209 21.0918 3.61102 17.1833C1.20115 13.2748 3.24817 7.82873 8.13749 4.98953C13.0268 2.15033 18.9639 3.04698 21.3738 6.95548C23.7836 10.864 21.7366 16.31 16.8473 19.1492Z" fill="#F22727"/>
<path id="Vector_101" d="M16.8472 19.1149C11.9556 21.9199 6.05558 21.0577 3.67963 17.1493C1.26998 13.2409 3.31956 7.82922 8.17466 4.98996C13.0663 2.185 18.9662 3.04723 21.3422 6.95557C23.7182 10.8639 21.7023 16.2757 16.8472 19.1149Z" fill="#F32827"/>
<path id="Vector_102" d="M16.8462 19.0808C11.9875 21.8858 6.08656 21.0233 3.71306 17.1491C1.33957 13.2748 3.35585 7.86293 8.21458 5.05798C13.0733 2.25303 18.9743 3.11546 21.3478 6.98973C23.7212 10.864 21.705 16.2759 16.8462 19.0808Z" fill="#F42827"/>
<path id="Vector_103" d="M16.8077 19.0465C11.9497 21.8515 6.11697 20.9893 3.74378 17.1152C1.37059 13.2411 3.38934 7.86357 8.21366 5.05855C13.0717 2.25357 18.9044 3.11576 21.2776 6.98986C23.6508 10.864 21.6657 16.2415 16.8077 19.0465Z" fill="#F52827"/>
<path id="Vector_104" d="M16.811 19.0465C11.983 21.8172 6.14942 20.9549 3.7787 17.1149C1.40799 13.2748 3.39341 7.89718 8.25222 5.09224C13.0801 2.32153 18.9138 3.1839 21.2845 7.02392C23.6552 10.8639 21.6361 16.2416 16.811 19.0465Z" fill="#F62928"/>
<path id="Vector_105" d="M16.7727 19.0124C11.9446 21.7831 6.1444 20.9207 3.7736 17.0806C1.40279 13.2405 3.39112 7.89713 8.21925 5.12643C13.0474 2.35573 18.8475 3.21812 21.2183 7.05819C23.5891 10.8983 21.6008 16.2417 16.7727 19.0124Z" fill="#F72A28"/>
<path id="Vector_106" d="M16.7664 18.9778C11.9727 21.7485 6.17329 20.8863 3.83929 17.0807C1.50529 13.2751 3.4596 7.93173 8.25334 5.16096C13.0471 2.3902 18.8464 3.25243 21.1804 7.05803C23.5144 10.8636 21.5601 16.207 16.7664 18.9778Z" fill="#F82A29"/>
<path id="Vector_107" d="M16.732 18.944C11.9687 21.6805 6.20523 20.8525 3.83732 17.0467C1.5031 13.241 3.46045 7.93183 8.2547 5.16108C13.018 2.42458 18.7815 3.25263 21.1494 7.05839C23.4836 10.8641 21.5263 16.1733 16.732 18.944Z" fill="#F92B29"/>
<path id="Vector_108" d="M16.7325 18.9435C11.9693 21.68 6.23972 20.852 3.90556 17.0463C1.5714 13.2406 3.5315 7.96573 8.29472 5.22921C13.0579 2.4927 18.7903 3.35495 21.1217 7.12638C23.4558 10.9321 21.4957 16.2069 16.7325 18.9435Z" fill="#FA2C2A"/>
<path id="Vector_109" d="M16.7278 18.9095C11.9981 21.646 6.26548 20.7837 3.93404 17.0122C1.6026 13.2407 3.5628 7.96585 8.32624 5.22935C13.056 2.49281 18.7886 3.35512 21.12 7.1266C23.4515 10.8981 21.4913 16.173 16.7278 18.9095Z" fill="#FB2D2A"/>
<path id="Vector_110" d="M16.6917 18.8749C11.9631 21.6115 6.26549 20.7495 3.96823 16.9783C1.67097 13.2072 3.59976 7.96665 8.32837 5.23006C13.057 2.49346 18.7546 3.35547 21.0519 7.12665C23.3491 10.8978 21.4203 16.1383 16.6917 18.8749Z" fill="#FC2C2A"/>
<path id="Vector_111" d="M16.6909 18.8409C11.9922 21.5432 6.29618 20.7152 4.0013 16.9781C1.70642 13.2409 3.63568 8.00026 8.33442 5.29796C13.0332 2.59565 18.7292 3.42363 21.0241 7.16078C23.3189 10.8979 21.3897 16.1386 16.6909 18.8409Z" fill="#FD2D2B"/>
<path id="Vector_112" d="M16.6568 18.8404C11.9585 21.5427 6.33026 20.7149 4.03553 16.9778C1.7408 13.2407 3.6727 8.03439 8.37109 5.33207C13.0695 2.62974 18.6977 3.45757 20.9924 7.19464C23.2871 10.9317 21.3552 16.138 16.6568 18.8404Z" fill="#FE2E2B"/>
<path id="Vector_113" d="M16.6511 18.8064C11.9865 21.5088 6.35552 20.6467 4.06363 16.9439C1.77173 13.2411 3.70361 8.03477 8.36823 5.33241C13.0329 2.63005 18.6638 3.49213 20.9557 7.19492C23.2476 10.8977 21.3157 16.104 16.6511 18.8064Z" fill="#FF2F2C"/>
</g>
</g>
</g>
<path id="Vector_114" d="M22.3793 6.34547C24.7739 10.8131 22.106 16.6499 16.417 19.4188C10.7281 22.1877 4.18406 20.8076 1.7895 16.34C-0.605069 11.8724 2.06282 6.03554 7.75177 3.26668C13.4407 0.497821 19.9848 1.87788 22.3793 6.34547Z" fill="url(#paint7_linear_427_3186)"/>
<g id="Clip path group_2">
<mask id="mask1_427_3186" style="mask-type:luminance" maskUnits="userSpaceOnUse" x="1" y="1" width="22" height="20">
<g id="clippath-1">
<path id="Vector_115" d="M21.6166 5.73797C24.1234 9.99081 21.7994 15.7802 16.4432 18.7213C11.0842 21.6281 4.72743 20.5923 2.22064 16.3395C-0.286146 12.0866 2.03781 6.29728 7.39404 3.35618C12.7531 0.449369 19.1098 1.48514 21.6166 5.73797Z" fill="white"/>
</g>
</mask>
<g mask="url(#mask1_427_3186)">
<g id="Group_3">
<path id="Vector_116" d="M23.3401 0.461858L-1.20312 0.438187L0.536766 21.6495L25.08 21.6732L23.3401 0.461858Z" fill="#FF2F2C"/>
<path id="Vector_117" d="M18.19 18.5159C11.3193 24.2316 3.65686 27.7172 -3.08889 28.7697L-1.28651 23.5262L-3.34169 -1.54275L25.1062 -1.49841L25.1905 -0.469586L32.1926 -0.458671C29.9474 5.98428 25.0975 12.8346 18.2239 18.516L18.19 18.5159Z" fill="#FF2F2C"/>
<path id="Vector_118" d="M17.861 18.1427C11.1497 23.7214 3.72029 27.1389 -2.89142 28.1575L-1.3095 23.531L-3.3647 -1.53639L25.0766 -1.49326L25.1694 -0.361625L31.4934 -0.352034C29.3025 5.91929 24.575 12.5982 17.861 18.1427Z" fill="#FE2F2C"/>
<path id="Vector_119" d="M17.5702 17.7699C11.0153 23.1774 3.78455 26.5267 -2.65966 27.5114L-1.29519 23.5363L-3.35041 -1.52999L25.0856 -1.48784L25.1868 -0.253384L30.8335 -0.245013C28.6966 5.85476 24.0913 12.3623 17.573 17.8042L17.5702 17.7699Z" fill="#FD2E2B"/>
<path id="Vector_120" d="M17.2796 17.3966C10.9181 22.6672 3.84979 25.914 -2.38994 26.8993L-1.24572 23.5411L-3.30095 -1.52355L25.1278 -1.48272L25.2375 -0.145479L30.2066 -0.138343C28.1268 5.82411 23.6412 12.126 17.2824 17.4309L17.2796 17.3966Z" fill="#FC2E2C"/>
<path id="Vector_121" d="M16.9498 17.0236C10.7474 22.1573 3.90878 25.3017 -2.19726 26.2531L-1.2731 23.5118L-3.32553 -1.51731L25.0973 -1.47756L25.2154 -0.0375342L29.5076 -0.0315316C27.4818 5.75938 23.1212 11.9241 16.9526 17.0579L16.9498 17.0236Z" fill="#FB2E2B"/>
<path id="Vector_122" d="M17.0424 16.7074C11.1459 21.7076 4.59613 24.7941 -1.19996 25.7256L-0.507095 23.639L-2.53911 -1.35058L25.3571 -1.39093L27.7201 -14.3522C33.6442 -7.18094 28.8685 6.70692 17.0424 16.7074Z" fill="#FA2E2B"/>
<path id="Vector_123" d="M16.7359 16.332C10.9934 21.1952 4.63367 24.1788 -0.999987 25.0758L-0.5224 23.605L-2.55189 -1.35074L25.3475 -1.39067L27.1249 -13.8041C32.8672 -6.83763 28.2263 6.67402 16.7718 16.3662L16.7359 16.332Z" fill="#F92D2A"/>
<path id="Vector_124" d="M16.3933 15.9568C10.8386 20.683 4.66931 23.5637 -0.83463 24.4263L-0.572383 23.5712L-2.59917 -1.35041L25.3012 -1.39022L26.4569 -13.29C32.05 -6.52834 27.5414 6.57286 16.3961 15.991L16.3933 15.9568Z" fill="#F72E2B"/>
<path id="Vector_125" d="M15.829 15.6518C4.82724 24.7898 -8.5436 26.8637 -14.0478 20.2756L-1.41729 20.2916L-3.19694 -1.40784L25.2048 -1.3719L25.7546 -12.7854C31.2588 -6.19726 26.7971 6.51377 15.829 15.6518Z" fill="#F62D2A"/>
<path id="Vector_126" d="M15.532 15.2756C4.87603 24.1055 -8.06184 26.1114 -13.4114 19.7633L-1.42219 19.7786L-3.15967 -1.40685L25.243 -1.37074L25.1595 -12.2709C30.4782 -5.88865 26.188 6.44562 15.532 15.2756Z" fill="#F52D2B"/>
<path id="Vector_127" d="M15.1945 14.8995C4.88607 23.4557 -7.65379 25.3933 -12.8183 19.2508L-1.503 19.2655L-2.52357 6.82124L-13.9402 6.80646C-12.2424 1.97546 -8.64187 -3.1273 -3.48767 -7.40538L-2.99566 -1.40609L25.208 -1.36959L24.5251 -11.7567C29.6923 -5.57998 25.5029 6.34334 15.1945 14.8995Z" fill="#F42C2A"/>
<path id="Vector_128" d="M14.8968 14.523C4.93727 22.8054 -7.16932 24.675 -12.1847 18.7041L-1.5448 18.7179L-2.53163 6.68502L-13.2729 6.67108C-11.6286 2.01139 -8.15184 -2.95443 -3.15519 -7.0956L-2.6941 -1.47339L24.7332 -1.43781L23.9291 -11.2424C28.9107 -5.27154 24.8901 6.2407 14.9306 14.5231L14.8968 14.523Z" fill="#F32D2A"/>
<path id="Vector_129" d="M14.5984 14.1464C4.9852 22.1208 -6.71877 23.9566 -11.5484 18.1917L-1.55031 18.2046L-2.50059 6.6174L-12.6 6.60431C-11.0092 2.11595 -7.65354 -2.67863 -2.84835 -6.68293L-2.41538 -1.40355L24.0659 -1.36924L23.2984 -10.7281C28.128 -4.96317 24.2116 6.17212 14.5984 14.1464Z" fill="#F22C29"/>
<path id="Vector_130" d="M14.2658 13.7701C5.00141 21.4707 -6.306 23.2042 -10.9471 17.6793L-1.62437 17.6915L-2.54091 6.51554L-11.965 6.50328C-10.4643 2.15189 -7.19298 -2.43714 -2.54529 -6.30454L-2.14325 -1.40223L23.393 -1.369L22.6677 -10.2137C27.3116 -4.65462 23.564 6.06961 14.2996 13.7702L14.2658 13.7701Z" fill="#F22C29"/>
<path id="Vector_131" d="M14.1318 13.6396C4.97735 21.2377 -6.14944 22.9344 -10.7244 17.4746C-15.2994 12.0148 -11.6003 1.42451 -2.44585 -6.17356L-2.05787 -1.44064L23.116 -1.40007L22.4104 -10.0085C26.9854 -4.5487 23.2862 6.04157 14.1318 13.6396Z" fill="#F12B29"/>
<path id="Vector_132" d="M13.9866 13.4689C4.98989 20.93 -5.96801 22.6269 -10.5036 17.2357C-15.0054 11.8446 -11.3598 1.42562 -2.36306 -6.03554L-1.98633 -1.43977L22.816 -1.39968L22.1272 -9.80239C26.629 -4.41124 22.9834 6.00771 13.9866 13.4689Z" fill="#F02A28"/>
<path id="Vector_133" d="M13.8728 13.3312C5.00298 20.6897 -5.78852 22.3526 -10.2142 17.0644C-14.6399 11.7763 -11.0479 1.52871 -2.17806 -5.82978L-1.81539 -1.4055L22.5809 -1.36607L21.909 -9.563C26.3346 -4.27485 22.7426 5.97272 13.8728 13.3312Z" fill="#EF2A28"/>
<path id="Vector_134" d="M13.762 13.1604C5.01591 20.3819 -5.57299 22.0451 -9.95936 16.8255C-14.3119 11.606 -10.8072 1.52964 -2.06389 -5.72618L-1.71247 -1.43904L22.3125 -1.40004L21.6603 -9.35697C26.0128 -4.13744 22.5081 5.93888 13.7648 13.1947L13.762 13.1604Z" fill="#EE2927"/>
<path id="Vector_135" d="M13.6163 13.0232C5.03123 20.1421 -5.42765 21.7369 -9.70398 16.6204C-14.0141 11.5039 -10.5321 1.56475 -1.94704 -5.55415L-1.60967 -1.43853L22.0086 -1.4003L21.3733 -9.1514C25.6834 -4.03487 22.2014 5.90427 13.6163 13.0232Z" fill="#ED2927"/>
<path id="Vector_136" d="M13.504 12.8861C5.04583 19.9024 -5.21284 21.4632 -9.4497 16.4154C-13.6866 11.3676 -10.2582 1.5998 -1.79719 -5.38214L-1.47107 -1.40371L21.775 -1.36609L21.1537 -8.9457C25.3906 -3.89787 21.9622 5.86989 13.5012 12.8518L13.504 12.8861Z" fill="#EC2927"/>
<path id="Vector_137" d="M13.3529 12.7148C5.05294 19.5941 -5.07007 21.1552 -9.19688 16.2105C-13.3575 11.2657 -9.98569 1.63508 -1.68572 -5.24425L-1.37084 -1.40303L21.4685 -1.36619L20.8641 -8.73996C25.0247 -3.7952 21.6529 5.83544 13.3529 12.7148Z" fill="#EB2826"/>
<path id="Vector_138" d="M13.242 12.5776C5.06935 19.3543 -4.85299 20.8815 -8.94017 16.0055C-13.0274 11.1295 -9.70932 1.67035 -1.5677 -5.07205L-1.26688 -1.40236L21.1992 -1.36632L20.6117 -8.53422C24.6988 -3.65825 21.378 5.76663 13.2392 12.5433L13.242 12.5776Z" fill="#EA2726"/>
<path id="Vector_139" d="M13.1323 12.4068C5.11628 19.0465 -4.63833 20.5738 -8.68659 15.7662C-12.701 10.9586 -9.46701 1.70481 -1.42 -4.96918L-1.13043 -1.43654L20.9667 -1.40049L20.4017 -8.29429C24.4161 -3.48673 21.1821 5.76708 13.1351 12.4411L13.1323 12.4068Z" fill="#E92726"/>
<path id="Vector_140" d="M12.9839 12.2694C5.09619 18.8065 -4.49053 20.2999 -8.43109 15.5614C-12.3688 10.8571 -9.19191 1.74065 -1.30417 -4.7964L-1.02865 -1.43539L20.6591 -1.40063L20.108 -8.12267C24.0458 -3.41841 20.8689 5.69807 12.9811 12.2351L12.9839 12.2694Z" fill="#E82625"/>
<path id="Vector_141" d="M12.8705 12.0984C5.14274 18.5328 -4.28126 19.9579 -8.17704 15.3564C-12.0418 10.7207 -8.91814 1.77542 -1.18761 -4.62473L-0.92334 -1.40083L20.3941 -1.36633L19.8599 -7.88273C23.7247 -3.24702 20.601 5.69822 12.8705 12.0984Z" fill="#E72525"/>
<path id="Vector_142" d="M12.726 11.9611C5.12248 18.2586 -4.13221 19.6839 -7.92082 15.1512C-11.7094 10.6185 -8.64224 1.8104 -1.03873 -4.48708L-0.788515 -1.43467L20.1226 -1.40087L19.6081 -7.67718C23.4305 -3.14443 20.3295 5.66365 12.726 11.9611Z" fill="#E62524"/>
<path id="Vector_143" d="M12.6108 11.824C5.13393 18.0188 -3.92087 19.4101 -7.67014 14.946C-11.4194 10.4819 -8.37187 1.8451 -0.926015 -4.31547L-0.687048 -1.40022L19.8525 -1.3669L19.3549 -7.43748C23.1042 -2.97337 20.0567 5.6634 12.6108 11.824Z" fill="#E52524"/>
<path id="Vector_144" d="M12.4997 11.6529C5.18133 17.7108 -3.73748 19.1024 -7.37939 14.7072C-11.0523 10.3462 -8.09249 1.88087 -0.776919 -4.21132L-0.549196 -1.43331L19.5829 -1.4009L19.1022 -7.2656C22.7751 -2.90461 19.8153 5.56073 12.4997 11.6529Z" fill="#E42424"/>
<path id="Vector_145" d="M12.3524 11.5156C5.16058 17.4709 -3.55847 18.8284 -7.15826 14.5361C-10.7581 10.2437 -7.85167 1.94966 -0.659807 -4.00557L-0.446143 -1.399L19.3148 -1.36702L18.8509 -7.026C22.4507 -2.73363 19.5443 5.5604 12.3524 11.5156Z" fill="#E32323"/>
<path id="Vector_146" d="M12.2413 11.3447C5.20733 17.163 -3.34543 18.4866 -6.86915 14.2972C-10.3929 10.1078 -7.54287 1.95083 -0.508874 -3.86748L-0.306455 -1.3981L19.0486 -1.36673L18.6016 -6.81995C22.1253 -2.63057 19.2753 5.52641 12.2413 11.3447Z" fill="#E22323"/>
<path id="Vector_147" d="M12.0958 11.2076C5.18873 16.9232 -3.19765 18.2128 -6.64807 14.0921C-10.0985 9.9714 -7.30211 1.9858 -0.395034 -3.72984L-0.206672 -1.43194L18.7762 -1.40119L18.3488 -6.61432C21.7992 -2.49364 19.0029 5.49196 12.1296 11.2077L12.0958 11.2076Z" fill="#E12222"/>
<path id="Vector_148" d="M11.9848 11.0364C5.23834 16.6495 -2.98178 17.9049 -6.35894 13.8529C-9.7361 9.80094 -6.99049 2.02099 -0.244064 -3.59204L-0.0669472 -1.43132L18.5439 -1.40112L18.1335 -6.40849C21.5106 -2.35649 18.765 5.42346 12.0186 11.0365L11.9848 11.0364Z" fill="#E02223"/>
<path id="Vector_149" d="M11.8701 10.8992C5.24843 16.3752 -2.80174 17.6311 -6.10251 13.6822C-9.40329 9.73337 -6.74825 2.09057 -0.129415 -3.41977L0.0336458 -1.43058L18.2368 -1.40136L17.8432 -6.20283C21.144 -2.25398 18.4889 5.38881 11.8701 10.8992Z" fill="#DF2122"/>
<path id="Vector_150" d="M11.7212 10.762C5.25976 16.1354 -2.62461 17.3572 -5.88613 13.4769C-9.11382 9.59663 -6.51217 2.12511 -0.0169276 -3.24827L0.134887 -1.39624L17.9671 -1.36737L17.5904 -5.96316C20.8181 -2.0829 18.2164 5.38862 11.7212 10.762Z" fill="#DE2122"/>
<path id="Vector_151" d="M11.6135 10.5913C5.27581 15.8278 -2.44267 17.0154 -5.59441 13.2381C-8.78 9.46066 -6.20074 2.1262 0.136973 -3.11028L0.277541 -1.39541L17.7048 -1.367L17.3449 -5.75707C20.5305 -1.97966 17.9512 5.3548 11.6135 10.5913Z" fill="#DD2122"/>
<path id="Vector_152" d="M11.465 10.454C5.25508 15.5878 -2.26212 16.7416 -5.37403 13.0331C-8.48593 9.32464 -5.96073 2.16173 0.215314 -2.97211L0.341827 -1.42878L17.3945 -1.40142L17.0515 -5.58556C20.1634 -1.87706 17.6382 5.28585 11.4622 10.4197L11.465 10.454Z" fill="#DC2022"/>
<path id="Vector_153" d="M11.3541 10.2825C5.30399 15.3137 -2.048 16.4334 -5.08422 12.8277C-8.12044 9.22195 -5.65118 2.19591 0.401771 -2.80098L0.517037 -1.39478L17.1662 -1.36759L16.8429 -5.31181C19.8791 -1.70609 17.4099 5.31994 11.3569 10.3168L11.3541 10.2825Z" fill="#DB2021"/>
<path id="Vector_154" d="M11.2403 10.1456C5.31496 15.0398 -1.86709 16.1599 -4.82973 12.623C-7.79238 9.08614 -5.40808 2.26585 0.514479 -2.66266L0.615688 -1.42798L16.891 -1.4017L16.5845 -5.14004C19.5472 -1.60317 17.1629 5.21712 11.2403 10.1456Z" fill="#DA1F22"/>
<path id="Vector_155" d="M11.0911 9.97436C5.32678 14.7659 -1.68855 15.852 -4.57778 12.3839C-7.46419 8.95012 -5.13646 2.26697 0.627863 -2.52462L0.717828 -1.42714L16.5863 -1.40167L16.2967 -4.93418C19.1832 -1.50037 16.8554 5.18278 11.0911 9.97436Z" fill="#D91F22"/>
<path id="Vector_156" d="M10.9813 9.8373C5.34058 14.4919 -1.50618 15.5782 -4.31952 12.213C-7.13286 8.84774 -4.85849 2.33586 0.782261 -2.31877L0.858168 -1.39275L16.3558 -1.36762L16.0831 -4.69443C18.8965 -1.32921 16.6221 5.18267 10.9813 9.8373Z" fill="#D81E23"/>
<path id="Vector_157" d="M10.8361 9.66618C5.35667 14.2182 -1.32585 15.2362 -4.06283 11.9741C-6.80263 8.67774 -4.58216 2.33735 0.897252 -2.21465L0.961915 -1.42584L16.052 -1.40165L15.7962 -4.5226C18.536 -1.22621 16.3155 5.11418 10.8361 9.66618Z" fill="#D71E22"/>
<path id="Vector_158" d="M10.7213 9.5291C5.36917 13.9784 -1.1465 14.9625 -3.81003 11.7692C-6.47355 8.57591 -4.3097 2.37268 1.01138 -2.0424L1.06198 -1.42508L15.7788 -1.40169L15.5399 -4.3168C18.2034 -1.12351 16.0395 5.07972 10.7185 9.4948L10.7213 9.5291Z" fill="#D61E22"/>
<path id="Vector_159" d="M10.6111 9.39196C5.41534 13.7044 -0.93301 14.6885 -3.55774 11.5635C-6.18248 8.43846 -4.06867 2.44058 1.16094 -1.8718L1.2003 -1.39162L15.5491 -1.36806L15.3298 -4.04331C17.9545 -0.918297 15.8407 5.07958 10.6111 9.39196Z" fill="#D51E22"/>
<path id="Vector_160" d="M10.4616 9.22057C5.39313 13.4303 -0.754538 14.3805 -3.30299 11.3586C-5.85145 8.33668 -3.79426 2.47597 1.27418 -1.73379L1.3023 -1.39082L15.244 -1.36811L15.0416 -3.83752C17.59 -0.815605 15.5328 5.04511 10.4644 9.25487L10.4616 9.22057Z" fill="#D41D21"/>
<path id="Vector_161" d="M10.3535 9.08381C5.40906 13.1566 -0.569576 14.107 -3.04479 11.1538C-5.52001 8.20055 -3.51637 2.51118 1.42811 -1.56161L1.44217 -1.39012L15.012 -1.36795L14.8264 -3.63159C17.3017 -0.678349 15.298 5.01102 10.3874 9.08387L10.3535 9.08381Z" fill="#D31D21"/>
<path id="Vector_162" d="M10.2058 8.91278C5.42318 12.8829 -0.390623 13.7652 -2.78927 10.9152C-5.18791 8.06525 -3.24124 2.51317 1.54139 -1.45698L14.7023 -1.436L14.5336 -3.49374C16.9323 -0.643746 14.9856 4.90833 10.203 8.87849L10.2058 8.91278Z" fill="#D21C22"/>
<path id="Vector_163" d="M10.1227 8.77879C5.4873 12.612 -0.130586 13.4983 -2.446 10.7218C-4.76141 7.9452 -2.87906 2.56834 1.72265 -1.26488C6.35523 -5.13233 11.9759 -5.98443 14.2913 -3.20786C16.6067 -0.431291 14.7244 4.94557 10.1227 8.77879Z" fill="#D01C21"/>
<path id="Vector_164" d="M10.0091 8.60745C5.53323 12.338 0.0804135 13.1902 -2.15941 10.5163C-4.39923 7.84251 -2.60366 2.63681 1.90588 -1.09371C6.38175 -4.82425 11.8346 -5.67641 14.0744 -3.00259C16.3142 -0.328767 14.5186 4.87693 10.0091 8.60745Z" fill="#CF1B22"/>
<path id="Vector_165" d="M9.85953 8.47013C5.51052 12.098 0.223953 12.9161 -1.94264 10.311C-4.10923 7.70585 -2.36723 2.67147 1.98179 -0.956404C6.3308 -4.58428 11.6174 -5.40241 13.784 -2.79726C15.9506 -0.192121 14.2085 4.84226 9.85953 8.47013Z" fill="#CE1B22"/>
<path id="Vector_166" d="M9.74788 8.33278C5.55624 11.8238 0.43834 12.6421 -1.65517 10.1055C-3.74588 7.60326 -2.06009 2.7059 2.13154 -0.78507C6.32318 -4.27604 11.4411 -5.09434 13.5346 -2.55781C15.6253 -0.0555433 13.9395 4.84181 9.74788 8.33278Z" fill="#CD1A21"/>
<path id="Vector_167" d="M9.60288 8.16202C5.53726 11.5503 0.61548 12.3002 -1.43604 9.86644C-3.45389 7.43269 -1.82129 2.70654 2.24433 -0.681751C6.30995 -4.07005 11.2317 -4.81994 13.2832 -2.38617C15.3011 0.0475786 13.6685 4.77373 9.60288 8.16202Z" fill="#CC1A21"/>
<path id="Vector_168" d="M9.48719 8.02459C5.57789 11.276 0.789864 12.0258 -1.18624 9.69474C-3.16515 7.32939 -1.55181 2.77439 2.35749 -0.476991C6.26679 -3.72837 11.0548 -4.47824 13.0309 -2.14714C15.0098 0.218213 13.3965 4.77321 9.48719 8.02459Z" fill="#CB1A21"/>
<path id="Vector_169" d="M9.37477 7.85337C5.59214 11.0021 1.00382 11.7179 -0.899136 9.45546C-2.80209 7.19301 -1.27591 2.80929 2.50672 -0.339418C6.28936 -3.48813 10.8777 -4.20396 12.7806 -1.94151C14.6836 0.320943 13.1574 4.70467 9.37477 7.85337Z" fill="#CA1920"/>
<path id="Vector_170" d="M9.22585 7.71618C5.56966 10.7622 1.1471 11.4439 -0.682805 9.25009C-2.51271 7.05625 -1.03991 2.84379 2.61628 -0.202247C6.27247 -3.24829 10.695 -3.93001 12.5249 -1.73616C14.3548 0.457683 12.882 4.67014 9.22585 7.71618Z" fill="#C91921"/>
<path id="Vector_171" d="M9.1142 7.545C5.61538 10.4541 1.36149 11.136 -0.395342 9.0108C-2.14936 6.91982 -0.732775 2.84439 2.76604 -0.0647494C6.26485 -2.97389 10.5187 -3.65578 12.2756 -1.53055C14.0296 0.560425 12.613 4.63586 9.1142 7.545Z" fill="#C81821"/>
<path id="Vector_172" d="M8.96518 7.40754C5.59295 10.214 1.50498 10.8618 -0.17593 8.83948C-1.85684 6.81713 -0.493696 2.91298 2.84486 0.106491C6.21709 -2.69998 10.3051 -3.34779 11.986 -1.32545C13.6669 0.696898 12.3037 4.60105 8.96518 7.40754Z" fill="#C71821"/>
<path id="Vector_173" d="M8.85418 7.27032C5.63849 9.93987 1.71539 10.5535 0.109994 8.63384C-1.4954 6.71421 -0.188095 2.94696 3.0276 0.277404C6.24329 -2.39215 10.1664 -3.00574 11.7718 -1.08611C13.3772 0.833515 12.0699 4.60076 8.85418 7.27032Z" fill="#C61821"/>
<path id="Vector_174" d="M8.70241 7.09913C5.61296 9.66601 1.88908 10.2455 0.322962 8.39441C-1.20948 6.54335 0.0136766 2.98157 3.10312 0.414689C6.19257 -2.15219 9.95013 -2.73165 11.4826 -0.880586C13.015 0.970477 11.7919 4.53225 8.70241 7.09913Z" fill="#C51720"/>
<path id="Vector_175" d="M8.59076 6.96156C5.662 9.4258 2.07087 9.97125 0.614537 8.22315C-0.841796 6.47506 0.324919 3.05037 3.25368 0.586127C6.18245 -1.87811 9.77357 -2.42357 11.2299 -0.675468C12.6862 1.07263 11.5195 4.49732 8.59076 6.96156Z" fill="#C41721"/>
<path id="Vector_176" d="M8.4791 6.79077C5.67284 9.11806 2.28265 9.66352 0.865184 7.98378C-0.552277 6.30405 0.59524 3.0505 3.4015 0.723202C6.20776 -1.6041 9.59796 -2.14955 11.0154 -0.469816C12.4329 1.20991 11.2854 4.46347 8.4791 6.79077Z" fill="#C31720"/>
<path id="Vector_177" d="M8.33149 6.65361C5.68576 8.87827 2.42813 9.38966 1.0839 7.7786C-0.260328 6.16755 0.833624 3.08533 3.47936 0.860668C6.12509 -1.36399 9.38272 -1.87538 10.7269 -0.264329C12.0712 1.34672 10.9772 4.42895 8.33149 6.65361Z" fill="#C21620"/>
<path id="Vector_178" d="M8.21853 6.48242C5.69567 8.57014 2.63659 9.04733 1.36787 7.539C0.0991541 6.03066 1.13727 3.08533 3.66013 0.997615C6.183 -1.0901 9.24208 -1.56729 10.5108 -0.0589607C11.7795 1.44937 10.7414 4.3947 8.21853 6.48242Z" fill="#C11620"/>
<path id="Vector_179" d="M8.06928 6.34499C5.67238 8.33003 2.77851 8.77304 1.58544 7.36749C0.389565 5.92767 1.34364 3.18777 3.74054 1.20273C6.13744 -0.782314 9.03131 -1.22533 10.2244 0.180232C11.4203 1.62005 10.4662 4.35995 8.06928 6.34499Z" fill="#C01520"/>
<path id="Vector_180" d="M7.95708 6.20754C5.72114 8.08994 2.99402 8.49899 1.87437 7.16219C0.754723 5.82539 1.65224 3.22262 3.88818 1.34022C6.12412 -0.542191 8.85124 -0.951238 9.97089 0.385564C11.0905 1.72236 10.193 4.32513 7.95708 6.20754Z" fill="#BF151F"/>
<path id="Vector_181" d="M7.84386 6.03652C5.73078 7.78199 3.17134 8.19107 2.1244 6.92273C1.07745 5.65438 1.92194 3.22278 4.03502 1.47731C6.14809 -0.268159 8.70754 -0.677239 9.75448 0.591103C10.8014 1.85945 9.95694 4.29105 7.84386 6.03652Z" fill="#BE1420"/>
<path id="Vector_182" d="M7.69706 5.89903C5.74445 7.54186 3.35118 7.91689 2.37744 6.71722C1.40651 5.5518 2.19465 3.25725 4.15007 1.64869C6.10268 0.00585883 8.49595 -0.369178 9.46969 0.830496C10.4406 1.99591 9.65248 4.29046 7.69987 5.93329L7.69706 5.89903Z" fill="#BD1420"/>
<path id="Vector_183" d="M7.5832 5.72808C5.75366 7.23397 3.55917 7.57484 2.63017 6.51216C1.73204 5.41524 2.46705 3.29187 4.26292 1.78596C6.09246 0.280069 8.28695 -0.0608009 9.21595 1.00189C10.1141 2.0988 9.37907 4.22217 7.5832 5.72808Z" fill="#BC1420"/>
<path id="Vector_184" d="M7.43587 5.59079C5.7659 6.99403 3.70286 7.30068 2.88035 6.30652C2.02415 5.31233 2.70604 3.36016 4.40968 1.95695C6.07965 0.553708 8.14269 0.247054 8.96521 1.24121C9.82141 2.2354 9.13952 4.18757 7.43587 5.59079Z" fill="#BB131F"/>
<path id="Vector_185" d="M7.3195 5.41964C5.77639 6.72022 3.91328 6.99286 3.13031 6.06736C2.34734 5.14185 2.97567 3.361 4.51878 2.06043C6.0619 0.759859 7.92501 0.487213 8.70797 1.41272C9.49094 2.33823 8.86262 4.11907 7.3195 5.41964Z" fill="#BA131F"/>
<path id="Vector_186" d="M7.20979 5.28226C5.82405 6.44593 4.09594 6.71872 3.41972 5.86185C2.71264 5.03922 3.28474 3.39539 4.67048 2.23172C6.05622 1.06805 7.78434 0.795265 8.46056 1.65213C9.16763 2.47476 8.59553 4.11859 7.20979 5.28226Z" fill="#B91220"/>
<path id="Vector_187" d="M7.05806 5.11114C5.798 6.17213 4.26842 6.41072 3.63405 5.65655C2.99968 4.90238 3.51875 3.42971 4.78162 2.40298C6.04168 1.34199 7.57125 1.1034 8.20562 1.85758C8.84 2.61175 8.32092 4.08442 7.05806 5.11114Z" fill="#B8121F"/>
<path id="Vector_188" d="M6.94952 4.97389C5.81323 5.89795 4.45239 6.13672 3.89112 5.45117C3.32986 4.76563 3.79549 3.46424 4.8981 2.54016C6.03439 1.6161 7.39524 1.37733 7.9565 2.06287C8.51776 2.74842 8.05213 4.0498 6.94952 4.97389Z" fill="#B7111E"/>
<path id="Vector_189" d="M6.80061 4.8366C5.82382 5.65801 4.62522 5.82832 4.13955 5.24552C3.65387 4.66273 4.03272 3.5325 5.04318 2.71112C6.01997 1.88971 7.21857 1.7194 7.70425 2.3022C8.18992 2.88499 7.81107 4.01522 6.80061 4.8366Z" fill="#B6111F"/>
<path id="Vector_190" d="M6.6901 4.66561C5.83708 5.35009 4.84089 5.52061 4.39464 5.00641C3.98207 4.49224 4.30749 3.5333 5.1577 2.81457C6.01071 2.13009 7.0069 1.95957 7.45315 2.47377C7.86572 2.98794 7.54031 3.94688 6.6901 4.66561Z" fill="#B5101F"/>
<path id="Vector_191" d="M6.57618 4.52803C5.8833 5.10986 5.01922 5.24625 4.68251 4.83495C4.3458 4.42364 4.58136 3.60169 5.30791 3.01988C6.00079 2.43805 6.86487 2.30165 7.20158 2.71296C7.53829 3.12427 7.26907 3.94619 6.57618 4.52803Z" fill="#B4111F"/>
<path id="Vector_192" d="M6.42647 4.35707C5.8593 4.83622 5.19381 4.93842 4.89614 4.59555C4.63217 4.25271 4.81464 3.60192 5.41832 3.15705C5.9855 2.6779 6.65098 2.5757 6.94865 2.91857C7.24632 3.26144 7.03016 3.9122 6.42647 4.35707Z" fill="#B3101E"/>
<path id="Vector_193" d="M6.31546 4.21967C5.90597 4.56193 5.37582 4.66432 5.18504 4.39015C4.96341 4.15021 5.12323 3.63651 5.56638 3.29428C5.97588 2.95203 6.50602 2.84964 6.6968 3.1238C6.91844 3.36374 6.75862 3.87744 6.31546 4.21967Z" fill="#B2101E"/>
<path id="Vector_194" d="M6.16518 4.04929C5.88141 4.28907 5.54704 4.32307 5.3981 4.15151C5.24917 3.97994 5.35873 3.67145 5.6425 3.43167C5.92627 3.1919 6.26064 3.1579 6.40957 3.32946C6.55851 3.50103 6.44895 3.80952 6.16518 4.04929Z" fill="#B10F1F"/>
<path id="Vector_195" d="M6.05434 3.91169C6.05434 3.91169 5.72784 4.04852 5.68844 3.97987C5.61526 3.91119 5.66874 3.73975 5.82636 3.60274C5.95302 3.49998 6.15286 3.46591 6.19227 3.53455C6.26544 3.60324 6.21196 3.77467 6.05434 3.91169Z" fill="#B00F1E"/>
</g>
</g>
</g>
</g>
</g>
</g>
<defs>
<radialGradient id="paint0_radial_427_3186" cx="0" cy="0" r="1" gradientUnits="userSpaceOnUse" gradientTransform="translate(31.1985 49.4493) rotate(177.592) scale(11.4098 4.13134)">
<stop stop-color="#72A391"/>
<stop offset="1" stop-color="white" stop-opacity="0"/>
</radialGradient>
<radialGradient id="paint1_radial_427_3186" cx="0" cy="0" r="1" gradientUnits="userSpaceOnUse" gradientTransform="translate(24.1986 5.9544) rotate(-10.4098) scale(2.45771 1.60899)">
<stop stop-color="#4E7368"/>
<stop offset="0.74" stop-color="#97D6CB"/>
<stop offset="0.98" stop-color="white"/>
</radialGradient>
<linearGradient id="paint2_linear_427_3186" x1="25.2822" y1="42.2937" x2="29.4436" y2="40.0756" gradientUnits="userSpaceOnUse">
<stop stop-color="#4E7368"/>
<stop offset="0.61" stop-color="#97D6CB"/>
<stop offset="0.95" stop-color="#79B0AA"/>
</linearGradient>
<linearGradient id="paint3_linear_427_3186" x1="2.81349" y1="41.0332" x2="28.76" y2="26.3382" gradientUnits="userSpaceOnUse">
<stop stop-color="#B2111D"/>
<stop offset="0.29" stop-color="#F22C29"/>
<stop offset="0.76" stop-color="#970218"/>
<stop offset="1" stop-color="#D95863"/>
</linearGradient>
<radialGradient id="paint4_radial_427_3186" cx="0" cy="0" r="1" gradientUnits="userSpaceOnUse" gradientTransform="translate(21.4653 32.7774) rotate(-27.2441) scale(16.1658 14.9569)">
<stop offset="0.3" stop-color="#F22C29"/>
<stop offset="0.45" stop-color="#F22C29"/>
<stop offset="0.77" stop-color="#D51C22"/>
<stop offset="1" stop-color="#970218"/>
</radialGradient>
<linearGradient id="paint5_linear_427_3186" x1="-4.21212" y1="28.5166" x2="11.7242" y2="27.499" gradientUnits="userSpaceOnUse">
<stop stop-color="#CC2523"/>
<stop offset="0.28" stop-color="#970218"/>
<stop offset="0.56" stop-color="#FF2F2C"/>
<stop offset="0.71" stop-color="#970218"/>
<stop offset="0.82" stop-color="#CC2523"/>
</linearGradient>
<linearGradient id="paint6_linear_427_3186" x1="13.0793" y1="28.9768" x2="27.2296" y2="21.9606" gradientUnits="userSpaceOnUse">
<stop stop-color="#B50F1E"/>
<stop offset="0.25" stop-color="#F22C29"/>
<stop offset="0.51" stop-color="#FB433C"/>
<stop offset="0.76" stop-color="#FF2F2C"/>
<stop offset="1" stop-color="#AD0B1C"/>
</linearGradient>
<linearGradient id="paint7_linear_427_3186" x1="1.37256" y1="17.7753" x2="22.6481" y2="3.9602" gradientUnits="userSpaceOnUse">
<stop stop-color="#FF2F2C"/>
<stop offset="0.29" stop-color="#970218"/>
<stop offset="0.56" stop-color="#FF2F2C"/>
<stop offset="0.69" stop-color="#B30016"/>
<stop offset="0.82" stop-color="#FF9594"/>
<stop offset="0.89" stop-color="#970218"/>
</linearGradient>
</defs>
</svg>
