<svg width="36" height="36" viewBox="0 0 36 36" fill="none" xmlns="http://www.w3.org/2000/svg">
<g id="Group">
<path id="Vector" d="M32.5973 18.1099C28.9156 14.0364 22.5023 11.1582 16.4951 12.7629C10.4457 14.3788 6.35113 20.1198 5.20407 25.4272C5.1281 25.7787 5.22604 26.1454 5.46719 26.4123C9.14884 30.4858 15.5622 33.3639 21.5694 31.7593C28.3714 29.9423 31.9593 23.2645 32.8604 19.095C32.9364 18.7434 32.8384 18.3768 32.5973 18.1099ZM20.9928 29.6006C16.0938 30.9092 11.1123 28.753 7.53963 25.331C8.91459 20.6358 12.1322 16.241 17.0717 14.9216C21.9901 13.6078 26.9722 15.7885 30.5248 19.1912C29.128 23.9606 25.8638 28.2995 20.9928 29.6006ZM2.31579 13.7273C2.59627 13.1778 3.26925 12.9597 3.81881 13.2403L6.80088 14.7626C7.3504 15.0432 7.56847 15.7161 7.28794 16.2656C7.00742 16.8152 6.33441 17.0332 5.78492 16.7527L2.80283 15.2303C2.25334 14.9498 2.03526 14.2769 2.31579 13.7273ZM14.5508 9.81319L13.3975 5.49583C13.2383 4.89976 13.5924 4.28741 14.1886 4.12817C14.7847 3.96894 15.397 4.32313 15.5562 4.9192L16.7095 9.23656C16.8687 9.83263 16.5146 10.445 15.9184 10.6042C15.3223 10.7634 14.71 10.4093 14.5508 9.81319ZM7.06563 9.23713C6.67769 8.75732 6.75217 8.0539 7.23198 7.66596C7.71185 7.278 8.41521 7.3525 8.80315 7.83231L11.4442 11.0989C11.8321 11.5787 11.7577 12.2821 11.2778 12.6701C10.7994 13.0569 10.0959 12.985 9.70668 12.5037L7.06563 9.23713ZM26.2225 11.2078C25.7053 10.8714 25.5587 10.1794 25.8952 9.66215L27.7209 6.85556C28.0573 6.33837 28.7494 6.19178 29.2666 6.52825C29.7838 6.86466 29.9304 7.55667 29.5939 8.07388L27.7682 10.8805C27.4316 11.3978 26.7396 11.5442 26.2225 11.2078ZM20.0434 8.80191L20.7037 4.65344C20.8007 4.04409 21.3733 3.62877 21.9826 3.72577C22.592 3.82278 23.0073 4.39536 22.9103 5.00471L22.2499 9.15312C22.1525 9.76524 21.5776 10.1774 20.971 10.0808C20.3617 9.98382 19.9464 9.41124 20.0434 8.80191ZM17.6159 16.9588C14.6922 17.7398 12.949 20.7538 13.73 23.6774C14.5109 26.6011 17.5249 28.3443 20.4486 27.5633C23.3722 26.7824 25.1155 23.7684 24.3345 20.8447C23.5535 17.9211 20.5396 16.1779 17.6159 16.9588ZM19.8719 25.4047C18.1386 25.8677 16.3517 24.8342 15.8887 23.1008C15.4256 21.3674 16.4592 19.5805 18.1925 19.1175C19.9259 18.6545 21.7128 19.688 22.1758 21.4214C22.6388 23.1547 21.6053 24.9416 19.8719 25.4047Z" fill="#db610a"/>
</g>
</svg>
