<svg width="16" height="14" viewBox="0 0 16 14" fill="none" xmlns="http://www.w3.org/2000/svg">
<path id="Icon" d="M10.9993 13V2.33333C10.9993 1.97971 10.8589 1.64057 10.6088 1.39052C10.3588 1.14048 10.0196 1 9.66602 1H6.99935C6.64573 1 6.30659 1.14048 6.05654 1.39052C5.80649 1.64057 5.66602 1.97971 5.66602 2.33333V13M2.99935 3.66667H13.666C14.4024 3.66667 14.9993 4.26362 14.9993 5V11.6667C14.9993 12.403 14.4024 13 13.666 13H2.99935C2.26297 13 1.66602 12.403 1.66602 11.6667V5C1.66602 4.26362 2.26297 3.66667 2.99935 3.66667Z" stroke="#db610a" stroke-width="1.5" stroke-linecap="round" stroke-linejoin="round"/>
</svg>
