<svg width="1349" height="626" viewBox="0 0 1349 626" fill="none" xmlns="http://www.w3.org/2000/svg">
<path d="M1 622C283.5 562.051 548.694 580 548.694 580V572.732H563.161L563.79 562.051H582.032L588.952 423.202L604.048 419.433L607.823 311.997H618.516V212.729H632.984V118.488H644.935V75.765H648.71V46.8642H651.226V29.9007H652.484V17.9635H654.371V1H656.258V31.1573H657.516V42.4663H660.032V63.1994H662.548V83.9326H665.694V114.09H668.839V148.017H676.387V240.374H690.226L692.742 341.526H702.806L707.839 450.846H718.532L726.081 553.884L740.548 553.256V567.078H755.645L757.532 579.643C757.532 579.643 1020.5 559.5 1348.5 625" stroke="url(#paint0_linear_61_590)"/>
<path d="M1098.34 558.752C1098.24 559.549 1098.09 560.345 1098.05 561.145C1097.86 564.837 1097.71 568.529 1097.6 572.399C1096.65 573.054 1095.7 573.043 1094.8 572.405C1094.87 570.705 1094.93 569.005 1094.84 567.185C1094.33 566.769 1093.68 566.47 1093.66 566.178C1093.6 565.236 1093.78 564.296 1093.87 563.355C1093.85 563.278 1093.82 563.201 1093.61 563.042C1093.14 561.598 1092.86 560.235 1092.58 558.873C1092.56 558.79 1092.54 558.707 1092.37 558.552C1092.01 558.298 1091.82 558.116 1091.62 557.927C1091.24 558.198 1090.92 558.424 1090.61 558.651C1090.49 558.774 1090.38 558.896 1090.29 559.183C1090.12 560.454 1090.01 561.57 1089.71 562.662C1089.61 563.004 1089 563.281 1088.62 563.589C1088.62 563.589 1088.67 563.621 1088.67 563.705C1088.62 564.909 1088.54 566.027 1088.55 567.148C1088.55 567.811 1088.17 568.096 1086.96 568.005C1085.53 567.896 1084.09 567.866 1082.65 567.802C1082.65 567.802 1082.56 567.856 1082.59 567.979C1082.17 568.698 1081.73 569.295 1081.28 569.892C1081.19 570.022 1081.11 570.151 1081.05 570.423C1080.94 570.678 1080.8 570.79 1080.67 570.902C1080.62 570.965 1080.56 571.028 1080.56 571.22C1080.32 571.69 1080.03 572.031 1079.74 572.372C1079.49 572.76 1079.24 573.148 1079.03 573.7C1078.4 574.812 1077.73 575.762 1077.07 576.711C1077 576.794 1076.93 576.876 1076.94 577.075C1076.72 577.51 1076.43 577.827 1076.15 578.145C1076.07 578.208 1076 578.271 1075.94 578.471C1075.57 578.834 1075.19 579.06 1074.82 579.287C1074.81 579.093 1074.81 578.9 1074.81 578.707C1074.87 577.637 1074.94 576.568 1074.89 575.354C1074.85 574.962 1074.93 574.716 1075 574.47C1075.17 571.15 1075.33 567.831 1075.35 564.393C1075.1 564.053 1074.99 563.831 1074.88 563.61C1074.88 563.61 1074.81 563.514 1074.63 563.463C1074.5 563.113 1074.55 562.814 1074.6 562.516C1074.76 562.501 1074.91 562.486 1075.18 562.354C1074.76 561.722 1072.14 561.357 1071.56 561.736C1071.46 561.798 1071.63 561.998 1071.67 562.134C1073.22 563.046 1071.92 563.703 1071.23 564.551C1070.94 564.703 1070.7 564.722 1070.45 564.741C1069.11 564.67 1067.76 564.599 1066.24 564.631C1065.89 565.666 1065.64 566.593 1065.58 567.531C1065.42 569.814 1065.37 572.103 1065.23 574.387C1065.21 574.613 1064.87 574.822 1064.67 575.038C1064.49 574.925 1064.3 574.813 1064.11 574.7C1064.11 574.7 1064.13 574.652 1063.98 574.624C1063.71 574.437 1063.6 574.279 1063.49 574.121C1063.05 573.719 1062.61 573.316 1061.95 572.857C1061.39 572.479 1061.06 572.158 1060.72 571.837C1060.52 571.663 1060.31 571.489 1059.9 571.266C1059.55 571.066 1059.41 570.915 1059.27 570.763C1059.27 570.763 1059.25 570.776 1059.14 570.765C1058.88 570.599 1058.73 570.445 1058.58 570.29C1057.35 569.483 1056.12 568.677 1054.67 567.836C1054.27 567.661 1054.11 567.52 1053.94 567.379C1052.63 566.679 1051.33 565.979 1049.78 565.256C1049.35 565.095 1049.15 564.957 1048.96 564.82C1048.81 564.735 1048.66 564.651 1048.29 564.553C1047.65 564.315 1047.24 564.091 1046.83 563.867C1046.47 563.699 1046.11 563.531 1045.51 563.351C1044.83 563.118 1044.4 562.899 1043.97 562.68C1043.97 562.68 1043.88 562.616 1043.69 562.622C1043.3 562.504 1043.09 562.38 1042.88 562.256C1042.51 561.92 1042.13 561.584 1041.6 561.164C1040.24 561.016 1039.98 560.568 1040.07 559.98C1039.59 559.576 1039.12 559.172 1038.43 558.686C1033.24 558.442 1032.93 557.613 1032.79 561.253C1032.79 561.323 1032.83 561.408 1032.78 561.46C1032.54 561.689 1032.28 561.908 1032.03 562.131C1032.03 562.131 1032.01 562.118 1032.02 562.196C1031.8 562.429 1031.59 562.585 1031.38 562.741C1031.33 562.829 1031.29 562.918 1031.33 563.134C1030.86 564.194 1030.3 565.126 1029.74 566.059C1029.54 566.319 1029.35 566.579 1029.18 566.993C1028.85 567.465 1028.5 567.785 1028.15 568.105C1028 568.246 1027.84 568.387 1027.69 568.666C1027.35 569.046 1027.01 569.287 1026.67 569.528C1026.67 569.528 1026.55 569.586 1026.55 569.701C1026.35 569.925 1026.14 570.033 1025.93 570.142C1024.8 570.814 1023.68 571.486 1022.49 572.29C1022.16 572.502 1021.9 572.581 1021.63 572.661C1021.34 572.774 1021.04 572.887 1020.66 573.116C1020.3 573.283 1020.01 573.334 1019.72 573.385C1019.71 573.271 1019.71 573.156 1019.71 573.042C1019.9 569.224 1020.08 565.405 1020.11 561.478C1019.64 560.987 1019.11 560.608 1019.07 560.223C1018.96 559.287 1019.07 558.349 1019.09 557.411C1018.95 556.511 1018.81 555.612 1018.54 554.592C1018.2 554.313 1017.99 554.152 1017.78 553.992C1017.63 553.951 1017.48 553.909 1017.13 553.907C1016.59 553.786 1016.26 553.627 1015.92 553.467C1015.92 553.467 1015.97 553.485 1015.98 553.545C1015.77 553.67 1015.54 553.734 1015.31 553.798C1015.15 553.798 1014.98 553.798 1014.65 553.902C1013.6 555.198 1014.24 556.551 1013.13 557.825C1012.02 559.106 1012.12 560.822 1012 562.365C1011.73 565.95 1011.61 569.545 1011.5 573.139C1011.48 574.064 1010.65 574.145 1009.4 574.051C1008.28 573.966 1006.99 574.088 1007.11 573.008C1007.25 571.605 1007.3 570.197 1007.39 568.79C1007.17 568.615 1006.95 568.441 1006.5 568.203C1006.16 567.774 1005.95 567.403 1005.96 567.041C1006.09 563.541 1006.26 560.042 1006.42 556.543C1006.42 556.543 1006.32 556.475 1006.1 556.451C1005.72 556.133 1005.43 555.835 1005.43 555.549C1005.53 552.553 1005.66 549.558 1005.86 546.567C1005.88 546.256 1006.42 545.972 1006.72 545.676C1006.75 545.563 1006.78 545.45 1006.59 545.288C1004.68 545.247 1004 544.792 1004.06 543.78C1004.31 539.559 1004.46 535.333 1004.68 531.11C1004.7 530.772 1005.06 530.45 1005.26 530.12C1005.3 529.972 1005.35 529.823 1005.25 529.569C1005.09 528.841 1005.1 528.22 1005.1 527.598C1005.1 527.372 1005.1 527.146 1004.94 526.803C1004.78 526.21 1004.78 525.735 1004.78 525.259C1004.84 525.114 1004.9 524.97 1004.97 524.666C1004.89 524.223 1004.82 523.939 1004.74 523.654C1004.66 523.037 1004.59 522.42 1004.39 521.681C1004.33 521.433 1004.4 521.307 1004.47 521.181C1004.5 521.028 1004.53 520.875 1004.42 520.59C1004.07 519.777 1003.85 519.097 1003.63 518.417C1003.7 516.358 1003.77 514.299 1003.69 512.132C1003.37 512.019 1003.2 512.013 1003.03 512.008C1002.96 512.933 1002.88 513.858 1002.82 514.952C1002.77 515.644 1002.74 516.169 1002.66 516.691C1002.52 517.611 1002.35 518.529 1002.2 519.448C1002.14 519.527 1002.09 519.606 1002.08 519.809C1002.08 520.434 1002.07 520.94 1001.99 521.439C1001.93 521.761 1001.76 522.073 1001.65 522.39C1001.55 523.153 1001.46 523.916 1001.44 524.827C1001.46 525.222 1001.4 525.469 1001.34 525.716C1001.35 525.801 1001.37 525.886 1001.52 526.061C1001.59 526.521 1001.51 526.892 1001.43 527.262C1001.38 527.341 1001.33 527.42 1001.32 527.601C1001.24 527.83 1001.12 527.958 1000.99 528.087C1000.89 528.277 1000.8 528.467 1000.72 528.825C1000.5 529.59 1000.27 530.186 1000.04 530.782C999.898 530.993 999.625 531.204 999.642 531.415C999.721 532.369 999.882 533.322 999.932 534.422C999.583 534.623 999.314 534.679 999.046 534.735C998.997 534.959 998.947 535.183 999.023 535.548C999.148 536.507 999.148 537.324 999.148 538.141C998.927 541.318 998.705 544.495 998.554 547.829C998.819 548.558 998.53 548.915 997.454 548.925C997.431 549.063 997.408 549.201 997.531 549.427C997.853 549.763 998.029 550.011 998.205 550.258C998.066 553.257 997.926 556.255 997.85 559.423C997.704 559.712 997.495 559.831 997.285 559.949C997.221 559.954 997.156 559.959 996.954 560.039C996.535 560.134 996.254 560.155 995.973 560.175C995.973 560.175 995.941 560.195 996.001 560.272C996.317 560.536 996.573 560.724 996.828 560.911C996.766 562.481 996.739 564.054 996.613 565.62C996.589 565.92 996.177 566.197 995.87 566.632C995.727 567.322 995.919 568.028 994.291 567.603C994.02 567.589 993.749 567.575 993.243 567.628C992.909 568.033 992.752 568.367 992.723 568.708C992.648 569.585 992.696 570.471 992.551 571.341C992.507 571.604 991.993 571.827 991.694 572.069C991.466 571.82 991.143 571.582 991.037 571.32C990.928 571.052 991.03 570.76 991.043 570.479C991.207 566.823 991.414 563.168 991.501 559.508C991.519 558.758 991.087 557.991 990.863 557.232C990.868 557.081 990.873 556.93 990.681 556.687C989.218 556.524 987.952 556.455 986.685 556.386C986.513 556.511 986.342 556.636 986.104 556.883C985.442 557.315 985.056 557.326 985.083 556.752C985.379 555.961 984.803 555.632 983.201 555.708C982.906 555.544 982.866 555.384 982.826 555.225C982.836 554.867 982.847 554.51 982.749 554.054C982.441 553.961 982.24 553.966 982.039 553.971C981.61 554.398 982.549 555.23 980.759 555.361C980.381 555.457 980.213 555.508 980.044 555.559C979.958 556.171 979.871 556.782 979.799 557.551C979.688 557.82 979.561 557.931 979.435 558.042C979.398 558.119 979.362 558.195 979.356 558.401C979.211 558.728 979.034 558.927 978.858 559.125C978.819 559.206 978.78 559.288 978.794 559.479C978.615 559.921 978.382 560.253 978.149 560.586C978.015 560.839 977.881 561.092 977.769 561.487C977.639 561.764 977.487 561.9 977.335 562.035C977.117 562.24 976.936 562.463 976.677 562.648C974.395 564.279 973.213 566.134 973.658 568.334C973.69 568.493 973.58 568.658 973.533 568.83C972.622 568.62 971.799 568.43 970.682 568.228C970.258 567.239 970.127 566.26 969.996 565.281C968.692 564.71 967.388 564.139 965.86 563.546C965.378 563.616 965.119 563.709 964.861 563.801C964.797 563.943 964.733 564.086 964.717 564.338C964.638 564.576 964.511 564.703 964.384 564.831C964.281 565.087 964.179 565.344 964.1 565.744C964.003 566.008 963.882 566.127 963.762 566.245C963.728 566.321 963.695 566.397 963.692 566.633C963.623 568.515 963.51 570.235 963.426 571.957C963.274 575.098 963.281 575.109 957.922 574.823C957.316 574.791 956.724 574.554 956.126 574.412C956.301 570.461 956.48 566.51 956.644 562.558C956.66 562.175 956.577 561.788 956.328 561.317C956.004 561.067 955.892 560.904 955.78 560.741C955.808 559.974 955.835 559.208 955.76 558.322C955.558 558.11 955.458 558.018 955.357 557.926C954.314 557.872 953.271 557.817 952.038 557.817C951.61 557.932 951.373 557.992 951.135 558.053C951.005 559.05 950.874 560.047 950.644 561.213C950.422 563.099 950.325 564.818 950.157 566.532C950.123 566.877 949.821 567.205 949.643 567.541C949.584 567.556 949.525 567.571 949.356 567.662C948.987 567.74 948.728 567.741 948.468 567.743C948.275 567.418 947.945 567.094 947.912 566.768C947.78 565.489 947.742 564.209 947.449 562.822C947.177 561.924 947.126 561.133 947.074 560.343C947.074 560.343 947.005 560.267 946.835 560.221C946.561 560.011 946.458 559.848 946.355 559.685C946.312 559.479 946.269 559.273 946.077 558.962C945.77 558.588 945.611 558.322 945.411 557.984C945.051 558.382 944.769 558.694 944.487 559.006C944.455 559.085 944.422 559.164 944.411 559.372C944.225 559.619 944.019 559.737 943.813 559.855C943.61 559.97 943.408 560.086 943.105 560.318C942.518 560.485 942.032 560.534 941.545 560.584C941.353 564.244 941.162 567.905 940.977 571.753C940.857 572.007 940.73 572.137 940.605 572.133C938.19 572.048 935.776 571.955 933.363 571.834C933.218 571.827 933.089 571.571 932.952 571.431C933.193 565.931 933.433 560.431 933.5 554.803C932.069 554.6 930.808 554.475 929.554 554.464C928.212 554.453 927.73 554.13 927.782 553.361C927.928 551.19 927.99 549.014 928.127 546.843C928.142 546.605 928.431 546.381 928.593 546.15C928.81 546.123 929.027 546.095 929.361 545.98C929.68 545.72 929.882 545.547 930.083 545.373C930.074 545.259 930.065 545.145 929.866 544.995C929.476 544.837 929.274 544.713 929.073 544.589C928.883 544.148 928.285 543.5 928.573 543.303C929.723 542.52 928.759 542.08 927.951 541.553C927.595 541.321 927.307 541.054 926.855 540.682C926.737 540.007 926.751 539.452 926.766 538.898C926.767 538.748 926.768 538.597 926.641 538.368C926.368 538.268 926.224 538.248 926.079 538.228C925.984 538.858 925.996 539.507 925.758 540.114C925.572 540.588 925.074 541.011 924.661 541.595C924.311 541.776 924.015 541.817 923.72 541.858C923.741 541.745 923.763 541.633 923.785 541.52C923.42 541.072 923.054 540.623 922.555 540.084C922.121 539.988 921.82 539.982 921.519 539.977C920.686 540.637 919.836 541.289 919.039 541.964C918.919 542.065 919.044 542.269 919.283 542.52C919.378 542.966 919.246 543.318 919.114 543.67C919.038 543.681 918.963 543.692 918.764 543.79C918.399 543.867 918.156 543.857 917.914 543.847C917.707 543.855 917.501 543.863 917.227 543.977C916.955 544.187 916.75 544.291 916.545 544.394C916.511 544.678 916.477 544.962 916.642 545.368C916.826 547.455 916.846 549.422 916.787 551.387C916.711 553.889 916.595 556.39 916.428 558.888C916.409 559.174 916.058 559.557 915.658 559.672C915.356 559.759 914.732 559.489 914.251 559.378C914.245 559.337 914.239 559.296 914.085 559.192C913.93 558.982 913.922 558.834 913.914 558.687C913.89 558.562 913.866 558.438 913.638 558.263C912.88 558.019 912.326 557.826 911.772 557.632C911.638 557.592 911.505 557.552 911.113 557.483C910.73 557.098 910.495 556.737 910.499 556.384C910.512 555.031 910.602 553.681 910.648 552.665C909.821 552.15 909.37 551.87 908.919 551.589C908.952 550.856 908.985 550.124 909.022 549.309C907.753 549.251 906.538 549.196 905.224 549.137C905.066 549.856 904.911 550.564 904.612 551.378C904.219 551.441 903.97 551.398 903.721 551.355C903.506 551.705 903.121 552.046 903.102 552.405C902.804 558.149 902.553 563.896 902.366 569.804C900.604 569.931 898.768 569.897 896.931 569.862C896.974 569.773 897.017 569.684 897.06 569.594C897.403 562.103 897.747 554.612 898.107 546.941C898.435 546.726 898.746 546.691 899.056 546.656C899.178 546.65 899.299 546.644 899.578 546.56C900.201 546.308 900.667 546.134 901.133 545.961C900.94 545.911 900.746 545.862 900.395 545.853C900.021 545.802 899.805 545.711 899.588 545.62C899.441 545.584 899.293 545.549 898.971 545.542C898.68 545.468 898.565 545.366 898.449 545.263C896.485 542.187 898.141 539.132 897.696 535.929C897.648 535.615 897.711 535.439 897.774 535.263C897.736 532.973 897.697 530.682 897.472 528.362C897.158 530.052 897.064 531.775 896.878 533.491C896.838 533.86 896.467 534.206 896.248 534.563C895.495 534.97 894.742 535.377 893.933 535.916C893.523 536.206 893.169 536.363 892.815 536.52C892.448 536.731 892.081 536.942 891.691 537.287C891.913 537.541 892.157 537.66 892.506 537.745C893.252 537.35 893.895 536.988 894.585 536.568C894.815 536.648 894.998 536.787 895.146 537.016C895.026 539.378 894.941 541.65 894.899 543.988C894.711 544.112 894.479 544.171 894.079 544.212C891.115 544.075 888.32 543.956 885.451 543.885C884.361 543.328 885.073 543.036 885.99 542.714C886.824 541.982 887.568 541.302 888.239 540.55C887.92 540.408 887.673 540.337 887.426 540.267C886.589 540.962 885.686 541.633 884.933 542.359C884.123 543.139 883.104 543.512 881.44 543.31C880.392 543.183 879.305 543.198 878.142 543.309C878.401 543.402 878.652 543.507 878.921 543.589C881.43 544.347 881.835 545.055 880.618 546.434C876.058 551.599 872.839 557.02 873.104 563.052C873.185 564.912 873.656 566.778 873.972 568.785C872.965 568.739 871.902 568.798 870.976 568.602C870.542 568.51 870.111 567.918 870.122 567.57C870.257 563.263 870.534 558.961 870.622 554.653C870.64 553.737 869.96 552.802 869.763 551.868C869.505 550.644 869.366 549.414 869.256 548.186C869.196 547.516 869.256 546.842 869.343 546.176C869.431 545.503 868.986 545.24 867.593 545.409C867.561 546.123 867.626 546.897 867.447 547.643C867.368 547.971 866.823 548.259 866.437 548.54C865.65 549.112 864.827 549.668 864.063 550.371C863.956 550.648 863.806 550.784 863.656 550.921C863.588 551.004 863.52 551.087 863.515 551.276C863.397 551.495 863.216 551.608 863.036 551.72C862.885 552.853 862.577 553.983 862.628 555.118C862.675 556.156 862.045 556.475 860.353 556.28C859.47 556.178 858.561 556.184 857.38 556.193C856.104 556.245 855.11 556.245 854.332 556.245C853.978 556.813 853.712 557.241 853.445 557.668C853.4 558.168 853.356 558.668 853.404 559.295C853.274 559.47 853.05 559.517 852.827 559.564C851.697 559.504 850.562 559.394 849.441 559.408C849.021 559.413 848.636 559.706 848.137 560.019C847.342 560.209 846.647 560.249 845.952 560.289C845.814 562.841 845.691 565.394 845.518 567.944C845.494 568.288 845.216 568.619 844.81 569.001C844.389 568.663 844.214 568.28 844.038 567.897C842.501 567.737 840.965 567.577 839.303 567.256C839.214 565.375 839.215 563.654 839.303 561.937C839.343 561.144 839.552 560.359 839.684 559.571C839.425 559.162 839.166 558.753 838.657 558.281C837.17 558.032 835.933 557.847 834.697 557.661C834.697 557.661 834.717 557.65 834.596 557.659C834.256 557.662 834.038 557.656 833.82 557.651C833.272 557.628 832.724 557.605 832.013 557.692C831.728 560.011 831.632 562.221 831.456 564.427C831.431 564.74 831.017 565.031 830.783 565.332C829.642 565.281 828.501 565.229 827.002 565.161C827.253 559.614 827.501 554.124 827.592 548.506C827.256 547.934 827.077 547.49 826.898 547.045C826.223 546.364 825.548 545.683 824.701 544.931C824.378 544.792 824.228 544.723 824.078 544.655C821.414 546.032 819.956 547.66 820.017 549.918C820.122 553.804 819.722 557.678 819.595 561.56C819.574 562.193 819.337 562.592 818.257 562.823C816.547 563.189 815.273 564.242 812.775 563.749C812.839 562.344 812.89 560.911 812.975 559.48C813.009 558.91 813.105 558.38 812.038 557.98C811.709 557.856 811.728 557.417 811.544 557.13C811.387 556.884 811.231 556.479 810.965 556.438C809.5 556.208 809.709 555.604 809.746 555.005C809.809 553.984 809.843 552.961 809.876 552.229C809.206 551.663 808.833 551.294 808.365 550.971C807.99 550.712 807.525 550.352 807.056 550.312C805.27 550.161 803.465 550.121 801.201 550.019C801.027 553.87 800.858 557.601 800.687 561.379C799.587 561.33 798.961 561.301 798.152 561.265C798.185 560.522 798.216 559.836 798.251 559.071C797.131 558.991 796.186 558.923 795.167 558.849C794.999 558.099 794.835 557.362 794.702 556.766C793.239 556.7 792.116 556.649 790.65 556.583C790.538 557.288 790.41 558.095 790.266 559.002C788.6 558.926 786.993 558.853 785.541 558.788C784.724 561.06 783.948 563.221 783.19 565.329C781.397 565.354 780.974 564.925 781.05 564.125C781.193 562.616 781.208 561.099 781.281 559.495C779.772 559.427 778.364 559.363 776.811 559.293C776.725 559.679 776.636 560.079 776.531 560.549C775.855 560.519 775.23 560.49 774.362 560.451C774.42 559.164 774.478 557.882 774.538 556.547C772.638 556.461 770.975 556.385 769.503 556.319C767.113 558.918 767.747 561.783 767.521 564.559C767.485 565.009 767.478 565.46 767.456 565.94C765.502 566.028 763.657 566.002 761.926 566.225C760.711 566.382 759.657 566.884 758.52 567.221C758.177 567.323 757.223 570.37 756.726 570.469C756.524 571.968 756.746 579.355 757.636 579.862C921.519 576.975 1048.29 588.988 1232.97 607.656C1233.03 606.308 1234.01 590.84 1233.91 589.377C1231.88 589.165 1230.02 589.075 1228.16 588.988C1227.12 588.94 1226.5 588.735 1226.52 588.008C1226.57 585.525 1226.48 583.036 1226.55 580.553C1226.57 579.791 1226.58 579.094 1225.44 578.55C1225.49 577.436 1225.54 576.321 1225.6 575.021C1223.54 574.928 1221.59 574.84 1219.37 574.676C1219.03 573.777 1218.86 572.946 1218.94 572.132C1219.03 571.155 1218.29 571.001 1216.9 571.181C1216.97 571.392 1217.03 571.558 1217.08 571.725C1217.24 572.441 1217.41 573.158 1217.59 574.054C1216.33 574.274 1215.02 574.285 1213.74 574.365C1212.75 574.427 1211.79 574.575 1210.81 574.685C1210.62 574.691 1210.42 574.697 1210.09 574.778C1209.72 574.797 1209.49 574.741 1209.26 574.685C1209.09 574.672 1208.91 574.659 1208.64 574.795C1208.44 577.598 1208.35 580.253 1208.17 582.903C1208.15 583.216 1207.63 583.503 1207.34 583.802C1207.34 583.802 1207.41 583.85 1207.4 583.921C1207.38 584.097 1207.43 584.222 1207.35 584.304C1207.09 584.589 1206.77 584.86 1206.48 585.136C1206.19 584.844 1205.75 584.565 1205.64 584.256C1205.51 583.886 1205.65 583.49 1205.67 583.106C1205.67 583.106 1205.64 583.136 1205.51 583.119C1205.05 581.805 1204.72 580.509 1204.4 579.212C1203.82 579.147 1203.25 579.081 1202.39 579.055C1201.95 578.93 1201.79 578.765 1201.63 578.6C1201.75 576.37 1201.84 574.139 1202.01 571.913C1202.05 571.261 1201.54 571.113 1200.36 571.163C1199.89 570.823 1199.68 570.46 1199.56 570.254C1199.3 570.463 1198.94 570.755 1198.57 571.048C1197.69 571.008 1196.81 570.968 1195.72 570.919C1195.77 569.746 1195.82 568.676 1195.7 567.512C1195.38 567.404 1195.22 567.391 1195.07 567.377C1195.02 568.483 1194.97 569.589 1194.91 570.734C1193.97 570.759 1193.28 570.778 1192.4 570.801C1192.37 571.48 1192.34 572.132 1192.28 572.952C1191.98 573.189 1191.7 573.258 1191.42 573.327C1191.25 573.642 1191.08 573.957 1190.8 574.408C1190.55 577.711 1190.42 580.88 1190.24 584.045C1190.22 584.304 1189.8 584.543 1189.56 584.791C1188.59 584.718 1187.62 584.645 1186.44 584.465C1186.33 582.199 1186.43 580.04 1186.53 577.794C1185.73 577.868 1185.27 577.951 1184.8 577.945C1184.03 577.935 1183.95 577.811 1184.29 577.265C1184.37 575.935 1184.45 574.604 1184.35 573.17C1183.86 572.84 1183.31 572.626 1183.25 572.387C1182.97 571.236 1182.82 570.079 1182.63 568.924C1182.11 568.984 1181.6 569.045 1181.19 569.25C1181.29 569.631 1181.37 569.884 1181.27 570.104C1180.96 570.803 1180.58 571.49 1180.23 572.183C1180.18 572.281 1180.21 572.432 1180.1 572.476C1178.62 573.07 1179.18 574.026 1179.05 574.853C1178.97 575.373 1179.09 575.917 1178.92 576.421C1178.73 576.972 1178.28 576.894 1177.9 576.414C1177.9 576.414 1177.84 576.337 1177.66 576.312C1177.13 576.285 1176.78 576.283 1176.43 576.282C1176.43 576.282 1176.34 576.33 1176.37 576.438C1176.1 577.016 1175.74 577.04 1175.32 576.56C1175.32 576.56 1175.25 576.469 1175.03 576.437C1174.44 576.405 1174.06 576.404 1173.68 576.404C1173.52 576.546 1173.36 576.689 1173.14 576.975C1171.85 577.423 1170.63 577.572 1169.58 576.806C1169.58 576.806 1169.54 576.821 1169.4 576.809C1168.17 576.766 1167.09 576.734 1166.01 576.703C1166.01 576.703 1165.96 576.7 1165.93 576.792C1163.73 577.153 1163.05 576.977 1163.08 576.074C1163.17 573.876 1163.33 571.681 1163.47 569.485C1163.47 569.485 1163.44 569.486 1163.34 569.504C1163.09 569.388 1162.95 569.252 1162.81 569.117C1162.81 568.961 1162.82 568.805 1162.69 568.537C1162.49 568.006 1162.43 567.586 1162.37 567.167C1162.41 566.94 1162.45 566.712 1162.28 566.393C1161.01 566.024 1159.56 566.633 1158.79 565.714C1158.8 565.614 1158.8 565.515 1158.67 565.378C1158.52 565.341 1158.43 565.294 1158.43 565.294C1157.83 565.568 1157.24 565.843 1156.58 566.247C1156.29 566.471 1156.05 566.565 1155.81 566.658C1155.81 566.658 1155.82 566.661 1155.81 566.726C1155.59 566.884 1155.37 566.978 1155.15 567.071C1155.02 567.432 1154.79 567.789 1154.77 568.155C1154.62 570.541 1154.52 572.93 1154.48 575.474C1154.11 576.285 1153.65 576.939 1153.19 577.593C1152.97 577.607 1152.75 577.621 1152.46 577.776C1152.22 578.635 1152.05 579.352 1151.88 580.069C1151.81 580.4 1151.74 580.732 1151.64 581.164C1150.7 581.122 1149.84 581.083 1148.79 581.126C1148.45 581.395 1148.39 581.643 1148.15 581.755C1147.74 581.939 1147.01 582.219 1146.77 582.128C1146.32 581.951 1145.85 581.537 1145.85 581.234C1145.84 579.338 1145.97 577.446 1146.02 575.551C1146.03 575.214 1145.9 574.868 1145.78 574.531C1145.58 573.976 1145.34 573.425 1145.11 572.872C1145 572.776 1144.9 572.681 1144.6 572.56C1144.23 572.427 1144.05 572.321 1143.87 572.215C1142.83 572.169 1142.68 571.816 1142.7 571.28C1142.75 570.14 1142.66 568.993 1142.35 567.782C1141.94 567.463 1141.82 567.21 1141.67 566.961C1141.05 565.923 1140.42 564.887 1139.8 563.85C1139.75 563.934 1139.7 564.019 1139.73 564.225C1139.62 564.59 1139.43 564.834 1139.24 565.078C1139.09 565.22 1138.95 565.363 1138.78 565.653C1138.54 567.938 1138.32 570.077 1138.03 572.21C1138.01 572.404 1137.48 572.56 1137.18 572.734C1136.29 572.684 1135.4 572.635 1134.28 572.623C1133.89 572.524 1133.73 572.388 1133.58 572.251C1133.64 571.084 1133.71 569.918 1133.56 568.664C1132.63 568.569 1131.93 568.561 1130.99 568.551C1130.95 569.465 1130.91 570.322 1130.87 571.181C1130.84 572.137 1130.04 572.285 1128.68 571.853C1128.4 571.83 1128.13 571.807 1127.62 571.833C1127.27 571.515 1127.15 571.148 1127.03 570.781C1126.98 570.646 1126.93 570.512 1126.68 570.286C1126.42 569.627 1126.36 569.06 1126.29 568.492C1126.27 568.458 1126.25 568.425 1126.02 568.323C1125.83 566.683 1125.84 565.112 1125.85 563.54C1125.85 563.54 1125.83 563.458 1125.66 563.419C1125.36 563.227 1125.22 563.074 1125.09 562.922C1124.96 562.816 1124.84 562.711 1124.52 562.525C1124.17 561.834 1124.03 561.223 1123.83 560.381C1123.32 561.158 1122.98 561.681 1122.63 562.203C1122.44 562.393 1122.25 562.582 1122.07 562.911C1121.77 563.314 1121.46 563.577 1121.15 563.84C1121.01 566.238 1120.88 568.637 1120.83 571.168C1120.84 571.394 1120.77 571.489 1120.7 571.583C1120.58 571.543 1120.46 571.502 1120.33 571.462C1118.97 571.394 1117.6 571.325 1115.92 571.236C1115.49 570.85 1115.28 570.478 1115.29 570.116C1115.39 567.375 1115.5 564.634 1115.66 561.896C1115.7 561.229 1115.74 560.608 1114.61 560.177C1114.72 557.056 1114.82 553.936 1114.78 550.677C1114.13 549.382 1113.62 548.226 1113.12 547.069C1112.91 546.825 1112.7 546.582 1112.29 546.28C1111.95 546.064 1111.83 545.906 1111.7 545.747C1110.74 545.218 1109.77 544.689 1108.54 544.136C1108 543.758 1107.5 543.401 1107.48 543.051C1107.43 541.888 1107.59 540.728 1107.57 539.564C1107.57 539.21 1107.28 538.849 1107.12 538.491C1106.99 538.49 1106.89 538.516 1106.84 538.716C1106.84 540.056 1106.81 541.249 1106.75 542.441C1106.75 542.645 1106.73 542.959 1106.52 543.024C1105.2 543.446 1105.54 544.2 1105.49 544.873C1105.43 545.643 1105.45 546.419 1105.35 547.186C1105.32 547.435 1105.05 547.864 1104.83 547.871C1103.14 547.922 1103.61 548.667 1103.47 549.245C1103.29 549.951 1103.02 550.646 1102.79 551.347C1102.61 551.344 1102.43 551.341 1102.12 551.443C1101.76 552.315 1101.54 553.081 1101.32 553.848C1101.32 553.848 1101.23 553.834 1101.17 553.918C1100.73 554.056 1100.36 554.109 1099.98 554.163C1099.9 555.493 1099.82 556.823 1099.78 558.333C1099.32 558.593 1098.83 558.672 1098.34 558.752Z" fill="url(#paint1_linear_61_590)"/>
<path d="M207.646 560.752C207.745 561.549 207.895 562.345 207.935 563.145C208.119 566.837 208.272 570.529 208.388 574.399C209.334 575.054 210.285 575.043 211.18 574.405C211.117 572.705 211.054 571.005 211.143 569.185C211.656 568.769 212.308 568.47 212.325 568.178C212.379 567.236 212.198 566.296 212.108 565.355C212.135 565.278 212.162 565.201 212.376 565.042C212.844 563.598 213.125 562.235 213.407 560.873C213.424 560.79 213.441 560.707 213.617 560.552C213.97 560.298 214.164 560.116 214.366 559.927C214.743 560.198 215.059 560.424 215.375 560.651C215.49 560.774 215.606 560.896 215.697 561.183C215.859 562.454 215.969 563.57 216.273 564.662C216.369 565.004 216.988 565.281 217.368 565.589C217.368 565.589 217.314 565.621 217.316 565.705C217.363 566.909 217.446 568.027 217.436 569.148C217.431 569.811 217.814 570.096 219.02 570.005C220.452 569.896 221.895 569.866 223.333 569.802C223.333 569.802 223.421 569.856 223.393 569.979C223.811 570.698 224.258 571.295 224.705 571.892C224.789 572.022 224.873 572.151 224.934 572.423C225.045 572.678 225.18 572.79 225.314 572.902C225.367 572.965 225.419 573.028 225.422 573.22C225.664 573.69 225.954 574.031 226.245 574.372C226.492 574.76 226.74 575.148 226.953 575.7C227.585 576.812 228.251 577.762 228.918 578.711C228.984 578.794 229.049 578.876 229.046 579.075C229.263 579.51 229.55 579.827 229.837 580.145C229.91 580.208 229.982 580.271 230.047 580.471C230.415 580.834 230.792 581.06 231.168 581.287C231.171 581.093 231.174 580.9 231.177 580.707C231.112 579.637 231.047 578.568 231.092 577.354C231.129 576.962 231.055 576.716 230.982 576.47C230.817 573.15 230.653 569.831 230.63 566.393C230.883 566.053 230.994 565.831 231.106 565.61C231.106 565.61 231.172 565.514 231.356 565.463C231.488 565.113 231.436 564.814 231.385 564.516C231.227 564.501 231.07 564.486 230.806 564.354C231.222 563.722 233.841 563.357 234.426 563.736C234.521 563.798 234.357 563.998 234.312 564.134C232.768 565.046 234.064 565.703 234.753 566.551C235.039 566.703 235.287 566.722 235.535 566.741C236.877 566.67 238.218 566.599 239.748 566.631C240.098 567.666 240.344 568.593 240.407 569.531C240.56 571.814 240.614 574.103 240.756 576.387C240.77 576.613 241.117 576.822 241.309 577.038C241.498 576.925 241.687 576.813 241.876 576.7C241.876 576.7 241.854 576.652 242.008 576.624C242.272 576.437 242.381 576.279 242.49 576.121C242.932 575.719 243.374 575.316 244.038 574.857C244.593 574.479 244.927 574.158 245.261 573.837C245.467 573.663 245.674 573.489 246.087 573.266C246.433 573.066 246.572 572.915 246.711 572.763C246.711 572.763 246.732 572.776 246.843 572.765C247.105 572.599 247.256 572.445 247.408 572.29C248.633 571.483 249.859 570.677 251.313 569.836C251.71 569.661 251.877 569.52 252.044 569.379C253.351 568.679 254.658 567.979 256.203 567.256C256.636 567.095 256.832 566.957 257.027 566.82C257.174 566.735 257.32 566.651 257.694 566.553C258.333 566.315 258.744 566.091 259.156 565.867C259.516 565.699 259.876 565.531 260.477 565.351C261.15 565.118 261.581 564.899 262.013 564.68C262.013 564.68 262.102 564.616 262.289 564.622C262.685 564.504 262.893 564.38 263.101 564.256C263.475 563.92 263.849 563.584 264.387 563.164C265.747 563.016 266.001 562.568 265.914 561.98C266.39 561.576 266.865 561.172 267.555 560.686C272.747 560.442 273.049 559.613 273.19 563.253C273.193 563.323 273.154 563.408 273.206 563.46C273.44 563.689 273.699 563.908 273.949 564.131C273.949 564.131 273.968 564.118 273.968 564.196C274.18 564.429 274.393 564.585 274.606 564.741C274.652 564.829 274.698 564.918 274.651 565.134C275.121 566.194 275.683 567.126 276.245 568.059C276.439 568.319 276.632 568.579 276.803 568.993C277.131 569.465 277.481 569.785 277.831 570.105C277.987 570.246 278.143 570.387 278.294 570.666C278.63 571.046 278.97 571.287 279.309 571.528C279.309 571.528 279.431 571.586 279.428 571.701C279.636 571.925 279.846 572.033 280.056 572.142C281.181 572.814 282.305 573.486 283.498 574.29C283.827 574.502 284.088 574.581 284.349 574.661C284.646 574.774 284.944 574.887 285.319 575.116C285.687 575.283 285.977 575.334 286.268 575.385C286.271 575.271 286.274 575.156 286.277 575.042C286.088 571.224 285.899 567.405 285.876 563.478C286.347 562.987 286.869 562.608 286.915 562.223C287.027 561.287 286.918 560.349 286.898 559.411C287.036 558.511 287.175 557.612 287.443 556.592C287.782 556.313 287.991 556.152 288.2 555.992C288.352 555.951 288.505 555.909 288.857 555.907C289.392 555.786 289.726 555.627 290.061 555.467C290.061 555.467 290.016 555.485 290.002 555.545C290.216 555.67 290.443 555.734 290.67 555.798C290.836 555.798 291.002 555.798 291.329 555.902C292.38 557.198 291.745 558.551 292.852 559.825C293.965 561.106 293.862 562.822 293.98 564.365C294.254 567.95 294.376 571.545 294.479 575.139C294.505 576.064 295.329 576.145 296.579 576.051C297.708 575.966 298.99 576.088 298.878 575.008C298.733 573.605 298.682 572.197 298.59 570.79C298.81 570.615 299.03 570.441 299.485 570.203C299.825 569.774 300.032 569.403 300.019 569.041C299.889 565.541 299.723 562.042 299.567 558.543C299.567 558.543 299.666 558.475 299.886 558.451C300.261 558.133 300.558 557.835 300.549 557.549C300.449 554.553 300.325 551.558 300.127 548.567C300.106 548.256 299.562 547.972 299.261 547.676C299.234 547.563 299.206 547.45 299.396 547.288C301.306 547.247 301.979 546.792 301.92 545.78C301.673 541.559 301.526 537.333 301.298 533.11C301.28 532.772 300.925 532.45 300.727 532.12C300.679 531.972 300.631 531.823 300.738 531.569C300.889 530.841 300.886 530.22 300.884 529.598C300.883 529.372 300.882 529.146 301.039 528.803C301.199 528.21 301.201 527.735 301.203 527.259C301.142 527.114 301.082 526.97 301.018 526.666C301.09 526.223 301.165 525.939 301.241 525.654C301.319 525.037 301.397 524.42 301.597 523.681C301.651 523.433 301.584 523.307 301.517 523.181C301.487 523.028 301.456 522.875 301.562 522.59C301.917 521.777 302.135 521.097 302.353 520.417C302.281 518.358 302.209 516.299 302.294 514.132C302.616 514.019 302.783 514.013 302.949 514.008C303.024 514.933 303.099 515.858 303.164 516.952C303.209 517.644 303.242 518.169 303.321 518.691C303.461 519.611 303.63 520.529 303.786 521.448C303.839 521.527 303.891 521.606 303.9 521.809C303.9 522.434 303.911 522.94 303.997 523.439C304.053 523.761 304.219 524.073 304.336 524.39C304.429 525.153 304.522 525.916 304.542 526.827C304.525 527.222 304.583 527.469 304.64 527.716C304.629 527.801 304.618 527.886 304.462 528.061C304.397 528.521 304.477 528.892 304.557 529.262C304.607 529.341 304.657 529.42 304.663 529.601C304.743 529.83 304.867 529.958 304.991 530.087C305.089 530.277 305.188 530.467 305.266 530.825C305.479 531.59 305.712 532.186 305.946 532.782C306.085 532.993 306.358 533.204 306.341 533.415C306.262 534.369 306.101 535.322 306.051 536.422C306.401 536.623 306.669 536.679 306.937 536.735C306.986 536.959 307.036 537.183 306.96 537.548C306.835 538.507 306.835 539.324 306.836 540.141C307.057 543.318 307.278 546.495 307.43 549.829C307.164 550.558 307.453 550.915 308.53 550.925C308.553 551.063 308.576 551.201 308.453 551.427C308.131 551.763 307.954 552.011 307.778 552.258C307.918 555.257 308.058 558.255 308.133 561.423C308.279 561.712 308.489 561.831 308.698 561.949C308.763 561.954 308.827 561.959 309.029 562.039C309.448 562.134 309.73 562.155 310.011 562.175C310.011 562.175 310.043 562.195 309.982 562.272C309.666 562.536 309.411 562.724 309.156 562.911C309.217 564.481 309.245 566.054 309.37 567.62C309.395 567.92 309.807 568.197 310.113 568.632C310.256 569.322 310.065 570.028 311.693 569.603C311.964 569.589 312.234 569.575 312.741 569.628C313.075 570.033 313.232 570.367 313.261 570.708C313.335 571.585 313.287 572.471 313.432 573.341C313.476 573.604 313.991 573.827 314.29 574.069C314.517 573.82 314.84 573.582 314.947 573.32C315.055 573.052 314.953 572.76 314.941 572.479C314.776 568.823 314.569 565.168 314.482 561.508C314.464 560.758 314.896 559.991 315.121 559.232C315.116 559.081 315.111 558.93 315.302 558.687C316.765 558.524 318.032 558.455 319.298 558.386C319.47 558.511 319.642 558.636 319.88 558.883C320.542 559.315 320.927 559.326 320.901 558.752C320.605 557.961 321.18 557.632 322.783 557.708C323.078 557.544 323.118 557.384 323.158 557.225C323.147 556.867 323.137 556.51 323.234 556.054C323.543 555.961 323.744 555.966 323.944 555.971C324.373 556.398 323.434 557.23 325.225 557.361C325.602 557.457 325.771 557.508 325.939 557.559C326.026 558.171 326.112 558.782 326.184 559.551C326.296 559.82 326.422 559.931 326.549 560.042C326.585 560.119 326.622 560.195 326.627 560.401C326.773 560.728 326.949 560.927 327.126 561.125C327.165 561.206 327.204 561.288 327.189 561.479C327.368 561.921 327.601 562.253 327.834 562.586C327.969 562.839 328.103 563.092 328.214 563.487C328.344 563.764 328.496 563.9 328.649 564.035C328.866 564.24 329.047 564.463 329.306 564.648C331.588 566.279 332.771 568.134 332.326 570.334C332.294 570.493 332.403 570.658 332.45 570.83C333.361 570.62 334.185 570.43 335.301 570.228C335.726 569.239 335.857 568.26 335.987 567.281C337.291 566.71 338.595 566.139 340.123 565.546C340.606 565.616 340.864 565.709 341.123 565.801C341.187 565.943 341.251 566.086 341.267 566.338C341.345 566.576 341.473 566.703 341.6 566.831C341.702 567.087 341.804 567.344 341.883 567.744C341.981 568.008 342.101 568.127 342.221 568.245C342.255 568.321 342.289 568.397 342.291 568.633C342.36 570.515 342.473 572.235 342.557 573.957C342.709 577.098 342.703 577.109 348.062 576.823C348.667 576.791 349.259 576.554 349.857 576.412C349.682 572.461 349.503 568.51 349.34 564.558C349.324 564.175 349.406 563.788 349.655 563.317C349.979 563.067 350.091 562.904 350.203 562.741C350.176 561.974 350.148 561.208 350.223 560.322C350.426 560.11 350.526 560.018 350.626 559.926C351.669 559.872 352.713 559.817 353.946 559.817C354.373 559.932 354.611 559.992 354.848 560.053C354.979 561.05 355.109 562.047 355.339 563.213C355.561 565.099 355.658 566.818 355.826 568.532C355.86 568.877 356.162 569.205 356.34 569.541C356.399 569.556 356.458 569.571 356.627 569.662C356.997 569.74 357.256 569.741 357.515 569.743C357.709 569.418 358.038 569.094 358.072 568.768C358.203 567.489 358.241 566.209 358.534 564.822C358.806 563.924 358.858 563.133 358.909 562.343C358.909 562.343 358.978 562.267 359.149 562.221C359.422 562.011 359.525 561.848 359.628 561.685C359.671 561.479 359.715 561.273 359.906 560.962C360.213 560.588 360.372 560.322 360.573 559.984C360.933 560.382 361.215 560.694 361.497 561.006C361.529 561.085 361.561 561.164 361.573 561.372C361.758 561.619 361.964 561.737 362.17 561.855C362.373 561.97 362.576 562.086 362.879 562.318C363.465 562.485 363.952 562.534 364.438 562.584C364.63 566.244 364.821 569.905 365.007 573.753C365.127 574.007 365.253 574.137 365.378 574.133C367.793 574.048 370.208 573.955 372.62 573.834C372.765 573.827 372.895 573.571 373.031 573.431C372.791 567.931 372.551 562.431 372.484 556.803C373.915 556.6 375.176 556.475 376.429 556.464C377.771 556.453 378.254 556.13 378.202 555.361C378.055 553.19 377.994 551.014 377.857 548.843C377.842 548.605 377.552 548.381 377.39 548.15C377.173 548.123 376.956 548.095 376.622 547.98C376.303 547.72 376.102 547.547 375.9 547.373C375.909 547.259 375.918 547.145 376.117 546.995C376.508 546.837 376.709 546.713 376.91 546.589C377.101 546.148 377.698 545.5 377.41 545.303C376.261 544.52 377.224 544.08 378.033 543.553C378.388 543.321 378.676 543.054 379.128 542.682C379.247 542.007 379.232 541.452 379.217 540.898C379.216 540.748 379.216 540.597 379.343 540.368C379.615 540.268 379.76 540.248 379.904 540.228C380 540.858 379.987 541.507 380.226 542.114C380.411 542.588 380.909 543.011 381.322 543.595C381.672 543.776 381.968 543.817 382.264 543.858C382.242 543.745 382.22 543.633 382.198 543.52C382.564 543.072 382.929 542.623 383.428 542.084C383.862 541.988 384.163 541.982 384.464 541.977C385.297 542.637 386.147 543.289 386.945 543.964C387.065 544.065 386.939 544.269 386.701 544.52C386.606 544.966 386.738 545.318 386.869 545.67C386.945 545.681 387.021 545.692 387.219 545.79C387.584 545.867 387.827 545.857 388.07 545.847C388.276 545.855 388.482 545.863 388.756 545.977C389.029 546.187 389.234 546.291 389.439 546.394C389.473 546.678 389.507 546.962 389.342 547.368C389.158 549.455 389.138 551.422 389.197 553.387C389.272 555.889 389.388 558.39 389.555 560.888C389.574 561.174 389.926 561.557 390.325 561.672C390.627 561.759 391.252 561.489 391.733 561.378C391.739 561.337 391.745 561.296 391.898 561.192C392.054 560.982 392.061 560.834 392.069 560.687C392.093 560.562 392.117 560.438 392.345 560.263C393.103 560.019 393.657 559.826 394.211 559.632C394.345 559.592 394.479 559.552 394.87 559.483C395.253 559.098 395.488 558.737 395.485 558.384C395.472 557.031 395.382 555.681 395.336 554.665C396.162 554.15 396.613 553.87 397.065 553.589C397.032 552.856 396.998 552.124 396.961 551.309C398.23 551.251 399.446 551.196 400.759 551.137C400.917 551.856 401.072 552.564 401.371 553.378C401.764 553.441 402.013 553.398 402.262 553.355C402.477 553.705 402.863 554.046 402.881 554.405C403.179 560.149 403.431 565.896 403.618 571.804C405.379 571.931 407.216 571.897 409.053 571.862C409.009 571.773 408.966 571.684 408.923 571.594C408.58 564.103 408.237 556.612 407.877 548.941C407.549 548.726 407.238 548.691 406.927 548.656C406.805 548.65 406.684 548.644 406.406 548.56C405.783 548.308 405.316 548.134 404.85 547.961C405.044 547.911 405.237 547.862 405.588 547.853C405.962 547.802 406.179 547.711 406.396 547.62C406.543 547.584 406.69 547.549 407.012 547.542C407.303 547.468 407.419 547.366 407.534 547.263C409.498 544.187 407.842 541.132 408.288 537.929C408.336 537.615 408.272 537.439 408.209 537.263C408.248 534.973 408.286 532.682 408.511 530.362C408.825 532.052 408.919 533.775 409.105 535.491C409.145 535.86 409.517 536.206 409.736 536.563C410.489 536.97 411.242 537.377 412.05 537.916C412.46 538.206 412.814 538.363 413.168 538.52C413.536 538.731 413.903 538.942 414.293 539.287C414.071 539.541 413.826 539.66 413.478 539.745C412.731 539.35 412.089 538.988 411.399 538.568C411.168 538.648 410.985 538.787 410.837 539.016C410.958 541.378 411.043 543.65 411.084 545.988C411.272 546.112 411.504 546.171 411.905 546.212C414.869 546.075 417.664 545.956 420.533 545.885C421.622 545.328 420.91 545.036 419.993 544.714C419.16 543.982 418.415 543.302 417.744 542.55C418.064 542.408 418.31 542.337 418.557 542.267C419.394 542.962 420.297 543.633 421.051 544.359C421.86 545.139 422.88 545.512 424.543 545.31C425.591 545.183 426.678 545.198 427.841 545.309C427.582 545.402 427.332 545.507 427.062 545.589C424.553 546.347 424.148 547.055 425.365 548.434C429.925 553.599 433.144 559.02 432.88 565.052C432.798 566.912 432.327 568.778 432.011 570.785C433.018 570.739 434.081 570.798 435.007 570.602C435.442 570.51 435.872 569.918 435.861 569.57C435.726 565.263 435.45 560.961 435.362 556.653C435.343 555.737 436.024 554.802 436.221 553.868C436.479 552.644 436.617 551.414 436.727 550.186C436.787 549.516 436.727 548.842 436.64 548.176C436.553 547.503 436.998 547.24 438.39 547.409C438.422 548.123 438.358 548.897 438.537 549.643C438.616 549.971 439.161 550.259 439.547 550.54C440.334 551.112 441.156 551.668 441.921 552.371C442.027 552.648 442.177 552.784 442.327 552.921C442.395 553.004 442.463 553.087 442.469 553.276C442.587 553.495 442.767 553.608 442.948 553.72C443.099 554.853 443.406 555.983 443.355 557.118C443.309 558.156 443.938 558.475 445.63 558.28C446.513 558.178 447.423 558.184 448.603 558.193C449.879 558.245 450.873 558.245 451.652 558.245C452.006 558.813 452.272 559.241 452.538 559.668C452.583 560.168 452.628 560.668 452.579 561.295C452.709 561.47 452.933 561.517 453.157 561.564C454.286 561.504 455.422 561.394 456.542 561.408C456.962 561.413 457.347 561.706 457.847 562.019C458.641 562.209 459.336 562.249 460.031 562.289C460.17 564.841 460.292 567.394 460.466 569.944C460.489 570.288 460.768 570.619 461.173 571.001C461.594 570.663 461.77 570.28 461.945 569.897C463.482 569.737 465.018 569.577 466.681 569.256C466.769 567.375 466.768 565.654 466.681 563.937C466.64 563.144 466.432 562.359 466.299 561.571C466.558 561.162 466.817 560.753 467.326 560.281C468.813 560.032 470.05 559.847 471.287 559.661C471.287 559.661 471.266 559.65 471.388 559.659C471.728 559.662 471.945 559.656 472.163 559.651C472.711 559.628 473.259 559.605 473.971 559.692C474.256 562.011 474.352 564.221 474.528 566.427C474.553 566.74 474.967 567.031 475.201 567.332C476.342 567.281 477.482 567.229 478.982 567.161C478.73 561.614 478.482 556.124 478.391 550.506C478.728 549.934 478.907 549.49 479.086 549.045C479.76 548.364 480.435 547.683 481.282 546.931C481.605 546.792 481.755 546.723 481.905 546.655C484.569 548.032 486.027 549.66 485.966 551.918C485.861 555.804 486.261 559.678 486.388 563.56C486.409 564.193 486.646 564.592 487.726 564.823C489.437 565.189 490.71 566.242 493.208 565.749C493.145 564.344 493.094 562.911 493.008 561.48C492.974 560.91 492.878 560.38 493.945 559.98C494.274 559.856 494.256 559.417 494.439 559.13C494.597 558.884 494.752 558.479 495.018 558.438C496.483 558.208 496.274 557.604 496.237 557.005C496.175 555.984 496.14 554.961 496.107 554.229C496.777 553.663 497.15 553.294 497.619 552.971C497.993 552.712 498.458 552.352 498.927 552.312C500.713 552.161 502.518 552.121 504.782 552.019C504.956 555.87 505.125 559.601 505.296 563.379C506.396 563.33 507.022 563.301 507.832 563.265C507.798 562.522 507.767 561.836 507.732 561.071C508.852 560.991 509.797 560.923 510.816 560.849C510.984 560.099 511.149 559.362 511.282 558.766C512.744 558.7 513.868 558.649 515.334 558.583C515.445 559.288 515.573 560.095 515.717 561.002C517.383 560.926 518.99 560.853 520.443 560.788C521.259 563.06 522.036 565.221 522.793 567.329C524.587 567.354 525.009 566.925 524.934 566.125C524.791 564.616 524.775 563.099 524.702 561.495C526.212 561.427 527.619 561.363 529.172 561.293C529.258 561.679 529.347 562.079 529.452 562.549C530.129 562.519 530.754 562.49 531.622 562.451C531.564 561.164 531.505 559.882 531.445 558.547C533.345 558.461 535.009 558.385 536.48 558.319C538.87 560.918 538.236 563.783 538.462 566.559C538.499 567.009 538.505 567.46 538.527 567.94C540.481 568.028 542.326 568.002 544.057 568.225C545.272 568.382 546.327 568.884 547.464 569.221C547.807 569.323 548.76 572.37 549.257 572.469C549.459 573.968 549.237 581.355 548.347 581.862C384.464 579.593 257.694 590.988 73.0164 609.656C72.9554 608.308 71.9742 592.84 72.0765 591.377C74.1013 591.165 75.963 591.075 77.825 590.988C78.8642 590.94 79.4833 590.735 79.468 590.008C79.4157 587.525 79.5016 585.036 79.4354 582.553C79.4151 581.791 79.4017 581.094 80.5447 580.55C80.4942 579.436 80.4438 578.321 80.3849 577.021C82.4436 576.928 84.389 576.84 86.6111 576.676C86.9503 575.777 87.126 574.946 87.0459 574.132C86.9498 573.155 87.6978 573.001 89.082 573.181C89.0127 573.392 88.9579 573.558 88.9032 573.725C88.7402 574.441 88.5772 575.158 88.3889 576.054C89.658 576.274 90.9603 576.285 92.2441 576.365C93.2316 576.427 94.1958 576.575 95.1703 576.685C95.3669 576.691 95.5635 576.697 95.8958 576.778C96.2606 576.797 96.4898 576.741 96.719 576.685C96.8983 576.672 97.0776 576.659 97.3392 576.795C97.5406 579.598 97.6327 582.253 97.8155 584.903C97.8371 585.216 98.3561 585.503 98.6445 585.802C98.6445 585.802 98.572 585.85 98.587 585.921C98.6081 586.097 98.5549 586.222 98.6307 586.304C98.8977 586.589 99.209 586.86 99.5035 587.136C99.795 586.844 100.229 586.565 100.341 586.256C100.476 585.886 100.335 585.49 100.313 585.106C100.313 585.106 100.339 585.136 100.472 585.119C100.932 583.805 101.259 582.509 101.586 581.212C102.159 581.147 102.732 581.081 103.591 581.055C104.035 580.93 104.193 580.765 104.351 580.6C104.233 578.37 104.148 576.139 103.978 573.913C103.929 573.261 104.443 573.113 105.625 573.163C106.093 572.823 106.302 572.46 106.421 572.254C106.681 572.463 107.045 572.755 107.409 573.048C108.291 573.008 109.173 572.968 110.265 572.919C110.212 571.746 110.164 570.676 110.28 569.512C110.602 569.404 110.76 569.391 110.917 569.377C110.967 570.483 111.017 571.589 111.069 572.734C112.016 572.759 112.702 572.778 113.586 572.801C113.617 573.48 113.646 574.132 113.702 574.952C114.008 575.189 114.288 575.258 114.567 575.327C114.736 575.642 114.905 575.957 115.184 576.408C115.435 579.711 115.56 582.88 115.745 586.045C115.761 586.304 116.185 586.543 116.419 586.791C117.391 586.718 118.363 586.645 119.544 586.465C119.656 584.199 119.558 582.04 119.456 579.794C120.253 579.868 120.714 579.951 121.18 579.945C121.956 579.935 122.031 579.811 121.69 579.265C121.614 577.935 121.538 576.604 121.635 575.17C122.128 574.84 122.672 574.626 122.731 574.387C123.012 573.236 123.161 572.079 123.357 570.924C123.871 570.984 124.385 571.045 124.795 571.25C124.692 571.631 124.612 571.884 124.711 572.104C125.023 572.803 125.403 573.49 125.754 574.183C125.804 574.281 125.778 574.432 125.887 574.476C127.368 575.07 126.803 576.026 126.933 576.853C127.015 577.373 126.89 577.917 127.063 578.421C127.251 578.972 127.708 578.894 128.087 578.414C128.087 578.414 128.145 578.337 128.32 578.312C128.849 578.285 129.203 578.283 129.557 578.282C129.557 578.282 129.641 578.33 129.612 578.438C129.885 579.016 130.242 579.04 130.664 578.56C130.664 578.56 130.738 578.469 130.953 578.437C131.547 578.405 131.926 578.404 132.305 578.404C132.464 578.546 132.623 578.689 132.839 578.975C134.136 579.423 135.349 579.572 136.403 578.806C136.403 578.806 136.445 578.821 136.586 578.809C137.809 578.766 138.89 578.734 139.971 578.703C139.971 578.703 140.026 578.7 140.058 578.792C142.251 579.153 142.938 578.977 142.903 578.074C142.818 575.876 142.649 573.681 142.514 571.485C142.514 571.485 142.539 571.486 142.643 571.504C142.889 571.388 143.03 571.252 143.171 571.117C143.169 570.961 143.166 570.805 143.297 570.537C143.49 570.006 143.55 569.586 143.61 569.167C143.57 568.94 143.53 568.712 143.703 568.393C144.971 568.024 146.419 568.633 147.189 567.714C147.185 567.614 147.18 567.515 147.318 567.378C147.461 567.341 147.558 567.294 147.558 567.294C148.152 567.568 148.747 567.843 149.4 568.247C149.697 568.471 149.934 568.565 150.172 568.658C150.172 568.658 150.166 568.661 150.169 568.726C150.393 568.884 150.615 568.978 150.837 569.071C150.968 569.432 151.191 569.789 151.213 570.155C151.361 572.541 151.466 574.93 151.503 577.474C151.876 578.285 152.333 578.939 152.789 579.593C153.009 579.607 153.228 579.621 153.52 579.776C153.762 580.635 153.93 581.352 154.099 582.069C154.173 582.4 154.246 582.732 154.341 583.164C155.278 583.122 156.142 583.083 157.195 583.126C157.53 583.395 157.591 583.643 157.838 583.755C158.247 583.939 158.975 584.219 159.211 584.128C159.665 583.951 160.133 583.537 160.135 583.234C160.144 581.338 160.012 579.446 159.964 577.551C159.955 577.214 160.086 576.868 160.206 576.531C160.405 575.976 160.646 575.425 160.869 574.872C160.979 574.776 161.088 574.681 161.382 574.56C161.749 574.427 161.93 574.321 162.112 574.215C163.149 574.169 163.302 573.816 163.281 573.28C163.236 572.14 163.323 570.993 163.631 569.782C164.041 569.463 164.167 569.21 164.315 568.961C164.934 567.923 165.56 566.887 166.183 565.85C166.233 565.934 166.284 566.019 166.255 566.225C166.364 566.59 166.553 566.834 166.742 567.078C166.89 567.22 167.038 567.363 167.199 567.653C167.446 569.938 167.659 572.077 167.951 574.21C167.978 574.404 168.508 574.56 168.804 574.734C169.693 574.684 170.582 574.635 171.704 574.623C172.093 574.524 172.251 574.388 172.408 574.251C172.339 573.084 172.27 571.918 172.428 570.664C173.356 570.569 174.057 570.561 174.992 570.551C175.033 571.465 175.078 572.322 175.109 573.181C175.144 574.137 175.941 574.285 177.3 573.853C177.579 573.83 177.857 573.807 178.367 573.833C178.717 573.515 178.836 573.148 178.956 572.781C179.007 572.646 179.057 572.512 179.3 572.286C179.559 571.627 179.625 571.06 179.691 570.492C179.713 570.458 179.735 570.425 179.965 570.323C180.158 568.683 180.144 567.112 180.13 565.54C180.13 565.54 180.15 565.458 180.318 565.419C180.624 565.227 180.76 565.074 180.896 564.922C181.018 564.816 181.14 564.711 181.468 564.525C181.816 563.834 181.958 563.223 182.153 562.381C182.664 563.158 183.008 563.681 183.352 564.203C183.542 564.393 183.732 564.582 183.912 564.911C184.214 565.314 184.526 565.577 184.837 565.84C184.971 568.238 185.104 570.637 185.154 573.168C185.141 573.394 185.211 573.489 185.282 573.583C185.405 573.543 185.528 573.502 185.65 573.462C187.015 573.394 188.379 573.325 190.066 573.236C190.495 572.85 190.704 572.478 190.691 572.116C190.597 569.375 190.481 566.634 190.319 563.896C190.279 563.229 190.246 562.608 191.375 562.177C191.268 559.056 191.16 555.936 191.201 552.677C191.855 551.382 192.362 550.226 192.868 549.069C193.075 548.825 193.282 548.582 193.696 548.28C194.03 548.064 194.156 547.906 194.283 547.747C195.248 547.218 196.213 546.689 197.441 546.136C197.983 545.758 198.482 545.401 198.499 545.051C198.555 543.888 198.397 542.728 198.41 541.564C198.414 541.21 198.707 540.849 198.868 540.491C198.99 540.49 199.091 540.516 199.141 540.716C199.148 542.056 199.175 543.249 199.229 544.441C199.238 544.645 199.253 544.959 199.46 545.024C200.782 545.446 200.443 546.2 200.496 546.873C200.557 547.643 200.533 548.419 200.633 549.186C200.666 549.435 200.935 549.864 201.156 549.871C202.848 549.922 202.374 550.667 202.516 551.245C202.688 551.951 202.964 552.646 203.196 553.347C203.372 553.344 203.548 553.341 203.868 553.443C204.228 554.315 204.446 555.081 204.663 555.848C204.663 555.848 204.749 555.834 204.812 555.918C205.25 556.056 205.624 556.109 205.999 556.163C206.081 557.493 206.163 558.823 206.206 560.333C206.66 560.593 207.153 560.672 207.646 560.752Z" fill="url(#paint2_linear_61_590)"/>
<defs>
<linearGradient id="paint0_linear_61_590" x1="1353" y1="343.75" x2="7.99965" y2="343.75" gradientUnits="userSpaceOnUse">
<stop stop-color="white"/>
<stop offset="0.217363" stop-color="#0091e6"/>
<stop offset="0.835887" stop-color="#0091e6"/>
<stop offset="1" stop-color="white"/>
</linearGradient>
<linearGradient id="paint1_linear_61_590" x1="1239.9" y1="578.434" x2="763.506" y2="513.556" gradientUnits="userSpaceOnUse">
<stop stop-color="white"/>
<stop offset="1" stop-color="#0091e6"/>
</linearGradient>
<linearGradient id="paint2_linear_61_590" x1="66.0842" y1="580.434" x2="542.477" y2="515.556" gradientUnits="userSpaceOnUse">
<stop stop-color="white"/>
<stop offset="1" stop-color="#0091e6"/>
</linearGradient>
</defs>
</svg>
