<svg width="1792" height="134" viewBox="0 0 1792 134" fill="none" xmlns="http://www.w3.org/2000/svg">
<path d="M0 132.237V1.76317H89.3363V22.5684H23.964V59.5947H81.4071V80.0474H23.964V132.237H0Z" fill="url(#paint0_linear_75_2289)"/>
<path d="M199.051 132.237V1.76317H223.015V132.237H199.051Z" fill="url(#paint1_linear_75_2289)"/>
<path d="M334.777 132.237V1.76317H356.627L416.537 90.2737V1.76317H440.324V132.237H418.475L358.565 45.3132V132.237H334.777Z" fill="url(#paint2_linear_75_2289)"/>
<path d="M552.068 132.237V1.76317H598.938C609.511 1.76317 618.732 3.64387 626.603 7.40527C634.591 11.0491 641.228 15.986 646.514 22.2158C651.8 28.4456 655.735 35.4395 658.32 43.1974C661.022 50.9553 662.372 58.8895 662.372 67C662.372 75.1105 661.022 83.0447 658.32 90.8026C655.735 98.5605 651.8 105.554 646.514 111.784C641.228 118.014 634.591 123.01 626.603 126.771C618.732 130.415 609.511 132.237 598.938 132.237H552.068ZM597.881 22.7447H576.032V111.079H597.881C607.044 111.079 614.621 108.963 620.612 104.732C626.603 100.382 631.067 94.8579 634.003 88.1579C636.94 81.3403 638.409 74.2289 638.409 66.8237C638.409 59.536 636.94 52.5421 634.003 45.8421C631.067 39.0246 626.603 33.5 620.612 29.2684C614.621 24.9193 607.044 22.7447 597.881 22.7447Z" fill="url(#paint3_linear_75_2289)"/>
<path d="M943.356 134C935.251 134 928.32 133.001 922.564 131.003C916.808 129.004 911.991 126.418 908.115 123.245C904.356 120.071 901.36 116.721 899.128 113.195C896.896 109.551 895.193 106.142 894.018 102.968C892.961 99.7947 892.256 97.2088 891.904 95.2105C891.552 93.2123 891.375 92.2132 891.375 92.2132H915.692C915.692 92.2132 915.809 92.9184 916.044 94.3289C916.397 95.7395 917.101 97.5614 918.159 99.7947C919.216 101.911 920.743 104.026 922.74 106.142C924.854 108.258 927.615 110.08 931.022 111.608C934.546 113.018 938.892 113.724 944.061 113.724C952.049 113.724 958.099 111.961 962.21 108.434C966.439 104.79 968.553 100.324 968.553 95.0342C968.553 90.5675 966.968 87.0412 963.796 84.4553C960.624 81.7518 955.925 79.7535 949.699 78.4605L932.431 74.7579C925.735 73.3474 919.451 71.2316 913.577 68.4105C907.821 65.5895 903.181 61.7693 899.657 56.95C896.133 52.1307 894.371 45.9597 894.371 38.4368C894.371 30.5614 896.309 23.7439 900.186 17.9842C904.18 12.2246 909.642 7.81667 916.573 4.76053C923.504 1.58684 931.609 0 940.889 0C949.699 0 956.983 1.29298 962.739 3.87895C968.495 6.46492 973.076 9.6386 976.483 13.4C980.007 17.1614 982.591 20.9228 984.236 24.6842C985.88 28.4456 986.938 31.6193 987.408 34.2053C987.995 36.7912 988.289 38.0842 988.289 38.0842H964.853C964.853 38.0842 964.618 37.2026 964.148 35.4395C963.678 33.5588 962.621 31.443 960.977 29.0921C959.332 26.7412 956.865 24.6842 953.576 22.9211C950.287 21.0404 945.882 20.1 940.361 20.1C932.49 20.1 926.734 21.8632 923.092 25.3895C919.568 28.9158 917.806 32.736 917.806 36.85C917.806 41.0816 919.451 44.3728 922.74 46.7237C926.029 49.0746 930.434 50.8965 935.955 52.1895L954.457 56.0684C961.388 57.5965 967.731 59.8886 973.487 62.9447C979.243 66.0009 983.825 70.0561 987.231 75.1105C990.638 80.0474 992.341 86.2184 992.341 93.6237C992.341 101.146 990.462 107.964 986.703 114.076C982.944 120.189 977.422 125.067 970.139 128.711C962.856 132.237 953.928 134 943.356 134Z" fill="url(#paint4_linear_75_2289)"/>
<path d="M1129.56 132.237V22.5684H1089.38V1.76317H1193.69V22.5684H1153.52V132.237H1129.56Z" fill="url(#paint5_linear_75_2289)"/>
<path d="M1277.22 132.237L1322.15 1.76317H1353.34L1398.45 132.237H1373.43L1364.09 104.732H1311.58L1302.24 132.237H1277.22ZM1318.45 83.9263H1357.22L1337.84 26.2711L1318.45 83.9263Z" fill="url(#paint6_linear_75_2289)"/>
<path d="M1503.61 132.237V1.76317H1592.95V22.5684H1527.58V59.5947H1585.02V80.0474H1527.58V132.237H1503.61Z" fill="url(#paint7_linear_75_2289)"/>
<path d="M1702.66 132.237V1.76317H1792V22.5684H1726.63V59.5947H1784.07V80.0474H1726.63V132.237H1702.66Z" fill="url(#paint8_linear_75_2289)"/>
<defs>
<linearGradient id="paint0_linear_75_2289" x1="896" y1="0" x2="896" y2="134" gradientUnits="userSpaceOnUse">
<stop offset="0.217088" stop-color="white" stop-opacity="0.7"/>
<stop offset="1" stop-color="white" stop-opacity="0"/>
</linearGradient>
<linearGradient id="paint1_linear_75_2289" x1="896" y1="0" x2="896" y2="134" gradientUnits="userSpaceOnUse">
<stop offset="0.217088" stop-color="white" stop-opacity="0.7"/>
<stop offset="1" stop-color="white" stop-opacity="0"/>
</linearGradient>
<linearGradient id="paint2_linear_75_2289" x1="896" y1="0" x2="896" y2="134" gradientUnits="userSpaceOnUse">
<stop offset="0.217088" stop-color="white" stop-opacity="0.7"/>
<stop offset="1" stop-color="white" stop-opacity="0"/>
</linearGradient>
<linearGradient id="paint3_linear_75_2289" x1="896" y1="0" x2="896" y2="134" gradientUnits="userSpaceOnUse">
<stop offset="0.217088" stop-color="white" stop-opacity="0.7"/>
<stop offset="1" stop-color="white" stop-opacity="0"/>
</linearGradient>
<linearGradient id="paint4_linear_75_2289" x1="896" y1="0" x2="896" y2="134" gradientUnits="userSpaceOnUse">
<stop offset="0.217088" stop-color="white" stop-opacity="0.7"/>
<stop offset="1" stop-color="white" stop-opacity="0"/>
</linearGradient>
<linearGradient id="paint5_linear_75_2289" x1="896" y1="0" x2="896" y2="134" gradientUnits="userSpaceOnUse">
<stop offset="0.217088" stop-color="white" stop-opacity="0.7"/>
<stop offset="1" stop-color="white" stop-opacity="0"/>
</linearGradient>
<linearGradient id="paint6_linear_75_2289" x1="896" y1="0" x2="896" y2="134" gradientUnits="userSpaceOnUse">
<stop offset="0.217088" stop-color="white" stop-opacity="0.7"/>
<stop offset="1" stop-color="white" stop-opacity="0"/>
</linearGradient>
<linearGradient id="paint7_linear_75_2289" x1="896" y1="0" x2="896" y2="134" gradientUnits="userSpaceOnUse">
<stop offset="0.217088" stop-color="white" stop-opacity="0.7"/>
<stop offset="1" stop-color="white" stop-opacity="0"/>
</linearGradient>
<linearGradient id="paint8_linear_75_2289" x1="896" y1="0" x2="896" y2="134" gradientUnits="userSpaceOnUse">
<stop offset="0.217088" stop-color="white" stop-opacity="0.7"/>
<stop offset="1" stop-color="white" stop-opacity="0"/>
</linearGradient>
</defs>
</svg>
