<svg width="630" height="271" viewBox="0 0 630 271" fill="none" xmlns="http://www.w3.org/2000/svg">
<g filter="url(#filter0_dd_360_1527)">
<rect x="109" y="3" width="202" height="180" rx="16" fill="white" shape-rendering="crispEdges"/>
<rect x="109.5" y="3.5" width="201" height="179" rx="15.5" stroke="#F1F5F9" shape-rendering="crispEdges"/>
<rect x="119" y="13" width="32" height="32" rx="12" fill="#9333EA" fill-opacity="0.06"/>
<rect x="119.5" y="13.5" width="31" height="31" rx="11.5" stroke="#9333EA" stroke-opacity="0.16"/>
<path d="M140.375 28H136C135.602 28 135.221 27.842 134.939 27.5607C134.658 27.2794 134.5 26.8978 134.5 26.5V22.125C134.5 22.0918 134.487 22.0601 134.463 22.0366C134.44 22.0132 134.408 22 134.375 22H131.5C130.97 22 130.461 22.2107 130.086 22.5858C129.711 22.9609 129.5 23.4696 129.5 24V34C129.5 34.5304 129.711 35.0391 130.086 35.4142C130.461 35.7893 130.97 36 131.5 36H138.5C139.03 36 139.539 35.7893 139.914 35.4142C140.289 35.0391 140.5 34.5304 140.5 34V28.125C140.5 28.0918 140.487 28.0601 140.463 28.0366C140.44 28.0132 140.408 28 140.375 28Z" fill="#9333EA"/>
<path d="M140.101 26.8936L135.607 22.3995C135.598 22.3908 135.587 22.3849 135.575 22.3825C135.563 22.3801 135.55 22.3814 135.539 22.3861C135.527 22.3908 135.517 22.3988 135.511 22.409C135.504 22.4192 135.5 22.4313 135.5 22.4436V26.5001C135.5 26.6328 135.553 26.7599 135.646 26.8537C135.74 26.9475 135.867 27.0001 136 27.0001H140.057C140.069 27.0001 140.081 26.9964 140.091 26.9895C140.101 26.9827 140.109 26.9729 140.114 26.9615C140.119 26.9501 140.12 26.9376 140.118 26.9255C140.115 26.9134 140.109 26.9023 140.101 26.8936Z" fill="#9333EA"/>
<path d="M159.96 33.5V24.62H165.6V25.652H161.136V28.46H165.048V29.492H161.136V32.468H165.66V33.5H159.96ZM167.281 33.5V27.14H168.421V28.064H168.469C168.533 27.944 168.633 27.804 168.769 27.644C168.905 27.476 169.089 27.332 169.321 27.212C169.561 27.084 169.861 27.02 170.221 27.02C170.693 27.02 171.089 27.136 171.409 27.368C171.737 27.592 171.981 27.896 172.141 28.28H172.153C172.329 27.928 172.577 27.632 172.897 27.392C173.225 27.144 173.649 27.02 174.169 27.02C174.857 27.02 175.385 27.256 175.753 27.728C176.129 28.192 176.317 28.792 176.317 29.528V33.5H175.177V29.588C175.177 29.116 175.065 28.736 174.841 28.448C174.617 28.152 174.293 28.004 173.869 28.004C173.501 28.004 173.205 28.104 172.981 28.304C172.765 28.504 172.609 28.752 172.513 29.048C172.417 29.344 172.369 29.64 172.369 29.936V33.5H171.229V29.588C171.229 29.116 171.117 28.736 170.893 28.448C170.677 28.152 170.353 28.004 169.921 28.004C169.553 28.004 169.257 28.104 169.033 28.304C168.817 28.504 168.661 28.756 168.565 29.06C168.469 29.356 168.421 29.648 168.421 29.936V33.5H167.281ZM178.112 35.852V27.14H179.252V28.148H179.324C179.42 27.996 179.548 27.832 179.708 27.656C179.876 27.48 180.096 27.332 180.368 27.212C180.64 27.084 180.976 27.02 181.376 27.02C181.856 27.02 182.276 27.116 182.636 27.308C182.996 27.492 183.296 27.744 183.536 28.064C183.776 28.376 183.956 28.728 184.076 29.12C184.196 29.512 184.256 29.912 184.256 30.32C184.256 30.728 184.196 31.128 184.076 31.52C183.956 31.912 183.776 32.268 183.536 32.588C183.296 32.9 182.996 33.152 182.636 33.344C182.276 33.528 181.856 33.62 181.376 33.62C180.976 33.62 180.64 33.556 180.368 33.428C180.096 33.3 179.876 33.148 179.708 32.972C179.548 32.796 179.42 32.636 179.324 32.492H179.252V35.852H178.112ZM179.276 30.32C179.276 30.704 179.344 31.076 179.48 31.436C179.624 31.788 179.836 32.08 180.116 32.312C180.404 32.536 180.76 32.648 181.184 32.648C181.616 32.648 181.972 32.536 182.252 32.312C182.54 32.08 182.752 31.788 182.888 31.436C183.032 31.076 183.104 30.704 183.104 30.32C183.104 29.928 183.032 29.556 182.888 29.204C182.752 28.852 182.54 28.564 182.252 28.34C181.972 28.108 181.616 27.992 181.184 27.992C180.76 27.992 180.404 28.108 180.116 28.34C179.836 28.564 179.624 28.852 179.48 29.204C179.344 29.556 179.276 29.928 179.276 30.32ZM185.94 33.5L185.952 24.38H187.08V33.5H185.94ZM191.891 33.62C191.211 33.62 190.639 33.464 190.175 33.152C189.711 32.832 189.359 32.42 189.119 31.916C188.879 31.412 188.759 30.88 188.759 30.32C188.759 29.752 188.879 29.22 189.119 28.724C189.359 28.22 189.711 27.812 190.175 27.5C190.639 27.18 191.211 27.02 191.891 27.02C192.571 27.02 193.143 27.18 193.607 27.5C194.071 27.812 194.423 28.22 194.663 28.724C194.903 29.22 195.023 29.752 195.023 30.32C195.023 30.88 194.903 31.412 194.663 31.916C194.423 32.42 194.071 32.832 193.607 33.152C193.143 33.464 192.571 33.62 191.891 33.62ZM191.891 32.624C192.323 32.624 192.683 32.516 192.971 32.3C193.267 32.076 193.487 31.788 193.631 31.436C193.783 31.084 193.859 30.712 193.859 30.32C193.859 29.92 193.783 29.548 193.631 29.204C193.487 28.852 193.267 28.568 192.971 28.352C192.683 28.128 192.323 28.016 191.891 28.016C191.467 28.016 191.107 28.128 190.811 28.352C190.515 28.568 190.291 28.852 190.139 29.204C189.995 29.548 189.923 29.92 189.923 30.32C189.923 30.712 189.995 31.084 190.139 31.436C190.291 31.788 190.515 32.076 190.811 32.3C191.107 32.516 191.467 32.624 191.891 32.624ZM196.396 35.84C196.212 35.84 196.056 35.832 195.928 35.816C195.8 35.8 195.736 35.792 195.736 35.792V34.82C195.736 34.82 195.8 34.824 195.928 34.832C196.064 34.848 196.208 34.856 196.36 34.856C196.832 34.856 197.216 34.756 197.512 34.556C197.816 34.364 198.072 34.044 198.28 33.596L195.82 27.14H197.008L198.844 32.108L200.692 27.14H201.892L199.432 33.512C199.12 34.312 198.716 34.9 198.22 35.276C197.732 35.652 197.124 35.84 196.396 35.84ZM203.153 33.5V27.14H204.293V28.064H204.341C204.405 27.944 204.505 27.804 204.641 27.644C204.777 27.476 204.961 27.332 205.193 27.212C205.433 27.084 205.733 27.02 206.093 27.02C206.565 27.02 206.961 27.136 207.281 27.368C207.609 27.592 207.853 27.896 208.013 28.28H208.025C208.201 27.928 208.449 27.632 208.769 27.392C209.097 27.144 209.521 27.02 210.041 27.02C210.729 27.02 211.257 27.256 211.625 27.728C212.001 28.192 212.189 28.792 212.189 29.528V33.5H211.049V29.588C211.049 29.116 210.937 28.736 210.713 28.448C210.489 28.152 210.165 28.004 209.741 28.004C209.373 28.004 209.077 28.104 208.853 28.304C208.637 28.504 208.481 28.752 208.385 29.048C208.289 29.344 208.241 29.64 208.241 29.936V33.5H207.101V29.588C207.101 29.116 206.989 28.736 206.765 28.448C206.549 28.152 206.225 28.004 205.793 28.004C205.425 28.004 205.129 28.104 204.905 28.304C204.689 28.504 204.533 28.756 204.437 29.06C204.341 29.356 204.293 29.648 204.293 29.936V33.5H203.153ZM216.755 33.62C216.235 33.62 215.783 33.528 215.399 33.344C215.023 33.152 214.711 32.896 214.463 32.576C214.223 32.256 214.043 31.904 213.923 31.52C213.803 31.128 213.743 30.728 213.743 30.32C213.743 29.92 213.799 29.524 213.911 29.132C214.031 28.74 214.211 28.384 214.451 28.064C214.699 27.744 215.007 27.492 215.375 27.308C215.751 27.116 216.195 27.02 216.707 27.02C217.251 27.02 217.731 27.144 218.147 27.392C218.563 27.64 218.891 28.008 219.131 28.496C219.371 28.984 219.491 29.596 219.491 30.332V30.668H214.895C214.919 31.028 215.003 31.36 215.147 31.664C215.299 31.96 215.511 32.2 215.783 32.384C216.055 32.56 216.379 32.648 216.755 32.648C217.083 32.648 217.347 32.596 217.547 32.492C217.755 32.38 217.919 32.252 218.039 32.108C218.159 31.964 218.239 31.84 218.279 31.736C218.327 31.624 218.351 31.568 218.351 31.568H219.419C219.419 31.568 219.399 31.64 219.359 31.784C219.319 31.92 219.247 32.088 219.143 32.288C219.039 32.488 218.887 32.692 218.687 32.9C218.487 33.1 218.231 33.272 217.919 33.416C217.607 33.552 217.219 33.62 216.755 33.62ZM214.907 29.78H218.375C218.359 29.364 218.271 29.028 218.111 28.772C217.951 28.508 217.747 28.312 217.499 28.184C217.251 28.056 216.987 27.992 216.707 27.992C216.203 27.992 215.791 28.156 215.471 28.484C215.151 28.804 214.963 29.236 214.907 29.78ZM221.047 33.5V27.14H222.187V28.064H222.259C222.315 27.968 222.407 27.836 222.535 27.668C222.671 27.5 222.863 27.352 223.111 27.224C223.359 27.088 223.671 27.02 224.047 27.02C224.511 27.02 224.907 27.128 225.235 27.344C225.563 27.552 225.811 27.836 225.979 28.196C226.155 28.556 226.243 28.96 226.243 29.408V33.5H225.103V29.48C225.103 29.056 224.983 28.704 224.743 28.424C224.511 28.144 224.171 28.004 223.723 28.004C223.363 28.004 223.071 28.096 222.847 28.28C222.623 28.456 222.455 28.692 222.343 28.988C222.239 29.276 222.187 29.584 222.187 29.912V33.5H221.047ZM230.392 33.62C229.736 33.62 229.24 33.452 228.904 33.116C228.576 32.78 228.412 32.308 228.412 31.7V28.076H227.272V27.14H228.412V25.544H229.552V27.14H231.1V28.076H229.552V31.7C229.552 32.02 229.64 32.256 229.816 32.408C229.992 32.552 230.248 32.624 230.584 32.624C230.76 32.624 230.928 32.612 231.088 32.588C231.248 32.564 231.328 32.552 231.328 32.552V33.524C231.328 33.524 231.236 33.54 231.052 33.572C230.868 33.604 230.648 33.62 230.392 33.62ZM239.61 33.62C238.914 33.62 238.302 33.492 237.774 33.236C237.246 32.972 236.806 32.624 236.454 32.192C236.11 31.752 235.85 31.264 235.674 30.728C235.498 30.184 235.41 29.628 235.41 29.06C235.41 28.492 235.498 27.936 235.674 27.392C235.85 26.848 236.11 26.36 236.454 25.928C236.806 25.488 237.246 25.14 237.774 24.884C238.302 24.628 238.914 24.5 239.61 24.5C240.186 24.5 240.678 24.576 241.086 24.728C241.502 24.872 241.846 25.06 242.118 25.292C242.398 25.524 242.622 25.772 242.79 26.036C242.966 26.3 243.094 26.548 243.174 26.78C243.262 27.012 243.318 27.204 243.342 27.356C243.374 27.5 243.39 27.572 243.39 27.572H242.214C242.214 27.572 242.198 27.508 242.166 27.38C242.134 27.244 242.07 27.08 241.974 26.888C241.878 26.688 241.734 26.488 241.542 26.288C241.35 26.088 241.098 25.924 240.786 25.796C240.474 25.66 240.086 25.592 239.622 25.592C239.118 25.592 238.678 25.692 238.302 25.892C237.926 26.084 237.61 26.348 237.354 26.684C237.106 27.012 236.918 27.384 236.79 27.8C236.67 28.208 236.61 28.628 236.61 29.06C236.61 29.492 236.67 29.916 236.79 30.332C236.918 30.74 237.106 31.112 237.354 31.448C237.61 31.776 237.926 32.04 238.302 32.24C238.678 32.432 239.118 32.528 239.622 32.528C240.086 32.528 240.474 32.46 240.786 32.324C241.098 32.188 241.35 32.024 241.542 31.832C241.734 31.632 241.878 31.436 241.974 31.244C242.07 31.044 242.134 30.876 242.166 30.74C242.198 30.604 242.214 30.536 242.214 30.536H243.39C243.39 30.536 243.374 30.612 243.342 30.764C243.318 30.908 243.262 31.1 243.174 31.34C243.094 31.572 242.966 31.82 242.79 32.084C242.622 32.34 242.398 32.588 242.118 32.828C241.846 33.06 241.502 33.252 241.086 33.404C240.678 33.548 240.186 33.62 239.61 33.62ZM247.907 33.62C247.227 33.62 246.655 33.464 246.191 33.152C245.727 32.832 245.375 32.42 245.135 31.916C244.895 31.412 244.775 30.88 244.775 30.32C244.775 29.752 244.895 29.22 245.135 28.724C245.375 28.22 245.727 27.812 246.191 27.5C246.655 27.18 247.227 27.02 247.907 27.02C248.587 27.02 249.159 27.18 249.623 27.5C250.087 27.812 250.439 28.22 250.679 28.724C250.919 29.22 251.039 29.752 251.039 30.32C251.039 30.88 250.919 31.412 250.679 31.916C250.439 32.42 250.087 32.832 249.623 33.152C249.159 33.464 248.587 33.62 247.907 33.62ZM247.907 32.624C248.339 32.624 248.699 32.516 248.987 32.3C249.283 32.076 249.503 31.788 249.647 31.436C249.799 31.084 249.875 30.712 249.875 30.32C249.875 29.92 249.799 29.548 249.647 29.204C249.503 28.852 249.283 28.568 248.987 28.352C248.699 28.128 248.339 28.016 247.907 28.016C247.483 28.016 247.123 28.128 246.827 28.352C246.531 28.568 246.307 28.852 246.155 29.204C246.011 29.548 245.939 29.92 245.939 30.32C245.939 30.712 246.011 31.084 246.155 31.436C246.307 31.788 246.531 32.076 246.827 32.3C247.123 32.516 247.483 32.624 247.907 32.624ZM252.594 33.5V27.14H253.734V28.064H253.806C253.862 27.968 253.954 27.836 254.082 27.668C254.218 27.5 254.41 27.352 254.658 27.224C254.906 27.088 255.218 27.02 255.594 27.02C256.058 27.02 256.454 27.128 256.782 27.344C257.11 27.552 257.358 27.836 257.526 28.196C257.702 28.556 257.79 28.96 257.79 29.408V33.5H256.65V29.48C256.65 29.056 256.53 28.704 256.29 28.424C256.058 28.144 255.718 28.004 255.27 28.004C254.91 28.004 254.618 28.096 254.394 28.28C254.17 28.456 254.002 28.692 253.89 28.988C253.786 29.276 253.734 29.584 253.734 29.912V33.5H252.594ZM261.938 33.62C261.282 33.62 260.786 33.452 260.45 33.116C260.122 32.78 259.958 32.308 259.958 31.7V28.076H258.818V27.14H259.958V25.544H261.098V27.14H262.646V28.076H261.098V31.7C261.098 32.02 261.186 32.256 261.362 32.408C261.538 32.552 261.794 32.624 262.13 32.624C262.306 32.624 262.474 32.612 262.634 32.588C262.794 32.564 262.874 32.552 262.874 32.552V33.524C262.874 33.524 262.782 33.54 262.598 33.572C262.414 33.604 262.194 33.62 261.938 33.62ZM264.371 33.5V27.14H265.511V27.932H265.559C265.695 27.692 265.895 27.48 266.159 27.296C266.423 27.112 266.795 27.02 267.275 27.02C267.411 27.02 267.535 27.028 267.647 27.044C267.759 27.052 267.815 27.056 267.815 27.056V28.148C267.815 28.148 267.751 28.144 267.623 28.136C267.503 28.12 267.375 28.112 267.239 28.112C266.687 28.112 266.259 28.272 265.955 28.592C265.659 28.904 265.511 29.416 265.511 30.128V33.5H264.371ZM271.35 27.02C271.75 27.02 272.086 27.084 272.358 27.212C272.63 27.34 272.85 27.492 273.018 27.668C273.186 27.836 273.314 27.996 273.402 28.148H273.474V27.14H274.614V33.5H273.474V32.492H273.402C273.314 32.644 273.186 32.808 273.018 32.984C272.85 33.16 272.63 33.312 272.358 33.44C272.086 33.56 271.75 33.62 271.35 33.62C270.87 33.62 270.45 33.528 270.09 33.344C269.73 33.152 269.43 32.9 269.19 32.588C268.95 32.268 268.77 31.912 268.65 31.52C268.53 31.128 268.47 30.728 268.47 30.32C268.47 29.912 268.53 29.512 268.65 29.12C268.77 28.728 268.95 28.376 269.19 28.064C269.43 27.744 269.73 27.492 270.09 27.308C270.45 27.116 270.87 27.02 271.35 27.02ZM271.542 27.992C271.118 27.992 270.762 28.108 270.474 28.34C270.186 28.564 269.97 28.852 269.826 29.204C269.69 29.556 269.622 29.928 269.622 30.32C269.622 30.704 269.69 31.076 269.826 31.436C269.97 31.788 270.186 32.08 270.474 32.312C270.762 32.536 271.118 32.648 271.542 32.648C271.966 32.648 272.318 32.536 272.598 32.312C272.886 32.08 273.098 31.788 273.234 31.436C273.378 31.076 273.45 30.704 273.45 30.32C273.45 29.928 273.378 29.556 273.234 29.204C273.098 28.852 272.886 28.564 272.598 28.34C272.318 28.108 271.966 27.992 271.542 27.992ZM279.301 33.62C278.781 33.62 278.325 33.528 277.933 33.344C277.541 33.152 277.213 32.9 276.949 32.588C276.693 32.268 276.497 31.912 276.361 31.52C276.233 31.128 276.169 30.728 276.169 30.32C276.169 29.912 276.233 29.516 276.361 29.132C276.489 28.74 276.681 28.384 276.937 28.064C277.201 27.744 277.529 27.492 277.921 27.308C278.313 27.116 278.773 27.02 279.301 27.02C279.813 27.02 280.237 27.096 280.573 27.248C280.909 27.4 281.177 27.592 281.377 27.824C281.585 28.048 281.737 28.276 281.833 28.508C281.937 28.732 282.005 28.92 282.037 29.072C282.069 29.224 282.085 29.3 282.085 29.3H280.981C280.981 29.3 280.961 29.236 280.921 29.108C280.881 28.972 280.805 28.82 280.693 28.652C280.581 28.484 280.413 28.336 280.189 28.208C279.965 28.072 279.669 28.004 279.301 28.004C278.861 28.004 278.489 28.116 278.185 28.34C277.889 28.556 277.665 28.84 277.513 29.192C277.369 29.544 277.297 29.92 277.297 30.32C277.297 30.72 277.369 31.096 277.513 31.448C277.665 31.8 277.889 32.088 278.185 32.312C278.489 32.528 278.861 32.636 279.301 32.636C279.669 32.636 279.965 32.572 280.189 32.444C280.413 32.308 280.581 32.156 280.693 31.988C280.805 31.82 280.881 31.672 280.921 31.544C280.961 31.408 280.981 31.34 280.981 31.34H282.085C282.085 31.34 282.069 31.416 282.037 31.568C282.005 31.72 281.937 31.912 281.833 32.144C281.737 32.368 281.585 32.596 281.377 32.828C281.177 33.052 280.909 33.24 280.573 33.392C280.237 33.544 279.813 33.62 279.301 33.62ZM286.349 33.62C285.693 33.62 285.197 33.452 284.861 33.116C284.533 32.78 284.369 32.308 284.369 31.7V28.076H283.229V27.14H284.369V25.544H285.509V27.14H287.057V28.076H285.509V31.7C285.509 32.02 285.597 32.256 285.773 32.408C285.949 32.552 286.205 32.624 286.541 32.624C286.717 32.624 286.885 32.612 287.045 32.588C287.205 32.564 287.285 32.552 287.285 32.552V33.524C287.285 33.524 287.193 33.54 287.009 33.572C286.825 33.604 286.605 33.62 286.349 33.62ZM291.109 33.62C290.621 33.62 290.217 33.552 289.897 33.416C289.585 33.28 289.337 33.112 289.153 32.912C288.969 32.704 288.833 32.5 288.745 32.3C288.657 32.092 288.601 31.92 288.577 31.784C288.553 31.648 288.541 31.58 288.541 31.58H289.693C289.693 31.58 289.705 31.636 289.729 31.748C289.761 31.852 289.821 31.976 289.909 32.12C290.005 32.256 290.149 32.38 290.341 32.492C290.541 32.596 290.805 32.648 291.133 32.648C291.509 32.648 291.801 32.56 292.009 32.384C292.217 32.2 292.321 31.976 292.321 31.712C292.321 31.48 292.237 31.296 292.069 31.16C291.909 31.024 291.677 30.92 291.373 30.848L290.509 30.644C290.189 30.564 289.889 30.456 289.609 30.32C289.329 30.184 289.101 30 288.925 29.768C288.757 29.528 288.673 29.232 288.673 28.88C288.673 28.336 288.877 27.892 289.285 27.548C289.693 27.196 290.225 27.02 290.881 27.02C291.321 27.02 291.685 27.084 291.973 27.212C292.261 27.332 292.489 27.484 292.657 27.668C292.833 27.852 292.961 28.036 293.041 28.22C293.129 28.404 293.185 28.56 293.209 28.688C293.233 28.808 293.245 28.868 293.245 28.868H292.141C292.141 28.868 292.129 28.824 292.105 28.736C292.081 28.64 292.025 28.536 291.937 28.424C291.857 28.304 291.733 28.2 291.565 28.112C291.397 28.016 291.173 27.968 290.893 27.968C290.509 27.968 290.229 28.056 290.053 28.232C289.877 28.408 289.789 28.6 289.789 28.808C289.789 29.008 289.869 29.172 290.029 29.3C290.197 29.42 290.413 29.512 290.677 29.576L291.553 29.78C292.097 29.908 292.545 30.12 292.897 30.416C293.257 30.704 293.437 31.12 293.437 31.664C293.437 32.016 293.345 32.344 293.161 32.648C292.977 32.944 292.713 33.18 292.369 33.356C292.025 33.532 291.605 33.62 291.109 33.62Z" fill="#94A3B8"/>
<rect x="119" y="53" width="182" height="10" rx="4" fill="#F1F5F9"/>
<rect x="119" y="67" width="117" height="10" rx="4" fill="#F1F5F9"/>
<rect x="119" y="85" width="182" height="10" rx="4" fill="#F1F5F9"/>
<rect x="119" y="99" width="182" height="10" rx="4" fill="#F1F5F9"/>
<rect x="119" y="117" width="182" height="10" rx="4" fill="#F1F5F9"/>
<rect x="119" y="131" width="182" height="10" rx="4" fill="#F1F5F9"/>
<rect x="119" y="149" width="182" height="10" rx="4" fill="#F1F5F9"/>
<rect x="119" y="163" width="117" height="10" rx="4" fill="#F1F5F9"/>
</g>
<g filter="url(#filter1_dd_360_1527)">
<rect x="319" y="3" width="202" height="180" rx="16" fill="white" shape-rendering="crispEdges"/>
<rect x="319.5" y="3.5" width="201" height="179" rx="15.5" stroke="#F1F5F9" shape-rendering="crispEdges"/>
<rect x="329" y="13" width="32" height="32" rx="12" fill="#E11D48" fill-opacity="0.06"/>
<rect x="329.5" y="13.5" width="31" height="31" rx="11.5" stroke="#E11D48" stroke-opacity="0.16"/>
<path d="M350.375 28H346C345.602 28 345.221 27.842 344.939 27.5607C344.658 27.2794 344.5 26.8978 344.5 26.5V22.125C344.5 22.0918 344.487 22.0601 344.463 22.0366C344.44 22.0132 344.408 22 344.375 22H341.5C340.97 22 340.461 22.2107 340.086 22.5858C339.711 22.9609 339.5 23.4696 339.5 24V34C339.5 34.5304 339.711 35.0391 340.086 35.4142C340.461 35.7893 340.97 36 341.5 36H348.5C349.03 36 349.539 35.7893 349.914 35.4142C350.289 35.0391 350.5 34.5304 350.5 34V28.125C350.5 28.0918 350.487 28.0601 350.463 28.0366C350.44 28.0132 350.408 28 350.375 28Z" fill="#E11D48"/>
<path d="M350.101 26.8936L345.607 22.3995C345.598 22.3908 345.587 22.3849 345.575 22.3825C345.563 22.3801 345.55 22.3814 345.539 22.3861C345.527 22.3908 345.517 22.3988 345.511 22.409C345.504 22.4192 345.5 22.4313 345.5 22.4436V26.5001C345.5 26.6328 345.553 26.7599 345.646 26.8537C345.74 26.9475 345.867 27.0001 346 27.0001H350.057C350.069 27.0001 350.081 26.9964 350.091 26.9895C350.101 26.9827 350.109 26.9729 350.114 26.9615C350.119 26.9501 350.12 26.9376 350.118 26.9255C350.115 26.9134 350.109 26.9023 350.101 26.8936Z" fill="#E11D48"/>
<path d="M372.936 26.12C372.424 26.12 371.984 26.056 371.616 25.928C371.256 25.792 370.956 25.62 370.716 25.412C370.476 25.196 370.284 24.972 370.14 24.74C369.996 24.508 369.888 24.288 369.816 24.08C369.744 23.864 369.696 23.692 369.672 23.564C369.656 23.428 369.648 23.36 369.648 23.36H370.848C370.848 23.36 370.86 23.416 370.884 23.528C370.908 23.64 370.956 23.78 371.028 23.948C371.108 24.116 371.224 24.288 371.376 24.464C371.528 24.632 371.732 24.772 371.988 24.884C372.244 24.996 372.568 25.052 372.96 25.052C373.552 25.052 374.02 24.912 374.364 24.632C374.708 24.344 374.88 23.972 374.88 23.516C374.88 23.124 374.748 22.82 374.484 22.604C374.228 22.388 373.86 22.22 373.38 22.1L372.204 21.812C371.788 21.708 371.4 21.564 371.04 21.38C370.688 21.188 370.404 20.94 370.188 20.636C369.98 20.324 369.876 19.936 369.876 19.472C369.876 18.952 370.004 18.508 370.26 18.14C370.516 17.772 370.864 17.492 371.304 17.3C371.744 17.1 372.244 17 372.804 17C373.348 17 373.8 17.084 374.16 17.252C374.52 17.42 374.808 17.628 375.024 17.876C375.24 18.116 375.4 18.36 375.504 18.608C375.608 18.848 375.676 19.052 375.708 19.22C375.74 19.388 375.756 19.472 375.756 19.472H374.604C374.604 19.472 374.588 19.4 374.556 19.256C374.524 19.112 374.448 18.948 374.328 18.764C374.208 18.572 374.024 18.404 373.776 18.26C373.528 18.116 373.192 18.044 372.768 18.044C372.192 18.044 371.756 18.18 371.46 18.452C371.172 18.724 371.028 19.036 371.028 19.388C371.028 19.708 371.144 19.968 371.376 20.168C371.608 20.36 371.928 20.508 372.336 20.612L373.608 20.924C374.064 21.036 374.476 21.2 374.844 21.416C375.212 21.624 375.504 21.896 375.72 22.232C375.936 22.56 376.044 22.964 376.044 23.444C376.044 23.924 375.924 24.368 375.684 24.776C375.452 25.184 375.104 25.512 374.64 25.76C374.184 26 373.616 26.12 372.936 26.12ZM377.577 26V16.88H378.717V22.184L381.249 19.64H382.737L379.809 22.532L382.797 26H381.345L378.717 22.94V26H377.577ZM384.857 18.428C384.641 18.428 384.461 18.356 384.317 18.212C384.181 18.068 384.113 17.896 384.113 17.696C384.113 17.488 384.181 17.312 384.317 17.168C384.461 17.024 384.641 16.952 384.857 16.952C385.065 16.952 385.241 17.024 385.385 17.168C385.529 17.312 385.601 17.488 385.601 17.696C385.601 17.896 385.529 18.068 385.385 18.212C385.241 18.356 385.065 18.428 384.857 18.428ZM384.293 26V19.64H385.433V26H384.293ZM387.398 26L387.41 16.88H388.538V26H387.398ZM390.456 26L390.468 16.88H391.596V26H390.456ZM398.812 26L395.68 17.12H396.928L399.556 24.656L402.184 17.12H403.432L400.288 26H398.812ZM406.986 26.12C406.466 26.12 406.014 26.028 405.63 25.844C405.254 25.652 404.942 25.396 404.694 25.076C404.454 24.756 404.274 24.404 404.154 24.02C404.034 23.628 403.974 23.228 403.974 22.82C403.974 22.42 404.03 22.024 404.142 21.632C404.262 21.24 404.442 20.884 404.682 20.564C404.93 20.244 405.238 19.992 405.606 19.808C405.982 19.616 406.426 19.52 406.938 19.52C407.482 19.52 407.962 19.644 408.378 19.892C408.794 20.14 409.122 20.508 409.362 20.996C409.602 21.484 409.722 22.096 409.722 22.832V23.168H405.126C405.15 23.528 405.234 23.86 405.378 24.164C405.53 24.46 405.742 24.7 406.014 24.884C406.286 25.06 406.61 25.148 406.986 25.148C407.314 25.148 407.578 25.096 407.778 24.992C407.986 24.88 408.15 24.752 408.27 24.608C408.39 24.464 408.47 24.34 408.51 24.236C408.558 24.124 408.582 24.068 408.582 24.068H409.65C409.65 24.068 409.63 24.14 409.59 24.284C409.55 24.42 409.478 24.588 409.374 24.788C409.27 24.988 409.118 25.192 408.918 25.4C408.718 25.6 408.462 25.772 408.15 25.916C407.838 26.052 407.45 26.12 406.986 26.12ZM405.138 22.28H408.606C408.59 21.864 408.502 21.528 408.342 21.272C408.182 21.008 407.978 20.812 407.73 20.684C407.482 20.556 407.218 20.492 406.938 20.492C406.434 20.492 406.022 20.656 405.702 20.984C405.382 21.304 405.194 21.736 405.138 22.28ZM411.278 26V19.64H412.418V20.432H412.466C412.602 20.192 412.802 19.98 413.066 19.796C413.33 19.612 413.702 19.52 414.182 19.52C414.318 19.52 414.442 19.528 414.554 19.544C414.666 19.552 414.722 19.556 414.722 19.556V20.648C414.722 20.648 414.658 20.644 414.53 20.636C414.41 20.62 414.282 20.612 414.146 20.612C413.594 20.612 413.166 20.772 412.862 21.092C412.566 21.404 412.418 21.916 412.418 22.628V26H411.278ZM416.955 18.428C416.739 18.428 416.559 18.356 416.415 18.212C416.279 18.068 416.211 17.896 416.211 17.696C416.211 17.488 416.279 17.312 416.415 17.168C416.559 17.024 416.739 16.952 416.955 16.952C417.163 16.952 417.339 17.024 417.483 17.168C417.627 17.312 417.699 17.488 417.699 17.696C417.699 17.896 417.627 18.068 417.483 18.212C417.339 18.356 417.163 18.428 416.955 18.428ZM416.391 26V19.64H417.531V26H416.391ZM420.119 26V20.576H419.075V19.64H420.119V18.86C420.119 18.524 420.179 18.196 420.299 17.876C420.419 17.548 420.619 17.28 420.899 17.072C421.179 16.864 421.559 16.76 422.039 16.76C422.271 16.76 422.455 16.78 422.591 16.82C422.735 16.852 422.807 16.868 422.807 16.868V17.768C422.807 17.768 422.743 17.756 422.615 17.732C422.495 17.7 422.355 17.684 422.195 17.684C421.827 17.684 421.579 17.796 421.451 18.02C421.323 18.244 421.259 18.524 421.259 18.86V19.64H425.399V26H424.259V20.576H421.259V26H420.119ZM424.823 18.428C424.607 18.428 424.427 18.356 424.283 18.212C424.147 18.068 424.079 17.896 424.079 17.696C424.079 17.488 424.147 17.312 424.283 17.168C424.427 17.024 424.607 16.952 424.823 16.952C425.031 16.952 425.207 17.024 425.351 17.168C425.495 17.312 425.567 17.488 425.567 17.696C425.567 17.896 425.495 18.068 425.351 18.212C425.207 18.356 425.031 18.428 424.823 18.428ZM430.262 26.12C429.742 26.12 429.286 26.028 428.894 25.844C428.502 25.652 428.174 25.4 427.91 25.088C427.654 24.768 427.458 24.412 427.322 24.02C427.194 23.628 427.13 23.228 427.13 22.82C427.13 22.412 427.194 22.016 427.322 21.632C427.45 21.24 427.642 20.884 427.898 20.564C428.162 20.244 428.49 19.992 428.882 19.808C429.274 19.616 429.734 19.52 430.262 19.52C430.774 19.52 431.198 19.596 431.534 19.748C431.87 19.9 432.138 20.092 432.338 20.324C432.546 20.548 432.698 20.776 432.794 21.008C432.898 21.232 432.966 21.42 432.998 21.572C433.03 21.724 433.046 21.8 433.046 21.8H431.942C431.942 21.8 431.922 21.736 431.882 21.608C431.842 21.472 431.766 21.32 431.654 21.152C431.542 20.984 431.374 20.836 431.15 20.708C430.926 20.572 430.63 20.504 430.262 20.504C429.822 20.504 429.45 20.616 429.146 20.84C428.85 21.056 428.626 21.34 428.474 21.692C428.33 22.044 428.258 22.42 428.258 22.82C428.258 23.22 428.33 23.596 428.474 23.948C428.626 24.3 428.85 24.588 429.146 24.812C429.45 25.028 429.822 25.136 430.262 25.136C430.63 25.136 430.926 25.072 431.15 24.944C431.374 24.808 431.542 24.656 431.654 24.488C431.766 24.32 431.842 24.172 431.882 24.044C431.922 23.908 431.942 23.84 431.942 23.84H433.046C433.046 23.84 433.03 23.916 432.998 24.068C432.966 24.22 432.898 24.412 432.794 24.644C432.698 24.868 432.546 25.096 432.338 25.328C432.138 25.552 431.87 25.74 431.534 25.892C431.198 26.044 430.774 26.12 430.262 26.12ZM437.37 19.52C437.77 19.52 438.106 19.584 438.378 19.712C438.65 19.84 438.87 19.992 439.038 20.168C439.206 20.336 439.334 20.496 439.422 20.648H439.494V19.64H440.634V26H439.494V24.992H439.422C439.334 25.144 439.206 25.308 439.038 25.484C438.87 25.66 438.65 25.812 438.378 25.94C438.106 26.06 437.77 26.12 437.37 26.12C436.89 26.12 436.47 26.028 436.11 25.844C435.75 25.652 435.45 25.4 435.21 25.088C434.97 24.768 434.79 24.412 434.67 24.02C434.55 23.628 434.49 23.228 434.49 22.82C434.49 22.412 434.55 22.012 434.67 21.62C434.79 21.228 434.97 20.876 435.21 20.564C435.45 20.244 435.75 19.992 436.11 19.808C436.47 19.616 436.89 19.52 437.37 19.52ZM437.562 20.492C437.138 20.492 436.782 20.608 436.494 20.84C436.206 21.064 435.99 21.352 435.846 21.704C435.71 22.056 435.642 22.428 435.642 22.82C435.642 23.204 435.71 23.576 435.846 23.936C435.99 24.288 436.206 24.58 436.494 24.812C436.782 25.036 437.138 25.148 437.562 25.148C437.986 25.148 438.338 25.036 438.618 24.812C438.906 24.58 439.118 24.288 439.254 23.936C439.398 23.576 439.47 23.204 439.47 22.82C439.47 22.428 439.398 22.056 439.254 21.704C439.118 21.352 438.906 21.064 438.618 20.84C438.338 20.608 437.986 20.492 437.562 20.492ZM444.774 26.12C444.118 26.12 443.622 25.952 443.286 25.616C442.958 25.28 442.794 24.808 442.794 24.2V20.576H441.654V19.64H442.794V18.044H443.934V19.64H445.482V20.576H443.934V24.2C443.934 24.52 444.022 24.756 444.198 24.908C444.374 25.052 444.63 25.124 444.966 25.124C445.142 25.124 445.31 25.112 445.47 25.088C445.63 25.064 445.71 25.052 445.71 25.052V26.024C445.71 26.024 445.618 26.04 445.434 26.072C445.25 26.104 445.03 26.12 444.774 26.12ZM447.951 18.428C447.735 18.428 447.555 18.356 447.411 18.212C447.275 18.068 447.207 17.896 447.207 17.696C447.207 17.488 447.275 17.312 447.411 17.168C447.555 17.024 447.735 16.952 447.951 16.952C448.159 16.952 448.335 17.024 448.479 17.168C448.623 17.312 448.695 17.488 448.695 17.696C448.695 17.896 448.623 18.068 448.479 18.212C448.335 18.356 448.159 18.428 447.951 18.428ZM447.387 26V19.64H448.527V26H447.387ZM453.383 26.12C452.703 26.12 452.131 25.964 451.667 25.652C451.203 25.332 450.851 24.92 450.611 24.416C450.371 23.912 450.251 23.38 450.251 22.82C450.251 22.252 450.371 21.72 450.611 21.224C450.851 20.72 451.203 20.312 451.667 20C452.131 19.68 452.703 19.52 453.383 19.52C454.063 19.52 454.635 19.68 455.099 20C455.563 20.312 455.915 20.72 456.155 21.224C456.395 21.72 456.515 22.252 456.515 22.82C456.515 23.38 456.395 23.912 456.155 24.416C455.915 24.92 455.563 25.332 455.099 25.652C454.635 25.964 454.063 26.12 453.383 26.12ZM453.383 25.124C453.815 25.124 454.175 25.016 454.463 24.8C454.759 24.576 454.979 24.288 455.123 23.936C455.275 23.584 455.351 23.212 455.351 22.82C455.351 22.42 455.275 22.048 455.123 21.704C454.979 21.352 454.759 21.068 454.463 20.852C454.175 20.628 453.815 20.516 453.383 20.516C452.959 20.516 452.599 20.628 452.303 20.852C452.007 21.068 451.783 21.352 451.631 21.704C451.487 22.048 451.415 22.42 451.415 22.82C451.415 23.212 451.487 23.584 451.631 23.936C451.783 24.288 452.007 24.576 452.303 24.8C452.599 25.016 452.959 25.124 453.383 25.124ZM458.07 26V19.64H459.21V20.564H459.282C459.338 20.468 459.43 20.336 459.558 20.168C459.694 20 459.886 19.852 460.134 19.724C460.382 19.588 460.694 19.52 461.07 19.52C461.534 19.52 461.93 19.628 462.258 19.844C462.586 20.052 462.834 20.336 463.002 20.696C463.178 21.056 463.266 21.46 463.266 21.908V26H462.126V21.98C462.126 21.556 462.006 21.204 461.766 20.924C461.534 20.644 461.194 20.504 460.746 20.504C460.386 20.504 460.094 20.596 459.87 20.78C459.646 20.956 459.478 21.192 459.366 21.488C459.262 21.776 459.21 22.084 459.21 22.412V26H458.07ZM369.96 41V32.12H373.104C373.736 32.12 374.26 32.244 374.676 32.492C375.092 32.74 375.404 33.06 375.612 33.452C375.82 33.844 375.924 34.256 375.924 34.688C375.924 35.048 375.852 35.396 375.708 35.732C375.564 36.068 375.348 36.364 375.06 36.62C374.78 36.868 374.424 37.048 373.992 37.16L376.236 41H374.904L372.756 37.268H371.136V41H369.96ZM373.092 33.152H371.136V36.26H373.092C373.46 36.26 373.764 36.184 374.004 36.032C374.244 35.88 374.424 35.688 374.544 35.456C374.664 35.216 374.724 34.968 374.724 34.712C374.724 34.448 374.664 34.2 374.544 33.968C374.424 33.728 374.244 33.532 374.004 33.38C373.764 33.228 373.46 33.152 373.092 33.152ZM380.15 41.12C379.63 41.12 379.178 41.028 378.794 40.844C378.418 40.652 378.106 40.396 377.858 40.076C377.618 39.756 377.438 39.404 377.318 39.02C377.198 38.628 377.138 38.228 377.138 37.82C377.138 37.42 377.194 37.024 377.306 36.632C377.426 36.24 377.606 35.884 377.846 35.564C378.094 35.244 378.402 34.992 378.77 34.808C379.146 34.616 379.59 34.52 380.102 34.52C380.646 34.52 381.126 34.644 381.542 34.892C381.958 35.14 382.286 35.508 382.526 35.996C382.766 36.484 382.886 37.096 382.886 37.832V38.168H378.29C378.314 38.528 378.398 38.86 378.542 39.164C378.694 39.46 378.906 39.7 379.178 39.884C379.45 40.06 379.774 40.148 380.15 40.148C380.478 40.148 380.742 40.096 380.942 39.992C381.15 39.88 381.314 39.752 381.434 39.608C381.554 39.464 381.634 39.34 381.674 39.236C381.722 39.124 381.746 39.068 381.746 39.068H382.814C382.814 39.068 382.794 39.14 382.754 39.284C382.714 39.42 382.642 39.588 382.538 39.788C382.434 39.988 382.282 40.192 382.082 40.4C381.882 40.6 381.626 40.772 381.314 40.916C381.002 41.052 380.614 41.12 380.15 41.12ZM378.302 37.28H381.77C381.754 36.864 381.666 36.528 381.506 36.272C381.346 36.008 381.142 35.812 380.894 35.684C380.646 35.556 380.382 35.492 380.102 35.492C379.598 35.492 379.186 35.656 378.866 35.984C378.546 36.304 378.358 36.736 378.302 37.28ZM384.562 43.352V34.64H385.702V35.648H385.774C385.87 35.496 385.998 35.332 386.158 35.156C386.326 34.98 386.546 34.832 386.818 34.712C387.09 34.584 387.426 34.52 387.826 34.52C388.306 34.52 388.726 34.616 389.086 34.808C389.446 34.992 389.746 35.244 389.986 35.564C390.226 35.876 390.406 36.228 390.526 36.62C390.646 37.012 390.706 37.412 390.706 37.82C390.706 38.228 390.646 38.628 390.526 39.02C390.406 39.412 390.226 39.768 389.986 40.088C389.746 40.4 389.446 40.652 389.086 40.844C388.726 41.028 388.306 41.12 387.826 41.12C387.426 41.12 387.09 41.056 386.818 40.928C386.546 40.8 386.326 40.648 386.158 40.472C385.998 40.296 385.87 40.136 385.774 39.992H385.702V43.352H384.562ZM385.726 37.82C385.726 38.204 385.794 38.576 385.93 38.936C386.074 39.288 386.286 39.58 386.566 39.812C386.854 40.036 387.21 40.148 387.634 40.148C388.066 40.148 388.422 40.036 388.702 39.812C388.99 39.58 389.202 39.288 389.338 38.936C389.482 38.576 389.554 38.204 389.554 37.82C389.554 37.428 389.482 37.056 389.338 36.704C389.202 36.352 388.99 36.064 388.702 35.84C388.422 35.608 388.066 35.492 387.634 35.492C387.21 35.492 386.854 35.608 386.566 35.84C386.286 36.064 386.074 36.352 385.93 36.704C385.794 37.056 385.726 37.428 385.726 37.82ZM395.223 41.12C394.543 41.12 393.971 40.964 393.507 40.652C393.043 40.332 392.691 39.92 392.451 39.416C392.211 38.912 392.091 38.38 392.091 37.82C392.091 37.252 392.211 36.72 392.451 36.224C392.691 35.72 393.043 35.312 393.507 35C393.971 34.68 394.543 34.52 395.223 34.52C395.903 34.52 396.475 34.68 396.939 35C397.403 35.312 397.755 35.72 397.995 36.224C398.235 36.72 398.355 37.252 398.355 37.82C398.355 38.38 398.235 38.912 397.995 39.416C397.755 39.92 397.403 40.332 396.939 40.652C396.475 40.964 395.903 41.12 395.223 41.12ZM395.223 40.124C395.655 40.124 396.015 40.016 396.303 39.8C396.599 39.576 396.819 39.288 396.963 38.936C397.115 38.584 397.191 38.212 397.191 37.82C397.191 37.42 397.115 37.048 396.963 36.704C396.819 36.352 396.599 36.068 396.303 35.852C396.015 35.628 395.655 35.516 395.223 35.516C394.799 35.516 394.439 35.628 394.143 35.852C393.847 36.068 393.623 36.352 393.471 36.704C393.327 37.048 393.255 37.42 393.255 37.82C393.255 38.212 393.327 38.584 393.471 38.936C393.623 39.288 393.847 39.576 394.143 39.8C394.439 40.016 394.799 40.124 395.223 40.124ZM399.91 41V34.64H401.05V35.432H401.098C401.234 35.192 401.434 34.98 401.698 34.796C401.962 34.612 402.334 34.52 402.814 34.52C402.95 34.52 403.074 34.528 403.186 34.544C403.298 34.552 403.354 34.556 403.354 34.556V35.648C403.354 35.648 403.29 35.644 403.162 35.636C403.042 35.62 402.914 35.612 402.778 35.612C402.226 35.612 401.798 35.772 401.494 36.092C401.198 36.404 401.05 36.916 401.05 37.628V41H399.91ZM407.31 41.12C406.654 41.12 406.158 40.952 405.822 40.616C405.494 40.28 405.33 39.808 405.33 39.2V35.576H404.19V34.64H405.33V33.044H406.47V34.64H408.018V35.576H406.47V39.2C406.47 39.52 406.558 39.756 406.734 39.908C406.91 40.052 407.166 40.124 407.502 40.124C407.678 40.124 407.846 40.112 408.006 40.088C408.166 40.064 408.246 40.052 408.246 40.052V41.024C408.246 41.024 408.154 41.04 407.97 41.072C407.786 41.104 407.566 41.12 407.31 41.12ZM412.07 41.12C411.582 41.12 411.178 41.052 410.858 40.916C410.546 40.78 410.298 40.612 410.114 40.412C409.93 40.204 409.794 40 409.706 39.8C409.618 39.592 409.562 39.42 409.538 39.284C409.514 39.148 409.502 39.08 409.502 39.08H410.654C410.654 39.08 410.666 39.136 410.69 39.248C410.722 39.352 410.782 39.476 410.87 39.62C410.966 39.756 411.11 39.88 411.302 39.992C411.502 40.096 411.766 40.148 412.094 40.148C412.47 40.148 412.762 40.06 412.97 39.884C413.178 39.7 413.282 39.476 413.282 39.212C413.282 38.98 413.198 38.796 413.03 38.66C412.87 38.524 412.638 38.42 412.334 38.348L411.47 38.144C411.15 38.064 410.85 37.956 410.57 37.82C410.29 37.684 410.062 37.5 409.886 37.268C409.718 37.028 409.634 36.732 409.634 36.38C409.634 35.836 409.838 35.392 410.246 35.048C410.654 34.696 411.186 34.52 411.842 34.52C412.282 34.52 412.646 34.584 412.934 34.712C413.222 34.832 413.45 34.984 413.618 35.168C413.794 35.352 413.922 35.536 414.002 35.72C414.09 35.904 414.146 36.06 414.17 36.188C414.194 36.308 414.206 36.368 414.206 36.368H413.102C413.102 36.368 413.09 36.324 413.066 36.236C413.042 36.14 412.986 36.036 412.898 35.924C412.818 35.804 412.694 35.7 412.526 35.612C412.358 35.516 412.134 35.468 411.854 35.468C411.47 35.468 411.19 35.556 411.014 35.732C410.838 35.908 410.75 36.1 410.75 36.308C410.75 36.508 410.83 36.672 410.99 36.8C411.158 36.92 411.374 37.012 411.638 37.076L412.514 37.28C413.058 37.408 413.506 37.62 413.858 37.916C414.218 38.204 414.398 38.62 414.398 39.164C414.398 39.516 414.306 39.844 414.122 40.148C413.938 40.444 413.674 40.68 413.33 40.856C412.986 41.032 412.566 41.12 412.07 41.12Z" fill="#94A3B8"/>
<rect x="329" y="53" width="182" height="10" rx="4" fill="#F1F5F9"/>
<rect x="329" y="67" width="117" height="10" rx="4" fill="#F1F5F9"/>
<rect x="329" y="85" width="182" height="10" rx="4" fill="#F1F5F9"/>
<rect x="329" y="99" width="182" height="10" rx="4" fill="#F1F5F9"/>
<rect x="329" y="117" width="182" height="10" rx="4" fill="#F1F5F9"/>
<rect x="329" y="131" width="182" height="10" rx="4" fill="#F1F5F9"/>
<rect x="329" y="149" width="182" height="10" rx="4" fill="#F1F5F9"/>
<rect x="329" y="163" width="117" height="10" rx="4" fill="#F1F5F9"/>
</g>
<g filter="url(#filter2_dd_360_1527)">
<rect x="4" y="85.2764" width="202" height="180" rx="16" fill="white" shape-rendering="crispEdges"/>
<rect x="4.5" y="85.7764" width="201" height="179" rx="15.5" stroke="#F1F5F9" shape-rendering="crispEdges"/>
<rect x="14" y="95.2764" width="32" height="32" rx="12" fill="#DB2777" fill-opacity="0.06"/>
<rect x="14.5" y="95.7764" width="31" height="31" rx="11.5" stroke="#DB2777" stroke-opacity="0.16"/>
<path d="M35.375 110.276H31C30.6022 110.276 30.2206 110.118 29.9393 109.837C29.658 109.556 29.5 109.174 29.5 108.776V104.401C29.5 104.368 29.4868 104.336 29.4634 104.313C29.4399 104.29 29.4082 104.276 29.375 104.276H26.5C25.9696 104.276 25.4609 104.487 25.0858 104.862C24.7107 105.237 24.5 105.746 24.5 106.276V116.276C24.5 116.807 24.7107 117.316 25.0858 117.691C25.4609 118.066 25.9696 118.276 26.5 118.276H33.5C34.0304 118.276 34.5391 118.066 34.9142 117.691C35.2893 117.316 35.5 116.807 35.5 116.276V110.401C35.5 110.368 35.4868 110.336 35.4634 110.313C35.4399 110.29 35.4082 110.276 35.375 110.276Z" fill="#DB2777"/>
<path d="M35.1006 109.17L30.6066 104.676C30.5978 104.667 30.5867 104.661 30.5746 104.659C30.5625 104.657 30.55 104.658 30.5386 104.662C30.5272 104.667 30.5175 104.675 30.5106 104.685C30.5037 104.696 30.5001 104.708 30.5 104.72V108.777C30.5 108.909 30.5527 109.036 30.6464 109.13C30.7402 109.224 30.8674 109.277 31 109.277H35.0566C35.0689 109.276 35.0809 109.273 35.0911 109.266C35.1014 109.259 35.1093 109.249 35.1141 109.238C35.1188 109.227 35.12 109.214 35.1176 109.202C35.1152 109.19 35.1093 109.179 35.1006 109.17Z" fill="#DB2777"/>
<path d="M54.96 108.276V99.3964H56.136V108.276H54.96ZM57.9338 108.276V101.916H59.0738V102.84H59.1458C59.2018 102.744 59.2938 102.612 59.4218 102.444C59.5578 102.276 59.7498 102.128 59.9978 102C60.2458 101.864 60.5578 101.796 60.9338 101.796C61.3978 101.796 61.7938 101.904 62.1218 102.12C62.4498 102.328 62.6978 102.612 62.8658 102.972C63.0418 103.332 63.1298 103.736 63.1298 104.184V108.276H61.9898V104.256C61.9898 103.832 61.8698 103.48 61.6298 103.2C61.3978 102.92 61.0578 102.78 60.6098 102.78C60.2498 102.78 59.9578 102.872 59.7338 103.056C59.5098 103.232 59.3418 103.468 59.2298 103.764C59.1258 104.052 59.0738 104.36 59.0738 104.688V108.276H57.9338ZM67.2783 108.396C66.6223 108.396 66.1263 108.228 65.7903 107.892C65.4623 107.556 65.2983 107.084 65.2983 106.476V102.852H64.1583V101.916H65.2983V100.32H66.4383V101.916H67.9863V102.852H66.4383V106.476C66.4383 106.796 66.5263 107.032 66.7023 107.184C66.8783 107.328 67.1343 107.4 67.4703 107.4C67.6463 107.4 67.8143 107.388 67.9743 107.364C68.1343 107.34 68.2143 107.328 68.2143 107.328V108.3C68.2143 108.3 68.1223 108.316 67.9383 108.348C67.7543 108.38 67.5343 108.396 67.2783 108.396ZM72.3687 108.396C71.8487 108.396 71.3967 108.304 71.0127 108.12C70.6367 107.928 70.3247 107.672 70.0767 107.352C69.8367 107.032 69.6567 106.68 69.5367 106.296C69.4167 105.904 69.3567 105.504 69.3567 105.096C69.3567 104.696 69.4127 104.3 69.5247 103.908C69.6447 103.516 69.8247 103.16 70.0647 102.84C70.3127 102.52 70.6207 102.268 70.9887 102.084C71.3647 101.892 71.8087 101.796 72.3207 101.796C72.8647 101.796 73.3447 101.92 73.7607 102.168C74.1767 102.416 74.5047 102.784 74.7447 103.272C74.9847 103.76 75.1047 104.372 75.1047 105.108V105.444H70.5087C70.5327 105.804 70.6167 106.136 70.7607 106.44C70.9127 106.736 71.1247 106.976 71.3967 107.16C71.6687 107.336 71.9927 107.424 72.3687 107.424C72.6967 107.424 72.9607 107.372 73.1607 107.268C73.3687 107.156 73.5327 107.028 73.6527 106.884C73.7727 106.74 73.8527 106.616 73.8927 106.512C73.9407 106.4 73.9647 106.344 73.9647 106.344H75.0327C75.0327 106.344 75.0127 106.416 74.9727 106.56C74.9327 106.696 74.8607 106.864 74.7567 107.064C74.6527 107.264 74.5007 107.468 74.3007 107.676C74.1007 107.876 73.8447 108.048 73.5327 108.192C73.2207 108.328 72.8327 108.396 72.3687 108.396ZM70.5207 104.556H73.9887C73.9727 104.14 73.8847 103.804 73.7247 103.548C73.5647 103.284 73.3607 103.088 73.1127 102.96C72.8647 102.832 72.6007 102.768 72.3207 102.768C71.8167 102.768 71.4047 102.932 71.0847 103.26C70.7647 103.58 70.5767 104.012 70.5207 104.556ZM76.6603 108.276V101.916H77.8003V102.708H77.8483C77.9843 102.468 78.1843 102.256 78.4483 102.072C78.7123 101.888 79.0843 101.796 79.5643 101.796C79.7003 101.796 79.8243 101.804 79.9363 101.82C80.0483 101.828 80.1043 101.832 80.1043 101.832V102.924C80.1043 102.924 80.0403 102.92 79.9123 102.912C79.7923 102.896 79.6643 102.888 79.5283 102.888C78.9763 102.888 78.5483 103.048 78.2443 103.368C77.9483 103.68 77.8003 104.192 77.8003 104.904V108.276H76.6603ZM83.3635 108.276L80.9395 101.916H82.1275L83.9875 106.884L85.8115 101.916H87.0115L84.5755 108.276H83.3635ZM89.0176 100.704C88.8016 100.704 88.6216 100.632 88.4776 100.488C88.3416 100.344 88.2736 100.172 88.2736 99.9724C88.2736 99.7644 88.3416 99.5884 88.4776 99.4444C88.6216 99.3004 88.8016 99.2284 89.0176 99.2284C89.2256 99.2284 89.4016 99.3004 89.5456 99.4444C89.6896 99.5884 89.7616 99.7644 89.7616 99.9724C89.7616 100.172 89.6896 100.344 89.5456 100.488C89.4016 100.632 89.2256 100.704 89.0176 100.704ZM88.4536 108.276V101.916H89.5936V108.276H88.4536ZM94.3297 108.396C93.8097 108.396 93.3577 108.304 92.9737 108.12C92.5977 107.928 92.2857 107.672 92.0377 107.352C91.7977 107.032 91.6177 106.68 91.4977 106.296C91.3777 105.904 91.3177 105.504 91.3177 105.096C91.3177 104.696 91.3737 104.3 91.4857 103.908C91.6057 103.516 91.7857 103.16 92.0257 102.84C92.2737 102.52 92.5817 102.268 92.9497 102.084C93.3257 101.892 93.7697 101.796 94.2817 101.796C94.8257 101.796 95.3057 101.92 95.7217 102.168C96.1377 102.416 96.4657 102.784 96.7057 103.272C96.9457 103.76 97.0657 104.372 97.0657 105.108V105.444H92.4697C92.4937 105.804 92.5777 106.136 92.7217 106.44C92.8737 106.736 93.0857 106.976 93.3577 107.16C93.6297 107.336 93.9537 107.424 94.3297 107.424C94.6577 107.424 94.9217 107.372 95.1217 107.268C95.3297 107.156 95.4937 107.028 95.6137 106.884C95.7337 106.74 95.8137 106.616 95.8537 106.512C95.9017 106.4 95.9257 106.344 95.9257 106.344H96.9937C96.9937 106.344 96.9737 106.416 96.9337 106.56C96.8937 106.696 96.8217 106.864 96.7177 107.064C96.6137 107.264 96.4617 107.468 96.2617 107.676C96.0617 107.876 95.8057 108.048 95.4937 108.192C95.1817 108.328 94.7937 108.396 94.3297 108.396ZM92.4817 104.556H95.9497C95.9337 104.14 95.8457 103.804 95.6857 103.548C95.5257 103.284 95.3217 103.088 95.0737 102.96C94.8257 102.832 94.5617 102.768 94.2817 102.768C93.7777 102.768 93.3657 102.932 93.0457 103.26C92.7257 103.58 92.5377 104.012 92.4817 104.556ZM100.019 108.276L97.9669 101.916H99.1309L100.643 106.74L102.227 101.916H103.307L104.879 106.74L106.403 101.916H107.567L105.503 108.276H104.279L102.767 103.584L101.255 108.276H100.019ZM111.714 108.276V99.3964H117.354V100.428H112.89V103.236H116.802V104.268H112.89V107.244H117.414V108.276H111.714ZM121.039 108.276L118.615 101.916H119.803L121.663 106.884L123.487 101.916H124.687L122.251 108.276H121.039ZM128.475 101.796C128.875 101.796 129.211 101.86 129.483 101.988C129.755 102.116 129.975 102.268 130.143 102.444C130.311 102.612 130.439 102.772 130.527 102.924H130.599V101.916H131.739V108.276H130.599V107.268H130.527C130.439 107.42 130.311 107.584 130.143 107.76C129.975 107.936 129.755 108.088 129.483 108.216C129.211 108.336 128.875 108.396 128.475 108.396C127.995 108.396 127.575 108.304 127.215 108.12C126.855 107.928 126.555 107.676 126.315 107.364C126.075 107.044 125.895 106.688 125.775 106.296C125.655 105.904 125.595 105.504 125.595 105.096C125.595 104.688 125.655 104.288 125.775 103.896C125.895 103.504 126.075 103.152 126.315 102.84C126.555 102.52 126.855 102.268 127.215 102.084C127.575 101.892 127.995 101.796 128.475 101.796ZM128.667 102.768C128.243 102.768 127.887 102.884 127.599 103.116C127.311 103.34 127.095 103.628 126.951 103.98C126.815 104.332 126.747 104.704 126.747 105.096C126.747 105.48 126.815 105.852 126.951 106.212C127.095 106.564 127.311 106.856 127.599 107.088C127.887 107.312 128.243 107.424 128.667 107.424C129.091 107.424 129.443 107.312 129.723 107.088C130.011 106.856 130.223 106.564 130.359 106.212C130.503 105.852 130.575 105.48 130.575 105.096C130.575 104.704 130.503 104.332 130.359 103.98C130.223 103.628 130.011 103.34 129.723 103.116C129.443 102.884 129.091 102.768 128.667 102.768ZM133.534 108.276L133.546 99.1564H134.674V108.276H133.534ZM138.549 108.396C137.917 108.396 137.413 108.2 137.037 107.808C136.661 107.416 136.473 106.872 136.473 106.176V101.916H137.613V106.116C137.613 106.532 137.725 106.852 137.949 107.076C138.181 107.3 138.485 107.412 138.861 107.412C139.245 107.412 139.553 107.312 139.785 107.112C140.017 106.912 140.185 106.656 140.289 106.344C140.393 106.032 140.445 105.712 140.445 105.384V101.916H141.585V108.276H140.445V107.364H140.373C140.325 107.46 140.233 107.592 140.097 107.76C139.961 107.92 139.769 108.068 139.521 108.204C139.273 108.332 138.949 108.396 138.549 108.396ZM146.03 101.796C146.43 101.796 146.766 101.86 147.038 101.988C147.31 102.116 147.53 102.268 147.698 102.444C147.866 102.612 147.994 102.772 148.082 102.924H148.154V101.916H149.294V108.276H148.154V107.268H148.082C147.994 107.42 147.866 107.584 147.698 107.76C147.53 107.936 147.31 108.088 147.038 108.216C146.766 108.336 146.43 108.396 146.03 108.396C145.55 108.396 145.13 108.304 144.77 108.12C144.41 107.928 144.11 107.676 143.87 107.364C143.63 107.044 143.45 106.688 143.33 106.296C143.21 105.904 143.15 105.504 143.15 105.096C143.15 104.688 143.21 104.288 143.33 103.896C143.45 103.504 143.63 103.152 143.87 102.84C144.11 102.52 144.41 102.268 144.77 102.084C145.13 101.892 145.55 101.796 146.03 101.796ZM146.222 102.768C145.798 102.768 145.442 102.884 145.154 103.116C144.866 103.34 144.65 103.628 144.506 103.98C144.37 104.332 144.302 104.704 144.302 105.096C144.302 105.48 144.37 105.852 144.506 106.212C144.65 106.564 144.866 106.856 145.154 107.088C145.442 107.312 145.798 107.424 146.222 107.424C146.646 107.424 146.998 107.312 147.278 107.088C147.566 106.856 147.778 106.564 147.914 106.212C148.058 105.852 148.13 105.48 148.13 105.096C148.13 104.704 148.058 104.332 147.914 103.98C147.778 103.628 147.566 103.34 147.278 103.116C146.998 102.884 146.646 102.768 146.222 102.768ZM153.435 108.396C152.779 108.396 152.283 108.228 151.947 107.892C151.619 107.556 151.455 107.084 151.455 106.476V102.852H150.315V101.916H151.455V100.32H152.595V101.916H154.143V102.852H152.595V106.476C152.595 106.796 152.683 107.032 152.859 107.184C153.035 107.328 153.291 107.4 153.627 107.4C153.803 107.4 153.971 107.388 154.131 107.364C154.291 107.34 154.371 107.328 154.371 107.328V108.3C154.371 108.3 154.279 108.316 154.095 108.348C153.911 108.38 153.691 108.396 153.435 108.396ZM156.611 100.704C156.395 100.704 156.215 100.632 156.071 100.488C155.935 100.344 155.867 100.172 155.867 99.9724C155.867 99.7644 155.935 99.5884 156.071 99.4444C156.215 99.3004 156.395 99.2284 156.611 99.2284C156.819 99.2284 156.995 99.3004 157.139 99.4444C157.283 99.5884 157.355 99.7644 157.355 99.9724C157.355 100.172 157.283 100.344 157.139 100.488C156.995 100.632 156.819 100.704 156.611 100.704ZM156.047 108.276V101.916H157.187V108.276H156.047ZM162.043 108.396C161.363 108.396 160.791 108.24 160.327 107.928C159.863 107.608 159.511 107.196 159.271 106.692C159.031 106.188 158.911 105.656 158.911 105.096C158.911 104.528 159.031 103.996 159.271 103.5C159.511 102.996 159.863 102.588 160.327 102.276C160.791 101.956 161.363 101.796 162.043 101.796C162.723 101.796 163.295 101.956 163.759 102.276C164.223 102.588 164.575 102.996 164.815 103.5C165.055 103.996 165.175 104.528 165.175 105.096C165.175 105.656 165.055 106.188 164.815 106.692C164.575 107.196 164.223 107.608 163.759 107.928C163.295 108.24 162.723 108.396 162.043 108.396ZM162.043 107.4C162.475 107.4 162.835 107.292 163.123 107.076C163.419 106.852 163.639 106.564 163.783 106.212C163.935 105.86 164.011 105.488 164.011 105.096C164.011 104.696 163.935 104.324 163.783 103.98C163.639 103.628 163.419 103.344 163.123 103.128C162.835 102.904 162.475 102.792 162.043 102.792C161.619 102.792 161.259 102.904 160.963 103.128C160.667 103.344 160.443 103.628 160.291 103.98C160.147 104.324 160.075 104.696 160.075 105.096C160.075 105.488 160.147 105.86 160.291 106.212C160.443 106.564 160.667 106.852 160.963 107.076C161.259 107.292 161.619 107.4 162.043 107.4ZM166.731 108.276V101.916H167.871V102.84H167.943C167.999 102.744 168.091 102.612 168.219 102.444C168.355 102.276 168.547 102.128 168.795 102C169.043 101.864 169.355 101.796 169.731 101.796C170.195 101.796 170.591 101.904 170.919 102.12C171.247 102.328 171.495 102.612 171.663 102.972C171.839 103.332 171.927 103.736 171.927 104.184V108.276H170.787V104.256C170.787 103.832 170.667 103.48 170.427 103.2C170.195 102.92 169.855 102.78 169.407 102.78C169.047 102.78 168.755 102.872 168.531 103.056C168.307 103.232 168.139 103.468 168.027 103.764C167.923 104.052 167.871 104.36 167.871 104.688V108.276H166.731ZM54.96 123.276V114.396H58.104C58.736 114.396 59.26 114.52 59.676 114.768C60.092 115.016 60.404 115.336 60.612 115.728C60.82 116.12 60.924 116.532 60.924 116.964C60.924 117.324 60.852 117.672 60.708 118.008C60.564 118.344 60.348 118.64 60.06 118.896C59.78 119.144 59.424 119.324 58.992 119.436L61.236 123.276H59.904L57.756 119.544H56.136V123.276H54.96ZM58.092 115.428H56.136V118.536H58.092C58.46 118.536 58.764 118.46 59.004 118.308C59.244 118.156 59.424 117.964 59.544 117.732C59.664 117.492 59.724 117.244 59.724 116.988C59.724 116.724 59.664 116.476 59.544 116.244C59.424 116.004 59.244 115.808 59.004 115.656C58.764 115.504 58.46 115.428 58.092 115.428ZM65.15 123.396C64.63 123.396 64.178 123.304 63.794 123.12C63.418 122.928 63.106 122.672 62.858 122.352C62.618 122.032 62.438 121.68 62.318 121.296C62.198 120.904 62.138 120.504 62.138 120.096C62.138 119.696 62.194 119.3 62.306 118.908C62.426 118.516 62.606 118.16 62.846 117.84C63.094 117.52 63.402 117.268 63.77 117.084C64.146 116.892 64.59 116.796 65.102 116.796C65.646 116.796 66.126 116.92 66.542 117.168C66.958 117.416 67.286 117.784 67.526 118.272C67.766 118.76 67.886 119.372 67.886 120.108V120.444H63.29C63.314 120.804 63.398 121.136 63.542 121.44C63.694 121.736 63.906 121.976 64.178 122.16C64.45 122.336 64.774 122.424 65.15 122.424C65.478 122.424 65.742 122.372 65.942 122.268C66.15 122.156 66.314 122.028 66.434 121.884C66.554 121.74 66.634 121.616 66.674 121.512C66.722 121.4 66.746 121.344 66.746 121.344H67.814C67.814 121.344 67.794 121.416 67.754 121.56C67.714 121.696 67.642 121.864 67.538 122.064C67.434 122.264 67.282 122.468 67.082 122.676C66.882 122.876 66.626 123.048 66.314 123.192C66.002 123.328 65.614 123.396 65.15 123.396ZM63.302 119.556H66.77C66.754 119.14 66.666 118.804 66.506 118.548C66.346 118.284 66.142 118.088 65.894 117.96C65.646 117.832 65.382 117.768 65.102 117.768C64.598 117.768 64.186 117.932 63.866 118.26C63.546 118.58 63.358 119.012 63.302 119.556ZM69.5616 125.628V116.916H70.7016V117.924H70.7736C70.8696 117.772 70.9976 117.608 71.1576 117.432C71.3256 117.256 71.5456 117.108 71.8176 116.988C72.0896 116.86 72.4256 116.796 72.8256 116.796C73.3056 116.796 73.7256 116.892 74.0856 117.084C74.4456 117.268 74.7456 117.52 74.9856 117.84C75.2256 118.152 75.4056 118.504 75.5256 118.896C75.6456 119.288 75.7056 119.688 75.7056 120.096C75.7056 120.504 75.6456 120.904 75.5256 121.296C75.4056 121.688 75.2256 122.044 74.9856 122.364C74.7456 122.676 74.4456 122.928 74.0856 123.12C73.7256 123.304 73.3056 123.396 72.8256 123.396C72.4256 123.396 72.0896 123.332 71.8176 123.204C71.5456 123.076 71.3256 122.924 71.1576 122.748C70.9976 122.572 70.8696 122.412 70.7736 122.268H70.7016V125.628H69.5616ZM70.7256 120.096C70.7256 120.48 70.7936 120.852 70.9296 121.212C71.0736 121.564 71.2856 121.856 71.5656 122.088C71.8536 122.312 72.2096 122.424 72.6336 122.424C73.0656 122.424 73.4216 122.312 73.7016 122.088C73.9896 121.856 74.2016 121.564 74.3376 121.212C74.4816 120.852 74.5536 120.48 74.5536 120.096C74.5536 119.704 74.4816 119.332 74.3376 118.98C74.2016 118.628 73.9896 118.34 73.7016 118.116C73.4216 117.884 73.0656 117.768 72.6336 117.768C72.2096 117.768 71.8536 117.884 71.5656 118.116C71.2856 118.34 71.0736 118.628 70.9296 118.98C70.7936 119.332 70.7256 119.704 70.7256 120.096ZM80.2231 123.396C79.5431 123.396 78.9711 123.24 78.5071 122.928C78.0431 122.608 77.6911 122.196 77.4511 121.692C77.2111 121.188 77.0911 120.656 77.0911 120.096C77.0911 119.528 77.2111 118.996 77.4511 118.5C77.6911 117.996 78.0431 117.588 78.5071 117.276C78.9711 116.956 79.5431 116.796 80.2231 116.796C80.9031 116.796 81.4751 116.956 81.9391 117.276C82.4031 117.588 82.7551 117.996 82.9951 118.5C83.2351 118.996 83.3551 119.528 83.3551 120.096C83.3551 120.656 83.2351 121.188 82.9951 121.692C82.7551 122.196 82.4031 122.608 81.9391 122.928C81.4751 123.24 80.9031 123.396 80.2231 123.396ZM80.2231 122.4C80.6551 122.4 81.0151 122.292 81.3031 122.076C81.5991 121.852 81.8191 121.564 81.9631 121.212C82.1151 120.86 82.1911 120.488 82.1911 120.096C82.1911 119.696 82.1151 119.324 81.9631 118.98C81.8191 118.628 81.5991 118.344 81.3031 118.128C81.0151 117.904 80.6551 117.792 80.2231 117.792C79.7991 117.792 79.4391 117.904 79.1431 118.128C78.8471 118.344 78.6231 118.628 78.4711 118.98C78.3271 119.324 78.2551 119.696 78.2551 120.096C78.2551 120.488 78.3271 120.86 78.4711 121.212C78.6231 121.564 78.8471 121.852 79.1431 122.076C79.4391 122.292 79.7991 122.4 80.2231 122.4ZM84.9103 123.276V116.916H86.0503V117.708H86.0983C86.2343 117.468 86.4343 117.256 86.6983 117.072C86.9623 116.888 87.3343 116.796 87.8143 116.796C87.9503 116.796 88.0743 116.804 88.1863 116.82C88.2983 116.828 88.3543 116.832 88.3543 116.832V117.924C88.3543 117.924 88.2903 117.92 88.1623 117.912C88.0423 117.896 87.9143 117.888 87.7783 117.888C87.2263 117.888 86.7983 118.048 86.4943 118.368C86.1983 118.68 86.0503 119.192 86.0503 119.904V123.276H84.9103ZM92.3095 123.396C91.6535 123.396 91.1575 123.228 90.8215 122.892C90.4935 122.556 90.3295 122.084 90.3295 121.476V117.852H89.1895V116.916H90.3295V115.32H91.4695V116.916H93.0175V117.852H91.4695V121.476C91.4695 121.796 91.5575 122.032 91.7335 122.184C91.9095 122.328 92.1655 122.4 92.5015 122.4C92.6775 122.4 92.8455 122.388 93.0055 122.364C93.1655 122.34 93.2455 122.328 93.2455 122.328V123.3C93.2455 123.3 93.1535 123.316 92.9695 123.348C92.7855 123.38 92.5655 123.396 92.3095 123.396Z" fill="#94A3B8"/>
<rect x="14" y="135.276" width="182" height="10" rx="4" fill="#F1F5F9"/>
<rect x="14" y="149.276" width="117" height="10" rx="4" fill="#F1F5F9"/>
<rect x="14" y="167.276" width="182" height="10" rx="4" fill="#F1F5F9"/>
<rect x="14" y="181.276" width="182" height="10" rx="4" fill="#F1F5F9"/>
<rect x="14" y="199.276" width="182" height="10" rx="4" fill="#F1F5F9"/>
<rect x="14" y="213.276" width="182" height="10" rx="4" fill="#F1F5F9"/>
<rect x="14" y="231.276" width="182" height="10" rx="4" fill="#F1F5F9"/>
<rect x="14" y="245.276" width="117" height="10" rx="4" fill="#F1F5F9"/>
</g>
<g filter="url(#filter3_dd_360_1527)">
<rect x="214" y="85.2764" width="202" height="180" rx="16" fill="white" shape-rendering="crispEdges"/>
<rect x="214.5" y="85.7764" width="201" height="179" rx="15.5" stroke="#F1F5F9" shape-rendering="crispEdges"/>
<rect x="224" y="95.2764" width="32" height="32" rx="12" fill="#2563EB" fill-opacity="0.06"/>
<rect x="224.5" y="95.7764" width="31" height="31" rx="11.5" stroke="#2563EB" stroke-opacity="0.16"/>
<path d="M245.375 110.276H241C240.602 110.276 240.221 110.118 239.939 109.837C239.658 109.556 239.5 109.174 239.5 108.776V104.401C239.5 104.368 239.487 104.336 239.463 104.313C239.44 104.29 239.408 104.276 239.375 104.276H236.5C235.97 104.276 235.461 104.487 235.086 104.862C234.711 105.237 234.5 105.746 234.5 106.276V116.276C234.5 116.807 234.711 117.316 235.086 117.691C235.461 118.066 235.97 118.276 236.5 118.276H243.5C244.03 118.276 244.539 118.066 244.914 117.691C245.289 117.316 245.5 116.807 245.5 116.276V110.401C245.5 110.368 245.487 110.336 245.463 110.313C245.44 110.29 245.408 110.276 245.375 110.276Z" fill="#2563EB"/>
<path d="M245.101 109.17L240.607 104.676C240.598 104.667 240.587 104.661 240.575 104.659C240.563 104.657 240.55 104.658 240.539 104.662C240.527 104.667 240.517 104.675 240.511 104.685C240.504 104.696 240.5 104.708 240.5 104.72V108.777C240.5 108.909 240.553 109.036 240.646 109.13C240.74 109.224 240.867 109.277 241 109.277H245.057C245.069 109.276 245.081 109.273 245.091 109.266C245.101 109.259 245.109 109.249 245.114 109.238C245.119 109.227 245.12 109.214 245.118 109.202C245.115 109.19 245.109 109.179 245.101 109.17Z" fill="#2563EB"/>
<path d="M264.96 115.776V106.896H268.128C268.808 106.896 269.372 107.036 269.82 107.316C270.276 107.596 270.616 107.96 270.84 108.408C271.072 108.848 271.188 109.308 271.188 109.788C271.188 110.276 271.072 110.744 270.84 111.192C270.616 111.632 270.276 111.996 269.82 112.284C269.372 112.564 268.808 112.704 268.128 112.704H266.136V115.776H264.96ZM268.128 107.928H266.136V111.672H268.128C268.552 111.672 268.904 111.58 269.184 111.396C269.464 111.212 269.672 110.98 269.808 110.7C269.952 110.412 270.024 110.112 270.024 109.8C270.024 109.488 269.952 109.188 269.808 108.9C269.672 108.612 269.464 108.38 269.184 108.204C268.904 108.02 268.552 107.928 268.128 107.928ZM275.34 115.896C274.66 115.896 274.088 115.74 273.624 115.428C273.16 115.108 272.808 114.696 272.568 114.192C272.328 113.688 272.208 113.156 272.208 112.596C272.208 112.028 272.328 111.496 272.568 111C272.808 110.496 273.16 110.088 273.624 109.776C274.088 109.456 274.66 109.296 275.34 109.296C276.02 109.296 276.592 109.456 277.056 109.776C277.52 110.088 277.872 110.496 278.112 111C278.352 111.496 278.472 112.028 278.472 112.596C278.472 113.156 278.352 113.688 278.112 114.192C277.872 114.696 277.52 115.108 277.056 115.428C276.592 115.74 276.02 115.896 275.34 115.896ZM275.34 114.9C275.772 114.9 276.132 114.792 276.42 114.576C276.716 114.352 276.936 114.064 277.08 113.712C277.232 113.36 277.308 112.988 277.308 112.596C277.308 112.196 277.232 111.824 277.08 111.48C276.936 111.128 276.716 110.844 276.42 110.628C276.132 110.404 275.772 110.292 275.34 110.292C274.916 110.292 274.556 110.404 274.26 110.628C273.964 110.844 273.74 111.128 273.588 111.48C273.444 111.824 273.372 112.196 273.372 112.596C273.372 112.988 273.444 113.36 273.588 113.712C273.74 114.064 273.964 114.352 274.26 114.576C274.556 114.792 274.916 114.9 275.34 114.9ZM281.425 115.776L279.373 109.416H280.537L282.049 114.24L283.633 109.416H284.713L286.285 114.24L287.809 109.416H288.973L286.909 115.776H285.685L284.173 111.084L282.661 115.776H281.425ZM292.892 115.896C292.372 115.896 291.92 115.804 291.536 115.62C291.16 115.428 290.848 115.172 290.6 114.852C290.36 114.532 290.18 114.18 290.06 113.796C289.94 113.404 289.88 113.004 289.88 112.596C289.88 112.196 289.936 111.8 290.048 111.408C290.168 111.016 290.348 110.66 290.588 110.34C290.836 110.02 291.144 109.768 291.512 109.584C291.888 109.392 292.332 109.296 292.844 109.296C293.388 109.296 293.868 109.42 294.284 109.668C294.7 109.916 295.028 110.284 295.268 110.772C295.508 111.26 295.628 111.872 295.628 112.608V112.944H291.032C291.056 113.304 291.14 113.636 291.284 113.94C291.436 114.236 291.648 114.476 291.92 114.66C292.192 114.836 292.516 114.924 292.892 114.924C293.22 114.924 293.484 114.872 293.684 114.768C293.892 114.656 294.056 114.528 294.176 114.384C294.296 114.24 294.376 114.116 294.416 114.012C294.464 113.9 294.488 113.844 294.488 113.844H295.556C295.556 113.844 295.536 113.916 295.496 114.06C295.456 114.196 295.384 114.364 295.28 114.564C295.176 114.764 295.024 114.968 294.824 115.176C294.624 115.376 294.368 115.548 294.056 115.692C293.744 115.828 293.356 115.896 292.892 115.896ZM291.044 112.056H294.512C294.496 111.64 294.408 111.304 294.248 111.048C294.088 110.784 293.884 110.588 293.636 110.46C293.388 110.332 293.124 110.268 292.844 110.268C292.34 110.268 291.928 110.432 291.608 110.76C291.288 111.08 291.1 111.512 291.044 112.056ZM297.184 115.776V109.416H298.324V110.208H298.372C298.508 109.968 298.708 109.756 298.972 109.572C299.236 109.388 299.608 109.296 300.088 109.296C300.224 109.296 300.348 109.304 300.46 109.32C300.572 109.328 300.628 109.332 300.628 109.332V110.424C300.628 110.424 300.564 110.42 300.436 110.412C300.316 110.396 300.188 110.388 300.052 110.388C299.5 110.388 299.072 110.548 298.768 110.868C298.472 111.18 298.324 111.692 298.324 112.404V115.776H297.184ZM307.661 115.896C306.981 115.896 306.409 115.74 305.945 115.428C305.481 115.108 305.129 114.696 304.889 114.192C304.649 113.688 304.529 113.156 304.529 112.596C304.529 112.028 304.649 111.496 304.889 111C305.129 110.496 305.481 110.088 305.945 109.776C306.409 109.456 306.981 109.296 307.661 109.296C308.341 109.296 308.913 109.456 309.377 109.776C309.841 110.088 310.193 110.496 310.433 111C310.673 111.496 310.793 112.028 310.793 112.596C310.793 113.156 310.673 113.688 310.433 114.192C310.193 114.696 309.841 115.108 309.377 115.428C308.913 115.74 308.341 115.896 307.661 115.896ZM307.661 114.9C308.093 114.9 308.453 114.792 308.741 114.576C309.037 114.352 309.257 114.064 309.401 113.712C309.553 113.36 309.629 112.988 309.629 112.596C309.629 112.196 309.553 111.824 309.401 111.48C309.257 111.128 309.037 110.844 308.741 110.628C308.453 110.404 308.093 110.292 307.661 110.292C307.237 110.292 306.877 110.404 306.581 110.628C306.285 110.844 306.061 111.128 305.909 111.48C305.765 111.824 305.693 112.196 305.693 112.596C305.693 112.988 305.765 113.36 305.909 113.712C306.061 114.064 306.285 114.352 306.581 114.576C306.877 114.792 307.237 114.9 307.661 114.9ZM313.092 115.776V110.352H312.048V109.416H313.092V108.636C313.092 108.3 313.152 107.972 313.272 107.652C313.392 107.324 313.592 107.056 313.872 106.848C314.152 106.64 314.532 106.536 315.012 106.536C315.244 106.536 315.428 106.556 315.564 106.596C315.708 106.628 315.78 106.644 315.78 106.644V107.544C315.78 107.544 315.716 107.532 315.588 107.508C315.468 107.476 315.328 107.46 315.168 107.46C314.8 107.46 314.552 107.572 314.424 107.796C314.296 108.02 314.232 108.3 314.232 108.636V109.416H315.708V110.352H314.232V115.776H313.092ZM319.442 115.776L322.574 106.896H324.05L327.194 115.776H325.946L325.202 113.652H321.434L320.69 115.776H319.442ZM321.794 112.596H324.842L323.318 108.24L321.794 112.596ZM331.161 115.896C330.505 115.896 330.009 115.728 329.673 115.392C329.345 115.056 329.181 114.584 329.181 113.976V110.352H328.041V109.416H329.181V107.82H330.321V109.416H331.869V110.352H330.321V113.976C330.321 114.296 330.409 114.532 330.585 114.684C330.761 114.828 331.017 114.9 331.353 114.9C331.529 114.9 331.697 114.888 331.857 114.864C332.017 114.84 332.097 114.828 332.097 114.828V115.8C332.097 115.8 332.005 115.816 331.821 115.848C331.637 115.88 331.417 115.896 331.161 115.896ZM336.177 115.896C335.521 115.896 335.025 115.728 334.689 115.392C334.361 115.056 334.197 114.584 334.197 113.976V110.352H333.057V109.416H334.197V107.82H335.337V109.416H336.885V110.352H335.337V113.976C335.337 114.296 335.425 114.532 335.601 114.684C335.777 114.828 336.033 114.9 336.369 114.9C336.545 114.9 336.713 114.888 336.873 114.864C337.033 114.84 337.113 114.828 337.113 114.828V115.8C337.113 115.8 337.021 115.816 336.837 115.848C336.653 115.88 336.433 115.896 336.177 115.896ZM341.387 115.896C340.707 115.896 340.135 115.74 339.671 115.428C339.207 115.108 338.855 114.696 338.615 114.192C338.375 113.688 338.255 113.156 338.255 112.596C338.255 112.028 338.375 111.496 338.615 111C338.855 110.496 339.207 110.088 339.671 109.776C340.135 109.456 340.707 109.296 341.387 109.296C342.067 109.296 342.639 109.456 343.103 109.776C343.567 110.088 343.919 110.496 344.159 111C344.399 111.496 344.519 112.028 344.519 112.596C344.519 113.156 344.399 113.688 344.159 114.192C343.919 114.696 343.567 115.108 343.103 115.428C342.639 115.74 342.067 115.896 341.387 115.896ZM341.387 114.9C341.819 114.9 342.179 114.792 342.467 114.576C342.763 114.352 342.983 114.064 343.127 113.712C343.279 113.36 343.355 112.988 343.355 112.596C343.355 112.196 343.279 111.824 343.127 111.48C342.983 111.128 342.763 110.844 342.467 110.628C342.179 110.404 341.819 110.292 341.387 110.292C340.963 110.292 340.603 110.404 340.307 110.628C340.011 110.844 339.787 111.128 339.635 111.48C339.491 111.824 339.419 112.196 339.419 112.596C339.419 112.988 339.491 113.36 339.635 113.712C339.787 114.064 340.011 114.352 340.307 114.576C340.603 114.792 340.963 114.9 341.387 114.9ZM346.074 115.776V109.416H347.214V110.208H347.262C347.398 109.968 347.598 109.756 347.862 109.572C348.126 109.388 348.498 109.296 348.978 109.296C349.114 109.296 349.238 109.304 349.35 109.32C349.462 109.328 349.518 109.332 349.518 109.332V110.424C349.518 110.424 349.454 110.42 349.326 110.412C349.206 110.396 349.078 110.388 348.942 110.388C348.39 110.388 347.962 110.548 347.658 110.868C347.362 111.18 347.214 111.692 347.214 112.404V115.776H346.074ZM350.774 115.776V109.416H351.914V110.34H351.986C352.042 110.244 352.134 110.112 352.262 109.944C352.398 109.776 352.59 109.628 352.838 109.5C353.086 109.364 353.398 109.296 353.774 109.296C354.238 109.296 354.634 109.404 354.962 109.62C355.29 109.828 355.538 110.112 355.706 110.472C355.882 110.832 355.97 111.236 355.97 111.684V115.776H354.83V111.756C354.83 111.332 354.71 110.98 354.47 110.7C354.238 110.42 353.898 110.28 353.45 110.28C353.09 110.28 352.798 110.372 352.574 110.556C352.35 110.732 352.182 110.968 352.07 111.264C351.966 111.552 351.914 111.86 351.914 112.188V115.776H350.774ZM360.545 115.896C360.025 115.896 359.573 115.804 359.189 115.62C358.813 115.428 358.501 115.172 358.253 114.852C358.013 114.532 357.833 114.18 357.713 113.796C357.593 113.404 357.533 113.004 357.533 112.596C357.533 112.196 357.589 111.8 357.701 111.408C357.821 111.016 358.001 110.66 358.241 110.34C358.489 110.02 358.797 109.768 359.165 109.584C359.541 109.392 359.985 109.296 360.497 109.296C361.041 109.296 361.521 109.42 361.937 109.668C362.353 109.916 362.681 110.284 362.921 110.772C363.161 111.26 363.281 111.872 363.281 112.608V112.944H358.685C358.709 113.304 358.793 113.636 358.937 113.94C359.089 114.236 359.301 114.476 359.573 114.66C359.845 114.836 360.169 114.924 360.545 114.924C360.873 114.924 361.137 114.872 361.337 114.768C361.545 114.656 361.709 114.528 361.829 114.384C361.949 114.24 362.029 114.116 362.069 114.012C362.117 113.9 362.141 113.844 362.141 113.844H363.209C363.209 113.844 363.189 113.916 363.148 114.06C363.109 114.196 363.037 114.364 362.933 114.564C362.829 114.764 362.677 114.968 362.477 115.176C362.277 115.376 362.021 115.548 361.709 115.692C361.397 115.828 361.009 115.896 360.545 115.896ZM358.697 112.056H362.165C362.149 111.64 362.061 111.304 361.901 111.048C361.741 110.784 361.537 110.588 361.289 110.46C361.041 110.332 360.777 110.268 360.497 110.268C359.993 110.268 359.581 110.432 359.261 110.76C358.941 111.08 358.753 111.512 358.697 112.056ZM364.654 118.116C364.47 118.116 364.314 118.108 364.186 118.092C364.058 118.076 363.994 118.068 363.994 118.068V117.096C363.994 117.096 364.058 117.1 364.186 117.108C364.322 117.124 364.466 117.132 364.618 117.132C365.09 117.132 365.474 117.032 365.77 116.832C366.074 116.64 366.33 116.32 366.538 115.872L364.078 109.416H365.266L367.102 114.384L368.95 109.416H370.15L367.69 115.788C367.378 116.588 366.974 117.176 366.478 117.552C365.99 117.928 365.382 118.116 364.654 118.116Z" fill="#94A3B8"/>
<rect x="224" y="135.276" width="182" height="10" rx="4" fill="#F1F5F9"/>
<rect x="224" y="149.276" width="117" height="10" rx="4" fill="#F1F5F9"/>
<rect x="224" y="167.276" width="182" height="10" rx="4" fill="#F1F5F9"/>
<rect x="224" y="181.276" width="182" height="10" rx="4" fill="#F1F5F9"/>
<rect x="224" y="199.276" width="182" height="10" rx="4" fill="#F1F5F9"/>
<rect x="224" y="213.276" width="182" height="10" rx="4" fill="#F1F5F9"/>
<rect x="224" y="231.276" width="182" height="10" rx="4" fill="#F1F5F9"/>
<rect x="224" y="245.276" width="117" height="10" rx="4" fill="#F1F5F9"/>
</g>
<g filter="url(#filter4_dd_360_1527)">
<rect x="424" y="85.2764" width="202" height="180" rx="16" fill="white" shape-rendering="crispEdges"/>
<rect x="424.5" y="85.7764" width="201" height="179" rx="15.5" stroke="#F1F5F9" shape-rendering="crispEdges"/>
<rect x="434" y="95.2764" width="32" height="32" rx="12" fill="#059669" fill-opacity="0.06"/>
<rect x="434.5" y="95.7764" width="31" height="31" rx="11.5" stroke="#059669" stroke-opacity="0.16"/>
<path d="M455.375 110.276H451C450.602 110.276 450.221 110.118 449.939 109.837C449.658 109.556 449.5 109.174 449.5 108.776V104.401C449.5 104.368 449.487 104.336 449.463 104.313C449.44 104.29 449.408 104.276 449.375 104.276H446.5C445.97 104.276 445.461 104.487 445.086 104.862C444.711 105.237 444.5 105.746 444.5 106.276V116.276C444.5 116.807 444.711 117.316 445.086 117.691C445.461 118.066 445.97 118.276 446.5 118.276H453.5C454.03 118.276 454.539 118.066 454.914 117.691C455.289 117.316 455.5 116.807 455.5 116.276V110.401C455.5 110.368 455.487 110.336 455.463 110.313C455.44 110.29 455.408 110.276 455.375 110.276Z" fill="#059669"/>
<path d="M455.101 109.17L450.607 104.676C450.598 104.667 450.587 104.661 450.575 104.659C450.563 104.657 450.55 104.658 450.539 104.662C450.527 104.667 450.517 104.675 450.511 104.685C450.504 104.696 450.5 104.708 450.5 104.72V108.777C450.5 108.909 450.553 109.036 450.646 109.13C450.74 109.224 450.867 109.277 451 109.277H455.057C455.069 109.276 455.081 109.273 455.091 109.266C455.101 109.259 455.109 109.249 455.114 109.238C455.119 109.227 455.12 109.214 455.118 109.202C455.115 109.19 455.109 109.179 455.101 109.17Z" fill="#059669"/>
<path d="M476.844 108.276L474.48 99.3964H475.692L477.528 106.548L479.46 99.3964H480.612L482.544 106.524L484.368 99.3964H485.58L483.216 108.276H481.872L480.036 101.448L478.188 108.276H476.844ZM489.372 108.396C488.692 108.396 488.12 108.24 487.656 107.928C487.192 107.608 486.84 107.196 486.6 106.692C486.36 106.188 486.24 105.656 486.24 105.096C486.24 104.528 486.36 103.996 486.6 103.5C486.84 102.996 487.192 102.588 487.656 102.276C488.12 101.956 488.692 101.796 489.372 101.796C490.052 101.796 490.624 101.956 491.088 102.276C491.552 102.588 491.904 102.996 492.144 103.5C492.384 103.996 492.504 104.528 492.504 105.096C492.504 105.656 492.384 106.188 492.144 106.692C491.904 107.196 491.552 107.608 491.088 107.928C490.624 108.24 490.052 108.396 489.372 108.396ZM489.372 107.4C489.804 107.4 490.164 107.292 490.452 107.076C490.748 106.852 490.968 106.564 491.112 106.212C491.264 105.86 491.34 105.488 491.34 105.096C491.34 104.696 491.264 104.324 491.112 103.98C490.968 103.628 490.748 103.344 490.452 103.128C490.164 102.904 489.804 102.792 489.372 102.792C488.948 102.792 488.588 102.904 488.292 103.128C487.996 103.344 487.772 103.628 487.62 103.98C487.476 104.324 487.404 104.696 487.404 105.096C487.404 105.488 487.476 105.86 487.62 106.212C487.772 106.564 487.996 106.852 488.292 107.076C488.588 107.292 488.948 107.4 489.372 107.4ZM494.059 108.276V101.916H495.199V102.708H495.247C495.383 102.468 495.583 102.256 495.847 102.072C496.111 101.888 496.483 101.796 496.963 101.796C497.099 101.796 497.223 101.804 497.335 101.82C497.447 101.828 497.503 101.832 497.503 101.832V102.924C497.503 102.924 497.439 102.92 497.311 102.912C497.191 102.896 497.063 102.888 496.927 102.888C496.375 102.888 495.947 103.048 495.643 103.368C495.347 103.68 495.199 104.192 495.199 104.904V108.276H494.059ZM498.878 108.276V99.1564H500.018V104.46L502.55 101.916H504.038L501.11 104.808L504.098 108.276H502.646L500.018 105.216V108.276H498.878ZM508.3 108.276V99.3964H511.468C512.148 99.3964 512.712 99.5364 513.16 99.8164C513.616 100.096 513.956 100.46 514.18 100.908C514.412 101.348 514.528 101.808 514.528 102.288C514.528 102.776 514.412 103.244 514.18 103.692C513.956 104.132 513.616 104.496 513.16 104.784C512.712 105.064 512.148 105.204 511.468 105.204H509.476V108.276H508.3ZM511.468 100.428H509.476V104.172H511.468C511.892 104.172 512.244 104.08 512.524 103.896C512.804 103.712 513.012 103.48 513.148 103.2C513.292 102.912 513.364 102.612 513.364 102.3C513.364 101.988 513.292 101.688 513.148 101.4C513.012 101.112 512.804 100.88 512.524 100.704C512.244 100.52 511.892 100.428 511.468 100.428ZM518.56 108.396C518.04 108.396 517.588 108.304 517.204 108.12C516.828 107.928 516.516 107.672 516.268 107.352C516.028 107.032 515.848 106.68 515.728 106.296C515.608 105.904 515.548 105.504 515.548 105.096C515.548 104.696 515.604 104.3 515.716 103.908C515.836 103.516 516.016 103.16 516.256 102.84C516.504 102.52 516.812 102.268 517.18 102.084C517.556 101.892 518 101.796 518.512 101.796C519.056 101.796 519.536 101.92 519.952 102.168C520.368 102.416 520.696 102.784 520.936 103.272C521.176 103.76 521.296 104.372 521.296 105.108V105.444H516.7C516.724 105.804 516.808 106.136 516.952 106.44C517.104 106.736 517.316 106.976 517.588 107.16C517.86 107.336 518.184 107.424 518.56 107.424C518.888 107.424 519.152 107.372 519.352 107.268C519.56 107.156 519.724 107.028 519.844 106.884C519.964 106.74 520.044 106.616 520.084 106.512C520.132 106.4 520.156 106.344 520.156 106.344H521.224C521.224 106.344 521.204 106.416 521.164 106.56C521.124 106.696 521.052 106.864 520.948 107.064C520.844 107.264 520.692 107.468 520.492 107.676C520.292 107.876 520.036 108.048 519.724 108.192C519.412 108.328 519.024 108.396 518.56 108.396ZM516.712 104.556H520.18C520.164 104.14 520.076 103.804 519.916 103.548C519.756 103.284 519.552 103.088 519.304 102.96C519.056 102.832 518.792 102.768 518.512 102.768C518.008 102.768 517.596 102.932 517.276 103.26C516.956 103.58 516.768 104.012 516.712 104.556ZM522.852 108.276V101.916H523.992V102.708H524.04C524.176 102.468 524.376 102.256 524.64 102.072C524.904 101.888 525.276 101.796 525.756 101.796C525.892 101.796 526.016 101.804 526.128 101.82C526.24 101.828 526.296 101.832 526.296 101.832V102.924C526.296 102.924 526.232 102.92 526.104 102.912C525.984 102.896 525.856 102.888 525.72 102.888C525.168 102.888 524.74 103.048 524.436 103.368C524.14 103.68 523.992 104.192 523.992 104.904V108.276H522.852ZM527.551 108.276V101.916H528.691V102.84H528.739C528.803 102.72 528.903 102.58 529.039 102.42C529.175 102.252 529.359 102.108 529.591 101.988C529.831 101.86 530.131 101.796 530.491 101.796C530.963 101.796 531.359 101.912 531.679 102.144C532.007 102.368 532.251 102.672 532.411 103.056H532.423C532.599 102.704 532.847 102.408 533.167 102.168C533.495 101.92 533.919 101.796 534.439 101.796C535.127 101.796 535.655 102.032 536.023 102.504C536.399 102.968 536.587 103.568 536.587 104.304V108.276H535.447V104.364C535.447 103.892 535.335 103.512 535.111 103.224C534.887 102.928 534.563 102.78 534.139 102.78C533.771 102.78 533.475 102.88 533.251 103.08C533.035 103.28 532.879 103.528 532.783 103.824C532.687 104.12 532.639 104.416 532.639 104.712V108.276H531.499V104.364C531.499 103.892 531.387 103.512 531.163 103.224C530.947 102.928 530.623 102.78 530.191 102.78C529.823 102.78 529.527 102.88 529.303 103.08C529.087 103.28 528.931 103.532 528.835 103.836C528.739 104.132 528.691 104.424 528.691 104.712V108.276H527.551ZM539.006 100.704C538.79 100.704 538.61 100.632 538.466 100.488C538.33 100.344 538.262 100.172 538.262 99.9724C538.262 99.7644 538.33 99.5884 538.466 99.4444C538.61 99.3004 538.79 99.2284 539.006 99.2284C539.214 99.2284 539.39 99.3004 539.534 99.4444C539.678 99.5884 539.75 99.7644 539.75 99.9724C539.75 100.172 539.678 100.344 539.534 100.488C539.39 100.632 539.214 100.704 539.006 100.704ZM538.442 108.276V101.916H539.582V108.276H538.442ZM544.126 108.396C543.47 108.396 542.974 108.228 542.638 107.892C542.31 107.556 542.146 107.084 542.146 106.476V102.852H541.006V101.916H542.146V100.32H543.286V101.916H544.834V102.852H543.286V106.476C543.286 106.796 543.374 107.032 543.55 107.184C543.726 107.328 543.982 107.4 544.318 107.4C544.494 107.4 544.662 107.388 544.822 107.364C544.982 107.34 545.062 107.328 545.062 107.328V108.3C545.062 108.3 544.97 108.316 544.786 108.348C544.602 108.38 544.382 108.396 544.126 108.396ZM474.54 123.276L477.672 114.396H479.148L482.292 123.276H481.044L480.3 121.152H476.532L475.788 123.276H474.54ZM476.892 120.096H479.94L478.416 115.74L476.892 120.096ZM483.796 125.628V116.916H484.936V117.924H485.008C485.104 117.772 485.232 117.608 485.392 117.432C485.56 117.256 485.78 117.108 486.052 116.988C486.324 116.86 486.66 116.796 487.06 116.796C487.54 116.796 487.96 116.892 488.32 117.084C488.68 117.268 488.98 117.52 489.22 117.84C489.46 118.152 489.64 118.504 489.76 118.896C489.88 119.288 489.94 119.688 489.94 120.096C489.94 120.504 489.88 120.904 489.76 121.296C489.64 121.688 489.46 122.044 489.22 122.364C488.98 122.676 488.68 122.928 488.32 123.12C487.96 123.304 487.54 123.396 487.06 123.396C486.66 123.396 486.324 123.332 486.052 123.204C485.78 123.076 485.56 122.924 485.392 122.748C485.232 122.572 485.104 122.412 485.008 122.268H484.936V125.628H483.796ZM484.96 120.096C484.96 120.48 485.028 120.852 485.164 121.212C485.308 121.564 485.52 121.856 485.8 122.088C486.088 122.312 486.444 122.424 486.868 122.424C487.3 122.424 487.656 122.312 487.936 122.088C488.224 121.856 488.436 121.564 488.572 121.212C488.716 120.852 488.788 120.48 488.788 120.096C488.788 119.704 488.716 119.332 488.572 118.98C488.436 118.628 488.224 118.34 487.936 118.116C487.656 117.884 487.3 117.768 486.868 117.768C486.444 117.768 486.088 117.884 485.8 118.116C485.52 118.34 485.308 118.628 485.164 118.98C485.028 119.332 484.96 119.704 484.96 120.096ZM491.624 125.628V116.916H492.764V117.924H492.836C492.932 117.772 493.06 117.608 493.22 117.432C493.388 117.256 493.608 117.108 493.88 116.988C494.152 116.86 494.488 116.796 494.888 116.796C495.368 116.796 495.788 116.892 496.148 117.084C496.508 117.268 496.808 117.52 497.048 117.84C497.288 118.152 497.468 118.504 497.588 118.896C497.708 119.288 497.768 119.688 497.768 120.096C497.768 120.504 497.708 120.904 497.588 121.296C497.468 121.688 497.288 122.044 497.048 122.364C496.808 122.676 496.508 122.928 496.148 123.12C495.788 123.304 495.368 123.396 494.888 123.396C494.488 123.396 494.152 123.332 493.88 123.204C493.608 123.076 493.388 122.924 493.22 122.748C493.06 122.572 492.932 122.412 492.836 122.268H492.764V125.628H491.624ZM492.788 120.096C492.788 120.48 492.856 120.852 492.992 121.212C493.136 121.564 493.348 121.856 493.628 122.088C493.916 122.312 494.272 122.424 494.696 122.424C495.128 122.424 495.484 122.312 495.764 122.088C496.052 121.856 496.264 121.564 496.4 121.212C496.544 120.852 496.616 120.48 496.616 120.096C496.616 119.704 496.544 119.332 496.4 118.98C496.264 118.628 496.052 118.34 495.764 118.116C495.484 117.884 495.128 117.768 494.696 117.768C494.272 117.768 493.916 117.884 493.628 118.116C493.348 118.34 493.136 118.628 492.992 118.98C492.856 119.332 492.788 119.704 492.788 120.096ZM499.452 123.276L499.464 114.156H500.592V123.276H499.452ZM503.135 115.704C502.919 115.704 502.739 115.632 502.595 115.488C502.459 115.344 502.391 115.172 502.391 114.972C502.391 114.764 502.459 114.588 502.595 114.444C502.739 114.3 502.919 114.228 503.135 114.228C503.343 114.228 503.519 114.3 503.663 114.444C503.807 114.588 503.879 114.764 503.879 114.972C503.879 115.172 503.807 115.344 503.663 115.488C503.519 115.632 503.343 115.704 503.135 115.704ZM502.571 123.276V116.916H503.711V123.276H502.571ZM508.567 123.396C508.047 123.396 507.591 123.304 507.199 123.12C506.807 122.928 506.479 122.676 506.215 122.364C505.959 122.044 505.763 121.688 505.627 121.296C505.499 120.904 505.435 120.504 505.435 120.096C505.435 119.688 505.499 119.292 505.627 118.908C505.755 118.516 505.947 118.16 506.203 117.84C506.467 117.52 506.795 117.268 507.187 117.084C507.579 116.892 508.039 116.796 508.567 116.796C509.079 116.796 509.503 116.872 509.839 117.024C510.175 117.176 510.443 117.368 510.643 117.6C510.851 117.824 511.003 118.052 511.099 118.284C511.203 118.508 511.271 118.696 511.303 118.848C511.335 119 511.351 119.076 511.351 119.076H510.247C510.247 119.076 510.227 119.012 510.187 118.884C510.147 118.748 510.071 118.596 509.959 118.428C509.847 118.26 509.679 118.112 509.455 117.984C509.231 117.848 508.935 117.78 508.567 117.78C508.127 117.78 507.755 117.892 507.451 118.116C507.155 118.332 506.931 118.616 506.779 118.968C506.635 119.32 506.563 119.696 506.563 120.096C506.563 120.496 506.635 120.872 506.779 121.224C506.931 121.576 507.155 121.864 507.451 122.088C507.755 122.304 508.127 122.412 508.567 122.412C508.935 122.412 509.231 122.348 509.455 122.22C509.679 122.084 509.847 121.932 509.959 121.764C510.071 121.596 510.147 121.448 510.187 121.32C510.227 121.184 510.247 121.116 510.247 121.116H511.351C511.351 121.116 511.335 121.192 511.303 121.344C511.271 121.496 511.203 121.688 511.099 121.92C511.003 122.144 510.851 122.372 510.643 122.604C510.443 122.828 510.175 123.016 509.839 123.168C509.503 123.32 509.079 123.396 508.567 123.396ZM515.674 116.796C516.074 116.796 516.41 116.86 516.682 116.988C516.954 117.116 517.174 117.268 517.342 117.444C517.51 117.612 517.638 117.772 517.726 117.924H517.798V116.916H518.938V123.276H517.798V122.268H517.726C517.638 122.42 517.51 122.584 517.342 122.76C517.174 122.936 516.954 123.088 516.682 123.216C516.41 123.336 516.074 123.396 515.674 123.396C515.194 123.396 514.774 123.304 514.414 123.12C514.054 122.928 513.754 122.676 513.514 122.364C513.274 122.044 513.094 121.688 512.974 121.296C512.854 120.904 512.794 120.504 512.794 120.096C512.794 119.688 512.854 119.288 512.974 118.896C513.094 118.504 513.274 118.152 513.514 117.84C513.754 117.52 514.054 117.268 514.414 117.084C514.774 116.892 515.194 116.796 515.674 116.796ZM515.866 117.768C515.442 117.768 515.086 117.884 514.798 118.116C514.51 118.34 514.294 118.628 514.15 118.98C514.014 119.332 513.946 119.704 513.946 120.096C513.946 120.48 514.014 120.852 514.15 121.212C514.294 121.564 514.51 121.856 514.798 122.088C515.086 122.312 515.442 122.424 515.866 122.424C516.29 122.424 516.642 122.312 516.922 122.088C517.21 121.856 517.422 121.564 517.558 121.212C517.702 120.852 517.774 120.48 517.774 120.096C517.774 119.704 517.702 119.332 517.558 118.98C517.422 118.628 517.21 118.34 516.922 118.116C516.642 117.884 516.29 117.768 515.866 117.768ZM523.079 123.396C522.423 123.396 521.927 123.228 521.591 122.892C521.263 122.556 521.099 122.084 521.099 121.476V117.852H519.959V116.916H521.099V115.32H522.239V116.916H523.787V117.852H522.239V121.476C522.239 121.796 522.327 122.032 522.503 122.184C522.679 122.328 522.935 122.4 523.271 122.4C523.447 122.4 523.615 122.388 523.775 122.364C523.935 122.34 524.015 122.328 524.015 122.328V123.3C524.015 123.3 523.923 123.316 523.739 123.348C523.555 123.38 523.335 123.396 523.079 123.396ZM526.256 115.704C526.04 115.704 525.86 115.632 525.716 115.488C525.58 115.344 525.512 115.172 525.512 114.972C525.512 114.764 525.58 114.588 525.716 114.444C525.86 114.3 526.04 114.228 526.256 114.228C526.464 114.228 526.64 114.3 526.784 114.444C526.928 114.588 527 114.764 527 114.972C527 115.172 526.928 115.344 526.784 115.488C526.64 115.632 526.464 115.704 526.256 115.704ZM525.692 123.276V116.916H526.832V123.276H525.692ZM531.688 123.396C531.008 123.396 530.436 123.24 529.972 122.928C529.508 122.608 529.156 122.196 528.916 121.692C528.676 121.188 528.556 120.656 528.556 120.096C528.556 119.528 528.676 118.996 528.916 118.5C529.156 117.996 529.508 117.588 529.972 117.276C530.436 116.956 531.008 116.796 531.688 116.796C532.368 116.796 532.94 116.956 533.404 117.276C533.868 117.588 534.22 117.996 534.46 118.5C534.7 118.996 534.82 119.528 534.82 120.096C534.82 120.656 534.7 121.188 534.46 121.692C534.22 122.196 533.868 122.608 533.404 122.928C532.94 123.24 532.368 123.396 531.688 123.396ZM531.688 122.4C532.12 122.4 532.48 122.292 532.768 122.076C533.064 121.852 533.284 121.564 533.428 121.212C533.58 120.86 533.656 120.488 533.656 120.096C533.656 119.696 533.58 119.324 533.428 118.98C533.284 118.628 533.064 118.344 532.768 118.128C532.48 117.904 532.12 117.792 531.688 117.792C531.264 117.792 530.904 117.904 530.608 118.128C530.312 118.344 530.088 118.628 529.936 118.98C529.792 119.324 529.72 119.696 529.72 120.096C529.72 120.488 529.792 120.86 529.936 121.212C530.088 121.564 530.312 121.852 530.608 122.076C530.904 122.292 531.264 122.4 531.688 122.4ZM536.375 123.276V116.916H537.515V117.84H537.587C537.643 117.744 537.735 117.612 537.863 117.444C537.999 117.276 538.191 117.128 538.439 117C538.687 116.864 538.999 116.796 539.375 116.796C539.839 116.796 540.235 116.904 540.563 117.12C540.891 117.328 541.139 117.612 541.307 117.972C541.483 118.332 541.571 118.736 541.571 119.184V123.276H540.431V119.256C540.431 118.832 540.311 118.48 540.071 118.2C539.839 117.92 539.499 117.78 539.051 117.78C538.691 117.78 538.399 117.872 538.175 118.056C537.951 118.232 537.783 118.468 537.671 118.764C537.567 119.052 537.515 119.36 537.515 119.688V123.276H536.375Z" fill="#94A3B8"/>
<rect x="434" y="135.276" width="182" height="10" rx="4" fill="#F1F5F9"/>
<rect x="434" y="149.276" width="117" height="10" rx="4" fill="#F1F5F9"/>
<rect x="434" y="167.276" width="182" height="10" rx="4" fill="#F1F5F9"/>
<rect x="434" y="181.276" width="182" height="10" rx="4" fill="#F1F5F9"/>
<rect x="434" y="199.276" width="182" height="10" rx="4" fill="#F1F5F9"/>
<rect x="434" y="213.276" width="182" height="10" rx="4" fill="#F1F5F9"/>
<rect x="434" y="231.276" width="182" height="10" rx="4" fill="#F1F5F9"/>
<rect x="434" y="245.276" width="117" height="10" rx="4" fill="#F1F5F9"/>
</g>
<defs>
<filter id="filter0_dd_360_1527" x="105" y="0" width="210" height="188" filterUnits="userSpaceOnUse" color-interpolation-filters="sRGB">
<feFlood flood-opacity="0" result="BackgroundImageFix"/>
<feColorMatrix in="SourceAlpha" type="matrix" values="0 0 0 0 0 0 0 0 0 0 0 0 0 0 0 0 0 0 127 0" result="hardAlpha"/>
<feOffset dy="1"/>
<feGaussianBlur stdDeviation="2"/>
<feComposite in2="hardAlpha" operator="out"/>
<feColorMatrix type="matrix" values="0 0 0 0 0.0470588 0 0 0 0 0.0470588 0 0 0 0 0.0509804 0 0 0 0.05 0"/>
<feBlend mode="normal" in2="BackgroundImageFix" result="effect1_dropShadow_360_1527"/>
<feColorMatrix in="SourceAlpha" type="matrix" values="0 0 0 0 0 0 0 0 0 0 0 0 0 0 0 0 0 0 127 0" result="hardAlpha"/>
<feOffset dy="1"/>
<feGaussianBlur stdDeviation="2"/>
<feComposite in2="hardAlpha" operator="out"/>
<feColorMatrix type="matrix" values="0 0 0 0 0.0470588 0 0 0 0 0.0470588 0 0 0 0 0.0509804 0 0 0 0.1 0"/>
<feBlend mode="normal" in2="effect1_dropShadow_360_1527" result="effect2_dropShadow_360_1527"/>
<feBlend mode="normal" in="SourceGraphic" in2="effect2_dropShadow_360_1527" result="shape"/>
</filter>
<filter id="filter1_dd_360_1527" x="315" y="0" width="210" height="188" filterUnits="userSpaceOnUse" color-interpolation-filters="sRGB">
<feFlood flood-opacity="0" result="BackgroundImageFix"/>
<feColorMatrix in="SourceAlpha" type="matrix" values="0 0 0 0 0 0 0 0 0 0 0 0 0 0 0 0 0 0 127 0" result="hardAlpha"/>
<feOffset dy="1"/>
<feGaussianBlur stdDeviation="2"/>
<feComposite in2="hardAlpha" operator="out"/>
<feColorMatrix type="matrix" values="0 0 0 0 0.0470588 0 0 0 0 0.0470588 0 0 0 0 0.0509804 0 0 0 0.05 0"/>
<feBlend mode="normal" in2="BackgroundImageFix" result="effect1_dropShadow_360_1527"/>
<feColorMatrix in="SourceAlpha" type="matrix" values="0 0 0 0 0 0 0 0 0 0 0 0 0 0 0 0 0 0 127 0" result="hardAlpha"/>
<feOffset dy="1"/>
<feGaussianBlur stdDeviation="2"/>
<feComposite in2="hardAlpha" operator="out"/>
<feColorMatrix type="matrix" values="0 0 0 0 0.0470588 0 0 0 0 0.0470588 0 0 0 0 0.0509804 0 0 0 0.1 0"/>
<feBlend mode="normal" in2="effect1_dropShadow_360_1527" result="effect2_dropShadow_360_1527"/>
<feBlend mode="normal" in="SourceGraphic" in2="effect2_dropShadow_360_1527" result="shape"/>
</filter>
<filter id="filter2_dd_360_1527" x="0" y="82.2764" width="210" height="188" filterUnits="userSpaceOnUse" color-interpolation-filters="sRGB">
<feFlood flood-opacity="0" result="BackgroundImageFix"/>
<feColorMatrix in="SourceAlpha" type="matrix" values="0 0 0 0 0 0 0 0 0 0 0 0 0 0 0 0 0 0 127 0" result="hardAlpha"/>
<feOffset dy="1"/>
<feGaussianBlur stdDeviation="2"/>
<feComposite in2="hardAlpha" operator="out"/>
<feColorMatrix type="matrix" values="0 0 0 0 0.0470588 0 0 0 0 0.0470588 0 0 0 0 0.0509804 0 0 0 0.05 0"/>
<feBlend mode="normal" in2="BackgroundImageFix" result="effect1_dropShadow_360_1527"/>
<feColorMatrix in="SourceAlpha" type="matrix" values="0 0 0 0 0 0 0 0 0 0 0 0 0 0 0 0 0 0 127 0" result="hardAlpha"/>
<feOffset dy="1"/>
<feGaussianBlur stdDeviation="2"/>
<feComposite in2="hardAlpha" operator="out"/>
<feColorMatrix type="matrix" values="0 0 0 0 0.0470588 0 0 0 0 0.0470588 0 0 0 0 0.0509804 0 0 0 0.1 0"/>
<feBlend mode="normal" in2="effect1_dropShadow_360_1527" result="effect2_dropShadow_360_1527"/>
<feBlend mode="normal" in="SourceGraphic" in2="effect2_dropShadow_360_1527" result="shape"/>
</filter>
<filter id="filter3_dd_360_1527" x="210" y="82.2764" width="210" height="188" filterUnits="userSpaceOnUse" color-interpolation-filters="sRGB">
<feFlood flood-opacity="0" result="BackgroundImageFix"/>
<feColorMatrix in="SourceAlpha" type="matrix" values="0 0 0 0 0 0 0 0 0 0 0 0 0 0 0 0 0 0 127 0" result="hardAlpha"/>
<feOffset dy="1"/>
<feGaussianBlur stdDeviation="2"/>
<feComposite in2="hardAlpha" operator="out"/>
<feColorMatrix type="matrix" values="0 0 0 0 0.0470588 0 0 0 0 0.0470588 0 0 0 0 0.0509804 0 0 0 0.05 0"/>
<feBlend mode="normal" in2="BackgroundImageFix" result="effect1_dropShadow_360_1527"/>
<feColorMatrix in="SourceAlpha" type="matrix" values="0 0 0 0 0 0 0 0 0 0 0 0 0 0 0 0 0 0 127 0" result="hardAlpha"/>
<feOffset dy="1"/>
<feGaussianBlur stdDeviation="2"/>
<feComposite in2="hardAlpha" operator="out"/>
<feColorMatrix type="matrix" values="0 0 0 0 0.0470588 0 0 0 0 0.0470588 0 0 0 0 0.0509804 0 0 0 0.1 0"/>
<feBlend mode="normal" in2="effect1_dropShadow_360_1527" result="effect2_dropShadow_360_1527"/>
<feBlend mode="normal" in="SourceGraphic" in2="effect2_dropShadow_360_1527" result="shape"/>
</filter>
<filter id="filter4_dd_360_1527" x="420" y="82.2764" width="210" height="188" filterUnits="userSpaceOnUse" color-interpolation-filters="sRGB">
<feFlood flood-opacity="0" result="BackgroundImageFix"/>
<feColorMatrix in="SourceAlpha" type="matrix" values="0 0 0 0 0 0 0 0 0 0 0 0 0 0 0 0 0 0 127 0" result="hardAlpha"/>
<feOffset dy="1"/>
<feGaussianBlur stdDeviation="2"/>
<feComposite in2="hardAlpha" operator="out"/>
<feColorMatrix type="matrix" values="0 0 0 0 0.0470588 0 0 0 0 0.0470588 0 0 0 0 0.0509804 0 0 0 0.05 0"/>
<feBlend mode="normal" in2="BackgroundImageFix" result="effect1_dropShadow_360_1527"/>
<feColorMatrix in="SourceAlpha" type="matrix" values="0 0 0 0 0 0 0 0 0 0 0 0 0 0 0 0 0 0 127 0" result="hardAlpha"/>
<feOffset dy="1"/>
<feGaussianBlur stdDeviation="2"/>
<feComposite in2="hardAlpha" operator="out"/>
<feColorMatrix type="matrix" values="0 0 0 0 0.0470588 0 0 0 0 0.0470588 0 0 0 0 0.0509804 0 0 0 0.1 0"/>
<feBlend mode="normal" in2="effect1_dropShadow_360_1527" result="effect2_dropShadow_360_1527"/>
<feBlend mode="normal" in="SourceGraphic" in2="effect2_dropShadow_360_1527" result="shape"/>
</filter>
</defs>
</svg>
