<svg width="650" height="291" viewBox="0 0 650 291" fill="none" xmlns="http://www.w3.org/2000/svg">
<g filter="url(#filter0_dd_365_1746)">
<rect x="109" y="3" width="202" height="180" rx="16" fill="white" shape-rendering="crispEdges"/>
<rect x="109.5" y="3.5" width="201" height="179" rx="15.5" stroke="#F1F5F9" shape-rendering="crispEdges"/>
<rect x="119" y="13" width="32" height="32" rx="12" fill="#9333EA" fill-opacity="0.06"/>
<rect x="119.5" y="13.5" width="31" height="31" rx="11.5" stroke="#9333EA" stroke-opacity="0.16"/>
<path d="M140.375 28H136C135.602 28 135.221 27.842 134.939 27.5607C134.658 27.2794 134.5 26.8978 134.5 26.5V22.125C134.5 22.0918 134.487 22.0601 134.463 22.0366C134.44 22.0132 134.408 22 134.375 22H131.5C130.97 22 130.461 22.2107 130.086 22.5858C129.711 22.9609 129.5 23.4696 129.5 24V34C129.5 34.5304 129.711 35.0391 130.086 35.4142C130.461 35.7893 130.97 36 131.5 36H138.5C139.03 36 139.539 35.7893 139.914 35.4142C140.289 35.0391 140.5 34.5304 140.5 34V28.125C140.5 28.0918 140.487 28.0601 140.463 28.0366C140.44 28.0132 140.408 28 140.375 28Z" fill="#9333EA"/>
<path d="M140.101 26.8936L135.607 22.3995C135.598 22.3908 135.587 22.3849 135.575 22.3825C135.563 22.3801 135.55 22.3814 135.539 22.3861C135.527 22.3908 135.517 22.3988 135.511 22.409C135.504 22.4192 135.5 22.4313 135.5 22.4436V26.5001C135.5 26.6328 135.553 26.7599 135.646 26.8537C135.74 26.9475 135.867 27.0001 136 27.0001H140.057C140.069 27.0001 140.081 26.9964 140.091 26.9895C140.101 26.9827 140.109 26.9729 140.114 26.9615C140.119 26.9501 140.12 26.9376 140.118 26.9255C140.115 26.9134 140.109 26.9023 140.101 26.8936Z" fill="#9333EA"/>
<path d="M159.96 33.5V24.62H165.6V25.652H161.136V28.46H165.048V29.492H161.136V32.468H165.66V33.5H159.96ZM167.281 33.5V27.14H168.421V28.064H168.469C168.533 27.944 168.633 27.804 168.769 27.644C168.905 27.476 169.089 27.332 169.321 27.212C169.561 27.084 169.861 27.02 170.221 27.02C170.693 27.02 171.089 27.136 171.409 27.368C171.737 27.592 171.981 27.896 172.141 28.28H172.153C172.329 27.928 172.577 27.632 172.897 27.392C173.225 27.144 173.649 27.02 174.169 27.02C174.857 27.02 175.385 27.256 175.753 27.728C176.129 28.192 176.317 28.792 176.317 29.528V33.5H175.177V29.588C175.177 29.116 175.065 28.736 174.841 28.448C174.617 28.152 174.293 28.004 173.869 28.004C173.501 28.004 173.205 28.104 172.981 28.304C172.765 28.504 172.609 28.752 172.513 29.048C172.417 29.344 172.369 29.64 172.369 29.936V33.5H171.229V29.588C171.229 29.116 171.117 28.736 170.893 28.448C170.677 28.152 170.353 28.004 169.921 28.004C169.553 28.004 169.257 28.104 169.033 28.304C168.817 28.504 168.661 28.756 168.565 29.06C168.469 29.356 168.421 29.648 168.421 29.936V33.5H167.281ZM178.112 35.852V27.14H179.252V28.148H179.324C179.42 27.996 179.548 27.832 179.708 27.656C179.876 27.48 180.096 27.332 180.368 27.212C180.64 27.084 180.976 27.02 181.376 27.02C181.856 27.02 182.276 27.116 182.636 27.308C182.996 27.492 183.296 27.744 183.536 28.064C183.776 28.376 183.956 28.728 184.076 29.12C184.196 29.512 184.256 29.912 184.256 30.32C184.256 30.728 184.196 31.128 184.076 31.52C183.956 31.912 183.776 32.268 183.536 32.588C183.296 32.9 182.996 33.152 182.636 33.344C182.276 33.528 181.856 33.62 181.376 33.62C180.976 33.62 180.64 33.556 180.368 33.428C180.096 33.3 179.876 33.148 179.708 32.972C179.548 32.796 179.42 32.636 179.324 32.492H179.252V35.852H178.112ZM179.276 30.32C179.276 30.704 179.344 31.076 179.48 31.436C179.624 31.788 179.836 32.08 180.116 32.312C180.404 32.536 180.76 32.648 181.184 32.648C181.616 32.648 181.972 32.536 182.252 32.312C182.54 32.08 182.752 31.788 182.888 31.436C183.032 31.076 183.104 30.704 183.104 30.32C183.104 29.928 183.032 29.556 182.888 29.204C182.752 28.852 182.54 28.564 182.252 28.34C181.972 28.108 181.616 27.992 181.184 27.992C180.76 27.992 180.404 28.108 180.116 28.34C179.836 28.564 179.624 28.852 179.48 29.204C179.344 29.556 179.276 29.928 179.276 30.32ZM185.94 33.5L185.952 24.38H187.08V33.5H185.94ZM191.891 33.62C191.211 33.62 190.639 33.464 190.175 33.152C189.711 32.832 189.359 32.42 189.119 31.916C188.879 31.412 188.759 30.88 188.759 30.32C188.759 29.752 188.879 29.22 189.119 28.724C189.359 28.22 189.711 27.812 190.175 27.5C190.639 27.18 191.211 27.02 191.891 27.02C192.571 27.02 193.143 27.18 193.607 27.5C194.071 27.812 194.423 28.22 194.663 28.724C194.903 29.22 195.023 29.752 195.023 30.32C195.023 30.88 194.903 31.412 194.663 31.916C194.423 32.42 194.071 32.832 193.607 33.152C193.143 33.464 192.571 33.62 191.891 33.62ZM191.891 32.624C192.323 32.624 192.683 32.516 192.971 32.3C193.267 32.076 193.487 31.788 193.631 31.436C193.783 31.084 193.859 30.712 193.859 30.32C193.859 29.92 193.783 29.548 193.631 29.204C193.487 28.852 193.267 28.568 192.971 28.352C192.683 28.128 192.323 28.016 191.891 28.016C191.467 28.016 191.107 28.128 190.811 28.352C190.515 28.568 190.291 28.852 190.139 29.204C189.995 29.548 189.923 29.92 189.923 30.32C189.923 30.712 189.995 31.084 190.139 31.436C190.291 31.788 190.515 32.076 190.811 32.3C191.107 32.516 191.467 32.624 191.891 32.624ZM196.396 35.84C196.212 35.84 196.056 35.832 195.928 35.816C195.8 35.8 195.736 35.792 195.736 35.792V34.82C195.736 34.82 195.8 34.824 195.928 34.832C196.064 34.848 196.208 34.856 196.36 34.856C196.832 34.856 197.216 34.756 197.512 34.556C197.816 34.364 198.072 34.044 198.28 33.596L195.82 27.14H197.008L198.844 32.108L200.692 27.14H201.892L199.432 33.512C199.12 34.312 198.716 34.9 198.22 35.276C197.732 35.652 197.124 35.84 196.396 35.84ZM203.153 33.5V27.14H204.293V28.064H204.341C204.405 27.944 204.505 27.804 204.641 27.644C204.777 27.476 204.961 27.332 205.193 27.212C205.433 27.084 205.733 27.02 206.093 27.02C206.565 27.02 206.961 27.136 207.281 27.368C207.609 27.592 207.853 27.896 208.013 28.28H208.025C208.201 27.928 208.449 27.632 208.769 27.392C209.097 27.144 209.521 27.02 210.041 27.02C210.729 27.02 211.257 27.256 211.625 27.728C212.001 28.192 212.189 28.792 212.189 29.528V33.5H211.049V29.588C211.049 29.116 210.937 28.736 210.713 28.448C210.489 28.152 210.165 28.004 209.741 28.004C209.373 28.004 209.077 28.104 208.853 28.304C208.637 28.504 208.481 28.752 208.385 29.048C208.289 29.344 208.241 29.64 208.241 29.936V33.5H207.101V29.588C207.101 29.116 206.989 28.736 206.765 28.448C206.549 28.152 206.225 28.004 205.793 28.004C205.425 28.004 205.129 28.104 204.905 28.304C204.689 28.504 204.533 28.756 204.437 29.06C204.341 29.356 204.293 29.648 204.293 29.936V33.5H203.153ZM216.755 33.62C216.235 33.62 215.783 33.528 215.399 33.344C215.023 33.152 214.711 32.896 214.463 32.576C214.223 32.256 214.043 31.904 213.923 31.52C213.803 31.128 213.743 30.728 213.743 30.32C213.743 29.92 213.799 29.524 213.911 29.132C214.031 28.74 214.211 28.384 214.451 28.064C214.699 27.744 215.007 27.492 215.375 27.308C215.751 27.116 216.195 27.02 216.707 27.02C217.251 27.02 217.731 27.144 218.147 27.392C218.563 27.64 218.891 28.008 219.131 28.496C219.371 28.984 219.491 29.596 219.491 30.332V30.668H214.895C214.919 31.028 215.003 31.36 215.147 31.664C215.299 31.96 215.511 32.2 215.783 32.384C216.055 32.56 216.379 32.648 216.755 32.648C217.083 32.648 217.347 32.596 217.547 32.492C217.755 32.38 217.919 32.252 218.039 32.108C218.159 31.964 218.239 31.84 218.279 31.736C218.327 31.624 218.351 31.568 218.351 31.568H219.419C219.419 31.568 219.399 31.64 219.359 31.784C219.319 31.92 219.247 32.088 219.143 32.288C219.039 32.488 218.887 32.692 218.687 32.9C218.487 33.1 218.231 33.272 217.919 33.416C217.607 33.552 217.219 33.62 216.755 33.62ZM214.907 29.78H218.375C218.359 29.364 218.271 29.028 218.111 28.772C217.951 28.508 217.747 28.312 217.499 28.184C217.251 28.056 216.987 27.992 216.707 27.992C216.203 27.992 215.791 28.156 215.471 28.484C215.151 28.804 214.963 29.236 214.907 29.78ZM221.047 33.5V27.14H222.187V28.064H222.259C222.315 27.968 222.407 27.836 222.535 27.668C222.671 27.5 222.863 27.352 223.111 27.224C223.359 27.088 223.671 27.02 224.047 27.02C224.511 27.02 224.907 27.128 225.235 27.344C225.563 27.552 225.811 27.836 225.979 28.196C226.155 28.556 226.243 28.96 226.243 29.408V33.5H225.103V29.48C225.103 29.056 224.983 28.704 224.743 28.424C224.511 28.144 224.171 28.004 223.723 28.004C223.363 28.004 223.071 28.096 222.847 28.28C222.623 28.456 222.455 28.692 222.343 28.988C222.239 29.276 222.187 29.584 222.187 29.912V33.5H221.047ZM230.392 33.62C229.736 33.62 229.24 33.452 228.904 33.116C228.576 32.78 228.412 32.308 228.412 31.7V28.076H227.272V27.14H228.412V25.544H229.552V27.14H231.1V28.076H229.552V31.7C229.552 32.02 229.64 32.256 229.816 32.408C229.992 32.552 230.248 32.624 230.584 32.624C230.76 32.624 230.928 32.612 231.088 32.588C231.248 32.564 231.328 32.552 231.328 32.552V33.524C231.328 33.524 231.236 33.54 231.052 33.572C230.868 33.604 230.648 33.62 230.392 33.62ZM239.61 33.62C238.914 33.62 238.302 33.492 237.774 33.236C237.246 32.972 236.806 32.624 236.454 32.192C236.11 31.752 235.85 31.264 235.674 30.728C235.498 30.184 235.41 29.628 235.41 29.06C235.41 28.492 235.498 27.936 235.674 27.392C235.85 26.848 236.11 26.36 236.454 25.928C236.806 25.488 237.246 25.14 237.774 24.884C238.302 24.628 238.914 24.5 239.61 24.5C240.186 24.5 240.678 24.576 241.086 24.728C241.502 24.872 241.846 25.06 242.118 25.292C242.398 25.524 242.622 25.772 242.79 26.036C242.966 26.3 243.094 26.548 243.174 26.78C243.262 27.012 243.318 27.204 243.342 27.356C243.374 27.5 243.39 27.572 243.39 27.572H242.214C242.214 27.572 242.198 27.508 242.166 27.38C242.134 27.244 242.07 27.08 241.974 26.888C241.878 26.688 241.734 26.488 241.542 26.288C241.35 26.088 241.098 25.924 240.786 25.796C240.474 25.66 240.086 25.592 239.622 25.592C239.118 25.592 238.678 25.692 238.302 25.892C237.926 26.084 237.61 26.348 237.354 26.684C237.106 27.012 236.918 27.384 236.79 27.8C236.67 28.208 236.61 28.628 236.61 29.06C236.61 29.492 236.67 29.916 236.79 30.332C236.918 30.74 237.106 31.112 237.354 31.448C237.61 31.776 237.926 32.04 238.302 32.24C238.678 32.432 239.118 32.528 239.622 32.528C240.086 32.528 240.474 32.46 240.786 32.324C241.098 32.188 241.35 32.024 241.542 31.832C241.734 31.632 241.878 31.436 241.974 31.244C242.07 31.044 242.134 30.876 242.166 30.74C242.198 30.604 242.214 30.536 242.214 30.536H243.39C243.39 30.536 243.374 30.612 243.342 30.764C243.318 30.908 243.262 31.1 243.174 31.34C243.094 31.572 242.966 31.82 242.79 32.084C242.622 32.34 242.398 32.588 242.118 32.828C241.846 33.06 241.502 33.252 241.086 33.404C240.678 33.548 240.186 33.62 239.61 33.62ZM247.907 33.62C247.227 33.62 246.655 33.464 246.191 33.152C245.727 32.832 245.375 32.42 245.135 31.916C244.895 31.412 244.775 30.88 244.775 30.32C244.775 29.752 244.895 29.22 245.135 28.724C245.375 28.22 245.727 27.812 246.191 27.5C246.655 27.18 247.227 27.02 247.907 27.02C248.587 27.02 249.159 27.18 249.623 27.5C250.087 27.812 250.439 28.22 250.679 28.724C250.919 29.22 251.039 29.752 251.039 30.32C251.039 30.88 250.919 31.412 250.679 31.916C250.439 32.42 250.087 32.832 249.623 33.152C249.159 33.464 248.587 33.62 247.907 33.62ZM247.907 32.624C248.339 32.624 248.699 32.516 248.987 32.3C249.283 32.076 249.503 31.788 249.647 31.436C249.799 31.084 249.875 30.712 249.875 30.32C249.875 29.92 249.799 29.548 249.647 29.204C249.503 28.852 249.283 28.568 248.987 28.352C248.699 28.128 248.339 28.016 247.907 28.016C247.483 28.016 247.123 28.128 246.827 28.352C246.531 28.568 246.307 28.852 246.155 29.204C246.011 29.548 245.939 29.92 245.939 30.32C245.939 30.712 246.011 31.084 246.155 31.436C246.307 31.788 246.531 32.076 246.827 32.3C247.123 32.516 247.483 32.624 247.907 32.624ZM252.594 33.5V27.14H253.734V28.064H253.806C253.862 27.968 253.954 27.836 254.082 27.668C254.218 27.5 254.41 27.352 254.658 27.224C254.906 27.088 255.218 27.02 255.594 27.02C256.058 27.02 256.454 27.128 256.782 27.344C257.11 27.552 257.358 27.836 257.526 28.196C257.702 28.556 257.79 28.96 257.79 29.408V33.5H256.65V29.48C256.65 29.056 256.53 28.704 256.29 28.424C256.058 28.144 255.718 28.004 255.27 28.004C254.91 28.004 254.618 28.096 254.394 28.28C254.17 28.456 254.002 28.692 253.89 28.988C253.786 29.276 253.734 29.584 253.734 29.912V33.5H252.594ZM261.938 33.62C261.282 33.62 260.786 33.452 260.45 33.116C260.122 32.78 259.958 32.308 259.958 31.7V28.076H258.818V27.14H259.958V25.544H261.098V27.14H262.646V28.076H261.098V31.7C261.098 32.02 261.186 32.256 261.362 32.408C261.538 32.552 261.794 32.624 262.13 32.624C262.306 32.624 262.474 32.612 262.634 32.588C262.794 32.564 262.874 32.552 262.874 32.552V33.524C262.874 33.524 262.782 33.54 262.598 33.572C262.414 33.604 262.194 33.62 261.938 33.62ZM264.371 33.5V27.14H265.511V27.932H265.559C265.695 27.692 265.895 27.48 266.159 27.296C266.423 27.112 266.795 27.02 267.275 27.02C267.411 27.02 267.535 27.028 267.647 27.044C267.759 27.052 267.815 27.056 267.815 27.056V28.148C267.815 28.148 267.751 28.144 267.623 28.136C267.503 28.12 267.375 28.112 267.239 28.112C266.687 28.112 266.259 28.272 265.955 28.592C265.659 28.904 265.511 29.416 265.511 30.128V33.5H264.371ZM271.35 27.02C271.75 27.02 272.086 27.084 272.358 27.212C272.63 27.34 272.85 27.492 273.018 27.668C273.186 27.836 273.314 27.996 273.402 28.148H273.474V27.14H274.614V33.5H273.474V32.492H273.402C273.314 32.644 273.186 32.808 273.018 32.984C272.85 33.16 272.63 33.312 272.358 33.44C272.086 33.56 271.75 33.62 271.35 33.62C270.87 33.62 270.45 33.528 270.09 33.344C269.73 33.152 269.43 32.9 269.19 32.588C268.95 32.268 268.77 31.912 268.65 31.52C268.53 31.128 268.47 30.728 268.47 30.32C268.47 29.912 268.53 29.512 268.65 29.12C268.77 28.728 268.95 28.376 269.19 28.064C269.43 27.744 269.73 27.492 270.09 27.308C270.45 27.116 270.87 27.02 271.35 27.02ZM271.542 27.992C271.118 27.992 270.762 28.108 270.474 28.34C270.186 28.564 269.97 28.852 269.826 29.204C269.69 29.556 269.622 29.928 269.622 30.32C269.622 30.704 269.69 31.076 269.826 31.436C269.97 31.788 270.186 32.08 270.474 32.312C270.762 32.536 271.118 32.648 271.542 32.648C271.966 32.648 272.318 32.536 272.598 32.312C272.886 32.08 273.098 31.788 273.234 31.436C273.378 31.076 273.45 30.704 273.45 30.32C273.45 29.928 273.378 29.556 273.234 29.204C273.098 28.852 272.886 28.564 272.598 28.34C272.318 28.108 271.966 27.992 271.542 27.992ZM279.301 33.62C278.781 33.62 278.325 33.528 277.933 33.344C277.541 33.152 277.213 32.9 276.949 32.588C276.693 32.268 276.497 31.912 276.361 31.52C276.233 31.128 276.169 30.728 276.169 30.32C276.169 29.912 276.233 29.516 276.361 29.132C276.489 28.74 276.681 28.384 276.937 28.064C277.201 27.744 277.529 27.492 277.921 27.308C278.313 27.116 278.773 27.02 279.301 27.02C279.813 27.02 280.237 27.096 280.573 27.248C280.909 27.4 281.177 27.592 281.377 27.824C281.585 28.048 281.737 28.276 281.833 28.508C281.937 28.732 282.005 28.92 282.037 29.072C282.069 29.224 282.085 29.3 282.085 29.3H280.981C280.981 29.3 280.961 29.236 280.921 29.108C280.881 28.972 280.805 28.82 280.693 28.652C280.581 28.484 280.413 28.336 280.189 28.208C279.965 28.072 279.669 28.004 279.301 28.004C278.861 28.004 278.489 28.116 278.185 28.34C277.889 28.556 277.665 28.84 277.513 29.192C277.369 29.544 277.297 29.92 277.297 30.32C277.297 30.72 277.369 31.096 277.513 31.448C277.665 31.8 277.889 32.088 278.185 32.312C278.489 32.528 278.861 32.636 279.301 32.636C279.669 32.636 279.965 32.572 280.189 32.444C280.413 32.308 280.581 32.156 280.693 31.988C280.805 31.82 280.881 31.672 280.921 31.544C280.961 31.408 280.981 31.34 280.981 31.34H282.085C282.085 31.34 282.069 31.416 282.037 31.568C282.005 31.72 281.937 31.912 281.833 32.144C281.737 32.368 281.585 32.596 281.377 32.828C281.177 33.052 280.909 33.24 280.573 33.392C280.237 33.544 279.813 33.62 279.301 33.62ZM286.349 33.62C285.693 33.62 285.197 33.452 284.861 33.116C284.533 32.78 284.369 32.308 284.369 31.7V28.076H283.229V27.14H284.369V25.544H285.509V27.14H287.057V28.076H285.509V31.7C285.509 32.02 285.597 32.256 285.773 32.408C285.949 32.552 286.205 32.624 286.541 32.624C286.717 32.624 286.885 32.612 287.045 32.588C287.205 32.564 287.285 32.552 287.285 32.552V33.524C287.285 33.524 287.193 33.54 287.009 33.572C286.825 33.604 286.605 33.62 286.349 33.62ZM291.109 33.62C290.621 33.62 290.217 33.552 289.897 33.416C289.585 33.28 289.337 33.112 289.153 32.912C288.969 32.704 288.833 32.5 288.745 32.3C288.657 32.092 288.601 31.92 288.577 31.784C288.553 31.648 288.541 31.58 288.541 31.58H289.693C289.693 31.58 289.705 31.636 289.729 31.748C289.761 31.852 289.821 31.976 289.909 32.12C290.005 32.256 290.149 32.38 290.341 32.492C290.541 32.596 290.805 32.648 291.133 32.648C291.509 32.648 291.801 32.56 292.009 32.384C292.217 32.2 292.321 31.976 292.321 31.712C292.321 31.48 292.237 31.296 292.069 31.16C291.909 31.024 291.677 30.92 291.373 30.848L290.509 30.644C290.189 30.564 289.889 30.456 289.609 30.32C289.329 30.184 289.101 30 288.925 29.768C288.757 29.528 288.673 29.232 288.673 28.88C288.673 28.336 288.877 27.892 289.285 27.548C289.693 27.196 290.225 27.02 290.881 27.02C291.321 27.02 291.685 27.084 291.973 27.212C292.261 27.332 292.489 27.484 292.657 27.668C292.833 27.852 292.961 28.036 293.041 28.22C293.129 28.404 293.185 28.56 293.209 28.688C293.233 28.808 293.245 28.868 293.245 28.868H292.141C292.141 28.868 292.129 28.824 292.105 28.736C292.081 28.64 292.025 28.536 291.937 28.424C291.857 28.304 291.733 28.2 291.565 28.112C291.397 28.016 291.173 27.968 290.893 27.968C290.509 27.968 290.229 28.056 290.053 28.232C289.877 28.408 289.789 28.6 289.789 28.808C289.789 29.008 289.869 29.172 290.029 29.3C290.197 29.42 290.413 29.512 290.677 29.576L291.553 29.78C292.097 29.908 292.545 30.12 292.897 30.416C293.257 30.704 293.437 31.12 293.437 31.664C293.437 32.016 293.345 32.344 293.161 32.648C292.977 32.944 292.713 33.18 292.369 33.356C292.025 33.532 291.605 33.62 291.109 33.62Z" fill="#94A3B8"/>
<rect x="119" y="53" width="182" height="10" rx="4" fill="#F1F5F9"/>
<rect x="119" y="67" width="117" height="10" rx="4" fill="#F1F5F9"/>
<rect x="119" y="85" width="182" height="10" rx="4" fill="#F1F5F9"/>
<rect x="119" y="99" width="182" height="10" rx="4" fill="#F1F5F9"/>
<rect x="119" y="117" width="182" height="10" rx="4" fill="#F1F5F9"/>
<rect x="119" y="131" width="182" height="10" rx="4" fill="#F1F5F9"/>
<rect x="119" y="149" width="182" height="10" rx="4" fill="#F1F5F9"/>
<rect x="119" y="163" width="117" height="10" rx="4" fill="#F1F5F9"/>
</g>
<g filter="url(#filter1_dd_365_1746)">
<rect x="339" y="3" width="202" height="180" rx="16" fill="white" shape-rendering="crispEdges"/>
<rect x="339.5" y="3.5" width="201" height="179" rx="15.5" stroke="#F1F5F9" shape-rendering="crispEdges"/>
<rect x="349" y="13" width="32" height="32" rx="12" fill="#E11D48" fill-opacity="0.06"/>
<rect x="349.5" y="13.5" width="31" height="31" rx="11.5" stroke="#E11D48" stroke-opacity="0.16"/>
<path d="M370.375 28H366C365.602 28 365.221 27.842 364.939 27.5607C364.658 27.2794 364.5 26.8978 364.5 26.5V22.125C364.5 22.0918 364.487 22.0601 364.463 22.0366C364.44 22.0132 364.408 22 364.375 22H361.5C360.97 22 360.461 22.2107 360.086 22.5858C359.711 22.9609 359.5 23.4696 359.5 24V34C359.5 34.5304 359.711 35.0391 360.086 35.4142C360.461 35.7893 360.97 36 361.5 36H368.5C369.03 36 369.539 35.7893 369.914 35.4142C370.289 35.0391 370.5 34.5304 370.5 34V28.125C370.5 28.0918 370.487 28.0601 370.463 28.0366C370.44 28.0132 370.408 28 370.375 28Z" fill="#E11D48"/>
<path d="M370.101 26.8936L365.607 22.3995C365.598 22.3908 365.587 22.3849 365.575 22.3825C365.563 22.3801 365.55 22.3814 365.539 22.3861C365.527 22.3908 365.517 22.3988 365.511 22.409C365.504 22.4192 365.5 22.4313 365.5 22.4436V26.5001C365.5 26.6328 365.553 26.7599 365.646 26.8537C365.74 26.9475 365.867 27.0001 366 27.0001H370.057C370.069 27.0001 370.081 26.9964 370.091 26.9895C370.101 26.9827 370.109 26.9729 370.114 26.9615C370.119 26.9501 370.12 26.9376 370.118 26.9255C370.115 26.9134 370.109 26.9023 370.101 26.8936Z" fill="#E11D48"/>
<path d="M392.936 26.12C392.424 26.12 391.984 26.056 391.616 25.928C391.256 25.792 390.956 25.62 390.716 25.412C390.476 25.196 390.284 24.972 390.14 24.74C389.996 24.508 389.888 24.288 389.816 24.08C389.744 23.864 389.696 23.692 389.672 23.564C389.656 23.428 389.648 23.36 389.648 23.36H390.848C390.848 23.36 390.86 23.416 390.884 23.528C390.908 23.64 390.956 23.78 391.028 23.948C391.108 24.116 391.224 24.288 391.376 24.464C391.528 24.632 391.732 24.772 391.988 24.884C392.244 24.996 392.568 25.052 392.96 25.052C393.552 25.052 394.02 24.912 394.364 24.632C394.708 24.344 394.88 23.972 394.88 23.516C394.88 23.124 394.748 22.82 394.484 22.604C394.228 22.388 393.86 22.22 393.38 22.1L392.204 21.812C391.788 21.708 391.4 21.564 391.04 21.38C390.688 21.188 390.404 20.94 390.188 20.636C389.98 20.324 389.876 19.936 389.876 19.472C389.876 18.952 390.004 18.508 390.26 18.14C390.516 17.772 390.864 17.492 391.304 17.3C391.744 17.1 392.244 17 392.804 17C393.348 17 393.8 17.084 394.16 17.252C394.52 17.42 394.808 17.628 395.024 17.876C395.24 18.116 395.4 18.36 395.504 18.608C395.608 18.848 395.676 19.052 395.708 19.22C395.74 19.388 395.756 19.472 395.756 19.472H394.604C394.604 19.472 394.588 19.4 394.556 19.256C394.524 19.112 394.448 18.948 394.328 18.764C394.208 18.572 394.024 18.404 393.776 18.26C393.528 18.116 393.192 18.044 392.768 18.044C392.192 18.044 391.756 18.18 391.46 18.452C391.172 18.724 391.028 19.036 391.028 19.388C391.028 19.708 391.144 19.968 391.376 20.168C391.608 20.36 391.928 20.508 392.336 20.612L393.608 20.924C394.064 21.036 394.476 21.2 394.844 21.416C395.212 21.624 395.504 21.896 395.72 22.232C395.936 22.56 396.044 22.964 396.044 23.444C396.044 23.924 395.924 24.368 395.684 24.776C395.452 25.184 395.104 25.512 394.64 25.76C394.184 26 393.616 26.12 392.936 26.12ZM397.577 26V16.88H398.717V22.184L401.249 19.64H402.737L399.809 22.532L402.797 26H401.345L398.717 22.94V26H397.577ZM404.857 18.428C404.641 18.428 404.461 18.356 404.317 18.212C404.181 18.068 404.113 17.896 404.113 17.696C404.113 17.488 404.181 17.312 404.317 17.168C404.461 17.024 404.641 16.952 404.857 16.952C405.065 16.952 405.241 17.024 405.385 17.168C405.529 17.312 405.601 17.488 405.601 17.696C405.601 17.896 405.529 18.068 405.385 18.212C405.241 18.356 405.065 18.428 404.857 18.428ZM404.293 26V19.64H405.433V26H404.293ZM407.398 26L407.41 16.88H408.538V26H407.398ZM410.456 26L410.468 16.88H411.596V26H410.456ZM418.812 26L415.68 17.12H416.928L419.556 24.656L422.184 17.12H423.432L420.288 26H418.812ZM426.986 26.12C426.466 26.12 426.014 26.028 425.63 25.844C425.254 25.652 424.942 25.396 424.694 25.076C424.454 24.756 424.274 24.404 424.154 24.02C424.034 23.628 423.974 23.228 423.974 22.82C423.974 22.42 424.03 22.024 424.142 21.632C424.262 21.24 424.442 20.884 424.682 20.564C424.93 20.244 425.238 19.992 425.606 19.808C425.982 19.616 426.426 19.52 426.938 19.52C427.482 19.52 427.962 19.644 428.378 19.892C428.794 20.14 429.122 20.508 429.362 20.996C429.602 21.484 429.722 22.096 429.722 22.832V23.168H425.126C425.15 23.528 425.234 23.86 425.378 24.164C425.53 24.46 425.742 24.7 426.014 24.884C426.286 25.06 426.61 25.148 426.986 25.148C427.314 25.148 427.578 25.096 427.778 24.992C427.986 24.88 428.15 24.752 428.27 24.608C428.39 24.464 428.47 24.34 428.51 24.236C428.558 24.124 428.582 24.068 428.582 24.068H429.65C429.65 24.068 429.63 24.14 429.59 24.284C429.55 24.42 429.478 24.588 429.374 24.788C429.27 24.988 429.118 25.192 428.918 25.4C428.718 25.6 428.462 25.772 428.15 25.916C427.838 26.052 427.45 26.12 426.986 26.12ZM425.138 22.28H428.606C428.59 21.864 428.502 21.528 428.342 21.272C428.182 21.008 427.978 20.812 427.73 20.684C427.482 20.556 427.218 20.492 426.938 20.492C426.434 20.492 426.022 20.656 425.702 20.984C425.382 21.304 425.194 21.736 425.138 22.28ZM431.278 26V19.64H432.418V20.432H432.466C432.602 20.192 432.802 19.98 433.066 19.796C433.33 19.612 433.702 19.52 434.182 19.52C434.318 19.52 434.442 19.528 434.554 19.544C434.666 19.552 434.722 19.556 434.722 19.556V20.648C434.722 20.648 434.658 20.644 434.53 20.636C434.41 20.62 434.282 20.612 434.146 20.612C433.594 20.612 433.166 20.772 432.862 21.092C432.566 21.404 432.418 21.916 432.418 22.628V26H431.278ZM436.955 18.428C436.739 18.428 436.559 18.356 436.415 18.212C436.279 18.068 436.211 17.896 436.211 17.696C436.211 17.488 436.279 17.312 436.415 17.168C436.559 17.024 436.739 16.952 436.955 16.952C437.163 16.952 437.339 17.024 437.483 17.168C437.627 17.312 437.699 17.488 437.699 17.696C437.699 17.896 437.627 18.068 437.483 18.212C437.339 18.356 437.163 18.428 436.955 18.428ZM436.391 26V19.64H437.531V26H436.391ZM440.119 26V20.576H439.075V19.64H440.119V18.86C440.119 18.524 440.179 18.196 440.299 17.876C440.419 17.548 440.619 17.28 440.899 17.072C441.179 16.864 441.559 16.76 442.039 16.76C442.271 16.76 442.455 16.78 442.591 16.82C442.735 16.852 442.807 16.868 442.807 16.868V17.768C442.807 17.768 442.743 17.756 442.615 17.732C442.495 17.7 442.355 17.684 442.195 17.684C441.827 17.684 441.579 17.796 441.451 18.02C441.323 18.244 441.259 18.524 441.259 18.86V19.64H445.399V26H444.259V20.576H441.259V26H440.119ZM444.823 18.428C444.607 18.428 444.427 18.356 444.283 18.212C444.147 18.068 444.079 17.896 444.079 17.696C444.079 17.488 444.147 17.312 444.283 17.168C444.427 17.024 444.607 16.952 444.823 16.952C445.031 16.952 445.207 17.024 445.351 17.168C445.495 17.312 445.567 17.488 445.567 17.696C445.567 17.896 445.495 18.068 445.351 18.212C445.207 18.356 445.031 18.428 444.823 18.428ZM450.262 26.12C449.742 26.12 449.286 26.028 448.894 25.844C448.502 25.652 448.174 25.4 447.91 25.088C447.654 24.768 447.458 24.412 447.322 24.02C447.194 23.628 447.13 23.228 447.13 22.82C447.13 22.412 447.194 22.016 447.322 21.632C447.45 21.24 447.642 20.884 447.898 20.564C448.162 20.244 448.49 19.992 448.882 19.808C449.274 19.616 449.734 19.52 450.262 19.52C450.774 19.52 451.198 19.596 451.534 19.748C451.87 19.9 452.138 20.092 452.338 20.324C452.546 20.548 452.698 20.776 452.794 21.008C452.898 21.232 452.966 21.42 452.998 21.572C453.03 21.724 453.046 21.8 453.046 21.8H451.942C451.942 21.8 451.922 21.736 451.882 21.608C451.842 21.472 451.766 21.32 451.654 21.152C451.542 20.984 451.374 20.836 451.15 20.708C450.926 20.572 450.63 20.504 450.262 20.504C449.822 20.504 449.45 20.616 449.146 20.84C448.85 21.056 448.626 21.34 448.474 21.692C448.33 22.044 448.258 22.42 448.258 22.82C448.258 23.22 448.33 23.596 448.474 23.948C448.626 24.3 448.85 24.588 449.146 24.812C449.45 25.028 449.822 25.136 450.262 25.136C450.63 25.136 450.926 25.072 451.15 24.944C451.374 24.808 451.542 24.656 451.654 24.488C451.766 24.32 451.842 24.172 451.882 24.044C451.922 23.908 451.942 23.84 451.942 23.84H453.046C453.046 23.84 453.03 23.916 452.998 24.068C452.966 24.22 452.898 24.412 452.794 24.644C452.698 24.868 452.546 25.096 452.338 25.328C452.138 25.552 451.87 25.74 451.534 25.892C451.198 26.044 450.774 26.12 450.262 26.12ZM457.37 19.52C457.77 19.52 458.106 19.584 458.378 19.712C458.65 19.84 458.87 19.992 459.038 20.168C459.206 20.336 459.334 20.496 459.422 20.648H459.494V19.64H460.634V26H459.494V24.992H459.422C459.334 25.144 459.206 25.308 459.038 25.484C458.87 25.66 458.65 25.812 458.378 25.94C458.106 26.06 457.77 26.12 457.37 26.12C456.89 26.12 456.47 26.028 456.11 25.844C455.75 25.652 455.45 25.4 455.21 25.088C454.97 24.768 454.79 24.412 454.67 24.02C454.55 23.628 454.49 23.228 454.49 22.82C454.49 22.412 454.55 22.012 454.67 21.62C454.79 21.228 454.97 20.876 455.21 20.564C455.45 20.244 455.75 19.992 456.11 19.808C456.47 19.616 456.89 19.52 457.37 19.52ZM457.562 20.492C457.138 20.492 456.782 20.608 456.494 20.84C456.206 21.064 455.99 21.352 455.846 21.704C455.71 22.056 455.642 22.428 455.642 22.82C455.642 23.204 455.71 23.576 455.846 23.936C455.99 24.288 456.206 24.58 456.494 24.812C456.782 25.036 457.138 25.148 457.562 25.148C457.986 25.148 458.338 25.036 458.618 24.812C458.906 24.58 459.118 24.288 459.254 23.936C459.398 23.576 459.47 23.204 459.47 22.82C459.47 22.428 459.398 22.056 459.254 21.704C459.118 21.352 458.906 21.064 458.618 20.84C458.338 20.608 457.986 20.492 457.562 20.492ZM464.774 26.12C464.118 26.12 463.622 25.952 463.286 25.616C462.958 25.28 462.794 24.808 462.794 24.2V20.576H461.654V19.64H462.794V18.044H463.934V19.64H465.482V20.576H463.934V24.2C463.934 24.52 464.022 24.756 464.198 24.908C464.374 25.052 464.63 25.124 464.966 25.124C465.142 25.124 465.31 25.112 465.47 25.088C465.63 25.064 465.71 25.052 465.71 25.052V26.024C465.71 26.024 465.618 26.04 465.434 26.072C465.25 26.104 465.03 26.12 464.774 26.12ZM467.951 18.428C467.735 18.428 467.555 18.356 467.411 18.212C467.275 18.068 467.207 17.896 467.207 17.696C467.207 17.488 467.275 17.312 467.411 17.168C467.555 17.024 467.735 16.952 467.951 16.952C468.159 16.952 468.335 17.024 468.479 17.168C468.623 17.312 468.695 17.488 468.695 17.696C468.695 17.896 468.623 18.068 468.479 18.212C468.335 18.356 468.159 18.428 467.951 18.428ZM467.387 26V19.64H468.527V26H467.387ZM473.383 26.12C472.703 26.12 472.131 25.964 471.667 25.652C471.203 25.332 470.851 24.92 470.611 24.416C470.371 23.912 470.251 23.38 470.251 22.82C470.251 22.252 470.371 21.72 470.611 21.224C470.851 20.72 471.203 20.312 471.667 20C472.131 19.68 472.703 19.52 473.383 19.52C474.063 19.52 474.635 19.68 475.099 20C475.563 20.312 475.915 20.72 476.155 21.224C476.395 21.72 476.515 22.252 476.515 22.82C476.515 23.38 476.395 23.912 476.155 24.416C475.915 24.92 475.563 25.332 475.099 25.652C474.635 25.964 474.063 26.12 473.383 26.12ZM473.383 25.124C473.815 25.124 474.175 25.016 474.463 24.8C474.759 24.576 474.979 24.288 475.123 23.936C475.275 23.584 475.351 23.212 475.351 22.82C475.351 22.42 475.275 22.048 475.123 21.704C474.979 21.352 474.759 21.068 474.463 20.852C474.175 20.628 473.815 20.516 473.383 20.516C472.959 20.516 472.599 20.628 472.303 20.852C472.007 21.068 471.783 21.352 471.631 21.704C471.487 22.048 471.415 22.42 471.415 22.82C471.415 23.212 471.487 23.584 471.631 23.936C471.783 24.288 472.007 24.576 472.303 24.8C472.599 25.016 472.959 25.124 473.383 25.124ZM478.07 26V19.64H479.21V20.564H479.282C479.338 20.468 479.43 20.336 479.558 20.168C479.694 20 479.886 19.852 480.134 19.724C480.382 19.588 480.694 19.52 481.07 19.52C481.534 19.52 481.93 19.628 482.258 19.844C482.586 20.052 482.834 20.336 483.002 20.696C483.178 21.056 483.266 21.46 483.266 21.908V26H482.126V21.98C482.126 21.556 482.006 21.204 481.766 20.924C481.534 20.644 481.194 20.504 480.746 20.504C480.386 20.504 480.094 20.596 479.87 20.78C479.646 20.956 479.478 21.192 479.366 21.488C479.262 21.776 479.21 22.084 479.21 22.412V26H478.07ZM389.96 41V32.12H393.104C393.736 32.12 394.26 32.244 394.676 32.492C395.092 32.74 395.404 33.06 395.612 33.452C395.82 33.844 395.924 34.256 395.924 34.688C395.924 35.048 395.852 35.396 395.708 35.732C395.564 36.068 395.348 36.364 395.06 36.62C394.78 36.868 394.424 37.048 393.992 37.16L396.236 41H394.904L392.756 37.268H391.136V41H389.96ZM393.092 33.152H391.136V36.26H393.092C393.46 36.26 393.764 36.184 394.004 36.032C394.244 35.88 394.424 35.688 394.544 35.456C394.664 35.216 394.724 34.968 394.724 34.712C394.724 34.448 394.664 34.2 394.544 33.968C394.424 33.728 394.244 33.532 394.004 33.38C393.764 33.228 393.46 33.152 393.092 33.152ZM400.15 41.12C399.63 41.12 399.178 41.028 398.794 40.844C398.418 40.652 398.106 40.396 397.858 40.076C397.618 39.756 397.438 39.404 397.318 39.02C397.198 38.628 397.138 38.228 397.138 37.82C397.138 37.42 397.194 37.024 397.306 36.632C397.426 36.24 397.606 35.884 397.846 35.564C398.094 35.244 398.402 34.992 398.77 34.808C399.146 34.616 399.59 34.52 400.102 34.52C400.646 34.52 401.126 34.644 401.542 34.892C401.958 35.14 402.286 35.508 402.526 35.996C402.766 36.484 402.886 37.096 402.886 37.832V38.168H398.29C398.314 38.528 398.398 38.86 398.542 39.164C398.694 39.46 398.906 39.7 399.178 39.884C399.45 40.06 399.774 40.148 400.15 40.148C400.478 40.148 400.742 40.096 400.942 39.992C401.15 39.88 401.314 39.752 401.434 39.608C401.554 39.464 401.634 39.34 401.674 39.236C401.722 39.124 401.746 39.068 401.746 39.068H402.814C402.814 39.068 402.794 39.14 402.754 39.284C402.714 39.42 402.642 39.588 402.538 39.788C402.434 39.988 402.282 40.192 402.082 40.4C401.882 40.6 401.626 40.772 401.314 40.916C401.002 41.052 400.614 41.12 400.15 41.12ZM398.302 37.28H401.77C401.754 36.864 401.666 36.528 401.506 36.272C401.346 36.008 401.142 35.812 400.894 35.684C400.646 35.556 400.382 35.492 400.102 35.492C399.598 35.492 399.186 35.656 398.866 35.984C398.546 36.304 398.358 36.736 398.302 37.28ZM404.562 43.352V34.64H405.702V35.648H405.774C405.87 35.496 405.998 35.332 406.158 35.156C406.326 34.98 406.546 34.832 406.818 34.712C407.09 34.584 407.426 34.52 407.826 34.52C408.306 34.52 408.726 34.616 409.086 34.808C409.446 34.992 409.746 35.244 409.986 35.564C410.226 35.876 410.406 36.228 410.526 36.62C410.646 37.012 410.706 37.412 410.706 37.82C410.706 38.228 410.646 38.628 410.526 39.02C410.406 39.412 410.226 39.768 409.986 40.088C409.746 40.4 409.446 40.652 409.086 40.844C408.726 41.028 408.306 41.12 407.826 41.12C407.426 41.12 407.09 41.056 406.818 40.928C406.546 40.8 406.326 40.648 406.158 40.472C405.998 40.296 405.87 40.136 405.774 39.992H405.702V43.352H404.562ZM405.726 37.82C405.726 38.204 405.794 38.576 405.93 38.936C406.074 39.288 406.286 39.58 406.566 39.812C406.854 40.036 407.21 40.148 407.634 40.148C408.066 40.148 408.422 40.036 408.702 39.812C408.99 39.58 409.202 39.288 409.338 38.936C409.482 38.576 409.554 38.204 409.554 37.82C409.554 37.428 409.482 37.056 409.338 36.704C409.202 36.352 408.99 36.064 408.702 35.84C408.422 35.608 408.066 35.492 407.634 35.492C407.21 35.492 406.854 35.608 406.566 35.84C406.286 36.064 406.074 36.352 405.93 36.704C405.794 37.056 405.726 37.428 405.726 37.82ZM415.223 41.12C414.543 41.12 413.971 40.964 413.507 40.652C413.043 40.332 412.691 39.92 412.451 39.416C412.211 38.912 412.091 38.38 412.091 37.82C412.091 37.252 412.211 36.72 412.451 36.224C412.691 35.72 413.043 35.312 413.507 35C413.971 34.68 414.543 34.52 415.223 34.52C415.903 34.52 416.475 34.68 416.939 35C417.403 35.312 417.755 35.72 417.995 36.224C418.235 36.72 418.355 37.252 418.355 37.82C418.355 38.38 418.235 38.912 417.995 39.416C417.755 39.92 417.403 40.332 416.939 40.652C416.475 40.964 415.903 41.12 415.223 41.12ZM415.223 40.124C415.655 40.124 416.015 40.016 416.303 39.8C416.599 39.576 416.819 39.288 416.963 38.936C417.115 38.584 417.191 38.212 417.191 37.82C417.191 37.42 417.115 37.048 416.963 36.704C416.819 36.352 416.599 36.068 416.303 35.852C416.015 35.628 415.655 35.516 415.223 35.516C414.799 35.516 414.439 35.628 414.143 35.852C413.847 36.068 413.623 36.352 413.471 36.704C413.327 37.048 413.255 37.42 413.255 37.82C413.255 38.212 413.327 38.584 413.471 38.936C413.623 39.288 413.847 39.576 414.143 39.8C414.439 40.016 414.799 40.124 415.223 40.124ZM419.91 41V34.64H421.05V35.432H421.098C421.234 35.192 421.434 34.98 421.698 34.796C421.962 34.612 422.334 34.52 422.814 34.52C422.95 34.52 423.074 34.528 423.186 34.544C423.298 34.552 423.354 34.556 423.354 34.556V35.648C423.354 35.648 423.29 35.644 423.162 35.636C423.042 35.62 422.914 35.612 422.778 35.612C422.226 35.612 421.798 35.772 421.494 36.092C421.198 36.404 421.05 36.916 421.05 37.628V41H419.91ZM427.31 41.12C426.654 41.12 426.158 40.952 425.822 40.616C425.494 40.28 425.33 39.808 425.33 39.2V35.576H424.19V34.64H425.33V33.044H426.47V34.64H428.018V35.576H426.47V39.2C426.47 39.52 426.558 39.756 426.734 39.908C426.91 40.052 427.166 40.124 427.502 40.124C427.678 40.124 427.846 40.112 428.006 40.088C428.166 40.064 428.246 40.052 428.246 40.052V41.024C428.246 41.024 428.154 41.04 427.97 41.072C427.786 41.104 427.566 41.12 427.31 41.12ZM432.07 41.12C431.582 41.12 431.178 41.052 430.858 40.916C430.546 40.78 430.298 40.612 430.114 40.412C429.93 40.204 429.794 40 429.706 39.8C429.618 39.592 429.562 39.42 429.538 39.284C429.514 39.148 429.502 39.08 429.502 39.08H430.654C430.654 39.08 430.666 39.136 430.69 39.248C430.722 39.352 430.782 39.476 430.87 39.62C430.966 39.756 431.11 39.88 431.302 39.992C431.502 40.096 431.766 40.148 432.094 40.148C432.47 40.148 432.762 40.06 432.97 39.884C433.178 39.7 433.282 39.476 433.282 39.212C433.282 38.98 433.198 38.796 433.03 38.66C432.87 38.524 432.638 38.42 432.334 38.348L431.47 38.144C431.15 38.064 430.85 37.956 430.57 37.82C430.29 37.684 430.062 37.5 429.886 37.268C429.718 37.028 429.634 36.732 429.634 36.38C429.634 35.836 429.838 35.392 430.246 35.048C430.654 34.696 431.186 34.52 431.842 34.52C432.282 34.52 432.646 34.584 432.934 34.712C433.222 34.832 433.45 34.984 433.618 35.168C433.794 35.352 433.922 35.536 434.002 35.72C434.09 35.904 434.146 36.06 434.17 36.188C434.194 36.308 434.206 36.368 434.206 36.368H433.102C433.102 36.368 433.09 36.324 433.066 36.236C433.042 36.14 432.986 36.036 432.898 35.924C432.818 35.804 432.694 35.7 432.526 35.612C432.358 35.516 432.134 35.468 431.854 35.468C431.47 35.468 431.19 35.556 431.014 35.732C430.838 35.908 430.75 36.1 430.75 36.308C430.75 36.508 430.83 36.672 430.99 36.8C431.158 36.92 431.374 37.012 431.638 37.076L432.514 37.28C433.058 37.408 433.506 37.62 433.858 37.916C434.218 38.204 434.398 38.62 434.398 39.164C434.398 39.516 434.306 39.844 434.122 40.148C433.938 40.444 433.674 40.68 433.33 40.856C432.986 41.032 432.566 41.12 432.07 41.12Z" fill="#94A3B8"/>
<rect x="349" y="53" width="182" height="10" rx="4" fill="#F1F5F9"/>
<rect x="349" y="67" width="117" height="10" rx="4" fill="#F1F5F9"/>
<rect x="349" y="85" width="182" height="10" rx="4" fill="#F1F5F9"/>
<rect x="349" y="99" width="182" height="10" rx="4" fill="#F1F5F9"/>
<rect x="349" y="117" width="182" height="10" rx="4" fill="#F1F5F9"/>
<rect x="349" y="131" width="182" height="10" rx="4" fill="#F1F5F9"/>
<rect x="349" y="149" width="182" height="10" rx="4" fill="#F1F5F9"/>
<rect x="349" y="163" width="117" height="10" rx="4" fill="#F1F5F9"/>
</g>
<g filter="url(#filter2_dd_365_1746)">
<rect x="4" y="105.276" width="202" height="180" rx="16" fill="white" shape-rendering="crispEdges"/>
<rect x="4.5" y="105.776" width="201" height="179" rx="15.5" stroke="#F1F5F9" shape-rendering="crispEdges"/>
<rect x="14" y="115.276" width="32" height="32" rx="12" fill="#DB2777" fill-opacity="0.06"/>
<rect x="14.5" y="115.776" width="31" height="31" rx="11.5" stroke="#DB2777" stroke-opacity="0.16"/>
<path d="M35.375 130.276H31C30.6022 130.276 30.2206 130.118 29.9393 129.837C29.658 129.556 29.5 129.174 29.5 128.776V124.401C29.5 124.368 29.4868 124.336 29.4634 124.313C29.4399 124.29 29.4082 124.276 29.375 124.276H26.5C25.9696 124.276 25.4609 124.487 25.0858 124.862C24.7107 125.237 24.5 125.746 24.5 126.276V136.276C24.5 136.807 24.7107 137.316 25.0858 137.691C25.4609 138.066 25.9696 138.276 26.5 138.276H33.5C34.0304 138.276 34.5391 138.066 34.9142 137.691C35.2893 137.316 35.5 136.807 35.5 136.276V130.401C35.5 130.368 35.4868 130.336 35.4634 130.313C35.4399 130.29 35.4082 130.276 35.375 130.276Z" fill="#DB2777"/>
<path d="M35.1006 129.17L30.6066 124.676C30.5978 124.667 30.5867 124.661 30.5746 124.659C30.5625 124.657 30.55 124.658 30.5386 124.662C30.5272 124.667 30.5175 124.675 30.5106 124.685C30.5037 124.696 30.5001 124.708 30.5 124.72V128.777C30.5 128.909 30.5527 129.036 30.6464 129.13C30.7402 129.224 30.8674 129.277 31 129.277H35.0566C35.0689 129.276 35.0809 129.273 35.0911 129.266C35.1014 129.259 35.1093 129.249 35.1141 129.238C35.1188 129.227 35.12 129.214 35.1176 129.202C35.1152 129.19 35.1093 129.179 35.1006 129.17Z" fill="#DB2777"/>
<path d="M54.96 128.276V119.396H56.136V128.276H54.96ZM57.9338 128.276V121.916H59.0738V122.84H59.1458C59.2018 122.744 59.2938 122.612 59.4218 122.444C59.5578 122.276 59.7498 122.128 59.9978 122C60.2458 121.864 60.5578 121.796 60.9338 121.796C61.3978 121.796 61.7938 121.904 62.1218 122.12C62.4498 122.328 62.6978 122.612 62.8658 122.972C63.0418 123.332 63.1298 123.736 63.1298 124.184V128.276H61.9898V124.256C61.9898 123.832 61.8698 123.48 61.6298 123.2C61.3978 122.92 61.0578 122.78 60.6098 122.78C60.2498 122.78 59.9578 122.872 59.7338 123.056C59.5098 123.232 59.3418 123.468 59.2298 123.764C59.1258 124.052 59.0738 124.36 59.0738 124.688V128.276H57.9338ZM67.2783 128.396C66.6223 128.396 66.1263 128.228 65.7903 127.892C65.4623 127.556 65.2983 127.084 65.2983 126.476V122.852H64.1583V121.916H65.2983V120.32H66.4383V121.916H67.9863V122.852H66.4383V126.476C66.4383 126.796 66.5263 127.032 66.7023 127.184C66.8783 127.328 67.1343 127.4 67.4703 127.4C67.6463 127.4 67.8143 127.388 67.9743 127.364C68.1343 127.34 68.2143 127.328 68.2143 127.328V128.3C68.2143 128.3 68.1223 128.316 67.9383 128.348C67.7543 128.38 67.5343 128.396 67.2783 128.396ZM72.3687 128.396C71.8487 128.396 71.3967 128.304 71.0127 128.12C70.6367 127.928 70.3247 127.672 70.0767 127.352C69.8367 127.032 69.6567 126.68 69.5367 126.296C69.4167 125.904 69.3567 125.504 69.3567 125.096C69.3567 124.696 69.4127 124.3 69.5247 123.908C69.6447 123.516 69.8247 123.16 70.0647 122.84C70.3127 122.52 70.6207 122.268 70.9887 122.084C71.3647 121.892 71.8087 121.796 72.3207 121.796C72.8647 121.796 73.3447 121.92 73.7607 122.168C74.1767 122.416 74.5047 122.784 74.7447 123.272C74.9847 123.76 75.1047 124.372 75.1047 125.108V125.444H70.5087C70.5327 125.804 70.6167 126.136 70.7607 126.44C70.9127 126.736 71.1247 126.976 71.3967 127.16C71.6687 127.336 71.9927 127.424 72.3687 127.424C72.6967 127.424 72.9607 127.372 73.1607 127.268C73.3687 127.156 73.5327 127.028 73.6527 126.884C73.7727 126.74 73.8527 126.616 73.8927 126.512C73.9407 126.4 73.9647 126.344 73.9647 126.344H75.0327C75.0327 126.344 75.0127 126.416 74.9727 126.56C74.9327 126.696 74.8607 126.864 74.7567 127.064C74.6527 127.264 74.5007 127.468 74.3007 127.676C74.1007 127.876 73.8447 128.048 73.5327 128.192C73.2207 128.328 72.8327 128.396 72.3687 128.396ZM70.5207 124.556H73.9887C73.9727 124.14 73.8847 123.804 73.7247 123.548C73.5647 123.284 73.3607 123.088 73.1127 122.96C72.8647 122.832 72.6007 122.768 72.3207 122.768C71.8167 122.768 71.4047 122.932 71.0847 123.26C70.7647 123.58 70.5767 124.012 70.5207 124.556ZM76.6603 128.276V121.916H77.8003V122.708H77.8483C77.9843 122.468 78.1843 122.256 78.4483 122.072C78.7123 121.888 79.0843 121.796 79.5643 121.796C79.7003 121.796 79.8243 121.804 79.9363 121.82C80.0483 121.828 80.1043 121.832 80.1043 121.832V122.924C80.1043 122.924 80.0403 122.92 79.9123 122.912C79.7923 122.896 79.6643 122.888 79.5283 122.888C78.9763 122.888 78.5483 123.048 78.2443 123.368C77.9483 123.68 77.8003 124.192 77.8003 124.904V128.276H76.6603ZM83.3635 128.276L80.9395 121.916H82.1275L83.9875 126.884L85.8115 121.916H87.0115L84.5755 128.276H83.3635ZM89.0176 120.704C88.8016 120.704 88.6216 120.632 88.4776 120.488C88.3416 120.344 88.2736 120.172 88.2736 119.972C88.2736 119.764 88.3416 119.588 88.4776 119.444C88.6216 119.3 88.8016 119.228 89.0176 119.228C89.2256 119.228 89.4016 119.3 89.5456 119.444C89.6896 119.588 89.7616 119.764 89.7616 119.972C89.7616 120.172 89.6896 120.344 89.5456 120.488C89.4016 120.632 89.2256 120.704 89.0176 120.704ZM88.4536 128.276V121.916H89.5936V128.276H88.4536ZM94.3297 128.396C93.8097 128.396 93.3577 128.304 92.9737 128.12C92.5977 127.928 92.2857 127.672 92.0377 127.352C91.7977 127.032 91.6177 126.68 91.4977 126.296C91.3777 125.904 91.3177 125.504 91.3177 125.096C91.3177 124.696 91.3737 124.3 91.4857 123.908C91.6057 123.516 91.7857 123.16 92.0257 122.84C92.2737 122.52 92.5817 122.268 92.9497 122.084C93.3257 121.892 93.7697 121.796 94.2817 121.796C94.8257 121.796 95.3057 121.92 95.7217 122.168C96.1377 122.416 96.4657 122.784 96.7057 123.272C96.9457 123.76 97.0657 124.372 97.0657 125.108V125.444H92.4697C92.4937 125.804 92.5777 126.136 92.7217 126.44C92.8737 126.736 93.0857 126.976 93.3577 127.16C93.6297 127.336 93.9537 127.424 94.3297 127.424C94.6577 127.424 94.9217 127.372 95.1217 127.268C95.3297 127.156 95.4937 127.028 95.6137 126.884C95.7337 126.74 95.8137 126.616 95.8537 126.512C95.9017 126.4 95.9257 126.344 95.9257 126.344H96.9937C96.9937 126.344 96.9737 126.416 96.9337 126.56C96.8937 126.696 96.8217 126.864 96.7177 127.064C96.6137 127.264 96.4617 127.468 96.2617 127.676C96.0617 127.876 95.8057 128.048 95.4937 128.192C95.1817 128.328 94.7937 128.396 94.3297 128.396ZM92.4817 124.556H95.9497C95.9337 124.14 95.8457 123.804 95.6857 123.548C95.5257 123.284 95.3217 123.088 95.0737 122.96C94.8257 122.832 94.5617 122.768 94.2817 122.768C93.7777 122.768 93.3657 122.932 93.0457 123.26C92.7257 123.58 92.5377 124.012 92.4817 124.556ZM100.019 128.276L97.9669 121.916H99.1309L100.643 126.74L102.227 121.916H103.307L104.879 126.74L106.403 121.916H107.567L105.503 128.276H104.279L102.767 123.584L101.255 128.276H100.019ZM111.714 128.276V119.396H117.354V120.428H112.89V123.236H116.802V124.268H112.89V127.244H117.414V128.276H111.714ZM121.039 128.276L118.615 121.916H119.803L121.663 126.884L123.487 121.916H124.687L122.251 128.276H121.039ZM128.475 121.796C128.875 121.796 129.211 121.86 129.483 121.988C129.755 122.116 129.975 122.268 130.143 122.444C130.311 122.612 130.439 122.772 130.527 122.924H130.599V121.916H131.739V128.276H130.599V127.268H130.527C130.439 127.42 130.311 127.584 130.143 127.76C129.975 127.936 129.755 128.088 129.483 128.216C129.211 128.336 128.875 128.396 128.475 128.396C127.995 128.396 127.575 128.304 127.215 128.12C126.855 127.928 126.555 127.676 126.315 127.364C126.075 127.044 125.895 126.688 125.775 126.296C125.655 125.904 125.595 125.504 125.595 125.096C125.595 124.688 125.655 124.288 125.775 123.896C125.895 123.504 126.075 123.152 126.315 122.84C126.555 122.52 126.855 122.268 127.215 122.084C127.575 121.892 127.995 121.796 128.475 121.796ZM128.667 122.768C128.243 122.768 127.887 122.884 127.599 123.116C127.311 123.34 127.095 123.628 126.951 123.98C126.815 124.332 126.747 124.704 126.747 125.096C126.747 125.48 126.815 125.852 126.951 126.212C127.095 126.564 127.311 126.856 127.599 127.088C127.887 127.312 128.243 127.424 128.667 127.424C129.091 127.424 129.443 127.312 129.723 127.088C130.011 126.856 130.223 126.564 130.359 126.212C130.503 125.852 130.575 125.48 130.575 125.096C130.575 124.704 130.503 124.332 130.359 123.98C130.223 123.628 130.011 123.34 129.723 123.116C129.443 122.884 129.091 122.768 128.667 122.768ZM133.534 128.276L133.546 119.156H134.674V128.276H133.534ZM138.549 128.396C137.917 128.396 137.413 128.2 137.037 127.808C136.661 127.416 136.473 126.872 136.473 126.176V121.916H137.613V126.116C137.613 126.532 137.725 126.852 137.949 127.076C138.181 127.3 138.485 127.412 138.861 127.412C139.245 127.412 139.553 127.312 139.785 127.112C140.017 126.912 140.185 126.656 140.289 126.344C140.393 126.032 140.445 125.712 140.445 125.384V121.916H141.585V128.276H140.445V127.364H140.373C140.325 127.46 140.233 127.592 140.097 127.76C139.961 127.92 139.769 128.068 139.521 128.204C139.273 128.332 138.949 128.396 138.549 128.396ZM146.03 121.796C146.43 121.796 146.766 121.86 147.038 121.988C147.31 122.116 147.53 122.268 147.698 122.444C147.866 122.612 147.994 122.772 148.082 122.924H148.154V121.916H149.294V128.276H148.154V127.268H148.082C147.994 127.42 147.866 127.584 147.698 127.76C147.53 127.936 147.31 128.088 147.038 128.216C146.766 128.336 146.43 128.396 146.03 128.396C145.55 128.396 145.13 128.304 144.77 128.12C144.41 127.928 144.11 127.676 143.87 127.364C143.63 127.044 143.45 126.688 143.33 126.296C143.21 125.904 143.15 125.504 143.15 125.096C143.15 124.688 143.21 124.288 143.33 123.896C143.45 123.504 143.63 123.152 143.87 122.84C144.11 122.52 144.41 122.268 144.77 122.084C145.13 121.892 145.55 121.796 146.03 121.796ZM146.222 122.768C145.798 122.768 145.442 122.884 145.154 123.116C144.866 123.34 144.65 123.628 144.506 123.98C144.37 124.332 144.302 124.704 144.302 125.096C144.302 125.48 144.37 125.852 144.506 126.212C144.65 126.564 144.866 126.856 145.154 127.088C145.442 127.312 145.798 127.424 146.222 127.424C146.646 127.424 146.998 127.312 147.278 127.088C147.566 126.856 147.778 126.564 147.914 126.212C148.058 125.852 148.13 125.48 148.13 125.096C148.13 124.704 148.058 124.332 147.914 123.98C147.778 123.628 147.566 123.34 147.278 123.116C146.998 122.884 146.646 122.768 146.222 122.768ZM153.435 128.396C152.779 128.396 152.283 128.228 151.947 127.892C151.619 127.556 151.455 127.084 151.455 126.476V122.852H150.315V121.916H151.455V120.32H152.595V121.916H154.143V122.852H152.595V126.476C152.595 126.796 152.683 127.032 152.859 127.184C153.035 127.328 153.291 127.4 153.627 127.4C153.803 127.4 153.971 127.388 154.131 127.364C154.291 127.34 154.371 127.328 154.371 127.328V128.3C154.371 128.3 154.279 128.316 154.095 128.348C153.911 128.38 153.691 128.396 153.435 128.396ZM156.611 120.704C156.395 120.704 156.215 120.632 156.071 120.488C155.935 120.344 155.867 120.172 155.867 119.972C155.867 119.764 155.935 119.588 156.071 119.444C156.215 119.3 156.395 119.228 156.611 119.228C156.819 119.228 156.995 119.3 157.139 119.444C157.283 119.588 157.355 119.764 157.355 119.972C157.355 120.172 157.283 120.344 157.139 120.488C156.995 120.632 156.819 120.704 156.611 120.704ZM156.047 128.276V121.916H157.187V128.276H156.047ZM162.043 128.396C161.363 128.396 160.791 128.24 160.327 127.928C159.863 127.608 159.511 127.196 159.271 126.692C159.031 126.188 158.911 125.656 158.911 125.096C158.911 124.528 159.031 123.996 159.271 123.5C159.511 122.996 159.863 122.588 160.327 122.276C160.791 121.956 161.363 121.796 162.043 121.796C162.723 121.796 163.295 121.956 163.759 122.276C164.223 122.588 164.575 122.996 164.815 123.5C165.055 123.996 165.175 124.528 165.175 125.096C165.175 125.656 165.055 126.188 164.815 126.692C164.575 127.196 164.223 127.608 163.759 127.928C163.295 128.24 162.723 128.396 162.043 128.396ZM162.043 127.4C162.475 127.4 162.835 127.292 163.123 127.076C163.419 126.852 163.639 126.564 163.783 126.212C163.935 125.86 164.011 125.488 164.011 125.096C164.011 124.696 163.935 124.324 163.783 123.98C163.639 123.628 163.419 123.344 163.123 123.128C162.835 122.904 162.475 122.792 162.043 122.792C161.619 122.792 161.259 122.904 160.963 123.128C160.667 123.344 160.443 123.628 160.291 123.98C160.147 124.324 160.075 124.696 160.075 125.096C160.075 125.488 160.147 125.86 160.291 126.212C160.443 126.564 160.667 126.852 160.963 127.076C161.259 127.292 161.619 127.4 162.043 127.4ZM166.731 128.276V121.916H167.871V122.84H167.943C167.999 122.744 168.091 122.612 168.219 122.444C168.355 122.276 168.547 122.128 168.795 122C169.043 121.864 169.355 121.796 169.731 121.796C170.195 121.796 170.591 121.904 170.919 122.12C171.247 122.328 171.495 122.612 171.663 122.972C171.839 123.332 171.927 123.736 171.927 124.184V128.276H170.787V124.256C170.787 123.832 170.667 123.48 170.427 123.2C170.195 122.92 169.855 122.78 169.407 122.78C169.047 122.78 168.755 122.872 168.531 123.056C168.307 123.232 168.139 123.468 168.027 123.764C167.923 124.052 167.871 124.36 167.871 124.688V128.276H166.731ZM54.96 143.276V134.396H58.104C58.736 134.396 59.26 134.52 59.676 134.768C60.092 135.016 60.404 135.336 60.612 135.728C60.82 136.12 60.924 136.532 60.924 136.964C60.924 137.324 60.852 137.672 60.708 138.008C60.564 138.344 60.348 138.64 60.06 138.896C59.78 139.144 59.424 139.324 58.992 139.436L61.236 143.276H59.904L57.756 139.544H56.136V143.276H54.96ZM58.092 135.428H56.136V138.536H58.092C58.46 138.536 58.764 138.46 59.004 138.308C59.244 138.156 59.424 137.964 59.544 137.732C59.664 137.492 59.724 137.244 59.724 136.988C59.724 136.724 59.664 136.476 59.544 136.244C59.424 136.004 59.244 135.808 59.004 135.656C58.764 135.504 58.46 135.428 58.092 135.428ZM65.15 143.396C64.63 143.396 64.178 143.304 63.794 143.12C63.418 142.928 63.106 142.672 62.858 142.352C62.618 142.032 62.438 141.68 62.318 141.296C62.198 140.904 62.138 140.504 62.138 140.096C62.138 139.696 62.194 139.3 62.306 138.908C62.426 138.516 62.606 138.16 62.846 137.84C63.094 137.52 63.402 137.268 63.77 137.084C64.146 136.892 64.59 136.796 65.102 136.796C65.646 136.796 66.126 136.92 66.542 137.168C66.958 137.416 67.286 137.784 67.526 138.272C67.766 138.76 67.886 139.372 67.886 140.108V140.444H63.29C63.314 140.804 63.398 141.136 63.542 141.44C63.694 141.736 63.906 141.976 64.178 142.16C64.45 142.336 64.774 142.424 65.15 142.424C65.478 142.424 65.742 142.372 65.942 142.268C66.15 142.156 66.314 142.028 66.434 141.884C66.554 141.74 66.634 141.616 66.674 141.512C66.722 141.4 66.746 141.344 66.746 141.344H67.814C67.814 141.344 67.794 141.416 67.754 141.56C67.714 141.696 67.642 141.864 67.538 142.064C67.434 142.264 67.282 142.468 67.082 142.676C66.882 142.876 66.626 143.048 66.314 143.192C66.002 143.328 65.614 143.396 65.15 143.396ZM63.302 139.556H66.77C66.754 139.14 66.666 138.804 66.506 138.548C66.346 138.284 66.142 138.088 65.894 137.96C65.646 137.832 65.382 137.768 65.102 137.768C64.598 137.768 64.186 137.932 63.866 138.26C63.546 138.58 63.358 139.012 63.302 139.556ZM69.5616 145.628V136.916H70.7016V137.924H70.7736C70.8696 137.772 70.9976 137.608 71.1576 137.432C71.3256 137.256 71.5456 137.108 71.8176 136.988C72.0896 136.86 72.4256 136.796 72.8256 136.796C73.3056 136.796 73.7256 136.892 74.0856 137.084C74.4456 137.268 74.7456 137.52 74.9856 137.84C75.2256 138.152 75.4056 138.504 75.5256 138.896C75.6456 139.288 75.7056 139.688 75.7056 140.096C75.7056 140.504 75.6456 140.904 75.5256 141.296C75.4056 141.688 75.2256 142.044 74.9856 142.364C74.7456 142.676 74.4456 142.928 74.0856 143.12C73.7256 143.304 73.3056 143.396 72.8256 143.396C72.4256 143.396 72.0896 143.332 71.8176 143.204C71.5456 143.076 71.3256 142.924 71.1576 142.748C70.9976 142.572 70.8696 142.412 70.7736 142.268H70.7016V145.628H69.5616ZM70.7256 140.096C70.7256 140.48 70.7936 140.852 70.9296 141.212C71.0736 141.564 71.2856 141.856 71.5656 142.088C71.8536 142.312 72.2096 142.424 72.6336 142.424C73.0656 142.424 73.4216 142.312 73.7016 142.088C73.9896 141.856 74.2016 141.564 74.3376 141.212C74.4816 140.852 74.5536 140.48 74.5536 140.096C74.5536 139.704 74.4816 139.332 74.3376 138.98C74.2016 138.628 73.9896 138.34 73.7016 138.116C73.4216 137.884 73.0656 137.768 72.6336 137.768C72.2096 137.768 71.8536 137.884 71.5656 138.116C71.2856 138.34 71.0736 138.628 70.9296 138.98C70.7936 139.332 70.7256 139.704 70.7256 140.096ZM80.2231 143.396C79.5431 143.396 78.9711 143.24 78.5071 142.928C78.0431 142.608 77.6911 142.196 77.4511 141.692C77.2111 141.188 77.0911 140.656 77.0911 140.096C77.0911 139.528 77.2111 138.996 77.4511 138.5C77.6911 137.996 78.0431 137.588 78.5071 137.276C78.9711 136.956 79.5431 136.796 80.2231 136.796C80.9031 136.796 81.4751 136.956 81.9391 137.276C82.4031 137.588 82.7551 137.996 82.9951 138.5C83.2351 138.996 83.3551 139.528 83.3551 140.096C83.3551 140.656 83.2351 141.188 82.9951 141.692C82.7551 142.196 82.4031 142.608 81.9391 142.928C81.4751 143.24 80.9031 143.396 80.2231 143.396ZM80.2231 142.4C80.6551 142.4 81.0151 142.292 81.3031 142.076C81.5991 141.852 81.8191 141.564 81.9631 141.212C82.1151 140.86 82.1911 140.488 82.1911 140.096C82.1911 139.696 82.1151 139.324 81.9631 138.98C81.8191 138.628 81.5991 138.344 81.3031 138.128C81.0151 137.904 80.6551 137.792 80.2231 137.792C79.7991 137.792 79.4391 137.904 79.1431 138.128C78.8471 138.344 78.6231 138.628 78.4711 138.98C78.3271 139.324 78.2551 139.696 78.2551 140.096C78.2551 140.488 78.3271 140.86 78.4711 141.212C78.6231 141.564 78.8471 141.852 79.1431 142.076C79.4391 142.292 79.7991 142.4 80.2231 142.4ZM84.9103 143.276V136.916H86.0503V137.708H86.0983C86.2343 137.468 86.4343 137.256 86.6983 137.072C86.9623 136.888 87.3343 136.796 87.8143 136.796C87.9503 136.796 88.0743 136.804 88.1863 136.82C88.2983 136.828 88.3543 136.832 88.3543 136.832V137.924C88.3543 137.924 88.2903 137.92 88.1623 137.912C88.0423 137.896 87.9143 137.888 87.7783 137.888C87.2263 137.888 86.7983 138.048 86.4943 138.368C86.1983 138.68 86.0503 139.192 86.0503 139.904V143.276H84.9103ZM92.3095 143.396C91.6535 143.396 91.1575 143.228 90.8215 142.892C90.4935 142.556 90.3295 142.084 90.3295 141.476V137.852H89.1895V136.916H90.3295V135.32H91.4695V136.916H93.0175V137.852H91.4695V141.476C91.4695 141.796 91.5575 142.032 91.7335 142.184C91.9095 142.328 92.1655 142.4 92.5015 142.4C92.6775 142.4 92.8455 142.388 93.0055 142.364C93.1655 142.34 93.2455 142.328 93.2455 142.328V143.3C93.2455 143.3 93.1535 143.316 92.9695 143.348C92.7855 143.38 92.5655 143.396 92.3095 143.396Z" fill="#94A3B8"/>
<rect x="14" y="155.276" width="182" height="10" rx="4" fill="#F1F5F9"/>
<rect x="14" y="169.276" width="117" height="10" rx="4" fill="#F1F5F9"/>
<rect x="14" y="187.276" width="182" height="10" rx="4" fill="#F1F5F9"/>
<rect x="14" y="201.276" width="182" height="10" rx="4" fill="#F1F5F9"/>
<rect x="14" y="219.276" width="182" height="10" rx="4" fill="#F1F5F9"/>
<rect x="14" y="233.276" width="182" height="10" rx="4" fill="#F1F5F9"/>
<rect x="14" y="251.276" width="182" height="10" rx="4" fill="#F1F5F9"/>
<rect x="14" y="265.276" width="117" height="10" rx="4" fill="#F1F5F9"/>
</g>
<g filter="url(#filter3_dd_365_1746)">
<rect x="224" y="105.276" width="202" height="180" rx="16" fill="white" shape-rendering="crispEdges"/>
<rect x="224.5" y="105.776" width="201" height="179" rx="15.5" stroke="#F1F5F9" shape-rendering="crispEdges"/>
<rect x="234" y="115.276" width="32" height="32" rx="12" fill="#2563EB" fill-opacity="0.06"/>
<rect x="234.5" y="115.776" width="31" height="31" rx="11.5" stroke="#2563EB" stroke-opacity="0.16"/>
<path d="M255.375 130.276H251C250.602 130.276 250.221 130.118 249.939 129.837C249.658 129.556 249.5 129.174 249.5 128.776V124.401C249.5 124.368 249.487 124.336 249.463 124.313C249.44 124.29 249.408 124.276 249.375 124.276H246.5C245.97 124.276 245.461 124.487 245.086 124.862C244.711 125.237 244.5 125.746 244.5 126.276V136.276C244.5 136.807 244.711 137.316 245.086 137.691C245.461 138.066 245.97 138.276 246.5 138.276H253.5C254.03 138.276 254.539 138.066 254.914 137.691C255.289 137.316 255.5 136.807 255.5 136.276V130.401C255.5 130.368 255.487 130.336 255.463 130.313C255.44 130.29 255.408 130.276 255.375 130.276Z" fill="#2563EB"/>
<path d="M255.101 129.17L250.607 124.676C250.598 124.667 250.587 124.661 250.575 124.659C250.563 124.657 250.55 124.658 250.539 124.662C250.527 124.667 250.517 124.675 250.511 124.685C250.504 124.696 250.5 124.708 250.5 124.72V128.777C250.5 128.909 250.553 129.036 250.646 129.13C250.74 129.224 250.867 129.277 251 129.277H255.057C255.069 129.276 255.081 129.273 255.091 129.266C255.101 129.259 255.109 129.249 255.114 129.238C255.119 129.227 255.12 129.214 255.118 129.202C255.115 129.19 255.109 129.179 255.101 129.17Z" fill="#2563EB"/>
<path d="M274.96 135.776V126.896H278.128C278.808 126.896 279.372 127.036 279.82 127.316C280.276 127.596 280.616 127.96 280.84 128.408C281.072 128.848 281.188 129.308 281.188 129.788C281.188 130.276 281.072 130.744 280.84 131.192C280.616 131.632 280.276 131.996 279.82 132.284C279.372 132.564 278.808 132.704 278.128 132.704H276.136V135.776H274.96ZM278.128 127.928H276.136V131.672H278.128C278.552 131.672 278.904 131.58 279.184 131.396C279.464 131.212 279.672 130.98 279.808 130.7C279.952 130.412 280.024 130.112 280.024 129.8C280.024 129.488 279.952 129.188 279.808 128.9C279.672 128.612 279.464 128.38 279.184 128.204C278.904 128.02 278.552 127.928 278.128 127.928ZM285.34 135.896C284.66 135.896 284.088 135.74 283.624 135.428C283.16 135.108 282.808 134.696 282.568 134.192C282.328 133.688 282.208 133.156 282.208 132.596C282.208 132.028 282.328 131.496 282.568 131C282.808 130.496 283.16 130.088 283.624 129.776C284.088 129.456 284.66 129.296 285.34 129.296C286.02 129.296 286.592 129.456 287.056 129.776C287.52 130.088 287.872 130.496 288.112 131C288.352 131.496 288.472 132.028 288.472 132.596C288.472 133.156 288.352 133.688 288.112 134.192C287.872 134.696 287.52 135.108 287.056 135.428C286.592 135.74 286.02 135.896 285.34 135.896ZM285.34 134.9C285.772 134.9 286.132 134.792 286.42 134.576C286.716 134.352 286.936 134.064 287.08 133.712C287.232 133.36 287.308 132.988 287.308 132.596C287.308 132.196 287.232 131.824 287.08 131.48C286.936 131.128 286.716 130.844 286.42 130.628C286.132 130.404 285.772 130.292 285.34 130.292C284.916 130.292 284.556 130.404 284.26 130.628C283.964 130.844 283.74 131.128 283.588 131.48C283.444 131.824 283.372 132.196 283.372 132.596C283.372 132.988 283.444 133.36 283.588 133.712C283.74 134.064 283.964 134.352 284.26 134.576C284.556 134.792 284.916 134.9 285.34 134.9ZM291.425 135.776L289.373 129.416H290.537L292.049 134.24L293.633 129.416H294.713L296.285 134.24L297.809 129.416H298.973L296.909 135.776H295.685L294.173 131.084L292.661 135.776H291.425ZM302.892 135.896C302.372 135.896 301.92 135.804 301.536 135.62C301.16 135.428 300.848 135.172 300.6 134.852C300.36 134.532 300.18 134.18 300.06 133.796C299.94 133.404 299.88 133.004 299.88 132.596C299.88 132.196 299.936 131.8 300.048 131.408C300.168 131.016 300.348 130.66 300.588 130.34C300.836 130.02 301.144 129.768 301.512 129.584C301.888 129.392 302.332 129.296 302.844 129.296C303.388 129.296 303.868 129.42 304.284 129.668C304.7 129.916 305.028 130.284 305.268 130.772C305.508 131.26 305.628 131.872 305.628 132.608V132.944H301.032C301.056 133.304 301.14 133.636 301.284 133.94C301.436 134.236 301.648 134.476 301.92 134.66C302.192 134.836 302.516 134.924 302.892 134.924C303.22 134.924 303.484 134.872 303.684 134.768C303.892 134.656 304.056 134.528 304.176 134.384C304.296 134.24 304.376 134.116 304.416 134.012C304.464 133.9 304.488 133.844 304.488 133.844H305.556C305.556 133.844 305.536 133.916 305.496 134.06C305.456 134.196 305.384 134.364 305.28 134.564C305.176 134.764 305.024 134.968 304.824 135.176C304.624 135.376 304.368 135.548 304.056 135.692C303.744 135.828 303.356 135.896 302.892 135.896ZM301.044 132.056H304.512C304.496 131.64 304.408 131.304 304.248 131.048C304.088 130.784 303.884 130.588 303.636 130.46C303.388 130.332 303.124 130.268 302.844 130.268C302.34 130.268 301.928 130.432 301.608 130.76C301.288 131.08 301.1 131.512 301.044 132.056ZM307.184 135.776V129.416H308.324V130.208H308.372C308.508 129.968 308.708 129.756 308.972 129.572C309.236 129.388 309.608 129.296 310.088 129.296C310.224 129.296 310.348 129.304 310.46 129.32C310.572 129.328 310.628 129.332 310.628 129.332V130.424C310.628 130.424 310.564 130.42 310.436 130.412C310.316 130.396 310.188 130.388 310.052 130.388C309.5 130.388 309.072 130.548 308.768 130.868C308.472 131.18 308.324 131.692 308.324 132.404V135.776H307.184ZM317.661 135.896C316.981 135.896 316.409 135.74 315.945 135.428C315.481 135.108 315.129 134.696 314.889 134.192C314.649 133.688 314.529 133.156 314.529 132.596C314.529 132.028 314.649 131.496 314.889 131C315.129 130.496 315.481 130.088 315.945 129.776C316.409 129.456 316.981 129.296 317.661 129.296C318.341 129.296 318.913 129.456 319.377 129.776C319.841 130.088 320.193 130.496 320.433 131C320.673 131.496 320.793 132.028 320.793 132.596C320.793 133.156 320.673 133.688 320.433 134.192C320.193 134.696 319.841 135.108 319.377 135.428C318.913 135.74 318.341 135.896 317.661 135.896ZM317.661 134.9C318.093 134.9 318.453 134.792 318.741 134.576C319.037 134.352 319.257 134.064 319.401 133.712C319.553 133.36 319.629 132.988 319.629 132.596C319.629 132.196 319.553 131.824 319.401 131.48C319.257 131.128 319.037 130.844 318.741 130.628C318.453 130.404 318.093 130.292 317.661 130.292C317.237 130.292 316.877 130.404 316.581 130.628C316.285 130.844 316.061 131.128 315.909 131.48C315.765 131.824 315.693 132.196 315.693 132.596C315.693 132.988 315.765 133.36 315.909 133.712C316.061 134.064 316.285 134.352 316.581 134.576C316.877 134.792 317.237 134.9 317.661 134.9ZM323.092 135.776V130.352H322.048V129.416H323.092V128.636C323.092 128.3 323.152 127.972 323.272 127.652C323.392 127.324 323.592 127.056 323.872 126.848C324.152 126.64 324.532 126.536 325.012 126.536C325.244 126.536 325.428 126.556 325.564 126.596C325.708 126.628 325.78 126.644 325.78 126.644V127.544C325.78 127.544 325.716 127.532 325.588 127.508C325.468 127.476 325.328 127.46 325.168 127.46C324.8 127.46 324.552 127.572 324.424 127.796C324.296 128.02 324.232 128.3 324.232 128.636V129.416H325.708V130.352H324.232V135.776H323.092ZM329.442 135.776L332.574 126.896H334.05L337.194 135.776H335.946L335.202 133.652H331.434L330.69 135.776H329.442ZM331.794 132.596H334.842L333.318 128.24L331.794 132.596ZM341.161 135.896C340.505 135.896 340.009 135.728 339.673 135.392C339.345 135.056 339.181 134.584 339.181 133.976V130.352H338.041V129.416H339.181V127.82H340.321V129.416H341.869V130.352H340.321V133.976C340.321 134.296 340.409 134.532 340.585 134.684C340.761 134.828 341.017 134.9 341.353 134.9C341.529 134.9 341.697 134.888 341.857 134.864C342.017 134.84 342.097 134.828 342.097 134.828V135.8C342.097 135.8 342.005 135.816 341.821 135.848C341.637 135.88 341.417 135.896 341.161 135.896ZM346.177 135.896C345.521 135.896 345.025 135.728 344.689 135.392C344.361 135.056 344.197 134.584 344.197 133.976V130.352H343.057V129.416H344.197V127.82H345.337V129.416H346.885V130.352H345.337V133.976C345.337 134.296 345.425 134.532 345.601 134.684C345.777 134.828 346.033 134.9 346.369 134.9C346.545 134.9 346.713 134.888 346.873 134.864C347.033 134.84 347.113 134.828 347.113 134.828V135.8C347.113 135.8 347.021 135.816 346.837 135.848C346.653 135.88 346.433 135.896 346.177 135.896ZM351.387 135.896C350.707 135.896 350.135 135.74 349.671 135.428C349.207 135.108 348.855 134.696 348.615 134.192C348.375 133.688 348.255 133.156 348.255 132.596C348.255 132.028 348.375 131.496 348.615 131C348.855 130.496 349.207 130.088 349.671 129.776C350.135 129.456 350.707 129.296 351.387 129.296C352.067 129.296 352.639 129.456 353.103 129.776C353.567 130.088 353.919 130.496 354.159 131C354.399 131.496 354.519 132.028 354.519 132.596C354.519 133.156 354.399 133.688 354.159 134.192C353.919 134.696 353.567 135.108 353.103 135.428C352.639 135.74 352.067 135.896 351.387 135.896ZM351.387 134.9C351.819 134.9 352.179 134.792 352.467 134.576C352.763 134.352 352.983 134.064 353.127 133.712C353.279 133.36 353.355 132.988 353.355 132.596C353.355 132.196 353.279 131.824 353.127 131.48C352.983 131.128 352.763 130.844 352.467 130.628C352.179 130.404 351.819 130.292 351.387 130.292C350.963 130.292 350.603 130.404 350.307 130.628C350.011 130.844 349.787 131.128 349.635 131.48C349.491 131.824 349.419 132.196 349.419 132.596C349.419 132.988 349.491 133.36 349.635 133.712C349.787 134.064 350.011 134.352 350.307 134.576C350.603 134.792 350.963 134.9 351.387 134.9ZM356.074 135.776V129.416H357.214V130.208H357.262C357.398 129.968 357.598 129.756 357.862 129.572C358.126 129.388 358.498 129.296 358.978 129.296C359.114 129.296 359.238 129.304 359.35 129.32C359.462 129.328 359.518 129.332 359.518 129.332V130.424C359.518 130.424 359.454 130.42 359.326 130.412C359.206 130.396 359.078 130.388 358.942 130.388C358.39 130.388 357.962 130.548 357.658 130.868C357.362 131.18 357.214 131.692 357.214 132.404V135.776H356.074ZM360.774 135.776V129.416H361.914V130.34H361.986C362.042 130.244 362.134 130.112 362.262 129.944C362.398 129.776 362.59 129.628 362.838 129.5C363.086 129.364 363.398 129.296 363.774 129.296C364.238 129.296 364.634 129.404 364.962 129.62C365.29 129.828 365.538 130.112 365.706 130.472C365.882 130.832 365.97 131.236 365.97 131.684V135.776H364.83V131.756C364.83 131.332 364.71 130.98 364.47 130.7C364.238 130.42 363.898 130.28 363.45 130.28C363.09 130.28 362.798 130.372 362.574 130.556C362.35 130.732 362.182 130.968 362.07 131.264C361.966 131.552 361.914 131.86 361.914 132.188V135.776H360.774ZM370.545 135.896C370.025 135.896 369.573 135.804 369.189 135.62C368.813 135.428 368.501 135.172 368.253 134.852C368.013 134.532 367.833 134.18 367.713 133.796C367.593 133.404 367.533 133.004 367.533 132.596C367.533 132.196 367.589 131.8 367.701 131.408C367.821 131.016 368.001 130.66 368.241 130.34C368.489 130.02 368.797 129.768 369.165 129.584C369.541 129.392 369.985 129.296 370.497 129.296C371.041 129.296 371.521 129.42 371.937 129.668C372.353 129.916 372.681 130.284 372.921 130.772C373.161 131.26 373.281 131.872 373.281 132.608V132.944H368.685C368.709 133.304 368.793 133.636 368.937 133.94C369.089 134.236 369.301 134.476 369.573 134.66C369.845 134.836 370.169 134.924 370.545 134.924C370.873 134.924 371.137 134.872 371.337 134.768C371.545 134.656 371.709 134.528 371.829 134.384C371.949 134.24 372.029 134.116 372.069 134.012C372.117 133.9 372.141 133.844 372.141 133.844H373.209C373.209 133.844 373.189 133.916 373.148 134.06C373.109 134.196 373.037 134.364 372.933 134.564C372.829 134.764 372.677 134.968 372.477 135.176C372.277 135.376 372.021 135.548 371.709 135.692C371.397 135.828 371.009 135.896 370.545 135.896ZM368.697 132.056H372.165C372.149 131.64 372.061 131.304 371.901 131.048C371.741 130.784 371.537 130.588 371.289 130.46C371.041 130.332 370.777 130.268 370.497 130.268C369.993 130.268 369.581 130.432 369.261 130.76C368.941 131.08 368.753 131.512 368.697 132.056ZM374.654 138.116C374.47 138.116 374.314 138.108 374.186 138.092C374.058 138.076 373.994 138.068 373.994 138.068V137.096C373.994 137.096 374.058 137.1 374.186 137.108C374.322 137.124 374.466 137.132 374.618 137.132C375.09 137.132 375.474 137.032 375.77 136.832C376.074 136.64 376.33 136.32 376.538 135.872L374.078 129.416H375.266L377.102 134.384L378.95 129.416H380.15L377.69 135.788C377.378 136.588 376.974 137.176 376.478 137.552C375.99 137.928 375.382 138.116 374.654 138.116Z" fill="#94A3B8"/>
<rect x="234" y="155.276" width="182" height="10" rx="4" fill="#F1F5F9"/>
<rect x="234" y="169.276" width="117" height="10" rx="4" fill="#F1F5F9"/>
<rect x="234" y="187.276" width="182" height="10" rx="4" fill="#F1F5F9"/>
<rect x="234" y="201.276" width="182" height="10" rx="4" fill="#F1F5F9"/>
<rect x="234" y="219.276" width="182" height="10" rx="4" fill="#F1F5F9"/>
<rect x="234" y="233.276" width="182" height="10" rx="4" fill="#F1F5F9"/>
<rect x="234" y="251.276" width="182" height="10" rx="4" fill="#F1F5F9"/>
<rect x="234" y="265.276" width="117" height="10" rx="4" fill="#F1F5F9"/>
</g>
<g filter="url(#filter4_dd_365_1746)">
<rect x="444" y="105.276" width="202" height="180" rx="16" fill="white" shape-rendering="crispEdges"/>
<rect x="444.5" y="105.776" width="201" height="179" rx="15.5" stroke="#F1F5F9" shape-rendering="crispEdges"/>
<rect x="454" y="115.276" width="32" height="32" rx="12" fill="#059669" fill-opacity="0.06"/>
<rect x="454.5" y="115.776" width="31" height="31" rx="11.5" stroke="#059669" stroke-opacity="0.16"/>
<path d="M475.375 130.276H471C470.602 130.276 470.221 130.118 469.939 129.837C469.658 129.556 469.5 129.174 469.5 128.776V124.401C469.5 124.368 469.487 124.336 469.463 124.313C469.44 124.29 469.408 124.276 469.375 124.276H466.5C465.97 124.276 465.461 124.487 465.086 124.862C464.711 125.237 464.5 125.746 464.5 126.276V136.276C464.5 136.807 464.711 137.316 465.086 137.691C465.461 138.066 465.97 138.276 466.5 138.276H473.5C474.03 138.276 474.539 138.066 474.914 137.691C475.289 137.316 475.5 136.807 475.5 136.276V130.401C475.5 130.368 475.487 130.336 475.463 130.313C475.44 130.29 475.408 130.276 475.375 130.276Z" fill="#059669"/>
<path d="M475.101 129.17L470.607 124.676C470.598 124.667 470.587 124.661 470.575 124.659C470.563 124.657 470.55 124.658 470.539 124.662C470.527 124.667 470.517 124.675 470.511 124.685C470.504 124.696 470.5 124.708 470.5 124.72V128.777C470.5 128.909 470.553 129.036 470.646 129.13C470.74 129.224 470.867 129.277 471 129.277H475.057C475.069 129.276 475.081 129.273 475.091 129.266C475.101 129.259 475.109 129.249 475.114 129.238C475.119 129.227 475.12 129.214 475.118 129.202C475.115 129.19 475.109 129.179 475.101 129.17Z" fill="#059669"/>
<path d="M496.844 128.276L494.48 119.396H495.692L497.528 126.548L499.46 119.396H500.612L502.544 126.524L504.368 119.396H505.58L503.216 128.276H501.872L500.036 121.448L498.188 128.276H496.844ZM509.372 128.396C508.692 128.396 508.12 128.24 507.656 127.928C507.192 127.608 506.84 127.196 506.6 126.692C506.36 126.188 506.24 125.656 506.24 125.096C506.24 124.528 506.36 123.996 506.6 123.5C506.84 122.996 507.192 122.588 507.656 122.276C508.12 121.956 508.692 121.796 509.372 121.796C510.052 121.796 510.624 121.956 511.088 122.276C511.552 122.588 511.904 122.996 512.144 123.5C512.384 123.996 512.504 124.528 512.504 125.096C512.504 125.656 512.384 126.188 512.144 126.692C511.904 127.196 511.552 127.608 511.088 127.928C510.624 128.24 510.052 128.396 509.372 128.396ZM509.372 127.4C509.804 127.4 510.164 127.292 510.452 127.076C510.748 126.852 510.968 126.564 511.112 126.212C511.264 125.86 511.34 125.488 511.34 125.096C511.34 124.696 511.264 124.324 511.112 123.98C510.968 123.628 510.748 123.344 510.452 123.128C510.164 122.904 509.804 122.792 509.372 122.792C508.948 122.792 508.588 122.904 508.292 123.128C507.996 123.344 507.772 123.628 507.62 123.98C507.476 124.324 507.404 124.696 507.404 125.096C507.404 125.488 507.476 125.86 507.62 126.212C507.772 126.564 507.996 126.852 508.292 127.076C508.588 127.292 508.948 127.4 509.372 127.4ZM514.059 128.276V121.916H515.199V122.708H515.247C515.383 122.468 515.583 122.256 515.847 122.072C516.111 121.888 516.483 121.796 516.963 121.796C517.099 121.796 517.223 121.804 517.335 121.82C517.447 121.828 517.503 121.832 517.503 121.832V122.924C517.503 122.924 517.439 122.92 517.311 122.912C517.191 122.896 517.063 122.888 516.927 122.888C516.375 122.888 515.947 123.048 515.643 123.368C515.347 123.68 515.199 124.192 515.199 124.904V128.276H514.059ZM518.878 128.276V119.156H520.018V124.46L522.55 121.916H524.038L521.11 124.808L524.098 128.276H522.646L520.018 125.216V128.276H518.878ZM528.3 128.276V119.396H531.468C532.148 119.396 532.712 119.536 533.16 119.816C533.616 120.096 533.956 120.46 534.18 120.908C534.412 121.348 534.528 121.808 534.528 122.288C534.528 122.776 534.412 123.244 534.18 123.692C533.956 124.132 533.616 124.496 533.16 124.784C532.712 125.064 532.148 125.204 531.468 125.204H529.476V128.276H528.3ZM531.468 120.428H529.476V124.172H531.468C531.892 124.172 532.244 124.08 532.524 123.896C532.804 123.712 533.012 123.48 533.148 123.2C533.292 122.912 533.364 122.612 533.364 122.3C533.364 121.988 533.292 121.688 533.148 121.4C533.012 121.112 532.804 120.88 532.524 120.704C532.244 120.52 531.892 120.428 531.468 120.428ZM538.56 128.396C538.04 128.396 537.588 128.304 537.204 128.12C536.828 127.928 536.516 127.672 536.268 127.352C536.028 127.032 535.848 126.68 535.728 126.296C535.608 125.904 535.548 125.504 535.548 125.096C535.548 124.696 535.604 124.3 535.716 123.908C535.836 123.516 536.016 123.16 536.256 122.84C536.504 122.52 536.812 122.268 537.18 122.084C537.556 121.892 538 121.796 538.512 121.796C539.056 121.796 539.536 121.92 539.952 122.168C540.368 122.416 540.696 122.784 540.936 123.272C541.176 123.76 541.296 124.372 541.296 125.108V125.444H536.7C536.724 125.804 536.808 126.136 536.952 126.44C537.104 126.736 537.316 126.976 537.588 127.16C537.86 127.336 538.184 127.424 538.56 127.424C538.888 127.424 539.152 127.372 539.352 127.268C539.56 127.156 539.724 127.028 539.844 126.884C539.964 126.74 540.044 126.616 540.084 126.512C540.132 126.4 540.156 126.344 540.156 126.344H541.224C541.224 126.344 541.204 126.416 541.164 126.56C541.124 126.696 541.052 126.864 540.948 127.064C540.844 127.264 540.692 127.468 540.492 127.676C540.292 127.876 540.036 128.048 539.724 128.192C539.412 128.328 539.024 128.396 538.56 128.396ZM536.712 124.556H540.18C540.164 124.14 540.076 123.804 539.916 123.548C539.756 123.284 539.552 123.088 539.304 122.96C539.056 122.832 538.792 122.768 538.512 122.768C538.008 122.768 537.596 122.932 537.276 123.26C536.956 123.58 536.768 124.012 536.712 124.556ZM542.852 128.276V121.916H543.992V122.708H544.04C544.176 122.468 544.376 122.256 544.64 122.072C544.904 121.888 545.276 121.796 545.756 121.796C545.892 121.796 546.016 121.804 546.128 121.82C546.24 121.828 546.296 121.832 546.296 121.832V122.924C546.296 122.924 546.232 122.92 546.104 122.912C545.984 122.896 545.856 122.888 545.72 122.888C545.168 122.888 544.74 123.048 544.436 123.368C544.14 123.68 543.992 124.192 543.992 124.904V128.276H542.852ZM547.551 128.276V121.916H548.691V122.84H548.739C548.803 122.72 548.903 122.58 549.039 122.42C549.175 122.252 549.359 122.108 549.591 121.988C549.831 121.86 550.131 121.796 550.491 121.796C550.963 121.796 551.359 121.912 551.679 122.144C552.007 122.368 552.251 122.672 552.411 123.056H552.423C552.599 122.704 552.847 122.408 553.167 122.168C553.495 121.92 553.919 121.796 554.439 121.796C555.127 121.796 555.655 122.032 556.023 122.504C556.399 122.968 556.587 123.568 556.587 124.304V128.276H555.447V124.364C555.447 123.892 555.335 123.512 555.111 123.224C554.887 122.928 554.563 122.78 554.139 122.78C553.771 122.78 553.475 122.88 553.251 123.08C553.035 123.28 552.879 123.528 552.783 123.824C552.687 124.12 552.639 124.416 552.639 124.712V128.276H551.499V124.364C551.499 123.892 551.387 123.512 551.163 123.224C550.947 122.928 550.623 122.78 550.191 122.78C549.823 122.78 549.527 122.88 549.303 123.08C549.087 123.28 548.931 123.532 548.835 123.836C548.739 124.132 548.691 124.424 548.691 124.712V128.276H547.551ZM559.006 120.704C558.79 120.704 558.61 120.632 558.466 120.488C558.33 120.344 558.262 120.172 558.262 119.972C558.262 119.764 558.33 119.588 558.466 119.444C558.61 119.3 558.79 119.228 559.006 119.228C559.214 119.228 559.39 119.3 559.534 119.444C559.678 119.588 559.75 119.764 559.75 119.972C559.75 120.172 559.678 120.344 559.534 120.488C559.39 120.632 559.214 120.704 559.006 120.704ZM558.442 128.276V121.916H559.582V128.276H558.442ZM564.126 128.396C563.47 128.396 562.974 128.228 562.638 127.892C562.31 127.556 562.146 127.084 562.146 126.476V122.852H561.006V121.916H562.146V120.32H563.286V121.916H564.834V122.852H563.286V126.476C563.286 126.796 563.374 127.032 563.55 127.184C563.726 127.328 563.982 127.4 564.318 127.4C564.494 127.4 564.662 127.388 564.822 127.364C564.982 127.34 565.062 127.328 565.062 127.328V128.3C565.062 128.3 564.97 128.316 564.786 128.348C564.602 128.38 564.382 128.396 564.126 128.396ZM494.54 143.276L497.672 134.396H499.148L502.292 143.276H501.044L500.3 141.152H496.532L495.788 143.276H494.54ZM496.892 140.096H499.94L498.416 135.74L496.892 140.096ZM503.796 145.628V136.916H504.936V137.924H505.008C505.104 137.772 505.232 137.608 505.392 137.432C505.56 137.256 505.78 137.108 506.052 136.988C506.324 136.86 506.66 136.796 507.06 136.796C507.54 136.796 507.96 136.892 508.32 137.084C508.68 137.268 508.98 137.52 509.22 137.84C509.46 138.152 509.64 138.504 509.76 138.896C509.88 139.288 509.94 139.688 509.94 140.096C509.94 140.504 509.88 140.904 509.76 141.296C509.64 141.688 509.46 142.044 509.22 142.364C508.98 142.676 508.68 142.928 508.32 143.12C507.96 143.304 507.54 143.396 507.06 143.396C506.66 143.396 506.324 143.332 506.052 143.204C505.78 143.076 505.56 142.924 505.392 142.748C505.232 142.572 505.104 142.412 505.008 142.268H504.936V145.628H503.796ZM504.96 140.096C504.96 140.48 505.028 140.852 505.164 141.212C505.308 141.564 505.52 141.856 505.8 142.088C506.088 142.312 506.444 142.424 506.868 142.424C507.3 142.424 507.656 142.312 507.936 142.088C508.224 141.856 508.436 141.564 508.572 141.212C508.716 140.852 508.788 140.48 508.788 140.096C508.788 139.704 508.716 139.332 508.572 138.98C508.436 138.628 508.224 138.34 507.936 138.116C507.656 137.884 507.3 137.768 506.868 137.768C506.444 137.768 506.088 137.884 505.8 138.116C505.52 138.34 505.308 138.628 505.164 138.98C505.028 139.332 504.96 139.704 504.96 140.096ZM511.624 145.628V136.916H512.764V137.924H512.836C512.932 137.772 513.06 137.608 513.22 137.432C513.388 137.256 513.608 137.108 513.88 136.988C514.152 136.86 514.488 136.796 514.888 136.796C515.368 136.796 515.788 136.892 516.148 137.084C516.508 137.268 516.808 137.52 517.048 137.84C517.288 138.152 517.468 138.504 517.588 138.896C517.708 139.288 517.768 139.688 517.768 140.096C517.768 140.504 517.708 140.904 517.588 141.296C517.468 141.688 517.288 142.044 517.048 142.364C516.808 142.676 516.508 142.928 516.148 143.12C515.788 143.304 515.368 143.396 514.888 143.396C514.488 143.396 514.152 143.332 513.88 143.204C513.608 143.076 513.388 142.924 513.22 142.748C513.06 142.572 512.932 142.412 512.836 142.268H512.764V145.628H511.624ZM512.788 140.096C512.788 140.48 512.856 140.852 512.992 141.212C513.136 141.564 513.348 141.856 513.628 142.088C513.916 142.312 514.272 142.424 514.696 142.424C515.128 142.424 515.484 142.312 515.764 142.088C516.052 141.856 516.264 141.564 516.4 141.212C516.544 140.852 516.616 140.48 516.616 140.096C516.616 139.704 516.544 139.332 516.4 138.98C516.264 138.628 516.052 138.34 515.764 138.116C515.484 137.884 515.128 137.768 514.696 137.768C514.272 137.768 513.916 137.884 513.628 138.116C513.348 138.34 513.136 138.628 512.992 138.98C512.856 139.332 512.788 139.704 512.788 140.096ZM519.452 143.276L519.464 134.156H520.592V143.276H519.452ZM523.135 135.704C522.919 135.704 522.739 135.632 522.595 135.488C522.459 135.344 522.391 135.172 522.391 134.972C522.391 134.764 522.459 134.588 522.595 134.444C522.739 134.3 522.919 134.228 523.135 134.228C523.343 134.228 523.519 134.3 523.663 134.444C523.807 134.588 523.879 134.764 523.879 134.972C523.879 135.172 523.807 135.344 523.663 135.488C523.519 135.632 523.343 135.704 523.135 135.704ZM522.571 143.276V136.916H523.711V143.276H522.571ZM528.567 143.396C528.047 143.396 527.591 143.304 527.199 143.12C526.807 142.928 526.479 142.676 526.215 142.364C525.959 142.044 525.763 141.688 525.627 141.296C525.499 140.904 525.435 140.504 525.435 140.096C525.435 139.688 525.499 139.292 525.627 138.908C525.755 138.516 525.947 138.16 526.203 137.84C526.467 137.52 526.795 137.268 527.187 137.084C527.579 136.892 528.039 136.796 528.567 136.796C529.079 136.796 529.503 136.872 529.839 137.024C530.175 137.176 530.443 137.368 530.643 137.6C530.851 137.824 531.003 138.052 531.099 138.284C531.203 138.508 531.271 138.696 531.303 138.848C531.335 139 531.351 139.076 531.351 139.076H530.247C530.247 139.076 530.227 139.012 530.187 138.884C530.147 138.748 530.071 138.596 529.959 138.428C529.847 138.26 529.679 138.112 529.455 137.984C529.231 137.848 528.935 137.78 528.567 137.78C528.127 137.78 527.755 137.892 527.451 138.116C527.155 138.332 526.931 138.616 526.779 138.968C526.635 139.32 526.563 139.696 526.563 140.096C526.563 140.496 526.635 140.872 526.779 141.224C526.931 141.576 527.155 141.864 527.451 142.088C527.755 142.304 528.127 142.412 528.567 142.412C528.935 142.412 529.231 142.348 529.455 142.22C529.679 142.084 529.847 141.932 529.959 141.764C530.071 141.596 530.147 141.448 530.187 141.32C530.227 141.184 530.247 141.116 530.247 141.116H531.351C531.351 141.116 531.335 141.192 531.303 141.344C531.271 141.496 531.203 141.688 531.099 141.92C531.003 142.144 530.851 142.372 530.643 142.604C530.443 142.828 530.175 143.016 529.839 143.168C529.503 143.32 529.079 143.396 528.567 143.396ZM535.674 136.796C536.074 136.796 536.41 136.86 536.682 136.988C536.954 137.116 537.174 137.268 537.342 137.444C537.51 137.612 537.638 137.772 537.726 137.924H537.798V136.916H538.938V143.276H537.798V142.268H537.726C537.638 142.42 537.51 142.584 537.342 142.76C537.174 142.936 536.954 143.088 536.682 143.216C536.41 143.336 536.074 143.396 535.674 143.396C535.194 143.396 534.774 143.304 534.414 143.12C534.054 142.928 533.754 142.676 533.514 142.364C533.274 142.044 533.094 141.688 532.974 141.296C532.854 140.904 532.794 140.504 532.794 140.096C532.794 139.688 532.854 139.288 532.974 138.896C533.094 138.504 533.274 138.152 533.514 137.84C533.754 137.52 534.054 137.268 534.414 137.084C534.774 136.892 535.194 136.796 535.674 136.796ZM535.866 137.768C535.442 137.768 535.086 137.884 534.798 138.116C534.51 138.34 534.294 138.628 534.15 138.98C534.014 139.332 533.946 139.704 533.946 140.096C533.946 140.48 534.014 140.852 534.15 141.212C534.294 141.564 534.51 141.856 534.798 142.088C535.086 142.312 535.442 142.424 535.866 142.424C536.29 142.424 536.642 142.312 536.922 142.088C537.21 141.856 537.422 141.564 537.558 141.212C537.702 140.852 537.774 140.48 537.774 140.096C537.774 139.704 537.702 139.332 537.558 138.98C537.422 138.628 537.21 138.34 536.922 138.116C536.642 137.884 536.29 137.768 535.866 137.768ZM543.079 143.396C542.423 143.396 541.927 143.228 541.591 142.892C541.263 142.556 541.099 142.084 541.099 141.476V137.852H539.959V136.916H541.099V135.32H542.239V136.916H543.787V137.852H542.239V141.476C542.239 141.796 542.327 142.032 542.503 142.184C542.679 142.328 542.935 142.4 543.271 142.4C543.447 142.4 543.615 142.388 543.775 142.364C543.935 142.34 544.015 142.328 544.015 142.328V143.3C544.015 143.3 543.923 143.316 543.739 143.348C543.555 143.38 543.335 143.396 543.079 143.396ZM546.256 135.704C546.04 135.704 545.86 135.632 545.716 135.488C545.58 135.344 545.512 135.172 545.512 134.972C545.512 134.764 545.58 134.588 545.716 134.444C545.86 134.3 546.04 134.228 546.256 134.228C546.464 134.228 546.64 134.3 546.784 134.444C546.928 134.588 547 134.764 547 134.972C547 135.172 546.928 135.344 546.784 135.488C546.64 135.632 546.464 135.704 546.256 135.704ZM545.692 143.276V136.916H546.832V143.276H545.692ZM551.688 143.396C551.008 143.396 550.436 143.24 549.972 142.928C549.508 142.608 549.156 142.196 548.916 141.692C548.676 141.188 548.556 140.656 548.556 140.096C548.556 139.528 548.676 138.996 548.916 138.5C549.156 137.996 549.508 137.588 549.972 137.276C550.436 136.956 551.008 136.796 551.688 136.796C552.368 136.796 552.94 136.956 553.404 137.276C553.868 137.588 554.22 137.996 554.46 138.5C554.7 138.996 554.82 139.528 554.82 140.096C554.82 140.656 554.7 141.188 554.46 141.692C554.22 142.196 553.868 142.608 553.404 142.928C552.94 143.24 552.368 143.396 551.688 143.396ZM551.688 142.4C552.12 142.4 552.48 142.292 552.768 142.076C553.064 141.852 553.284 141.564 553.428 141.212C553.58 140.86 553.656 140.488 553.656 140.096C553.656 139.696 553.58 139.324 553.428 138.98C553.284 138.628 553.064 138.344 552.768 138.128C552.48 137.904 552.12 137.792 551.688 137.792C551.264 137.792 550.904 137.904 550.608 138.128C550.312 138.344 550.088 138.628 549.936 138.98C549.792 139.324 549.72 139.696 549.72 140.096C549.72 140.488 549.792 140.86 549.936 141.212C550.088 141.564 550.312 141.852 550.608 142.076C550.904 142.292 551.264 142.4 551.688 142.4ZM556.375 143.276V136.916H557.515V137.84H557.587C557.643 137.744 557.735 137.612 557.863 137.444C557.999 137.276 558.191 137.128 558.439 137C558.687 136.864 558.999 136.796 559.375 136.796C559.839 136.796 560.235 136.904 560.563 137.12C560.891 137.328 561.139 137.612 561.307 137.972C561.483 138.332 561.571 138.736 561.571 139.184V143.276H560.431V139.256C560.431 138.832 560.311 138.48 560.071 138.2C559.839 137.92 559.499 137.78 559.051 137.78C558.691 137.78 558.399 137.872 558.175 138.056C557.951 138.232 557.783 138.468 557.671 138.764C557.567 139.052 557.515 139.36 557.515 139.688V143.276H556.375Z" fill="#94A3B8"/>
<rect x="454" y="155.276" width="182" height="10" rx="4" fill="#F1F5F9"/>
<rect x="454" y="169.276" width="117" height="10" rx="4" fill="#F1F5F9"/>
<rect x="454" y="187.276" width="182" height="10" rx="4" fill="#F1F5F9"/>
<rect x="454" y="201.276" width="182" height="10" rx="4" fill="#F1F5F9"/>
<rect x="454" y="219.276" width="182" height="10" rx="4" fill="#F1F5F9"/>
<rect x="454" y="233.276" width="182" height="10" rx="4" fill="#F1F5F9"/>
<rect x="454" y="251.276" width="182" height="10" rx="4" fill="#F1F5F9"/>
<rect x="454" y="265.276" width="117" height="10" rx="4" fill="#F1F5F9"/>
</g>
<defs>
<filter id="filter0_dd_365_1746" x="105" y="0" width="210" height="188" filterUnits="userSpaceOnUse" color-interpolation-filters="sRGB">
<feFlood flood-opacity="0" result="BackgroundImageFix"/>
<feColorMatrix in="SourceAlpha" type="matrix" values="0 0 0 0 0 0 0 0 0 0 0 0 0 0 0 0 0 0 127 0" result="hardAlpha"/>
<feOffset dy="1"/>
<feGaussianBlur stdDeviation="2"/>
<feComposite in2="hardAlpha" operator="out"/>
<feColorMatrix type="matrix" values="0 0 0 0 0.0470588 0 0 0 0 0.0470588 0 0 0 0 0.0509804 0 0 0 0.05 0"/>
<feBlend mode="normal" in2="BackgroundImageFix" result="effect1_dropShadow_365_1746"/>
<feColorMatrix in="SourceAlpha" type="matrix" values="0 0 0 0 0 0 0 0 0 0 0 0 0 0 0 0 0 0 127 0" result="hardAlpha"/>
<feOffset dy="1"/>
<feGaussianBlur stdDeviation="2"/>
<feComposite in2="hardAlpha" operator="out"/>
<feColorMatrix type="matrix" values="0 0 0 0 0.0470588 0 0 0 0 0.0470588 0 0 0 0 0.0509804 0 0 0 0.1 0"/>
<feBlend mode="normal" in2="effect1_dropShadow_365_1746" result="effect2_dropShadow_365_1746"/>
<feBlend mode="normal" in="SourceGraphic" in2="effect2_dropShadow_365_1746" result="shape"/>
</filter>
<filter id="filter1_dd_365_1746" x="335" y="0" width="210" height="188" filterUnits="userSpaceOnUse" color-interpolation-filters="sRGB">
<feFlood flood-opacity="0" result="BackgroundImageFix"/>
<feColorMatrix in="SourceAlpha" type="matrix" values="0 0 0 0 0 0 0 0 0 0 0 0 0 0 0 0 0 0 127 0" result="hardAlpha"/>
<feOffset dy="1"/>
<feGaussianBlur stdDeviation="2"/>
<feComposite in2="hardAlpha" operator="out"/>
<feColorMatrix type="matrix" values="0 0 0 0 0.0470588 0 0 0 0 0.0470588 0 0 0 0 0.0509804 0 0 0 0.05 0"/>
<feBlend mode="normal" in2="BackgroundImageFix" result="effect1_dropShadow_365_1746"/>
<feColorMatrix in="SourceAlpha" type="matrix" values="0 0 0 0 0 0 0 0 0 0 0 0 0 0 0 0 0 0 127 0" result="hardAlpha"/>
<feOffset dy="1"/>
<feGaussianBlur stdDeviation="2"/>
<feComposite in2="hardAlpha" operator="out"/>
<feColorMatrix type="matrix" values="0 0 0 0 0.0470588 0 0 0 0 0.0470588 0 0 0 0 0.0509804 0 0 0 0.1 0"/>
<feBlend mode="normal" in2="effect1_dropShadow_365_1746" result="effect2_dropShadow_365_1746"/>
<feBlend mode="normal" in="SourceGraphic" in2="effect2_dropShadow_365_1746" result="shape"/>
</filter>
<filter id="filter2_dd_365_1746" x="0" y="102.276" width="210" height="188" filterUnits="userSpaceOnUse" color-interpolation-filters="sRGB">
<feFlood flood-opacity="0" result="BackgroundImageFix"/>
<feColorMatrix in="SourceAlpha" type="matrix" values="0 0 0 0 0 0 0 0 0 0 0 0 0 0 0 0 0 0 127 0" result="hardAlpha"/>
<feOffset dy="1"/>
<feGaussianBlur stdDeviation="2"/>
<feComposite in2="hardAlpha" operator="out"/>
<feColorMatrix type="matrix" values="0 0 0 0 0.0470588 0 0 0 0 0.0470588 0 0 0 0 0.0509804 0 0 0 0.05 0"/>
<feBlend mode="normal" in2="BackgroundImageFix" result="effect1_dropShadow_365_1746"/>
<feColorMatrix in="SourceAlpha" type="matrix" values="0 0 0 0 0 0 0 0 0 0 0 0 0 0 0 0 0 0 127 0" result="hardAlpha"/>
<feOffset dy="1"/>
<feGaussianBlur stdDeviation="2"/>
<feComposite in2="hardAlpha" operator="out"/>
<feColorMatrix type="matrix" values="0 0 0 0 0.0470588 0 0 0 0 0.0470588 0 0 0 0 0.0509804 0 0 0 0.1 0"/>
<feBlend mode="normal" in2="effect1_dropShadow_365_1746" result="effect2_dropShadow_365_1746"/>
<feBlend mode="normal" in="SourceGraphic" in2="effect2_dropShadow_365_1746" result="shape"/>
</filter>
<filter id="filter3_dd_365_1746" x="220" y="102.276" width="210" height="188" filterUnits="userSpaceOnUse" color-interpolation-filters="sRGB">
<feFlood flood-opacity="0" result="BackgroundImageFix"/>
<feColorMatrix in="SourceAlpha" type="matrix" values="0 0 0 0 0 0 0 0 0 0 0 0 0 0 0 0 0 0 127 0" result="hardAlpha"/>
<feOffset dy="1"/>
<feGaussianBlur stdDeviation="2"/>
<feComposite in2="hardAlpha" operator="out"/>
<feColorMatrix type="matrix" values="0 0 0 0 0.0470588 0 0 0 0 0.0470588 0 0 0 0 0.0509804 0 0 0 0.05 0"/>
<feBlend mode="normal" in2="BackgroundImageFix" result="effect1_dropShadow_365_1746"/>
<feColorMatrix in="SourceAlpha" type="matrix" values="0 0 0 0 0 0 0 0 0 0 0 0 0 0 0 0 0 0 127 0" result="hardAlpha"/>
<feOffset dy="1"/>
<feGaussianBlur stdDeviation="2"/>
<feComposite in2="hardAlpha" operator="out"/>
<feColorMatrix type="matrix" values="0 0 0 0 0.0470588 0 0 0 0 0.0470588 0 0 0 0 0.0509804 0 0 0 0.1 0"/>
<feBlend mode="normal" in2="effect1_dropShadow_365_1746" result="effect2_dropShadow_365_1746"/>
<feBlend mode="normal" in="SourceGraphic" in2="effect2_dropShadow_365_1746" result="shape"/>
</filter>
<filter id="filter4_dd_365_1746" x="440" y="102.276" width="210" height="188" filterUnits="userSpaceOnUse" color-interpolation-filters="sRGB">
<feFlood flood-opacity="0" result="BackgroundImageFix"/>
<feColorMatrix in="SourceAlpha" type="matrix" values="0 0 0 0 0 0 0 0 0 0 0 0 0 0 0 0 0 0 127 0" result="hardAlpha"/>
<feOffset dy="1"/>
<feGaussianBlur stdDeviation="2"/>
<feComposite in2="hardAlpha" operator="out"/>
<feColorMatrix type="matrix" values="0 0 0 0 0.0470588 0 0 0 0 0.0470588 0 0 0 0 0.0509804 0 0 0 0.05 0"/>
<feBlend mode="normal" in2="BackgroundImageFix" result="effect1_dropShadow_365_1746"/>
<feColorMatrix in="SourceAlpha" type="matrix" values="0 0 0 0 0 0 0 0 0 0 0 0 0 0 0 0 0 0 127 0" result="hardAlpha"/>
<feOffset dy="1"/>
<feGaussianBlur stdDeviation="2"/>
<feComposite in2="hardAlpha" operator="out"/>
<feColorMatrix type="matrix" values="0 0 0 0 0.0470588 0 0 0 0 0.0470588 0 0 0 0 0.0509804 0 0 0 0.1 0"/>
<feBlend mode="normal" in2="effect1_dropShadow_365_1746" result="effect2_dropShadow_365_1746"/>
<feBlend mode="normal" in="SourceGraphic" in2="effect2_dropShadow_365_1746" result="shape"/>
</filter>
</defs>
</svg>
